/* XPM */
static char * 7Seg_15_xpm[] = {
"50 45 218 2",
"  	c None",
". 	c #9E9E9E",
"+ 	c #9D9D9D",
"@ 	c #9C9C9C",
"# 	c #9BA09B",
"$ 	c #8BA98B",
"% 	c #82AF82",
"& 	c #7EB17E",
"* 	c #81AF81",
"= 	c #8AAA8A",
"- 	c #9AA09A",
"; 	c #99A199",
"> 	c #89AA89",
", 	c #90A690",
"' 	c #9A9A9A",
") 	c #979797",
"! 	c #969696",
"~ 	c #989898",
"{ 	c #9B9B9B",
"] 	c #36DC36",
"^ 	c #0BF70B",
"/ 	c #00FF00",
"( 	c #19EF19",
"_ 	c #44D444",
": 	c #8EA88E",
"< 	c #8DA88D",
"[ 	c #6CBC6C",
"} 	c #2BE42B",
"| 	c #56CA56",
"1 	c #999999",
"2 	c #999D99",
"3 	c #88AA88",
"4 	c #27E727",
"5 	c #28E628",
"6 	c #59C859",
"7 	c #92A692",
"8 	c #7FB07F",
"9 	c #52CB52",
"0 	c #12F412",
"a 	c #25E725",
"b 	c #59C659",
"c 	c #8EA68E",
"d 	c #71B971",
"e 	c #21EB21",
"f 	c #37DD37",
"g 	c #95A395",
"h 	c #71B871",
"i 	c #3ED83E",
"j 	c #0EF60E",
"k 	c #03FD03",
"l 	c #13F213",
"m 	c #68BE68",
"n 	c #91A491",
"o 	c #55CA55",
"p 	c #18F018",
"q 	c #49D249",
"r 	c #85AD85",
"s 	c #9AA19A",
"t 	c #64C164",
"u 	c #29E529",
"v 	c #09F909",
"w 	c #04FC04",
"x 	c #20EA20",
"y 	c #57C957",
"z 	c #75B675",
"A 	c #3ED73E",
"B 	c #58C858",
"C 	c #99A099",
"D 	c #9D9E9D",
"E 	c #56C956",
"F 	c #14F114",
"G 	c #29E629",
"H 	c #6CBB6C",
"I 	c #69BE69",
"J 	c #27E627",
"K 	c #0BF80B",
"L 	c #05FB05",
"M 	c #11F411",
"N 	c #63C263",
"O 	c #1CED1C",
"P 	c #4DCF4D",
"Q 	c #5EC55E",
"R 	c #10F310",
"S 	c #05FC05",
"T 	c #0DF70D",
"U 	c #28E528",
"V 	c #6EBB6E",
"W 	c #96A396",
"X 	c #3ADB3A",
"Y 	c #24E924",
"Z 	c #5FC35F",
"` 	c #88AB88",
" .	c #9D9F9D",
"..	c #98A098",
"+.	c #52CC52",
"@.	c #15F215",
"#.	c #41D741",
"$.	c #79B579",
"%.	c #8FA78F",
"&.	c #6ABD6A",
"*.	c #2EE22E",
"=.	c #30E130",
"-.	c #7FB17F",
";.	c #93A493",
">.	c #98A198",
",.	c #84AE84",
"'.	c #44D544",
").	c #83AE83",
"!.	c #53CA53",
"~.	c #22E922",
"{.	c #91A591",
"].	c #92A592",
"^.	c #33DF33",
"/.	c #26E826",
"(.	c #76B676",
"_.	c #91A691",
":.	c #3DD83D",
"<.	c #17F017",
"[.	c #01FE01",
"}.	c #43D543",
"|.	c #5AC65A",
"1.	c #2CE42C",
"2.	c #7BB37B",
"3.	c #25E625",
"4.	c #4FCE4F",
"5.	c #8BAA8B",
"6.	c #45D345",
"7.	c #1BEE1B",
"8.	c #08FA08",
"9.	c #38DC38",
"0.	c #75B775",
"a.	c #10F510",
"b.	c #06FB06",
"c.	c #2FE22F",
"d.	c #86AC86",
"e.	c #30E030",
"f.	c #0DF60D",
"g.	c #01FF01",
"h.	c #18EF18",
"i.	c #49D149",
"j.	c #97A297",
"k.	c #5DC55D",
"l.	c #3CD93C",
"m.	c #1CEE1C",
"n.	c #2AE52A",
"o.	c #5CC75C",
"p.	c #7AB37A",
"q.	c #4AD04A",
"r.	c #0AF90A",
"s.	c #67BF67",
"t.	c #17F117",
"u.	c #02FE02",
"v.	c #6BBC6B",
"w.	c #38DB38",
"x.	c #83AD83",
"y.	c #9C9F9C",
"z.	c #5BC65B",
"A.	c #0FF60F",
"B.	c #70B970",
"C.	c #60C460",
"D.	c #4BD04B",
"E.	c #12F212",
"F.	c #02FD02",
"G.	c #08F908",
"H.	c #7AB47A",
"I.	c #0FF50F",
"J.	c #3CDA3C",
"K.	c #31E031",
"L.	c #32DF32",
"M.	c #26E726",
"N.	c #20EB20",
"O.	c #8AA98A",
"P.	c #4FCD4F",
"Q.	c #62C362",
"R.	c #3ADA3A",
"S.	c #6FBA6F",
"T.	c #98A298",
"U.	c #4CCF4C",
"V.	c #65BF65",
"W.	c #4ECF4E",
"X.	c #97A197",
"Y.	c #6EBA6E",
"Z.	c #87AC87",
"`.	c #5FC45F",
" +	c #72B872",
".+	c #96A196",
"++	c #42D542",
"@+	c #1FEB1F",
"#+	c #09FA09",
"$+	c #40D640",
"%+	c #4ECD4E",
"&+	c #62C262",
"*+	c #8EA78E",
"=+	c #53CB53",
"-+	c #64C064",
";+	c #4DCE4D",
">+	c #79B479",
",+	c #34DE34",
"'+	c #13F313",
")+	c #45D445",
"!+	c #1BEC1B",
"~+	c #0AF80A",
"{+	c #68BF68",
"]+	c #07FB07",
"^+	c #1EEB1E",
"/+	c #989B98",
"(+	c #86AA86",
"_+	c #53CC53",
":+	c #34DF34",
"<+	c #6BBD6B",
"[+	c #999E99",
"}+	c #75B575",
"|+	c #47D247",
"1+	c #78B578",
"2+	c #14F214",
"3+	c #7DB17D",
"4+	c #82AE82",
"5+	c #92A492",
". . . . . . . . . . . . . . . . . . . . . . . . . . . . . . . . . . . . . . . . . . . . . . . . . . ",
". . . . . . . . . . . . . . . . + @ @ @ @ @ @ @ @ @ @ @ @ @ @ @ @ @ @ @ @ @ + + # $ % & & & & * = - ",
". . . . . . . . . . . . ; > , + ' ) ! ! ! ! ! ! ! ! ! ! ! ! ! ! ! ! ! ! ! ) ~ { , ] ^ / / / / ( _ : ",
". . . . . . . . . . . < [ } | . + ' ! ! ! ! ! ! ! ! ! ! ! ! ! ! ! ! ! ! ! ) 1 2 3 4 / / / / / 5 6 7 ",
". . . . . . . . . . . 8 9 0 a b = @ ~ ) ! ! ! ! ! ! ! ! ! ! ! ! ! ! ! ! ! ) { c d e / / / / / f [ g ",
". . . . . . . . . . . h i j k l m n + ~ ! ! ! ! ! ! ! ! ! ! ! ! ! ! ! ! ! ) + * o p / / / / / q r s ",
". . . . . . . . . . . t u v / w x y . @ ' 1 1 1 1 1 1 1 1 1 1 1 1 1 1 1 1 ' + z A 0 / / / / / B C D ",
". . . . . . . . . . . E F w / / / G H < . . . . . . . . . . . . . . . . . . . I J K / / / L M N . . ",
". . . . . . . . . . . q / / / / / O P % . . . . . . . . . . . . . . . . . . . Q R S / / / T U V . . ",
". . . . . . . . . W * X / / / / / Y Z ` . . . . . . . . . . . . . . . . .  ...+./ / / / / @.#.$.. . ",
". . . . . . . . . %.&.*./ / / / / =.-.;.. . . . . . . . . . . . . . . . . >.,.'./ / / / / O B ).. . ",
". . . . . . . . . ` !.~./ / / / / f {.- . . . . . . . . . . . . . . . . . ].&.^./ / / / / /.(._.. . ",
". . . . . . . . . % :.<./ / / [.v }.. . . . . . . . . . . . . . . . . . . %.|.U / / / / / 1.3 ; . . ",
". . . . . . . . . 2.3.^ / / / k <.4.. . . . . . . . . . . . . . . . . . . 5.6.7./ / / / 8.9.g . . . ",
". . . . . . . . . 0.a./ / / / b.c.N . . . . . . . . . . . . . . . . . . . d.e.f./ / / g.h.i.j.. . . ",
". . . . . . . . = k.T / / / / 8.l.V . . . . . . . . . . . . . . . . . . . % m./ / / / [.n.o.>.. . . ",
". . . . . . . . p.q.r./ / / / r.q.p.. . . . . . . . . . . . . . . . . . < s.t./ / / / u.i d - . . . ",
". . . . . . . . v.w.8./ / / / T k.= . . . . . . . . . . . . . . . . . . 8 9 0 / / / / u.4.x.y.. . . ",
". . . . . . . . z.a S / / / / A.B.- . . . . . . . . . . . . . . . . . . h i j / / / / k C.g D . . . ",
". . . . . . . . D.E.F./ / / G.x H.. . . . . . . . . . . . . . . . . . . t u v / / / S I.[ . . . . . ",
". . . . . . . . J./ / / / / M K.-.0.L.M.N.N.N.N.N.N.N.N.N.N.N.N.N.}.&.j.E F w / / / j J 0.. . . . . ",
". . . . . . j.O.z.i i i i i P.&.%.Q./ / / / / / / / / / / / / / / R.S.T.&.i i i i i U.V.= . . . . . ",
". . . . . . . . . . . . . . . # d.W./ / / / / / / / / / / / / / / W.d.# . . . . . . . . . . . . . . ",
". . . . . . + @ { ' ' ' ' ' { X.Y.R./ / / / / / / / / / / / / / / Q.j.Z.B.`.`.`.`.`. +{.- . . . . . ",
". . . . . . @ ) ! ! ! ! ! ! 1 .+&.++@+@+@+@+@+@+@+@+@+@+@+@+@+a L.0.` !.~./ / / / / f {.- . . . . . ",
". . . . . . { ! ! ! ! ! ! ! ' . . . . . . . . . . . . . . . . . . . % :.<./ / / [.v }.. . . . . . . ",
". . . . . + { ! ! ! ! ! ! ) ' . . . . . . . . . . . . . . . . . . . 2.3.^ / / / k <.4.. . . . . . . ",
". . . . . + ' ! ! ! ! ! ) ~ { . . . . . . . . . . . . . . . . . . . 0.a./ / / / b.c.N . . . . . . . ",
". . . . . { 1 ! ! ! ! ! ) 1 @ . . . . . . . . . . . . . . . . . . = k.T / / / / #+$+ +. . . . . . . ",
". . . . . ' ~ ! ! ! ! ! ) { + . . . . . . . . . . . . . . . . . . p.q.r./ / / / K %+& . . . . . . . ",
". . . . . ' ) ! ! ! ! ! ) @ + . . . . . . . . . . . . . . . . . . v.w.8./ / / / T &+*+. . . . . . . ",
". . . . . ~ ! ! ! ! ! ! ) + . . . . . . . . . . . . . . . . . . . z.a S / / / / a.0.. . . . . . . . ",
". . . . . ~ ! ! ! ! ! ) ~ + . . . . . . . . . . . . . . . . . . . D.E.F./ / / K a 2.. . . . . . . . ",
". . . + @ ~ ! ! ! ! ! ~ ' + . . . . . . . . . . . . . . . . . . . J./ / / / / <.:.% . . . . . . . . ",
". . . @ ' ) ! ! ! ! ! ~ { + . . . . . . . . . . . . . . . . . ;.-.=./ / / / / ~.=+` . . . . . . . . ",
". . . @ 1 ) ! ! ! ! ! 1 @ . . . . . . . . . . . . . . . . . . = V.M./ / / / / } -+< . . . . . . . . ",
". . . { ~ ) ! ! ! ! ! ' + . . . . . . . . . . . . . . . . . . % ;+O / / / / / X * W . . . . . . . . ",
". . . { ) ! ! ! ! ) ' + . . . . . . . . . . . . . . . . . . . >+,+'+/ / / / / )+>.y.. . . . . . . . ",
". . . { ! ! ! ! 1 @ . @ ' 1 1 1 1 1 1 1 1 1 1 1 1 1 1 1 ' { + B.!+v / / / u.~+4.. . . . . . . . . . ",
". . @ 1 ! ! ) ' @ + ' ~ ! ! ! ! ! ! ! ! ! ! ! ! ! ! ! ! ) 1 @ {+k / / / / ]+^+k.. . . . . . . . . . ",
". + { ~ ! 1 { . @ ' ! ! ! ! ! ! ! ! ! ! ! ! ! ! ! ! ! ! ~ /+(+_+k / / / / K :+<+. . . . . . . . . . ",
". + ' 1 ' + + @ ~ ! ! ! ! ! ! ! ! ! ! ! ! ! ! ! ! ! ! ! 1 [+}+++u./ / / / a.|+1+. . . . . . . . . . ",
". . @ + . + { ! ! ! ! ! ! ! ! ! ! ! ! ! ! ! ! ! ! ! ! ! 1 ..-+L.u./ / / / 2+k.d.. . . . . . . . . . ",
". . . . . + + @ @ @ @ @ @ @ @ @ @ @ @ @ @ @ @ @ @ @ @ @ +  ., d.3+3+3+3+3+4+5+- . . . . . . . . . . ",
". . . . . . . . . . . . . . . . . . . . . . . . . . . . . . . . . . . . . . . . . . . . . . . . . . "};
