/* XPM */
static char * 7SegOff_xpm[] = {
"50 45 10 1",
" 	c None",
".	c #9E9E9E",
"+	c #9D9D9D",
"@	c #9C9C9C",
"#	c #9A9A9A",
"$	c #979797",
"%	c #969696",
"&	c #989898",
"*	c #9B9B9B",
"=	c #999999",
"..................................................",
"................+@@@@@@@@@@@@@@@@@@@@@++.+@@@@@@@.",
".............@++#$%%%%%%%%%%%%%%%%%%%$&*+&%%%%%$=+",
"...........+*&#.+#%%%%%%%%%%%%%%%%%%%$=*@&%%%%%&#+",
"...........@=$$#+@&$%%%%%%%%%%%%%%%%%$*@*&%%%%%&*+",
"...........*&$%$#@+&%%%%%%%%%%%%%%%%%$+@#$%%%%%=@.",
"...........*&%%%$#.@#================#+@=$%%%%%#+.",
"...........#%%%%%&*+...................*$%%%%%%*..",
"...........#%%%%%$=@...................#%%%%%%$*..",
".........+@=%%%%%&#+..................+#%%%%%$=@..",
".........+#&%%%%%&@+..................@=%%%%%$#@..",
".........+#$%%%%%=+..................+*&%%%%%&@+..",
".........@=$%%%%%=...................+#&%%%%%&+...",
".........@$%%%%%$#...................+=$%%%%%&....",
".........@$%%%%%&*...................+$%%%%%$=....",
"........+#$%%%%%&*...................+$%%%%%&#....",
"........@=%%%%%%=@..................+*$%%%%%=*....",
"........*&%%%%%$#+..................@=$%%%%%=@....",
"........#$%%%%%$*+..................*&$%%%%%*+....",
"........=%%%%%%$@...................*&%%%%%%*.....",
"........=%%%%%%&@@&$$$$$$$$$$$$$$=*.#%%%%%%$@.....",
"......+@#======#+*%%%%%%%%%%%%%%%&*.*======#+.....",
"................+#%%%%%%%%%%%%%%%#+...............",
"......+@*#####*+*&%%%%%%%%%%%%%%%*+@*#####*+......",
"......@$%%%%%%=+*=$$$$$$$$$$$$$$&@+#$%%%%%=+......",
"......*%%%%%%%#...................@=$%%%%%=.......",
".....+*%%%%%%$#...................@$%%%%%$#.......",
".....+#%%%%%$&*...................@$%%%%%&*.......",
".....*=%%%%%$=@..................+#$%%%%%&*.......",
".....#&%%%%%$*+..................@=%%%%%%=@.......",
".....#$%%%%%$@+..................*&%%%%%$#+.......",
".....&%%%%%%$+...................#$%%%%%$@........",
".....&%%%%%$&+...................=%%%%%%$@........",
"...+@&%%%%%&#+...................=%%%%%$=@........",
"...@#$%%%%%&*+.................+@&%%%%%$#+........",
"...@=$%%%%%=@..................+#&%%%%%&#+........",
"...*&$%%%%%#+..................@=$%%%%%=@+........",
"...*$%%%%$#+...................@&$%%%%%=+.........",
"...*%%%%=@.@#===============#*+*%%%%%%%#..........",
"..@=%%$#@+#&%%%%%%%%%%%%%%%%$=@*%%%%%%$#..........",
".+*&%=*.@#%%%%%%%%%%%%%%%%%%&#*#%%%%%$&*..........",
".+#=#++@&%%%%%%%%%%%%%%%%%%%=@*=%%%%%$&*..........",
"..@+.+*%%%%%%%%%%%%%%%%%%%%%=+#&%%%%%$#@..........",
".....++@@@@@@@@@@@@@@@@@@@@@+.+@@@@@@@++..........",
".................................................."};
