/* XPM */
static char * h2Up_xpm[] = {
"38 38 49 1",
" 	c None",
".	c #000000",
"+	c #161616",
"@	c #2C2C2C",
"#	c #020202",
"$	c #646464",
"%	c #D7D7D7",
"&	c #E8E8E8",
"*	c #767676",
"=	c #070707",
"-	c #272727",
";	c #E2E2E2",
">	c #CBCBCB",
",	c #4F4F4F",
"'	c #B1B1B1",
")	c #F4F4F4",
"!	c #444444",
"~	c #3F3F3F",
"{	c #E7E7E7",
"]	c #656565",
"^	c #404040",
"/	c #FFFFFF",
"(	c #737373",
"_	c #0B0B0B",
":	c #292929",
"<	c #111111",
"[	c #F9F9F9",
"}	c #545454",
"|	c #090909",
"1	c #6D6D6D",
"2	c #A4A4A4",
"3	c #0A0A0A",
"4	c #1B1B1B",
"5	c #A0A0A0",
"6	c #E9E9E9",
"7	c #828282",
"8	c #0D0D0D",
"9	c #0C0C0C",
"0	c #AEAEAE",
"a	c #F2F2F2",
"b	c #6E6E6E",
"c	c #121212",
"d	c #080808",
"e	c #F7F7F7",
"f	c #CFCFCF",
"g	c #CDCDCD",
"h	c #5F5F5F",
"i	c #454545",
"j	c #4C4C4C",
"......................................",
"......................................",
"......................................",
"......................................",
"......................................",
"......................................",
"......................................",
"......................................",
"......................................",
"......................................",
"......................................",
"......................................",
"......................................",
"......................................",
"..................+@+.................",
"................#$%&%*=...............",
"................-;>,')!...............",
"................~{].^/(...............",
"................_:<#*[}...............",
"..................|1{23...............",
".................45678................",
"................90ab+cd...............",
"................!e)fggh...............",
"................i22222j...............",
"......................................",
"......................................",
"......................................",
"......................................",
"......................................",
"......................................",
"......................................",
"......................................",
"......................................",
"......................................",
"......................................",
"......................................",
"......................................",
"......................................"};
