/* XPM */
static char * h3Up_xpm[] = {
"38 38 54 1",
" 	c None",
".	c #000000",
"+	c #161616",
"@	c #2C2C2C",
"#	c #121212",
"$	c #050505",
"%	c #727272",
"&	c #D7D7D7",
"*	c #E8E8E8",
"=	c #D4D4D4",
"-	c #606060",
";	c #020202",
">	c #333333",
",	c #EFEFEF",
"'	c #B0B0B0",
")	c #4B4B4B",
"!	c #D1D1D1",
"~	c #DDDDDD",
"{	c #212121",
"]	c #343434",
"^	c #BBBBBB",
"/	c #9B9B9B",
"(	c #EAEAEA",
"_	c #2D2D2D",
":	c #0F0F0F",
"<	c #696969",
"[	c #DEDEDE",
"}	c #A4A4A4",
"|	c #080808",
"1	c #F1F1F1",
"2	c #ACACAC",
"3	c #090909",
"4	c #131313",
"5	c #0B0B0B",
"6	c #767676",
"7	c #FCFCFC",
"8	c #5E5E5E",
"9	c #545454",
"0	c #CFCFCF",
"a	c #444444",
"b	c #535353",
"c	c #FFFFFF",
"d	c #707070",
"e	c #2B2B2B",
"f	c #E5E5E5",
"g	c #DFDFDF",
"h	c #9E9E9E",
"i	c #E9E9E9",
"j	c #353535",
"k	c #C3C3C3",
"l	c #DADADA",
"m	c #C4C4C4",
"n	c #565656",
"o	c #030303",
"......................................",
"......................................",
"......................................",
"......................................",
"......................................",
"......................................",
"......................................",
"......................................",
"......................................",
"......................................",
"......................................",
"......................................",
"......................................",
"......................................",
"..................+@#.................",
"................$%&*=-;...............",
"................>,')!~{...............",
"................]^>./(_...............",
"..................:<[}|...............",
"..................{^12#...............",
"................34$5678...............",
"................90a.bcd...............",
"................efgh[ij...............",
"................;9klmno...............",
"..................;#;.................",
"......................................",
"......................................",
"......................................",
"......................................",
"......................................",
"......................................",
"......................................",
"......................................",
"......................................",
"......................................",
"......................................",
"......................................",
"......................................"};
