/* XPM */
static char * h7Seg_28_xpm[] = {
"25 23 173 2",
"  	c None",
". 	c #9E9E9E",
"+ 	c #96A296",
"@ 	c #91A591",
"# 	c #97A297",
"$ 	c #9B9F9B",
"% 	c #9D9D9D",
"& 	c #98A198",
"* 	c #8CA88C",
"= 	c #7AB47A",
"- 	c #4AD04A",
"; 	c #22E922",
"> 	c #05FC05",
", 	c #00FF00",
"' 	c #02FD02",
") 	c #52CC52",
"! 	c #84A984",
"~ 	c #949894",
"{ 	c #969696",
"] 	c #979797",
"^ 	c #999999",
"/ 	c #9C9F9C",
"( 	c #86AB86",
"_ 	c #5BC65B",
": 	c #1CED1C",
"< 	c #59C859",
"[ 	c #5EC45E",
"} 	c #0EF50E",
"| 	c #01FE01",
"1 	c #03FD03",
"2 	c #62C062",
"3 	c #959D95",
"4 	c #969796",
"5 	c #9B9B9B",
"6 	c #9AA09A",
"7 	c #75B675",
"8 	c #41D541",
"9 	c #02FE02",
"0 	c #34DE34",
"a 	c #6BBC6B",
"b 	c #68BE68",
"c 	c #62C262",
"d 	c #64C164",
"e 	c #67BE67",
"f 	c #88A788",
"g 	c #989898",
"h 	c #9C9C9C",
"i 	c #99A199",
"j 	c #30E130",
"k 	c #19EF19",
"l 	c #47D347",
"m 	c #92A592",
"n 	c #50CC50",
"o 	c #1FEB1F",
"p 	c #27E627",
"q 	c #58C858",
"r 	c #94A494",
"s 	c #9A9A9A",
"t 	c #96A396",
"u 	c #3FD73F",
"v 	c #0FF50F",
"w 	c #36DD36",
"x 	c #69BD69",
"y 	c #8FA68F",
"z 	c #2EE22E",
"A 	c #00FE00",
"B 	c #44D544",
"C 	c #7AB37A",
"D 	c #78B478",
"E 	c #26E726",
"F 	c #8BA88B",
"G 	c #86AC86",
"H 	c #60C360",
"I 	c #1FEC1F",
"J 	c #5FC45F",
"K 	c #9A9F9A",
"L 	c #7CB37C",
"M 	c #47D247",
"N 	c #17F117",
"O 	c #07FA07",
"P 	c #14F114",
"Q 	c #4BD04B",
"R 	c #3ADA3A",
"S 	c #37DC37",
"T 	c #47D147",
"U 	c #6BBA6B",
"V 	c #99A099",
"W 	c #97A197",
"X 	c #61C261",
"Y 	c #2FE12F",
"Z 	c #06FB06",
"` 	c #2EE12E",
" .	c #62C162",
"..	c #69BE69",
"+.	c #1EEB1E",
"@.	c #11F411",
"#.	c #4ECE4E",
"$.	c #46D246",
"%.	c #35DD35",
"&.	c #32DF32",
"*.	c #38DB38",
"=.	c #5DC45D",
"-.	c #54C954",
";.	c #2DE12D",
">.	c #17F017",
",.	c #4AD14A",
"'.	c #7CB27C",
").	c #9D9E9D",
"!.	c #59C759",
"~.	c #22EA22",
"{.	c #88AB88",
"].	c #66C066",
"^.	c #0BF70B",
"/.	c #04FC04",
"(.	c #84AE84",
"_.	c #87AA87",
":.	c #2AE42A",
"<.	c #9D9F9D",
"[.	c #94A294",
"}.	c #5AC75A",
"|.	c #24E924",
"1.	c #70B970",
"2.	c #8EA88E",
"3.	c #74B774",
"4.	c #3CD93C",
"5.	c #33DF33",
"6.	c #93A393",
"7.	c #80AF80",
"8.	c #49D149",
"9.	c #2BE42B",
"0.	c #93A493",
"a.	c #0DF60D",
"b.	c #42D542",
"c.	c #9BA09B",
"d.	c #98A298",
"e.	c #6EBA6E",
"f.	c #05FB05",
"g.	c #35DE35",
"h.	c #95A395",
"i.	c #8FA78F",
"j.	c #4DCE4D",
"k.	c #53CB53",
"l.	c #5CC65C",
"m.	c #01FF01",
"n.	c #16F016",
"o.	c #8CA98C",
"p.	c #39DA39",
"q.	c #11F311",
"r.	c #67BF67",
"s.	c #19EE19",
"t.	c #25E725",
"u.	c #57C957",
"v.	c #89AB89",
"w.	c #2DE22D",
"x.	c #65C065",
"y.	c #63C163",
"z.	c #76B676",
"A.	c #80B080",
"B.	c #30E030",
"C.	c #0AF80A",
"D.	c #89AA89",
"E.	c #33DE33",
"F.	c #48D148",
"G.	c #6ABC6A",
"H.	c #45D445",
"I.	c #24E824",
"J.	c #0BF80B",
"K.	c #1DED1D",
"L.	c #56CA56",
"M.	c #8AA98A",
"N.	c #90A690",
"O.	c #94A394",
"P.	c #92A492",
". . . . . . . . + @ @ @ @ @ @ @ @ @ @ # $ % % % % ",
". . . . . & * = - ; > , , , , , , , ' ) ! ~ { ] ^ ",
". . . . / ( _ : < [ } | , , , , , , 1 2 3 4 { ] 5 ",
". . . . 6 7 8 9 0 _ a b c c c c c d e f ^ { { g h ",
". . . . i c j | k l m . . . . . . . . 5 ^ { { g % ",
". . . . # n o | p q r . . . . . . . . s ] { ] ^ % ",
". . . . t u v , w x # . . . . . . . . ^ ] { g s % ",
". . . $ y z A , B C i . . . . . . . . ^ { { g 5 % ",
". . . @ D E , , ) F $ . . . . . . % h g { { ^ h . ",
". . . G H I , | J K . . . . . . . % 5 g { { s % . ",
". . . L M N O P Q [ R 0 0 0 0 S T U s ] { { 5 . . ",
". . . / V W # & X Y Z , , , , Z `  .% % % % . . . ",
". . . ..+.@.; #.#.$.%.&.&.&.&.*.=.-.;.>.o ,.'.. . ",
". ).6 !.| , ~. .{.. . . . . . . . ].^./.: !.(.. . ",
". 6 _.Q , , :.C @ . . . . . . <.[.}., , |.1.2.. . ",
". + 3.4., , 5.6.$ . . . . . . 6 7.8., , 9.( & . . ",
". 0.X ` | a.b.c.. . . . . . . d.e.R , f.g.h.. . . ",
". i.j.o 1 o k./ . . . . . . . h.l.9.m.n.M # . . . ",
". o.p.q./.0 r./ . . . . . . . m M s.| t.u.d.. . . ",
". v.p P w.x.7 d y.y.y.y.y.y.z.A.B.C.9 w ..i . . . ",
"D.C E.F.7.w a., , , , , , , w G.I , 9 H.D c.. . . ",
"( _.F c I.J., , , , , , , , 5.d K., 1 L.M./ . . . ",
". . / + N.N.N.N.N.N.N.N.N.N.O.& P.N.N.& ).. . . . "};
