/* XPM */
static char * hPlusOn_xpm[] = {
"16 23 257 2",
"  	c None",
". 	c #000000",
"+ 	c #9B9B9B",
"@ 	c #60C160",
"# 	c #58C658",
"$ 	c #00FF00",
"% 	c #4ECD4E",
"& 	c #4DCD4D",
"* 	c #85A985",
"= 	c #6EB86E",
"- 	c #5FC25F",
"; 	c #4FCC4F",
"> 	c #11F411",
", 	c #4ACF4A",
"' 	c #22E922",
") 	c #64BF64",
"! 	c #2DE22D",
"~ 	c #7FAD7F",
"{ 	c #15F215",
"] 	c #1C410A",
"^ 	c #01A82F",
"/ 	c #CC7A06",
"( 	c #01D015",
"_ 	c #1C4624",
": 	c #015211",
"< 	c #212121",
"[ 	c #000000",
"} 	c #000000",
"| 	c #000000",
"1 	c #202121",
"2 	c #000000",
"3 	c #000000",
"4 	c #000000",
"5 	c #C40000",
"6 	c #019B9B",
"7 	c #1C60C1",
"8 	c #0158C6",
"9 	c #C400FF",
"0 	c #014ECD",
"a 	c #1C4DCD",
"b 	c #0185A9",
"c 	c #2A6EB8",
"d 	c #3D5FC2",
"e 	c #2D4FCC",
"f 	c #3B11F4",
"g 	c #3E4ACF",
"h 	c #2C22E9",
"i 	c #2764BF",
"j 	c #292DE2",
"k 	c #217FAD",
"l 	c #7E15F2",
"m 	c #1C1C41",
"n 	c #0101A8",
"o 	c #BCCC7A",
"p 	c #0101D0",
"q 	c #1C1C46",
"r 	c #010152",
"s 	c #202121",
"t 	c #000000",
"u 	c #000000",
"v 	c #000000",
"w 	c #212021",
"x 	c #000000",
"y 	c #000000",
"z 	c #000000",
"A 	c #04C400",
"B 	c #4E019B",
"C 	c #471C60",
"D 	c #440158",
"E 	c #40C400",
"F 	c #48014E",
"G 	c #791C4D",
"H 	c #810185",
"I 	c #3A2A6E",
"J 	c #5C3D5F",
"K 	c #4D2D4F",
"L 	c #493B11",
"M 	c #4E3E4A",
"N 	c #472C22",
"O 	c #572764",
"P 	c #00292D",
"Q 	c #43217F",
"R 	c #4D7E15",
"S 	c #441C1C",
"T 	c #4C0101",
"U 	c #49BCCC",
"V 	c #4E0101",
"W 	c #451C1C",
"X 	c #3D0101",
"Y 	c #212021",
"Z 	c #000000",
"` 	c #000000",
" .	c #000000",
"..	c #212120",
"+.	c #000000",
"@.	c #000000",
"#.	c #000000",
"$.	c #0404C4",
"%.	c #724E01",
"&.	c #3D471C",
"*.	c #434401",
"=.	c #0C40C4",
"-.	c #484801",
";.	c #79791C",
">.	c #818101",
",.	c #4E3A2A",
"'.	c #445C3D",
").	c #4F4D2D",
"!.	c #57493B",
"~.	c #534E3E",
"{.	c #00472C",
"].	c #3D5727",
"^.	c #430029",
"/.	c #3A4321",
"(.	c #3D4D7E",
"_.	c #43441C",
":.	c #3A4C01",
"<.	c #5C49BC",
"[.	c #794E01",
"}.	c #61451C",
"|.	c #413D01",
"1.	c #212120",
"2.	c #000000",
"3.	c #000000",
"4.	c #000000",
"5.	c #212121",
"6.	c #000000",
"7.	c #000000",
"8.	c #000000",
"9.	c #040404",
"0.	c #5C724E",
"a.	c #703D47",
"b.	c #694344",
"c.	c #D80C40",
"d.	c #474848",
"e.	c #797979",
"f.	c #818181",
"g.	c #734E3A",
"h.	c #00445C",
"i.	c #004F4D",
"j.	c #005749",
"k.	c #00534E",
"l.	c #000047",
"m.	c #003D57",
"n.	c #004300",
"o.	c #003A43",
"p.	c #003D4D",
"q.	c #004344",
"r.	c #003A4C",
"s.	c #005C49",
"t.	c #00794E",
"u.	c #006145",
"v.	c #00413D",
"w.	c #212121",
"x.	c #000000",
"y.	c #000000",
"z.	c #000000",
"A.	c #812121",
"B.	c #000000",
"C.	c #000000",
"D.	c #000000",
"E.	c #7B0404",
"F.	c #4A5C72",
"G.	c #F0703D",
"H.	c #FF6943",
"I.	c #FFD80C",
"J.	c #FF4748",
"K.	c #FF7979",
"L.	c #FF8181",
"M.	c #00734E",
"N.	c #000044",
"O.	c #00004F",
"P.	c #000057",
"Q.	c #000053",
"R.	c #000000",
"S.	c #00003D",
"T.	c #000043",
"U.	c #00003A",
"V.	c #00003D",
"W.	c #000043",
"X.	c #00003A",
"Y.	c #01005C",
"Z.	c #000079",
"`.	c #000061",
" +	c #000041",
".+	c #002121",
"++	c #000000",
"@+	c #000000",
"#+	c #000000",
"$+	c #008121",
"%+	c #000000",
"&+	c #000000",
"*+	c #000000",
"=+	c #007B04",
"-+	c #004A5C",
";+	c #00F070",
">+	c #00FF69",
",+	c #00FFD8",
"'+	c #00FF47",
")+	c #00FF79",
"!+	c #00FF81",
"~+	c #000073",
"{+	c #000000",
"]+	c #000000",
"^+	c #000000",
"/+	c #000000",
"(+	c #000000",
"_+	c #000000",
":+	c #000000",
"<+	c #000000",
"[+	c #000000",
"}+	c #000000",
"|+	c #000000",
"1+	c #000100",
"2+	c #000000",
"3+	c #000000",
"4+	c #000000",
"5+	c #000021",
"6+	c #000000",
"7+	c #000000",
"8+	c #000000",
"9+	c #000081",
"0+	c #000000",
"a+	c #000000",
"b+	c #000000",
"c+	c #00007B",
"d+	c #00004A",
"e+	c #0000F0",
"f+	c #0000FF",
"g+	c #0000FF",
"h+	c #0000FF",
"i+	c #0000FF",
"j+	c #0000FF",
"k+	c #000000",
"l+	c #000000",
"m+	c #000000",
"n+	c #000000",
"o+	c #000000",
"p+	c #000000",
"q+	c #000000",
"r+	c #000000",
"s+	c #B00000",
"t+	c #A80000",
"u+	c #030000",
"v+	c #100000",
"w+	c #000001",
"x+	c #000000",
"y+	c #000000",
"z+	c #000000",
"A+	c #000000",
"B+	c #000000",
"C+	c #000000",
"D+	c #000000",
"E+	c #000000",
"F+	c #000000",
"G+	c #000000",
"H+	c #000000",
"+ + + + + + + + + + + + + + + + ",
"+ + + + + + + + + + + + + + + + ",
"+ + + + + + + + + + + + + + + + ",
"+ + + + + + + + + + + + + + + + ",
"+ + + + + + + + + + + + + + + + ",
"+ + + + + + % $ $ % + + + + + + ",
"+ + + + + + % $ $ % + + + + + + ",
"+ + + + + + % $ $ % + + + + + + ",
"+ + + + + + & $ $ & + + + + + + ",
"+ + + = = = - ; ; - = = = + + + ",
"+ + + $ $ $ $ $ $ $ $ $ $ + + + ",
"+ + + $ $ $ $ $ $ $ $ $ $ + + + ",
"+ + + ' ' ' ' ' ' ' ' ' ' + + + ",
"+ + + + + + ) ! ! ) + + + + + + ",
"+ + + + + + & $ $ & + + + + + + ",
"+ + + + + + % $ $ % + + + + + + ",
"+ + + + + + % $ $ % + + + + + + ",
"+ + + + + + + + + + + + + + + + ",
"+ + + + + + + + + + + + + + + + ",
"+ + + + + + + + + + + + + + + + ",
"+ + + + + + + + + + + + + + + + ",
"+ + + + + + + + + + + + + + + + ",
"+ + + + + + + + + + + + + + + + "};
