/* XPM */
static char * 7Seg_27_xpm[] = {
"50 45 223 2",
"  	c None",
". 	c #9E9E9E",
"+ 	c #9BA09B",
"@ 	c #86AC86",
"# 	c #7EB17E",
"$ 	c #80B080",
"% 	c #89AA89",
"& 	c #94A494",
"* 	c #8BA98B",
"= 	c #82AF82",
"- 	c #81AF81",
"; 	c #8AAA8A",
"> 	c #9AA09A",
", 	c #9C9C9C",
"' 	c #9D9D9D",
") 	c #53CB53",
"! 	c #23E923",
"~ 	c #00FF00",
"{ 	c #0FF60F",
"] 	c #42D542",
"^ 	c #74B774",
"/ 	c #90A690",
"( 	c #36DC36",
"_ 	c #0BF70B",
": 	c #19EF19",
"< 	c #44D444",
"[ 	c #8EA88E",
"} 	c #9B9B9B",
"| 	c #989898",
"1 	c #9A9A9A",
"2 	c #9C9F9C",
"3 	c #8FA68F",
"4 	c #58C858",
"5 	c #06FB06",
"6 	c #02FE02",
"7 	c #13F313",
"8 	c #57C857",
"9 	c #7FB07F",
"0 	c #88AA88",
"a 	c #27E727",
"b 	c #28E628",
"c 	c #59C859",
"d 	c #92A692",
"e 	c #999999",
"f 	c #979797",
"g 	c #7CB27C",
"h 	c #43D443",
"i 	c #17F017",
"j 	c #18F018",
"k 	c #6CBC6C",
"l 	c #71B971",
"m 	c #21EB21",
"n 	c #37DD37",
"o 	c #95A395",
"p 	c #969696",
"q 	c #9A9E9A",
"r 	c #94A394",
"s 	c #3BDA3B",
"t 	c #08F908",
"u 	c #01FF01",
"v 	c #1CEE1C",
"w 	c #55CA55",
"x 	c #49D249",
"y 	c #85AD85",
"z 	c #9AA19A",
"A 	c #9D9F9D",
"B 	c #5EC45E",
"C 	c #41D641",
"D 	c #3ED83E",
"E 	c #48D248",
"F 	c #5FC45F",
"G 	c #75B675",
"H 	c #3ED73E",
"I 	c #12F412",
"J 	c #99A099",
"K 	c #9D9E9D",
"L 	c #69BE69",
"M 	c #27E627",
"N 	c #0BF80B",
"O 	c #05FB05",
"P 	c #11F411",
"Q 	c #63C263",
"R 	c #5EC55E",
"S 	c #10F310",
"T 	c #05FC05",
"U 	c #0DF70D",
"V 	c #28E528",
"W 	c #6EBB6E",
"X 	c #98A098",
"Y 	c #52CC52",
"Z 	c #15F215",
"` 	c #41D741",
" .	c #79B579",
"..	c #98A198",
"+.	c #84AE84",
"@.	c #44D544",
"#.	c #1CED1C",
"$.	c #83AE83",
"%.	c #92A592",
"&.	c #6ABD6A",
"*.	c #33DF33",
"=.	c #26E826",
"-.	c #76B676",
";.	c #91A691",
">.	c #8FA78F",
",.	c #5AC65A",
"'.	c #2CE42C",
").	c #99A199",
"!.	c #8BAA8B",
"~.	c #45D345",
"{.	c #1BEE1B",
"].	c #08FA08",
"^.	c #38DC38",
"/.	c #30E030",
"(.	c #0DF60D",
"_.	c #18EF18",
":.	c #49D149",
"<.	c #97A297",
"[.	c #01FE01",
"}.	c #2AE52A",
"|.	c #5CC75C",
"1.	c #8DA88D",
"2.	c #67BF67",
"3.	c #17F117",
"4.	c #52CB52",
"5.	c #4FCE4F",
"6.	c #83AD83",
"7.	c #71B871",
"8.	c #0EF60E",
"9.	c #03FD03",
"0.	c #60C460",
"a.	c #64C164",
"b.	c #29E529",
"c.	c #09F909",
"d.	c #0FF50F",
"e.	c #75B775",
"f.	c #32DF32",
"g.	c #26E726",
"h.	c #20EB20",
"i.	c #43D543",
"j.	c #56C956",
"k.	c #14F114",
"l.	c #04FC04",
"m.	c #62C362",
"n.	c #3ADA3A",
"o.	c #6FBA6F",
"p.	c #98A298",
"q.	c #4CCF4C",
"r.	c #65BF65",
"s.	c #4ECF4E",
"t.	c #97A197",
"u.	c #6EBA6E",
"v.	c #87AC87",
"w.	c #70B970",
"x.	c #72B872",
"y.	c #91A591",
"z.	c #96A196",
"A.	c #1FEB1F",
"B.	c #25E725",
"C.	c #88AB88",
"D.	c #53CA53",
"E.	c #22E922",
"F.	c #3DD83D",
"G.	c #7BB37B",
"H.	c #25E625",
"I.	c #10F510",
"J.	c #2FE22F",
"K.	c #5DC55D",
"L.	c #09FA09",
"M.	c #40D640",
"N.	c #7AB37A",
"O.	c #4AD04A",
"P.	c #0AF90A",
"Q.	c #4ECD4E",
"R.	c #6BBC6B",
"S.	c #38DB38",
"T.	c #62C262",
"U.	c #8EA78E",
"V.	c #5BC65B",
"W.	c #4BD04B",
"X.	c #12F212",
"Y.	c #02FD02",
"Z.	c #3CDA3C",
"`.	c #93A493",
" +	c #7FB17F",
".+	c #30E130",
"++	c #2BE42B",
"@+	c #64C064",
"#+	c #4DCE4D",
"$+	c #3ADB3A",
"%+	c #96A396",
"&+	c #79B479",
"*+	c #34DE34",
"=+	c #45D445",
"-+	c #3FD73F",
";+	c #4FCD4F",
">+	c #68BE68",
",+	c #1BEC1B",
"'+	c #0AF80A",
")+	c #25E825",
"!+	c #5BC55B",
"~+	c #89AB89",
"{+	c #68BF68",
"]+	c #07FB07",
"^+	c #1EEB1E",
"/+	c #0CF80C",
"(+	c #66BF66",
"_+	c #53CC53",
":+	c #34DF34",
"<+	c #6BBD6B",
"[+	c #8AA98A",
"}+	c #04FB04",
"|+	c #35DE35",
"1+	c #47D247",
"2+	c #78B578",
"3+	c #15F115",
"4+	c #07FA07",
"5+	c #3DD93D",
"6+	c #60C260",
"7+	c #14F214",
"8+	c #7DB17D",
"9+	c #82AE82",
"0+	c #92A492",
". . . . . . . . . . . . . . . . . . . . . . . . . . . . . . . . . . . . . . . . . . . . . . . . . . ",
". . . . . . . . . . . . . . . + @ # # # # # # # # # # # # # # # # # # # # $ % & + * = # # # # - ; > ",
". . . . . . . . . . . . . , ' & ) ! ~ ~ ~ ~ ~ ~ ~ ~ ~ ~ ~ ~ ~ ~ ~ ~ ~ ~ ~ { ] ^ / ( _ ~ ~ ~ ~ : < [ ",
". . . . . . . . . . . ' } | 1 2 3 4 5 6 ~ ~ ~ ~ ~ ~ ~ ~ ~ ~ ~ ~ ~ ~ ~ ~ ~ 7 8 9 0 a ~ ~ ~ ~ ~ b c d ",
". . . . . . . . . . . , e f f 1 ' g h i ~ ~ ~ ~ ~ ~ ~ ~ ~ ~ ~ ~ ~ ~ ~ ~ ~ j k - l m ~ ~ ~ ~ ~ n k o ",
". . . . . . . . . . . } | f p f 1 q r s t u ~ ~ ~ ~ ~ ~ ~ ~ ~ ~ ~ ~ ~ ~ ~ v = - w j ~ ~ ~ ~ ~ x y z ",
". . . . . . . . . . . } | p p p f 1 A g B C D D D D D D D D D D D D D D E F / G H I ~ ~ ~ ~ ~ 4 J K ",
". . . . . . . . . . . 1 p p p p p | } ' . . . . . . . . . . . . . . . . . . . L M N ~ ~ ~ O P Q . . ",
". . . . . . . . . . . 1 p p p p p f e , . . . . . . . . . . . . . . . . . . . R S T ~ ~ ~ U V W . . ",
". . . . . . . . . ' , e p p p p p | 1 ' . . . . . . . . . . . . . . . . . A X Y ~ ~ ~ ~ ~ Z `  .. . ",
". . . . . . . . . ' 1 | p p p p p | , ' . . . . . . . . . . . . . . . . . ..+.@.~ ~ ~ ~ ~ #.4 $.. . ",
". . . . . . . . . ' 1 f p p p p p e ' . . . . . . . . . . . . . . . . . . %.&.*.~ ~ ~ ~ ~ =.-.;.. . ",
". . . . . . . . . , e f p p p p p e . . . . . . . . . . . . . . . . . . . >.,.V ~ ~ ~ ~ ~ '.0 ).. . ",
". . . . . . . . . , f p p p p p f 1 . . . . . . . . . . . . . . . . . . . !.~.{.~ ~ ~ ~ ].^.o . . . ",
". . . . . . . . . , f p p p p p | } . . . . . . . . . . . . . . . . . . . @ /.(.~ ~ ~ u _.:.<.. . . ",
". . . . . . . . ' 1 f p p p p p | } . . . . . . . . . . . . . . . . . . . = v ~ ~ ~ ~ [.}.|.... . . ",
". . . . . . . . , e p p p p p p e , . . . . . . . . . . . . . . . . . . 1.2.3.~ ~ ~ ~ 6 D l > . . . ",
". . . . . . . . } | p p p p p f 1 ' . . . . . . . . . . . . . . . . . . 9 4.I ~ ~ ~ ~ 6 5.6.2 . . . ",
". . . . . . . . 1 f p p p p p f } ' . . . . . . . . . . . . . . . . . . 7.D 8.~ ~ ~ ~ 9.0.o K . . . ",
". . . . . . . . e p p p p p p f , . . . . . . . . . . . . . . . . . . . a.b.c.~ ~ ~ T d.k . . . . . ",
". . . . . . . . e p p p p p p | , e.f.g.h.h.h.h.h.h.h.h.h.h.h.h.h.i.&.<.j.k.l.~ ~ ~ 8.M e.. . . . . ",
". . . . . . ' , 1 e e e e e e 1 ' m.~ ~ ~ ~ ~ ~ ~ ~ ~ ~ ~ ~ ~ ~ ~ n.o.p.&.D D D D D q.r.; . . . . . ",
". . . . . . . . . . . . . . . + @ s.~ ~ ~ ~ ~ ~ ~ ~ ~ ~ ~ ~ ~ ~ ~ s.@ + . . . . . . . . . . . . . . ",
". . . . . . ' , } 1 1 1 1 1 } t.u.n.~ ~ ~ ~ ~ ~ ~ ~ ~ ~ ~ ~ ~ ~ ~ m.<.v.w.F F F F F x.y.> . . . . . ",
". . . . . . , f p p p p p p e z.&.] A.A.A.A.A.A.A.A.A.A.A.A.A.B.f.e.C.D.E.~ ~ ~ ~ ~ n y.> . . . . . ",
". . . . . . } p p p p p p p 1 . . . . . . . . . . . . . . . . . . . = F.i ~ ~ ~ [.c.i.. . . . . . . ",
". . . . . ' } p p p p p p f 1 . . . . . . . . . . . . . . . . . . . G.H._ ~ ~ ~ 9.i 5.. . . . . . . ",
". . . . . ' 1 p p p p p f | } . . . . . . . . . . . . . . . . . . . e.I.~ ~ ~ ~ 5 J.Q . . . . . . . ",
". . . . . } e p p p p p f e , . . . . . . . . . . . . . . . . . . ; K.U ~ ~ ~ ~ L.M.x.. . . . . . . ",
". . . . . 1 | p p p p p f } ' . . . . . . . . . . . . . . . . . . N.O.P.~ ~ ~ ~ N Q.# . . . . . . . ",
". . . . . 1 f p p p p p f , ' . . . . . . . . . . . . . . . . . . R.S.].~ ~ ~ ~ U T.U.. . . . . . . ",
". . . . . | p p p p p p f ' . . . . . . . . . . . . . . . . . . . V.B.T ~ ~ ~ ~ I.e.. . . . . . . . ",
". . . . . | p p p p p f | ' . . . . . . . . . . . . . . . . . . . W.X.Y.~ ~ ~ N B.G.. . . . . . . . ",
". . . ' , | p p p p p | 1 ' . . . . . . . . . . . . . . . . . . . Z.~ ~ ~ ~ ~ i F.= . . . . . . . . ",
". . . , 1 f p p p p p | } ' . . . . . . . . . . . . . . . . . `. +.+~ ~ ~ ~ ~ E.) C.. . . . . . . . ",
". . . , e f p p p p p e , . . . . . . . . . . . . . . . . . . ; r.g.~ ~ ~ ~ ~ ++@+1.. . . . . . . . ",
". . . } | f p p p p p 1 ' . . . . . . . . . . . . . . . . . . = #+#.~ ~ ~ ~ ~ $+- %+. . . . . . . . ",
". . . } f p p p p f 1 ' . . . . . . . . . . . . . . . . . . . &+*+7 ~ ~ ~ ~ ~ =+..2 . . . . . . . . ",
". . . } p p p p e , . e.5.] -+-+-+-+-+-+-+-+-+-+-+-+-+-+;+>+1.w.,+c.~ ~ ~ 6 '+5.. . . . . . . . . . ",
". . , e p p f 1 , 1.@+++~ ~ ~ ~ ~ ~ ~ ~ ~ ~ ~ ~ ~ ~ ~ ~ )+!+~+{+9.~ ~ ~ ~ ]+^+K.. . . . . . . . . . ",
". ' } | p e } . @ 4 /+~ ~ ~ ~ ~ ~ ~ ~ ~ ~ ~ ~ ~ ~ ~ ~ ~ }.(+-._+9.~ ~ ~ ~ N :+<+. . . . . . . . . . ",
". ' 1 e 1 ' <.[+S.}+[.~ ~ ~ ~ ~ ~ ~ ~ ~ ~ ~ ~ ~ ~ ~ ~ ~ |+g k ] 6 ~ ~ ~ ~ I.1+2+. . . . . . . . . . ",
". . , ' . J &.3+4+~ ~ ~ ~ ~ ~ ~ ~ ~ ~ ~ ~ ~ ~ ~ ~ ~ ~ ~ 5+1.6+f.6 ~ ~ ~ ~ 7+K.@ . . . . . . . . . . ",
". . . . K o [+8+8+8+8+8+8+8+8+8+8+8+8+8+8+8+8+8+8+8+8+8+* A / @ 8+8+8+8+8+9+0+> . . . . . . . . . . ",
". . . . . . . . . . . . . . . . . . . . . . . . . . . . . . . . . . . . . . . . . . . . . . . . . . "};
