/* XPM */
static char * h7Seg_3_xpm[] = {
"25 23 125 2",
"  	c None",
". 	c #9E9E9E",
"+ 	c #9D9D9D",
"@ 	c #9A9F9A",
"# 	c #93A493",
"$ 	c #91A591",
"% 	c #98A198",
"& 	c #9C9C9C",
"* 	c #9B9B9B",
"= 	c #999999",
"- 	c #979797",
"; 	c #969696",
"> 	c #999A99",
", 	c #6EB86E",
"' 	c #0EF50E",
") 	c #02FD02",
"! 	c #17F017",
"~ 	c #5AC65A",
"{ 	c #9A9A9A",
"] 	c #8BA38B",
"^ 	c #5EC45E",
"/ 	c #08FA08",
"( 	c #00FF00",
"_ 	c #1DED1D",
": 	c #72B872",
"< 	c #989898",
"[ 	c #999B99",
"} 	c #7CB07C",
"| 	c #4CCF4C",
"1 	c #07FB07",
"2 	c #24E824",
"3 	c #86AC86",
"4 	c #9D9F9D",
"5 	c #6EBA6E",
"6 	c #3CD93C",
"7 	c #05FC05",
"8 	c #0EF60E",
"9 	c #35DD35",
"0 	c #8BA98B",
"a 	c #9C9F9C",
"b 	c #5BC65B",
"c 	c #28E628",
"d 	c #03FD03",
"e 	c #1EEB1E",
"f 	c #4BCF4B",
"g 	c #8FA78F",
"h 	c #4DCF4D",
"i 	c #18EF18",
"j 	c #02FE02",
"k 	c #2BE42B",
"l 	c #5CC55C",
"m 	c #92A592",
"n 	c #9BA09B",
"o 	c #3BDA3B",
"p 	c #06FB06",
"q 	c #3ADA3A",
"r 	c #71B971",
"s 	c #96A396",
"t 	c #8AA98A",
"u 	c #30E130",
"v 	c #49D149",
"w 	c #85AC85",
"x 	c #9AA19A",
"y 	c #8EA78E",
"z 	c #72B772",
"A 	c #27E627",
"B 	c #58C858",
"C 	c #99A099",
"D 	c #9D9E9D",
"E 	c #80AA80",
"F 	c #56C856",
"G 	c #1EEC1E",
"H 	c #13F213",
"I 	c #64C164",
"J 	c #9AA09A",
"K 	c #97A197",
"L 	c #97A297",
"M 	c #9B9F9B",
"N 	c #72B672",
"O 	c #2DE12D",
"P 	c #1FEB1F",
"Q 	c #4AD14A",
"R 	c #7CB27C",
"S 	c #66C066",
"T 	c #0BF70B",
"U 	c #04FC04",
"V 	c #1CED1C",
"W 	c #59C759",
"X 	c #84AE84",
"Y 	c #94A294",
"Z 	c #5AC75A",
"` 	c #24E924",
" .	c #70B970",
"..	c #8EA88E",
"+.	c #80AF80",
"@.	c #86AB86",
"#.	c #98A298",
"$.	c #05FB05",
"%.	c #35DE35",
"&.	c #95A395",
"*.	c #5CC65C",
"=.	c #01FF01",
"-.	c #16F016",
";.	c #47D247",
">.	c #19EE19",
",.	c #01FE01",
"'.	c #25E725",
").	c #57C957",
"!.	c #8EA58E",
"~.	c #34DD34",
"{.	c #0AF80A",
"].	c #36DD36",
"^.	c #69BE69",
"/.	c #99A199",
"(.	c #959B95",
"_.	c #84AA84",
":.	c #26E726",
"<.	c #45D445",
"[.	c #78B478",
"}.	c #89A389",
"|.	c #6DBA6D",
"1.	c #56CA56",
"2.	c #9B9E9B",
"3.	c #92A492",
"4.	c #90A690",
". . . . . . . . + + + + + + + + + + + + @ # $ # % ",
". . . . . + & * = - ; ; ; ; ; ; ; ; ; > , ' ) ! ~ ",
". . . . . & { - { { - ; ; ; ; ; ; ; ; ] ^ / ( _ : ",
". . . . . * = ; < { * { { { { { { { [ } | 1 ) 2 3 ",
". . . . . { < ; - = + . . . . . . . 4 5 6 7 8 9 0 ",
". . . . . { - ; < { . . . . . . . . a b c d e f g ",
". . . . . < ; ; < * . . . . . . . . a h i j k l m ",
". . . . + < ; ; < * . . . . . . . . n o p ( q r s ",
". . . + & < ; ; { + . . . . . . . % t u ( ( v w x ",
". . . & { - ; ; { + . . . . . . . y z A ( ( B C D ",
". . . & = - ; ; = { < < < < < < = E F G p H I . . ",
". . . . + + + + * < ; ; ; ; ; ; - [ J K L % M . . ",
". . . * ; ; - = = = < < < < < < { N O ! P Q R . . ",
". . + { ; ; - { & . . . . . . . . S T U V W X . . ",
". . & = ; ; < * + . . . . . . 4 Y Z ( ( `  .... . ",
". + * < ; ; < + . . . . . . . J +.v ( ( k @.% . . ",
". + { < ; ; = . . . . . . . . #.5 q ( $.%.&.. . . ",
". + = - ; - = . . . . . . . . &.*.k =.-.;.L . . . ",
". + < ; ; < * . . . . . . . . m ;.>.,.'.).#.. . . ",
". + < ; - { & * * * * * * * * !.~.{.j ].^./.. . . ",
"& * < = & < ; ; ; ; ; ; ; ; (._.:.( j <.[.n . . . ",
"& & & { - ; ; ; ; ; ; ; ; ; }.|.P ( d 1.t a . . . ",
". . + + + + + + + + + + + + 2.% 3.4.4.% D . . . . "};
