/* XPM */
static char * h7Seg_21_xpm[] = {
"25 23 185 2",
"  	c None",
". 	c #9E9E9E",
"+ 	c #96A296",
"@ 	c #91A591",
"# 	c #97A297",
"$ 	c #98A198",
"% 	c #92A492",
"& 	c #93A493",
"* 	c #8CA88C",
"= 	c #7AB47A",
"- 	c #4AD04A",
"; 	c #22E922",
"> 	c #05FC05",
", 	c #00FF00",
"' 	c #02FD02",
") 	c #51CC51",
"! 	c #58C858",
"~ 	c #0CF70C",
"{ 	c #17F017",
"] 	c #5AC65A",
"^ 	c #9C9F9C",
"/ 	c #86AB86",
"( 	c #5BC65B",
"_ 	c #1CED1C",
": 	c #59C859",
"< 	c #5EC45E",
"[ 	c #0EF50E",
"} 	c #01FE01",
"| 	c #03FD03",
"1 	c #54CA54",
"2 	c #59C759",
"3 	c #08FA08",
"4 	c #1DED1D",
"5 	c #72B872",
"6 	c #9AA09A",
"7 	c #75B675",
"8 	c #41D541",
"9 	c #02FE02",
"0 	c #34DE34",
"a 	c #6BBC6B",
"b 	c #68BE68",
"c 	c #62C262",
"d 	c #64C164",
"e 	c #66BF66",
"f 	c #4CCF4C",
"g 	c #07FB07",
"h 	c #24E824",
"i 	c #86AC86",
"j 	c #99A199",
"k 	c #30E130",
"l 	c #19EF19",
"m 	c #47D347",
"n 	c #92A592",
"o 	c #9D9F9D",
"p 	c #6EBA6E",
"q 	c #3CD93C",
"r 	c #0EF60E",
"s 	c #35DD35",
"t 	c #8BA98B",
"u 	c #50CC50",
"v 	c #1FEB1F",
"w 	c #27E627",
"x 	c #94A494",
"y 	c #28E628",
"z 	c #1EEB1E",
"A 	c #4BCF4B",
"B 	c #8FA78F",
"C 	c #96A396",
"D 	c #3FD73F",
"E 	c #0FF50F",
"F 	c #36DD36",
"G 	c #69BD69",
"H 	c #4DCF4D",
"I 	c #18EF18",
"J 	c #2BE42B",
"K 	c #5CC55C",
"L 	c #9B9F9B",
"M 	c #8FA68F",
"N 	c #2EE22E",
"O 	c #00FE00",
"P 	c #44D544",
"Q 	c #7AB37A",
"R 	c #9BA09B",
"S 	c #3BDA3B",
"T 	c #06FB06",
"U 	c #3ADA3A",
"V 	c #71B971",
"W 	c #78B478",
"X 	c #26E726",
"Y 	c #52CC52",
"Z 	c #8BA88B",
"` 	c #8AA98A",
" .	c #49D149",
"..	c #85AC85",
"+.	c #9AA19A",
"@.	c #60C360",
"#.	c #1FEC1F",
"$.	c #5FC45F",
"%.	c #9A9F9A",
"&.	c #8EA78E",
"*.	c #72B772",
"=.	c #99A099",
"-.	c #9D9E9D",
";.	c #7CB37C",
">.	c #47D247",
",.	c #17F117",
"'.	c #07FA07",
").	c #14F114",
"!.	c #68BC68",
"~.	c #9A9A9A",
"{.	c #989898",
"].	c #999999",
"^.	c #80AA80",
"/.	c #56C856",
"(.	c #1EEC1E",
"_.	c #13F213",
":.	c #97A197",
"<.	c #999C99",
"[.	c #969696",
"}.	c #979797",
"|.	c #999B99",
"1.	c #69BE69",
"2.	c #11F411",
"3.	c #4ECE4E",
"4.	c #7DAD7D",
"5.	c #72B672",
"6.	c #2DE12D",
"7.	c #4AD14A",
"8.	c #7CB27C",
"9.	c #22EA22",
"0.	c #62C162",
"a.	c #88AB88",
"b.	c #66C066",
"c.	c #0BF70B",
"d.	c #04FC04",
"e.	c #84AE84",
"f.	c #87AA87",
"g.	c #4BD04B",
"h.	c #2AE42A",
"i.	c #94A294",
"j.	c #5AC75A",
"k.	c #24E924",
"l.	c #70B970",
"m.	c #8EA88E",
"n.	c #74B774",
"o.	c #33DF33",
"p.	c #93A393",
"q.	c #80AF80",
"r.	c #61C261",
"s.	c #2EE12E",
"t.	c #0DF60D",
"u.	c #42D542",
"v.	c #98A298",
"w.	c #05FB05",
"x.	c #35DE35",
"y.	c #95A395",
"z.	c #4DCE4D",
"A.	c #53CB53",
"B.	c #5CC65C",
"C.	c #01FF01",
"D.	c #16F016",
"E.	c #8CA98C",
"F.	c #39DA39",
"G.	c #11F311",
"H.	c #67BF67",
"I.	c #19EE19",
"J.	c #25E725",
"K.	c #57C957",
"L.	c #89AB89",
"M.	c #2DE22D",
"N.	c #65C065",
"O.	c #63C163",
"P.	c #76B676",
"Q.	c #80B080",
"R.	c #30E030",
"S.	c #0AF80A",
"T.	c #89AA89",
"U.	c #33DE33",
"V.	c #48D148",
"W.	c #6ABC6A",
"X.	c #45D445",
"Y.	c #0BF80B",
"Z.	c #56CA56",
"`.	c #90A690",
" +	c #94A394",
". . . . . . . . + @ @ @ @ @ @ @ @ @ @ # $ % @ & $ ",
". . . . . $ * = - ; > , , , , , , , ' ) ! ~ ' { ] ",
". . . . ^ / ( _ : < [ } , , , , , , | 1 2 3 , 4 5 ",
". . . . 6 7 8 9 0 ( a b c c c c c d e a f g ' h i ",
". . . . j c k } l m n . . . . . . . o p q > r s t ",
". . . . # u v } w ! x . . . . . . . ^ ( y | z A B ",
". . . . C D E , F G # . . . . . . . ^ H I 9 J K n ",
". . . L M N O , P Q j . . . . . . . R S T , U V C ",
". . . @ W X , , Y Z L . . . . . . $ ` k , ,  ...+.",
". . . i @.#., } $.%.. . . . . . . &.*.w , , ! =.-.",
". . . ;.>.,.'.).!.~.{.{.{.{.{.{.].^./.(.T _.d . . ",
". . . ^ =.:.# $ <.{.[.[.[.[.[.[.}.|.6 :.# $ L . . ",
". . . 1.z 2.; 3.4.].{.{.{.{.{.{.~.5.6.{ v 7.8.. . ",
". -.6 2 } , 9.0.a.. . . . . . . . b.c.d._ 2 e.. . ",
". 6 f.g., , h.Q @ . . . . . . o i.j., , k.l.m.. . ",
". + n.q , , o.p.L . . . . . . 6 q. ., , J / $ . . ",
". & r.s.} t.u.R . . . . . . . v.p U , w.x.y.. . . ",
". B z.v | v A.^ . . . . . . . y.B.J C.D.>.# . . . ",
". E.F.G.d.0 H.^ . . . . . . . n >.I.} J.K.v.. . . ",
". L.w ).M.N.7 d O.O.O.O.O.O.P.Q.R.S.9 F 1.j . . . ",
"T.Q U.V.q.F t., , , , , , , F W.#., 9 X.W R . . . ",
"/ f.Z c h Y., , , , , , , , o.d 4 , | Z.` ^ . . . ",
". . ^ + `.`.`.`.`.`.`.`.`.`. +$ % `.`.$ -.. . . . "};
