/* XPM */
static char * OprErrOn_xpm[] = {
"84 40 11 1",
" 	c None",
".	c #FFFFFF",
"+	c #C7C7C7",
"@	c #AAAAAA",
"#	c #E3E3E3",
"$	c #555555",
"%	c #000000",
"&	c #727272",
"*	c #1D1D1D",
"=	c #8E8E8E",
"-	c #393939",
"....................................................................................",
"....................................................................................",
"....................................................................................",
"....................................................................................",
"....................................................................................",
"....................................................................................",
"....................................................................................",
"....................................................................................",
"....................................................................................",
"....................................................................................",
"....................................................................................",
"....................................................................................",
"....................................................................................",
"....................................................................................",
"............+@@@#....@@@@@+...+@@@@@#.......+@@@@@@+.#@@@@@+...#@@@@@+..............",
"...........$%%%%%&...%%%%%%$..$%%%%%%$......$%%%%%%$.@%%%%%%*#.@%%%%%%*#............",
"..........&%*@@@*%=..%%@@=*%=.$%&@@=%%#.....$%&@@@@+.@%-@@@*%=.@%-@@@*%=............",
"..........%%#...#%%..%%...@%$.$%@...$%@.....$%@......@%$...@%$.@%$...@%$............",
".........@%-.....-%@.%%...=%$.$%@..#*%+.....$%&@@@@#.@%$...$%&.@%$...$%&............",
".........@%$.....$%@.%%$$-%%+.$%%%%%%$......$%%%%%%@.@%%%%%%*#.@%%%%%%*#............",
".........@%$.....$%@.%%%%%*@..$%-$%%@.......$%&@@@@#.@%*$*%$...@%*$*%$..............",
".........#%%.....%%#.%%.......$%@.@%*#......$%@......@%$.#*%@..@%$.#*%@.............",
"..........-%$...$%-..%%.......$%@..$%-......$%@......@%$..@%%#.@%$..@%%#............",
"..........#*%%%%%*#..%%.......$%@..#*%=.....$%%%%%%%.@%$...$%-.@%$...$%-............",
"............=$$$=....$$.......=$+...@$&.....=$$$$$$$.+$=...#$$#+$=...#$$#...........",
"....................................................................................",
"....................................................................................",
"....................................................................................",
"....................................................................................",
"....................................................................................",
"....................................................................................",
"....................................................................................",
"....................................................................................",
"....................................................................................",
"....................................................................................",
"....................................................................................",
"....................................................................................",
"....................................................................................",
"....................................................................................",
"...................................................................................."};
