/* XPM */
static char * 7Seg_19_xpm[] = {
"50 45 202 2",
"  	c None",
". 	c #9E9E9E",
"+ 	c #9BA09B",
"@ 	c #86AC86",
"# 	c #7EB17E",
"$ 	c #80B080",
"% 	c #89AA89",
"& 	c #94A494",
"* 	c #8BA98B",
"= 	c #82AF82",
"- 	c #81AF81",
"; 	c #8AAA8A",
"> 	c #9AA09A",
", 	c #9C9C9C",
"' 	c #9D9D9D",
") 	c #53CB53",
"! 	c #23E923",
"~ 	c #00FF00",
"{ 	c #0FF60F",
"] 	c #42D542",
"^ 	c #74B774",
"/ 	c #90A690",
"( 	c #36DC36",
"_ 	c #0BF70B",
": 	c #19EF19",
"< 	c #44D444",
"[ 	c #8EA88E",
"} 	c #9B9B9B",
"| 	c #989898",
"1 	c #9A9A9A",
"2 	c #9C9F9C",
"3 	c #8FA68F",
"4 	c #58C858",
"5 	c #06FB06",
"6 	c #02FE02",
"7 	c #13F313",
"8 	c #57C857",
"9 	c #7FB07F",
"0 	c #88AA88",
"a 	c #27E727",
"b 	c #28E628",
"c 	c #59C859",
"d 	c #92A692",
"e 	c #999999",
"f 	c #979797",
"g 	c #7CB27C",
"h 	c #43D443",
"i 	c #17F017",
"j 	c #18F018",
"k 	c #6CBC6C",
"l 	c #71B971",
"m 	c #21EB21",
"n 	c #37DD37",
"o 	c #95A395",
"p 	c #969696",
"q 	c #9A9E9A",
"r 	c #94A394",
"s 	c #3BDA3B",
"t 	c #08F908",
"u 	c #01FF01",
"v 	c #1CEE1C",
"w 	c #55CA55",
"x 	c #49D249",
"y 	c #85AD85",
"z 	c #9AA19A",
"A 	c #9D9F9D",
"B 	c #5EC45E",
"C 	c #41D641",
"D 	c #3ED83E",
"E 	c #48D248",
"F 	c #5FC45F",
"G 	c #75B675",
"H 	c #3ED73E",
"I 	c #12F412",
"J 	c #99A099",
"K 	c #9D9E9D",
"L 	c #69BE69",
"M 	c #27E627",
"N 	c #0BF80B",
"O 	c #05FB05",
"P 	c #11F411",
"Q 	c #63C263",
"R 	c #5EC55E",
"S 	c #10F310",
"T 	c #05FC05",
"U 	c #0DF70D",
"V 	c #28E528",
"W 	c #6EBB6E",
"X 	c #98A098",
"Y 	c #52CC52",
"Z 	c #15F215",
"` 	c #41D741",
" .	c #79B579",
"..	c #98A198",
"+.	c #84AE84",
"@.	c #44D544",
"#.	c #1CED1C",
"$.	c #83AE83",
"%.	c #92A592",
"&.	c #6ABD6A",
"*.	c #33DF33",
"=.	c #26E826",
"-.	c #76B676",
";.	c #91A691",
">.	c #8FA78F",
",.	c #5AC65A",
"'.	c #2CE42C",
").	c #99A199",
"!.	c #8BAA8B",
"~.	c #45D345",
"{.	c #1BEE1B",
"].	c #08FA08",
"^.	c #38DC38",
"/.	c #30E030",
"(.	c #0DF60D",
"_.	c #18EF18",
":.	c #49D149",
"<.	c #97A297",
"[.	c #01FE01",
"}.	c #2AE52A",
"|.	c #5CC75C",
"1.	c #8DA88D",
"2.	c #67BF67",
"3.	c #17F117",
"4.	c #52CB52",
"5.	c #4FCE4F",
"6.	c #83AD83",
"7.	c #71B871",
"8.	c #0EF60E",
"9.	c #03FD03",
"0.	c #60C460",
"a.	c #64C164",
"b.	c #29E529",
"c.	c #09F909",
"d.	c #0FF50F",
"e.	c #56C956",
"f.	c #14F114",
"g.	c #04FC04",
"h.	c #75B775",
"i.	c #4CCF4C",
"j.	c #65BF65",
"k.	c #87AC87",
"l.	c #70B970",
"m.	c #72B872",
"n.	c #91A591",
"o.	c #88AB88",
"p.	c #53CA53",
"q.	c #22E922",
"r.	c #3DD83D",
"s.	c #43D543",
"t.	c #7BB37B",
"u.	c #25E625",
"v.	c #10F510",
"w.	c #2FE22F",
"x.	c #5DC55D",
"y.	c #09FA09",
"z.	c #40D640",
"A.	c #7AB37A",
"B.	c #4AD04A",
"C.	c #0AF90A",
"D.	c #4ECD4E",
"E.	c #6BBC6B",
"F.	c #38DB38",
"G.	c #62C262",
"H.	c #8EA78E",
"I.	c #5BC65B",
"J.	c #25E725",
"K.	c #4BD04B",
"L.	c #12F212",
"M.	c #02FD02",
"N.	c #3CDA3C",
"O.	c #93A493",
"P.	c #7FB17F",
"Q.	c #30E130",
"R.	c #26E726",
"S.	c #2BE42B",
"T.	c #64C064",
"U.	c #4DCE4D",
"V.	c #3ADB3A",
"W.	c #96A396",
"X.	c #79B479",
"Y.	c #34DE34",
"Z.	c #45D445",
"`.	c #1BEC1B",
" +	c #0AF80A",
".+	c #68BF68",
"++	c #07FB07",
"@+	c #1EEB1E",
"#+	c #989B98",
"$+	c #86AA86",
"%+	c #53CC53",
"&+	c #34DF34",
"*+	c #6BBD6B",
"=+	c #999E99",
"-+	c #75B575",
";+	c #47D247",
">+	c #78B578",
",+	c #32DF32",
"'+	c #14F214",
")+	c #7DB17D",
"!+	c #82AE82",
"~+	c #92A492",
". . . . . . . . . . . . . . . . . . . . . . . . . . . . . . . . . . . . . . . . . . . . . . . . . . ",
". . . . . . . . . . . . . . . + @ # # # # # # # # # # # # # # # # # # # # $ % & + * = # # # # - ; > ",
". . . . . . . . . . . . . , ' & ) ! ~ ~ ~ ~ ~ ~ ~ ~ ~ ~ ~ ~ ~ ~ ~ ~ ~ ~ ~ { ] ^ / ( _ ~ ~ ~ ~ : < [ ",
". . . . . . . . . . . ' } | 1 2 3 4 5 6 ~ ~ ~ ~ ~ ~ ~ ~ ~ ~ ~ ~ ~ ~ ~ ~ ~ 7 8 9 0 a ~ ~ ~ ~ ~ b c d ",
". . . . . . . . . . . , e f f 1 ' g h i ~ ~ ~ ~ ~ ~ ~ ~ ~ ~ ~ ~ ~ ~ ~ ~ ~ j k - l m ~ ~ ~ ~ ~ n k o ",
". . . . . . . . . . . } | f p f 1 q r s t u ~ ~ ~ ~ ~ ~ ~ ~ ~ ~ ~ ~ ~ ~ ~ v = - w j ~ ~ ~ ~ ~ x y z ",
". . . . . . . . . . . } | p p p f 1 A g B C D D D D D D D D D D D D D D E F / G H I ~ ~ ~ ~ ~ 4 J K ",
". . . . . . . . . . . 1 p p p p p | } ' . . . . . . . . . . . . . . . . . . . L M N ~ ~ ~ O P Q . . ",
". . . . . . . . . . . 1 p p p p p f e , . . . . . . . . . . . . . . . . . . . R S T ~ ~ ~ U V W . . ",
". . . . . . . . . ' , e p p p p p | 1 ' . . . . . . . . . . . . . . . . . A X Y ~ ~ ~ ~ ~ Z `  .. . ",
". . . . . . . . . ' 1 | p p p p p | , ' . . . . . . . . . . . . . . . . . ..+.@.~ ~ ~ ~ ~ #.4 $.. . ",
". . . . . . . . . ' 1 f p p p p p e ' . . . . . . . . . . . . . . . . . . %.&.*.~ ~ ~ ~ ~ =.-.;.. . ",
". . . . . . . . . , e f p p p p p e . . . . . . . . . . . . . . . . . . . >.,.V ~ ~ ~ ~ ~ '.0 ).. . ",
". . . . . . . . . , f p p p p p f 1 . . . . . . . . . . . . . . . . . . . !.~.{.~ ~ ~ ~ ].^.o . . . ",
". . . . . . . . . , f p p p p p | } . . . . . . . . . . . . . . . . . . . @ /.(.~ ~ ~ u _.:.<.. . . ",
". . . . . . . . ' 1 f p p p p p | } . . . . . . . . . . . . . . . . . . . = v ~ ~ ~ ~ [.}.|.... . . ",
". . . . . . . . , e p p p p p p e , . . . . . . . . . . . . . . . . . . 1.2.3.~ ~ ~ ~ 6 D l > . . . ",
". . . . . . . . } | p p p p p f 1 ' . . . . . . . . . . . . . . . . . . 9 4.I ~ ~ ~ ~ 6 5.6.2 . . . ",
". . . . . . . . 1 f p p p p p f } ' . . . . . . . . . . . . . . . . . . 7.D 8.~ ~ ~ ~ 9.0.o K . . . ",
". . . . . . . . e p p p p p p f , . . . . . . . . . . . . . . . . . . . a.b.c.~ ~ ~ T d.k . . . . . ",
". . . . . . . . e p p p p p p | , , | f f f f f f f f f f f f f f e } . e.f.g.~ ~ ~ 8.M h.. . . . . ",
". . . . . . ' , 1 e e e e e e 1 ' } p p p p p p p p p p p p p p p | } . &.D D D D D i.j.; . . . . . ",
". . . . . . . . . . . . . . . . ' 1 p p p p p p p p p p p p p p p 1 ' . . . . . . . . . . . . . . . ",
". . . . . . ' , } 1 1 1 1 1 } ' } | p p p p p p p p p p p p p p p } <.k.l.F F F F F m.n.> . . . . . ",
". . . . . . , f p p p p p p e ' } e f f f f f f f f f f f f f f | , o.p.q.~ ~ ~ ~ ~ n n.> . . . . . ",
". . . . . . } p p p p p p p 1 . . . . . . . . . . . . . . . . . . . = r.i ~ ~ ~ [.c.s.. . . . . . . ",
". . . . . ' } p p p p p p f 1 . . . . . . . . . . . . . . . . . . . t.u._ ~ ~ ~ 9.i 5.. . . . . . . ",
". . . . . ' 1 p p p p p f | } . . . . . . . . . . . . . . . . . . . h.v.~ ~ ~ ~ 5 w.Q . . . . . . . ",
". . . . . } e p p p p p f e , . . . . . . . . . . . . . . . . . . ; x.U ~ ~ ~ ~ y.z.m.. . . . . . . ",
". . . . . 1 | p p p p p f } ' . . . . . . . . . . . . . . . . . . A.B.C.~ ~ ~ ~ N D.# . . . . . . . ",
". . . . . 1 f p p p p p f , ' . . . . . . . . . . . . . . . . . . E.F.].~ ~ ~ ~ U G.H.. . . . . . . ",
". . . . . | p p p p p p f ' . . . . . . . . . . . . . . . . . . . I.J.T ~ ~ ~ ~ v.h.. . . . . . . . ",
". . . . . | p p p p p f | ' . . . . . . . . . . . . . . . . . . . K.L.M.~ ~ ~ N J.t.. . . . . . . . ",
". . . ' , | p p p p p | 1 ' . . . . . . . . . . . . . . . . . . . N.~ ~ ~ ~ ~ i r.= . . . . . . . . ",
". . . , 1 f p p p p p | } ' . . . . . . . . . . . . . . . . . O.P.Q.~ ~ ~ ~ ~ q.) o.. . . . . . . . ",
". . . , e f p p p p p e , . . . . . . . . . . . . . . . . . . ; j.R.~ ~ ~ ~ ~ S.T.1.. . . . . . . . ",
". . . } | f p p p p p 1 ' . . . . . . . . . . . . . . . . . . = U.#.~ ~ ~ ~ ~ V.- W.. . . . . . . . ",
". . . } f p p p p f 1 ' . . . . . . . . . . . . . . . . . . . X.Y.7 ~ ~ ~ ~ ~ Z...2 . . . . . . . . ",
". . . } p p p p e , . , 1 e e e e e e e e e e e e e e e 1 } ' l.`.c.~ ~ ~ 6  +5.. . . . . . . . . . ",
". . , e p p f 1 , ' 1 | p p p p p p p p p p p p p p p p f e , .+9.~ ~ ~ ~ ++@+x.. . . . . . . . . . ",
". ' } | p e } . , 1 p p p p p p p p p p p p p p p p p p | #+$+%+9.~ ~ ~ ~ N &+*+. . . . . . . . . . ",
". ' 1 e 1 ' ' , | p p p p p p p p p p p p p p p p p p p e =+-+] 6 ~ ~ ~ ~ v.;+>+. . . . . . . . . . ",
". . , ' . ' } p p p p p p p p p p p p p p p p p p p p p e X T.,+6 ~ ~ ~ ~ '+x.@ . . . . . . . . . . ",
". . . . . ' ' , , , , , , , , , , , , , , , , , , , , , ' A / @ )+)+)+)+)+!+~+> . . . . . . . . . . ",
". . . . . . . . . . . . . . . . . . . . . . . . . . . . . . . . . . . . . . . . . . . . . . . . . . "};
