/* XPM */
static char * 7Seg_30_xpm[] = {
"50 45 187 2",
"  	c None",
". 	c #9E9E9E",
"+ 	c #9BA09B",
"@ 	c #86AC86",
"# 	c #7EB17E",
"$ 	c #80B080",
"% 	c #89AA89",
"& 	c #94A494",
"* 	c #9D9D9D",
"= 	c #9C9C9C",
"- 	c #99A199",
"; 	c #90A690",
"> 	c #53CB53",
", 	c #23E923",
"' 	c #00FF00",
") 	c #0FF60F",
"! 	c #42D542",
"~ 	c #74B774",
"{ 	c #989898",
"] 	c #969696",
"^ 	c #979797",
"/ 	c #999999",
"( 	c #8DA88D",
"_ 	c #6CBC6C",
": 	c #2BE42B",
"< 	c #56CA56",
"[ 	c #9C9F9C",
"} 	c #8FA68F",
"| 	c #58C858",
"1 	c #06FB06",
"2 	c #02FE02",
"3 	c #13F313",
"4 	c #57C857",
"5 	c #81AE81",
"6 	c #9A9A9A",
"7 	c #7FB07F",
"8 	c #52CB52",
"9 	c #12F412",
"0 	c #25E725",
"a 	c #59C659",
"b 	c #8AAA8A",
"c 	c #7CB27C",
"d 	c #43D443",
"e 	c #17F017",
"f 	c #18F018",
"g 	c #8FA58F",
"h 	c #9B9B9B",
"i 	c #71B871",
"j 	c #3ED83E",
"k 	c #0EF60E",
"l 	c #03FD03",
"m 	c #13F213",
"n 	c #68BE68",
"o 	c #94A394",
"p 	c #3BDA3B",
"q 	c #08F908",
"r 	c #01FF01",
"s 	c #1CEE1C",
"t 	c #82AF82",
"u 	c #64C164",
"v 	c #29E529",
"w 	c #09F909",
"x 	c #04FC04",
"y 	c #20EA20",
"z 	c #57C957",
"A 	c #9D9F9D",
"B 	c #5EC45E",
"C 	c #41D641",
"D 	c #48D248",
"E 	c #5FC45F",
"F 	c #56C956",
"G 	c #14F114",
"H 	c #29E629",
"I 	c #6CBB6C",
"J 	c #49D249",
"K 	c #1CED1C",
"L 	c #4DCF4D",
"M 	c #96A396",
"N 	c #81AF81",
"O 	c #3ADB3A",
"P 	c #24E924",
"Q 	c #5FC35F",
"R 	c #88AB88",
"S 	c #8FA78F",
"T 	c #6ABD6A",
"U 	c #2EE22E",
"V 	c #30E130",
"W 	c #7FB17F",
"X 	c #93A493",
"Y 	c #53CA53",
"Z 	c #22E922",
"` 	c #37DD37",
" .	c #91A591",
"..	c #9AA09A",
"+.	c #3DD83D",
"@.	c #01FE01",
"#.	c #43D543",
"$.	c #7BB37B",
"%.	c #25E625",
"&.	c #0BF70B",
"*.	c #4FCE4F",
"=.	c #75B775",
"-.	c #10F510",
";.	c #2FE22F",
">.	c #63C263",
",.	c #5DC55D",
"'.	c #0DF70D",
").	c #08FA08",
"!.	c #3CD93C",
"~.	c #6EBB6E",
"{.	c #7AB37A",
"].	c #4AD04A",
"^.	c #0AF90A",
"/.	c #6BBC6B",
"(.	c #38DB38",
"_.	c #5BC65B",
":.	c #05FC05",
"<.	c #70B970",
"[.	c #4BD04B",
"}.	c #12F212",
"|.	c #02FD02",
"1.	c #7AB47A",
"2.	c #3CDA3C",
"3.	c #11F411",
"4.	c #31E031",
"5.	c #32DF32",
"6.	c #26E726",
"7.	c #20EB20",
"8.	c #97A297",
"9.	c #8AA98A",
"0.	c #4FCD4F",
"a.	c #62C362",
"b.	c #3ADA3A",
"c.	c #6FBA6F",
"d.	c #98A298",
"e.	c #4ECF4E",
"f.	c #97A197",
"g.	c #6EBA6E",
"h.	c #87AC87",
"i.	c #72B872",
"j.	c #96A196",
"k.	c #1FEB1F",
"l.	c #09FA09",
"m.	c #40D640",
"n.	c #0BF80B",
"o.	c #4ECD4E",
"p.	c #62C262",
"q.	c #8EA78E",
"r.	c #65BF65",
"s.	c #64C064",
"t.	c #4DCE4D",
"u.	c #79B479",
"v.	c #34DE34",
"w.	c #45D445",
"x.	c #98A198",
"y.	c #3FD73F",
"z.	c #1BEC1B",
"A.	c #0AF80A",
"B.	c #25E825",
"C.	c #5BC55B",
"D.	c #89AB89",
"E.	c #68BF68",
"F.	c #07FB07",
"G.	c #1EEB1E",
"H.	c #0CF80C",
"I.	c #2AE52A",
"J.	c #66BF66",
"K.	c #76B676",
"L.	c #53CC53",
"M.	c #34DF34",
"N.	c #6BBD6B",
"O.	c #04FB04",
"P.	c #35DE35",
"Q.	c #47D247",
"R.	c #78B578",
"S.	c #99A099",
"T.	c #15F115",
"U.	c #07FA07",
"V.	c #3DD93D",
"W.	c #60C260",
"X.	c #14F214",
"Y.	c #9D9E9D",
"Z.	c #95A395",
"`.	c #7DB17D",
" +	c #8BA98B",
".+	c #82AE82",
"++	c #92A492",
". . . . . . . . . . . . . . . . . . . . . . . . . . . . . . . . . . . . . . . . . . . . . . . . . . ",
". . . . . . . . . . . . . . . + @ # # # # # # # # # # # # # # # # # # # # $ % & . * = = = = = = = . ",
". . . . . . . . . . . . - % ; & > , ' ' ' ' ' ' ' ' ' ' ' ' ' ' ' ' ' ' ' ) ! ~ * { ] ] ] ] ] ^ / * ",
". . . . . . . . . . . ( _ : < [ } | 1 2 ' ' ' ' ' ' ' ' ' ' ' ' ' ' ' ' ' 3 4 5 = { ] ] ] ] ] { 6 * ",
". . . . . . . . . . . 7 8 9 0 a b c d e ' ' ' ' ' ' ' ' ' ' ' ' ' ' ' ' ' f _ g h { ] ] ] ] ] { h * ",
". . . . . . . . . . . i j k l m n } o p q r ' ' ' ' ' ' ' ' ' ' ' ' ' ' ' s t = 6 ^ ] ] ] ] ] / = . ",
". . . . . . . . . . . u v w ' x y z A c B C j j j j j j j j j j j j j j D E ; = / ^ ] ] ] ] ] 6 * . ",
". . . . . . . . . . . F G x ' ' ' H I ( . . . . . . . . . . . . . . . . . . . h ^ ] ] ] ] ] ] h . . ",
". . . . . . . . . . . J ' ' ' ' ' K L t . . . . . . . . . . . . . . . . . . . 6 ] ] ] ] ] ] ^ h . . ",
". . . . . . . . . M N O ' ' ' ' ' P Q R . . . . . . . . . . . . . . . . . . * 6 ] ] ] ] ] ^ / = . . ",
". . . . . . . . . S T U ' ' ' ' ' V W X . . . . . . . . . . . . . . . . . . = / ] ] ] ] ] ^ 6 = . . ",
". . . . . . . . . R Y Z ' ' ' ' ' `  .... . . . . . . . . . . . . . . . . * h { ] ] ] ] ] { = * . . ",
". . . . . . . . . t +.e ' ' ' @.w #.. . . . . . . . . . . . . . . . . . . * 6 { ] ] ] ] ] { * . . . ",
". . . . . . . . . $.%.&.' ' ' l e *.. . . . . . . . . . . . . . . . . . . * / ^ ] ] ] ] ] { . . . . ",
". . . . . . . . . =.-.' ' ' ' 1 ;.>.. . . . . . . . . . . . . . . . . . . * ^ ] ] ] ] ] ^ / . . . . ",
". . . . . . . . b ,.'.' ' ' ' ).!.~.. . . . . . . . . . . . . . . . . . . * ^ ] ] ] ] ] { 6 . . . . ",
". . . . . . . . {.].^.' ' ' ' ^.].{.. . . . . . . . . . . . . . . . . . * h ^ ] ] ] ] ] / h . . . . ",
". . . . . . . . /.(.).' ' ' ' '.,.b . . . . . . . . . . . . . . . . . . = / ^ ] ] ] ] ] / = . . . . ",
". . . . . . . . _.0 :.' ' ' ' ) <.... . . . . . . . . . . . . . . . . . h { ^ ] ] ] ] ] h * . . . . ",
". . . . . . . . [.}.|.' ' ' q y 1.. . . . . . . . . . . . . . . . . . . h { ] ] ] ] ] ] h . . . . . ",
". . . . . . . . 2.' ' ' ' ' 3.4.W =.5.6.7.7.7.7.7.7.7.7.7.7.7.7.7.#.T 8.6 ] ] ] ] ] ] ^ = . . . . . ",
". . . . . . 8.9._.j j j j j 0.T S a.' ' ' ' ' ' ' ' ' ' ' ' ' ' ' b.c.d.h / / / / / / 6 * . . . . . ",
". . . . . . . . . . . . . . . + @ e.' ' ' ' ' ' ' ' ' ' ' ' ' ' ' e.@ + . . . . . . . . . . . . . . ",
". . . . . . * = h 6 6 6 6 6 h f.g.b.' ' ' ' ' ' ' ' ' ' ' ' ' ' ' a.8.h.<.E E E E E i. .... . . . . ",
". . . . . . = ^ ] ] ] ] ] ] / j.T ! k.k.k.k.k.k.k.k.k.k.k.k.k.0 5.=.R Y Z ' ' ' ' ' `  .... . . . . ",
". . . . . . h ] ] ] ] ] ] ] 6 . . . . . . . . . . . . . . . . . . . t +.e ' ' ' @.w #.. . . . . . . ",
". . . . . * h ] ] ] ] ] ] ^ 6 . . . . . . . . . . . . . . . . . . . $.%.&.' ' ' l e *.. . . . . . . ",
". . . . . * 6 ] ] ] ] ] ^ { h . . . . . . . . . . . . . . . . . . . =.-.' ' ' ' 1 ;.>.. . . . . . . ",
". . . . . h / ] ] ] ] ] ^ / = . . . . . . . . . . . . . . . . . . b ,.'.' ' ' ' l.m.i.. . . . . . . ",
". . . . . 6 { ] ] ] ] ] ^ h * . . . . . . . . . . . . . . . . . . {.].^.' ' ' ' n.o.# . . . . . . . ",
". . . . . 6 ^ ] ] ] ] ] ^ = * . . . . . . . . . . . . . . . . . . /.(.).' ' ' ' '.p.q.. . . . . . . ",
". . . . . { ] ] ] ] ] ] ^ * . . . . . . . . . . . . . . . . . . . _.0 :.' ' ' ' -.=.. . . . . . . . ",
". . . . . { ] ] ] ] ] ^ { * . . . . . . . . . . . . . . . . . . . [.}.|.' ' ' n.0 $.. . . . . . . . ",
". . . * = { ] ] ] ] ] { 6 * . . . . . . . . . . . . . . . . . . . 2.' ' ' ' ' e +.t . . . . . . . . ",
". . . = 6 ^ ] ] ] ] ] { h * . . . . . . . . . . . . . . . . . X W V ' ' ' ' ' Z > R . . . . . . . . ",
". . . = / ^ ] ] ] ] ] / = . . . . . . . . . . . . . . . . . . b r.6.' ' ' ' ' : s.( . . . . . . . . ",
". . . h { ^ ] ] ] ] ] 6 * . . . . . . . . . . . . . . . . . . t t.K ' ' ' ' ' O N M . . . . . . . . ",
". . . h ^ ] ] ] ] ^ 6 * . . . . . . . . . . . . . . . . . . . u.v.3 ' ' ' ' ' w.x.[ . . . . . . . . ",
". . . h ] ] ] ] / = . =.*.! y.y.y.y.y.y.y.y.y.y.y.y.y.y.0.n ( <.z.w ' ' ' 2 A.*.. . . . . . . . . . ",
". . = / ] ] ^ 6 = ( s.: ' ' ' ' ' ' ' ' ' ' ' ' ' ' ' ' B.C.D.E.l ' ' ' ' F.G.,.. . . . . . . . . . ",
". * h { ] / h . @ | H.' ' ' ' ' ' ' ' ' ' ' ' ' ' ' ' ' I.J.K.L.l ' ' ' ' n.M.N.. . . . . . . . . . ",
". * 6 / 6 * 8.9.(.O.@.' ' ' ' ' ' ' ' ' ' ' ' ' ' ' ' ' P.c _ ! 2 ' ' ' ' -.Q.R.. . . . . . . . . . ",
". . = * . S.T T.U.' ' ' ' ' ' ' ' ' ' ' ' ' ' ' ' ' ' ' V.( W.5.2 ' ' ' ' X.,.@ . . . . . . . . . . ",
". . . . Y.Z.9.`.`.`.`.`.`.`.`.`.`.`.`.`.`.`.`.`.`.`.`.`. +A ; @ `.`.`.`.`..+++... . . . . . . . . . ",
". . . . . . . . . . . . . . . . . . . . . . . . . . . . . . . . . . . . . . . . . . . . . . . . . . "};
