/* XPM */
static char * h7Seg_31_xpm[] = {
"25 23 176 2",
"  	c None",
". 	c #9E9E9E",
"+ 	c #96A296",
"@ 	c #91A591",
"# 	c #97A297",
"$ 	c #98A198",
"% 	c #92A492",
"& 	c #93A493",
"* 	c #8CA88C",
"= 	c #7AB47A",
"- 	c #4AD04A",
"; 	c #22E922",
"> 	c #05FC05",
", 	c #00FF00",
"' 	c #02FD02",
") 	c #51CC51",
"! 	c #58C858",
"~ 	c #0CF70C",
"{ 	c #17F017",
"] 	c #5AC65A",
"^ 	c #9C9F9C",
"/ 	c #86AB86",
"( 	c #5BC65B",
"_ 	c #1CED1C",
": 	c #59C859",
"< 	c #5EC45E",
"[ 	c #0EF50E",
"} 	c #01FE01",
"| 	c #03FD03",
"1 	c #54CA54",
"2 	c #59C759",
"3 	c #08FA08",
"4 	c #1DED1D",
"5 	c #72B872",
"6 	c #9AA09A",
"7 	c #75B675",
"8 	c #41D541",
"9 	c #02FE02",
"0 	c #34DE34",
"a 	c #6BBC6B",
"b 	c #68BE68",
"c 	c #62C262",
"d 	c #64C164",
"e 	c #66BF66",
"f 	c #4CCF4C",
"g 	c #07FB07",
"h 	c #24E824",
"i 	c #86AC86",
"j 	c #99A199",
"k 	c #30E130",
"l 	c #19EF19",
"m 	c #47D347",
"n 	c #92A592",
"o 	c #9D9F9D",
"p 	c #6EBA6E",
"q 	c #3CD93C",
"r 	c #0EF60E",
"s 	c #35DD35",
"t 	c #8BA98B",
"u 	c #50CC50",
"v 	c #1FEB1F",
"w 	c #27E627",
"x 	c #94A494",
"y 	c #28E628",
"z 	c #1EEB1E",
"A 	c #4BCF4B",
"B 	c #8FA78F",
"C 	c #96A396",
"D 	c #3FD73F",
"E 	c #0FF50F",
"F 	c #36DD36",
"G 	c #69BD69",
"H 	c #4DCF4D",
"I 	c #18EF18",
"J 	c #2BE42B",
"K 	c #5CC55C",
"L 	c #9B9F9B",
"M 	c #8FA68F",
"N 	c #2EE22E",
"O 	c #00FE00",
"P 	c #44D544",
"Q 	c #7AB37A",
"R 	c #9BA09B",
"S 	c #3BDA3B",
"T 	c #06FB06",
"U 	c #3ADA3A",
"V 	c #71B971",
"W 	c #78B478",
"X 	c #26E726",
"Y 	c #52CC52",
"Z 	c #8BA88B",
"` 	c #8AA98A",
" .	c #49D149",
"..	c #85AC85",
"+.	c #9AA19A",
"@.	c #60C360",
"#.	c #1FEC1F",
"$.	c #5FC45F",
"%.	c #9A9F9A",
"&.	c #8EA78E",
"*.	c #72B772",
"=.	c #99A099",
"-.	c #9D9E9D",
";.	c #7CB37C",
">.	c #47D247",
",.	c #17F117",
"'.	c #07FA07",
").	c #14F114",
"!.	c #4BD04B",
"~.	c #37DC37",
"{.	c #47D147",
"].	c #52CB52",
"^.	c #56C856",
"/.	c #1EEC1E",
"(.	c #13F213",
"_.	c #97A197",
":.	c #61C261",
"<.	c #2FE12F",
"[.	c #2EE12E",
"}.	c #9B9B9B",
"|.	c #969696",
"1.	c #979797",
"2.	c #999999",
"3.	c #6ABA6A",
"4.	c #46D246",
"5.	c #32DF32",
"6.	c #38DB38",
"7.	c #5DC45D",
"8.	c #54C954",
"9.	c #2DE12D",
"0.	c #4AD14A",
"a.	c #7CB27C",
"b.	c #9D9D9D",
"c.	c #9A9A9A",
"d.	c #9C9C9C",
"e.	c #66C066",
"f.	c #0BF70B",
"g.	c #04FC04",
"h.	c #84AE84",
"i.	c #989898",
"j.	c #94A294",
"k.	c #5AC75A",
"l.	c #24E924",
"m.	c #70B970",
"n.	c #8EA88E",
"o.	c #80AF80",
"p.	c #98A298",
"q.	c #05FB05",
"r.	c #35DE35",
"s.	c #95A395",
"t.	c #5CC65C",
"u.	c #01FF01",
"v.	c #16F016",
"w.	c #19EE19",
"x.	c #25E725",
"y.	c #57C957",
"z.	c #969896",
"A.	c #8AA68A",
"B.	c #79B379",
"C.	c #63C163",
"D.	c #76B676",
"E.	c #80B080",
"F.	c #30E030",
"G.	c #0AF80A",
"H.	c #69BE69",
"I.	c #949C94",
"J.	c #88A988",
"K.	c #0DF60D",
"L.	c #6ABC6A",
"M.	c #45D445",
"N.	c #9A9E9A",
"O.	c #0BF80B",
"P.	c #33DF33",
"Q.	c #56CA56",
"R.	c #90A690",
"S.	c #94A394",
". . . . . . . . + @ @ @ @ @ @ @ @ @ @ # $ % @ & $ ",
". . . . . $ * = - ; > , , , , , , , ' ) ! ~ ' { ] ",
". . . . ^ / ( _ : < [ } , , , , , , | 1 2 3 , 4 5 ",
". . . . 6 7 8 9 0 ( a b c c c c c d e a f g ' h i ",
". . . . j c k } l m n . . . . . . . o p q > r s t ",
". . . . # u v } w ! x . . . . . . . ^ ( y | z A B ",
". . . . C D E , F G # . . . . . . . ^ H I 9 J K n ",
". . . L M N O , P Q j . . . . . . . R S T , U V C ",
". . . @ W X , , Y Z L . . . . . . $ ` k , ,  ...+.",
". . . i @.#., } $.%.. . . . . . . &.*.w , , ! =.-.",
". . . ;.>.,.'.).!.< U 0 0 0 0 ~.{.].^./.T (.d . . ",
". . . ^ =._.# $ :.<.T , , , , T [.:.6 _.# $ L . . ",
". . . }.|.|.1.2.3.4.s 5.5.5.5.6.7.8.9.{ v 0.a.. . ",
". . b.c.|.|.1.c.d.. . . . . . . . e.f.g._ 2 h.. . ",
". . d.2.|.|.i.}.b.. . . . . . o j.k., , l.m.n.. . ",
". b.}.i.|.|.i.b.. . . . . . . 6 o. ., , J / $ . . ",
". b.c.i.|.|.2.. . . . . . . . p.p U , q.r.s.. . . ",
". b.2.1.|.1.2.. . . . . . . . s.t.J u.v.>.# . . . ",
". b.i.|.|.i.}.. . . . . . . . n >.w.} x.y.p.. . . ",
". b.i.|.z.A.B.d C.C.C.C.C.C.D.E.F.G.9 F H.j . . . ",
"d.}.i.I.J.6.K., , , , , , , F L.#., 9 M.W R . . . ",
"d.d.N.G h O., , , , , , , , P.d 4 , | Q.` ^ . . . ",
". . ^ + R.R.R.R.R.R.R.R.R.R.S.$ % R.R.$ -.. . . . "};
