/* XPM */
static char * hEntrUp_xpm[] = {
"38 38 85 1",
" 	c None",
".	c #000000",
"+	c #0D0D0D",
"@	c #303030",
"#	c #323232",
"$	c #2C2C2C",
"%	c #0B0B0B",
"&	c #171717",
"*	c #292929",
"=	c #181818",
"-	c #161616",
";	c #030303",
">	c #3D3D3D",
",	c #DADADA",
"'	c #ACACAC",
")	c #A5A5A5",
"!	c #939393",
"~	c #CFCFCF",
"{	c #A2A2A2",
"]	c #080808",
"^	c #3F3F3F",
"/	c #C5C5C5",
"(	c #585858",
"_	c #D9D9D9",
":	c #C6C6C6",
"<	c #505050",
"[	c #B6B6B6",
"}	c #A9A9A9",
"|	c #D3D3D3",
"1	c #656565",
"2	c #424242",
"3	c #D5D5D5",
"4	c #1B1B1B",
"5	c #DFDFDF",
"6	c #ECECEC",
"7	c #535353",
"8	c #444444",
"9	c #D4D4D4",
"0	c #B8B8B8",
"a	c #767676",
"b	c #1D1D1D",
"c	c #3B3B3B",
"d	c #898989",
"e	c #B1B1B1",
"f	c #EAEAEA",
"g	c #B4B4B4",
"h	c #868686",
"i	c #252525",
"j	c #8B8B8B",
"k	c #C2C2C2",
"l	c #5B5B5B",
"m	c #DBDBDB",
"n	c #8E8E8E",
"o	c #717171",
"p	c #CBCBCB",
"q	c #676767",
"r	c #3E3E3E",
"s	c #2B2B2B",
"t	c #212121",
"u	c #1E1E1E",
"v	c #A6A6A6",
"w	c #BFBFBF",
"x	c #727272",
"y	c #545454",
"z	c #3A3A3A",
"A	c #272727",
"B	c #222222",
"C	c #333333",
"D	c #2F2F2F",
"E	c #E1E1E1",
"F	c #010101",
"G	c #A3A3A3",
"H	c #343434",
"I	c #BEBEBE",
"J	c #B3B3B3",
"K	c #B0B0B0",
"L	c #282828",
"M	c #6B6B6B",
"N	c #A7A7A7",
"O	c #111111",
"P	c #909090",
"Q	c #5D5D5D",
"R	c #A8A8A8",
"S	c #2E2E2E",
"T	c #7E7E7E",
"......................................",
"......................................",
"......................................",
"......................................",
"......................................",
"......................................",
"......................................",
"......................................",
"......................................",
"......................................",
"......................................",
"......................................",
"......................................",
"......................................",
"......................................",
"........+@##$%$&.+*=####-$##*;........",
"........>,')!$~{]^/()_:)<~[}|1........",
"........23&..456789-.0a.b3c;de........",
"........2fg'hi5jkl9-.0a.bmnopq........",
"........2,rstu5cvw9-.0a.bmnx|y........",
"........2,zAAB5CDE9-.0a.b3cFGn........",
"........HIJeeHKL.MNO.PQ.&RS.TT........",
"......................................",
"......................................",
"......................................",
"......................................",
"......................................",
"......................................",
"......................................",
"......................................",
"......................................",
"......................................",
"......................................",
"......................................",
"......................................",
"......................................",
"......................................",
"......................................"};
