/* XPM */
static char * 7Seg_19_xpm[] = {
"32 45 45 1",
" 	c None",
".	c #97A197",
"+	c #91A591",
"@	c #8BA98B",
"#	c #8AA98A",
"$	c #84AD84",
"%	c #9E9E9E",
"&	c #9D9D9D",
"*	c #9C9C9C",
"=	c #9B9B9B",
"-	c #9A9A9A",
";	c #999999",
">	c #989898",
",	c #979797",
"'	c #969696",
")	c #64C064",
"!	c #5FC45F",
"~	c #5EC45E",
"{	c #57C857",
"]	c #51CC51",
"^	c #4BD04B",
"/	c #45D445",
"(	c #45D345",
"_	c #44D344",
":	c #4BCF4B",
"<	c #7EB17E",
"[	c #7DB17D",
"}	c #71B871",
"|	c #77B477",
"1	c #6BBC6B",
"2	c #6ABC6A",
"3	c #2BE32B",
"4	c #25E725",
"5	c #3FD83F",
"6	c #3ED83E",
"7	c #38DB38",
"8	c #32DF32",
"9	c #12F312",
"0	c #12F212",
"a	c #1FEB1F",
"b	c #18EF18",
"c	c #18EE18",
"d	c #0CF70C",
"e	c #06FB06",
"f	c #00FF00",
"%%%%%%%%%%%%%%%%%%%%%%%%%%%%%%%%",
"%%%%%%%%%%<<<<<<<<<<<<<<@%$<<<$%",
"%%%%%%%%*%7fffffffffffff]%0fff3%",
"%%%%%%%*,%#effffffffffff2.ffff/%",
"%%%%%%%-';%_ffffffffffff$<ffff~%",
"%%%%%%%;''*.dfffffffffff%~ffff<%",
"%%%%%%%>'',%16666666666]%(ffff.%",
"%%%%%%%''''=%%%%%%%%%%%%%3fff9%%",
"%%%%%%%'''';%%%%%%%%%%%%%0fff3%%",
"%%%%%%*''''-%%%%%%%%%%%%.ffff/%%",
"%%%%%%-''''*%%%%%%%%%%%%<ffff~%%",
"%%%%%%;''''&%%%%%%%%%%%%~ffff<%%",
"%%%%%%>''''%%%%%%%%%%%%%:ffff+%%",
"%%%%%%'''',%%%%%%%%%%%%%8fffd%%%",
"%%%%%%'''';%%%%%%%%%%%%%cfff4%%%",
"%%%%%*'''';%%%%%%%%%%%%%ffff5%%%",
"%%%%%-''''-%%%%%%%%%%%%<ffff~%%%",
"%%%%%;''''*%%%%%%%%%%%%)ffff|%%%",
"%%%%%>''''&%%%%%%%%%%%%:ffff+%%%",
"%%%%%'''''%%%%%%%%%%%%%8fffd%%%%",
"%%%%%'''',%>,,,,,,,,,-%cfff4%%%%",
"%%%%*;;;;-%''''''''''-%6666)%%%%",
"%%%%%%%%%%*''''''''''*%%%%%%%%%%",
"%%%%*----&-''''''''''%$!!!!+%%%%",
"%%%%,''''&-,,,,,,,,,>%:ffff+%%%%",
"%%%%'''''%%%%%%%%%%%%%8fffd%%%%%",
"%%%&'''',%%%%%%%%%%%%%cfffa%%%%%",
"%%%*'''';%%%%%%%%%%%%%ffff5%%%%%",
"%%%-''''-%%%%%%%%%%%%<ffff{%%%%%",
"%%%;''''*%%%%%%%%%%%%)ffff2%%%%%",
"%%%>''''&%%%%%%%%%%%%:ffff$%%%%%",
"%%%'''''%%%%%%%%%%%%%8ffff%%%%%%",
"%%%'''',%%%%%%%%%%%%%cfffb%%%%%%",
"%%*'''';%%%%%%%%%%%%%ffff8%%%%%%",
"%%-''''-%%%%%%%%%%%%<ffff^%%%%%%",
"%%;''''*%%%%%%%%%%%%)ffff~%%%%%%",
"%%>''''&%%%%%%%%%%%%:ffff<%%%%%%",
"%%,'''=%%%%%%%%%%%%%8ffff.%%%%%%",
"%%'''=%-;;;;;;;;;;=%cfffd%%%%%%%",
"%*''-%-''''''''''';%ffff4%%%%%%%",
"%-'-%=''''''''''''-<ffff5%%%%%%%",
"%;-%*'''''''''''''*)ffff{%%%%%%%",
"%*%&''''''''''''''&:ffff}%%%%%%%",
"%%%&**************%#[[[[.%%%%%%%",
"%%%%%%%%%%%%%%%%%%%%%%%%%%%%%%%%"};
