/* XPM */
static char * 7Seg_31_xpm[] = {
"32 45 53 1",
" 	c None",
".	c #97A197",
"+	c #91A591",
"@	c #8BA98B",
"#	c #8AA98A",
"$	c #84AD84",
"%	c #9E9E9E",
"&	c #9D9D9D",
"*	c #9C9C9C",
"=	c #9B9B9B",
"-	c #9A9A9A",
";	c #999999",
">	c #989898",
",	c #979797",
"'	c #969696",
")	c #65C065",
"!	c #64C064",
"~	c #58C858",
"{	c #5FC45F",
"]	c #5EC45E",
"^	c #57C857",
"/	c #52CC52",
"(	c #51CC51",
"_	c #51CB51",
":	c #4BD04B",
"<	c #45D445",
"[	c #45D345",
"}	c #44D344",
"|	c #4BCF4B",
"1	c #7EB17E",
"2	c #7DB17D",
"3	c #71B871",
"4	c #77B477",
"5	c #6BBC6B",
"6	c #6ABC6A",
"7	c #2BE32B",
"8	c #20EB20",
"9	c #25E725",
"0	c #3FD83F",
"a	c #3ED83E",
"b	c #38DB38",
"c	c #3FD73F",
"d	c #32DF32",
"e	c #12F312",
"f	c #12F212",
"g	c #1FEB1F",
"h	c #19EF19",
"i	c #18EF18",
"j	c #18EE18",
"k	c #0CF70C",
"l	c #06FB06",
"m	c #06FA06",
"n	c #00FF00",
"%%%%%%%%%%%%%%%%%%%%%%%%%%%%%%%%",
"%%%%%%%%%%11111111111111@%$111$%",
"%%%%%%%%$%bnnnnnnnnnnnnn(%fnnn7%",
"%%%%%%%1h%#lnnnnnnnnnnnn6.nnnn<%",
"%%%%%%%!n_%}nnnnnnnnnnnn$1nnnn]%",
"%%%%%%%|nm#.knnnnnnnnnnn%]nnnn1%",
"%%%%%%%dnn7%5aaaaaaaaaa(%[nnnn.%",
"%%%%%%%jnnn5%%%%%%%%%%%%%7nnne%%",
"%%%%%%%nnnn:%%%%%%%%%%%%%fnnn7%%",
"%%%%%%1nnnn]%%%%%%%%%%%%.nnnn<%%",
"%%%%%%!nnnn1%%%%%%%%%%%%1nnnn]%%",
"%%%%%%|nnnn+%%%%%%%%%%%%]nnnn1%%",
"%%%%%%dnnnk%%%%%%%%%%%%%|nnnn+%%",
"%%%%%%jnnng%%%%%%%%%%%%%dnnnk%%%",
"%%%%%%nnnn0%%%%%%%%%%%%%jnnn9%%%",
"%%%%%1nnnn(%%%%%%%%%%%%%nnnn0%%%",
"%%%%%!nnnn!%%%%%%%%%%%%1nnnn]%%%",
"%%%%%|nnnn1%%%%%%%%%%%%!nnnn4%%%",
"%%%%%dnnnn.%%%%%%%%%%%%|nnnn+%%%",
"%%%%%jnnne%%%%%%%%%%%%%dnnnk%%%%",
"%%%%%nnnn9%d888888888~%jnnn9%%%%",
"%%%%#aaaa!%nnnnnnnnnn]%aaaa!%%%%",
"%%%%%%%%%%1nnnnnnnnnn1%%%%%%%%%%",
"%%%%*----&]nnnnnnnnnn%${{{{+%%%%",
"%%%%,''''&~gggggggggd%|nnnn+%%%%",
"%%%%'''''%%%%%%%%%%%%%dnnnk%%%%%",
"%%%&'''',%%%%%%%%%%%%%jnnng%%%%%",
"%%%*'''';%%%%%%%%%%%%%nnnn0%%%%%",
"%%%-''''-%%%%%%%%%%%%1nnnn^%%%%%",
"%%%;''''*%%%%%%%%%%%%!nnnn6%%%%%",
"%%%>''''&%%%%%%%%%%%%|nnnn$%%%%%",
"%%%'''''%%%%%%%%%%%%%dnnnn%%%%%%",
"%%%'''',%%%%%%%%%%%%%jnnni%%%%%%",
"%%*'''';%%%%%%%%%%%%%nnnnd%%%%%%",
"%%-''''-%%%%%%%%%%%%1nnnn:%%%%%%",
"%%;''''*%%%%%%%%%%%%!nnnn]%%%%%%",
"%%>''''&%%%%%%%%%%%%|nnnn1%%%%%%",
"%%,'''=%%%%%%%%%%%%%dnnnn.%%%%%%",
"%%'''=%/cccccccccc)%jnnnk%%%%%%%",
"%*''-%]nnnnnnnnnnn^%nnnn9%%%%%%%",
"%-'-%4nnnnnnnnnnnn!1nnnn0%%%%%%%",
"%;-%#mnnnnnnnnnnnn1!nnnn^%%%%%%%",
"%*%.ennnnnnnnnnnnn+|nnnn3%%%%%%%",
"%%%+22222222222222%#2222.%%%%%%%",
"%%%%%%%%%%%%%%%%%%%%%%%%%%%%%%%%"};
