/* XPM */
static char * FreeOn_xpm[] = {
"84 40 11 1",
" 	c None",
".	c #FFFFFF",
"+	c #AAAAAA",
"@	c #C7C7C7",
"#	c #E3E3E3",
"$	c #000000",
"%	c #555555",
"&	c #727272",
"*	c #8E8E8E",
"=	c #393939",
"-	c #1D1D1D",
"....................................................................................",
"....................................................................................",
"....................................................................................",
"....................................................................................",
"....................................................................................",
"....................................................................................",
"....................................................................................",
"....................................................................................",
"....................................................................................",
"....................................................................................",
"....................................................................................",
"....................................................................................",
"....................................................................................",
"....................................................................................",
"....................................................................................",
".......................+++++++.@+++++#...@++++++@.#+++++++..........................",
".......................$$$$$$$.%$$$$$$%..%$$$$$$%.+$$$$$$$..........................",
".......................$$+++++.%$&++*$$#.%$&++++@.+$=+++++..........................",
".......................$$......%$+...%$+.%$+......+$%...............................",
".......................$$++++#.%$+..#-$@.%$&++++#.+$=++++@..........................",
".......................$$$$$$+.%$$$$$$%..%$$$$$$+.+$$$$$$%..........................",
".......................$$++++#.%$=%$$+...%$&++++#.+$=++++@..........................",
".......................$$......%$+.+$-#..%$+......+$%...............................",
".......................$$......%$+..%$=..%$+......+$%...............................",
".......................$$......%$+..#-$*.%$$$$$$$.+$$$$$$$+.........................",
".......................%%......*%@...+%&.*%%%%%%%.@%%%%%%%@.........................",
"....................................................................................",
"....................................................................................",
"....................................................................................",
"....................................................................................",
"....................................................................................",
"....................................................................................",
"....................................................................................",
"....................................................................................",
"....................................................................................",
"....................................................................................",
"....................................................................................",
"....................................................................................",
"....................................................................................",
"...................................................................................."};
