/* XPM */
static char * h7Seg_3_xpm[] = {
"16 23 61 1",
" 	c None",
".	c #9AA09A",
"+	c #99A099",
"@	c #98A198",
"#	c #96A296",
"$	c #97A197",
"%	c #92A492",
"&	c #90A690",
"*	c #91A591",
"=	c #91A491",
"-	c #93A193",
";	c #8FA68F",
">	c #8DA78D",
",	c #85AC85",
"'	c #86AA86",
")	c #82AE82",
"!	c #9E9E9E",
"~	c #9C9E9C",
"{	c #9D9D9D",
"]	c #9C9C9C",
"^	c #9B9F9B",
"/	c #9B9C9B",
"(	c #9B9B9B",
"_	c #9A9A9A",
":	c #999999",
"<	c #989898",
"[	c #979797",
"}	c #969696",
"|	c #64C064",
"1	c #5DC45D",
"2	c #5FC35F",
"3	c #58C758",
"4	c #55C955",
"5	c #52CB52",
"6	c #4AD04A",
"7	c #45D445",
"8	c #4ECE4E",
"9	c #7EB07E",
"0	c #79B279",
"a	c #77B577",
"b	c #76B576",
"c	c #74B674",
"d	c #6DBB6D",
"e	c #68BE68",
"f	c #69BD69",
"g	c #2EE12E",
"h	c #28E428",
"i	c #23E823",
"j	c #22E822",
"k	c #39DB39",
"l	c #38DB38",
"m	c #34DD34",
"n	c #14F114",
"o	c #10F410",
"p	c #18EF18",
"q	c #0BF80B",
"r	c #08F908",
"s	c #0BF70B",
"t	c #05FB05",
"u	c #03FC03",
"v	c #00FF00",
"!!!!!{{{{{{{{%*+",
"!!!{([}}}}}}/tvf",
"!!!([]}}}}}}'vv,",
"!!!_}:(_____dvu^",
"!!!:}[!!!!!!4vp!",
"!!!<}:!!!!!!kvm!",
"!!!}}_!!!!!!iv6!",
"!!{}}_!!!!!!rv|!",
"!!]}}]!!!!!>vv9!",
"!!_}}{!!!!!cvv$!",
"!!:}}(<<<<:3vn!!",
"!!{{{:}}}}<.#@!!",
"!!}}::<<<<(gq8!!",
"!{}}_!!!!!!sv2!!",
"!]}}(!!!!!=vva!!",
"!_}}{!!!!!bvv;!!",
"!:}}!!!!!!1vr!!!",
"!<}[!!!!!!7vj!!!",
"!}}:!!!!!!hvl!!!",
"!}[](((((]ov5!!!",
"][]}}}}}}-vve!!!",
"]][}}}}}}0vv)!!!",
"!{{{{{{{{+&&~!!!"};
