/* XPM */
static char * hCompActyOff_xpm[] = {
"32 32 43 1",
" 	c None",
".	c #9E999F",
"+	c #6E6A6E",
"@	c #343335",
"#	c #4F4C50",
"$	c #9A959A",
"%	c #464447",
"&	c #918C92",
"*	c #726E73",
"=	c #656266",
"-	c #5C595D",
";	c #585558",
">	c #959096",
",	c #767377",
"'	c #232224",
")	c #1A1A1A",
"!	c #282628",
"~	c #000000",
"{	c #272628",
"]	c #161516",
"^	c #848084",
"/	c #424042",
"(	c #3D3C3E",
"_	c #605E61",
":	c #8C888D",
"<	c #0D0D0D",
"[	c #232223",
"}	c #39373A",
"|	c #69666A",
"1	c #888489",
"2	c #4E4C50",
"3	c #090809",
"4	c #302F30",
"5	c #393739",
"6	c #7B777C",
"7	c #4A484B",
"8	c #535154",
"9	c #2B2A2C",
"0	c #7F7B80",
"a	c #040404",
"b	c #2C2A2C",
"c	c #302F31",
"d	c #1E1E1F",
"................................",
"................................",
"................................",
"................................",
"................................",
"................................",
"................................",
"................................",
"................................",
"................................",
"......+@#$.+@%&.#*.=-&##;>......",
".....,'>@%,)>;!.~{.])^]^/%......",
".....(_.:,(-..<:~{&[)^).-}......",
".....@|...}=..]1~/2/)^3@}^......",
"....._4.;5|4.6).~=<_)^).........",
"......74@&.89@^.@:@1%:%.........",
"................................",
".......>#:..+@#$-###*_.0_.......",
".......=a8.,'>@%1;b^&3:!|.......",
".......c#d.(_.:,.|@..#4)........",
"......&a030@|....|@..>3|........",
"......-!#b7_4.;5.|@...)^........",
"......8,.^7.74@&.6;...%:........",
"................................",
"................................",
"................................",
"................................",
"................................",
"................................",
"................................",
"................................",
"................................"};
