/* XPM */
static char * hGimbalLockOn_xpm[] = {
"42 20 47 1",
" 	c None",
".	c #FFD000",
"+	c #C09C00",
"@	c #5C4B00",
"#	c #796200",
"$	c #EABE00",
"%	c #806800",
"&	c #B89600",
"*	c #A38500",
"=	c #957900",
"-	c #876E00",
";	c #9C7F00",
">	c #C6A200",
",	c #2B2200",
"'	c #6A5600",
")	c #473A00",
"!	c #000000",
"~	c #403400",
"{	c #241D00",
"]	c #2A2200",
"^	c #D4AD00",
"/	c #8E7300",
"(	c #F1C400",
"_	c #0E0C00",
":	c #322800",
"<	c #392E00",
"[	c #AA8A00",
"}	c #786200",
"|	c #DCB300",
"1	c #554500",
"2	c #4E4000",
"3	c #151100",
"4	c #9C7E00",
"5	c #725C00",
"6	c #645100",
"7	c #E3B900",
"8	c #BF9C00",
"9	c #CEA800",
"0	c #F8CA00",
"a	c #635100",
"b	c #1C1700",
"c	c #CEA700",
"d	c #070600",
"e	c #161100",
"f	c #4E3F00",
"g	c #B29000",
"h	c #EABF00",
"..........................................",
"..........................................",
"..........................................",
"........+@#$.%.%&.*=.%%-$..;&.$=..........",
".......>,$').!.!~.{].!^/).(_:.^]..........",
".......'=..^.!.!~$<].![}@.*@{|^]..........",
".......1*.1!.!.!'%'].![-1.~/1#^]..........",
".......;2.&!.!.!*34].!.|_$3%5{^]..........",
"........-)6%.1.171|5.111+8-..69111>.......",
"..........................................",
"..........................................",
"...........%....=1%0.|aa|$=.^-............",
"...........!...=20a'0{9[b^]${&............",
"...........!...<8.$_&)..[c{]*.............",
"...........!...:c.0d[1...^d21.............",
"...........!...%}.;1$e$7_c]0</............",
"...........111[0'f@$.gf)+75.7@h...........",
"..........................................",
"..........................................",
".........................................."};
