/* XPM */
static char * hKeyRelUp_xpm[] = {
"38 38 114 2",
"  	c None",
". 	c #000000",
"+ 	c #292929",
"@ 	c #8F8F8F",
"# 	c #121212",
"$ 	c #1D1D1D",
"% 	c #999999",
"& 	c #3B3B3B",
"* 	c #303030",
"= 	c #ABABAB",
"- 	c #919191",
"; 	c #2C2C2C",
"> 	c #989898",
", 	c #090909",
"' 	c #838383",
") 	c #565656",
"! 	c #3D3D3D",
"~ 	c #D5D5D5",
"{ 	c #2D2D2D",
"] 	c #929292",
"^ 	c #0D0D0D",
"/ 	c #474747",
"( 	c #DADADA",
"_ 	c #262626",
": 	c #0C0C0C",
"< 	c #ACACAC",
"[ 	c #8E8E8E",
"} 	c #333333",
"| 	c #DDDDDD",
"1 	c #2E2E2E",
"2 	c #DBDBDB",
"3 	c #9F9F9F",
"4 	c #E0E0E0",
"5 	c #5C5C5C",
"6 	c #4E4E4E",
"7 	c #3C3C3C",
"8 	c #3F3F3F",
"9 	c #D7D7D7",
"0 	c #B7B7B7",
"a 	c #979797",
"b 	c #020202",
"c 	c #F1F1F1",
"d 	c #BABABA",
"e 	c #161616",
"f 	c #EAEAEA",
"g 	c #939393",
"h 	c #898989",
"i 	c #6A6A6A",
"j 	c #050505",
"k 	c #9A9A9A",
"l 	c #E8E8E8",
"m 	c #373737",
"n 	c #BBBBBB",
"o 	c #8D8D8D",
"p 	c #080808",
"q 	c #D2D2D2",
"r 	c #141414",
"s 	c #5E5E5E",
"t 	c #D4D4D4",
"u 	c #1B1B1B",
"v 	c #D8D8D8",
"w 	c #646464",
"x 	c #494949",
"y 	c #EDEDED",
"z 	c #A2A2A2",
"A 	c #5B5B5B",
"B 	c #D3D3D3",
"C 	c #0F0F0F",
"D 	c #070707",
"E 	c #2B2B2B",
"F 	c #2A2A2A",
"G 	c #131313",
"H 	c #393939",
"I 	c #0B0B0B",
"J 	c #1A1A1A",
"K 	c #272727",
"L 	c #252525",
"M 	c #0A0A0A",
"N 	c #1E1E1E",
"O 	c #111111",
"P 	c #0E0E0E",
"Q 	c #1F1F1F",
"R 	c #9E9E9E",
"S 	c #CCCCCC",
"T 	c #B1B1B1",
"U 	c #C8C8C8",
"V 	c #B3B3B3",
"W 	c #C7C7C7",
"X 	c #4F4F4F",
"Y 	c #555555",
"Z 	c #BCBCBC",
"` 	c #AFAFAF",
" .	c #7F7F7F",
"..	c #4A4A4A",
"+.	c #212121",
"@.	c #C5C5C5",
"#.	c #686868",
"$.	c #CFCFCF",
"%.	c #A1A1A1",
"&.	c #BDBDBD",
"*.	c #7D7D7D",
"=.	c #030303",
"-.	c #888888",
";.	c #363636",
">.	c #535353",
",.	c #CDCDCD",
"'.	c #787878",
").	c #959595",
"!.	c #6C6C6C",
"~.	c #434343",
"{.	c #A8A8A8",
"].	c #747474",
"^.	c #505050",
"/.	c #818181",
". . . . . . . . . . . . . . . . . . . . . . . . . . . . . . . . . . . . . . ",
". . . . . . . . . . . . . . . . . . . . . . . . . . . . . . . . . . . . . . ",
". . . . . . . . . . . . . . . . . . . . . . . . . . . . . . . . . . . . . . ",
". . . . . . . . . . . . . . . . . . . . . . . . . . . . . . . . . . . . . . ",
". . . . . . . . . . . . . . . . . . . . . . . . . . . . . . . . . . . . . . ",
". . . . . . . . . . . . . . . . . . . . . . . . . . . . . . . . . . . . . . ",
". . . . . . . . . . . . . . . . . . . . . . . . . . . . . . . . . . . . . . ",
". . . . . . . . . . . . . . . . . . . . . . . . . . . . . . . . . . . . . . ",
". . . . . . . . . . . . . . . . . . . . . . . . . . . . . . . . . . . . . . ",
". . . . . . . . . . . . . . . . . . . . . . . . . . . . . . . . . . . . . . ",
". . . . . . . . . . . . . . . . . . . . . . . . . . . . . . . . . . . . . . ",
". . . . . . . . . . . . . . . . . . . . . . . . . . . . . . . . . . . . . . ",
". . . . . . . . . . + @ # $ % & * = = = - ; > + , ' ) . . . . . . . . . . . ",
". . . . . . . . . . ! ~ { = ] ^ / ( ! ; _ : < [ } | 1 . . . . . . . . . . . ",
". . . . . . . . . . ! 2 = 3 ^ . / 4 5 6 7 . 8 9 0 a b . . . . . . . . . . . ",
". . . . . . . . . . ! c 2 d e . / f g h i . j k l 1 . . . . . . . . . . . . ",
". . . . . . . . . . ! 2 m n o p / q r . . . . s t b . . . . . . . . . . . . ",
". . . . . . . . . . ! ~ u } v w x y z k [ $ . A B . . . . . . . . . . . . . ",
". . . . . . . . . . C } D . E F G ! ! ! H I . e } . . . . . . . . . . . . . ",
". . . . . . . . . . . . . . . . . . . . . . . . . . . . . . . . . . . . . . ",
". . . . . . . . . . . J K K L M . N K K K O P Q . . . . . . . . . . . . . . ",
". . . . . . . . . . . R S T U g , V W T T X Y Z . . . . . . . . . . . . . . ",
". . . . . . . . . . . `  .. ..9 +.@.#.. . . s $.. . . . . . . . . . . . . . ",
". . . . . . . . . . . ` < A R ` : @.W %.%.{ s $.. . . . . . . . . . . . . . ",
". . . . . . . . . . . ` &.*.&.- =.@.-.;.;.C s $.. . . . . . . . . . . . . . ",
". . . . . . . . . . . `  .. >.,.# @.'.u u O s t u u G . . . . . . . . . . . ",
". . . . . . . . . . . ).!.. ~.0 e {.U Z Z ].^.t Z Z /.. . . . . . . . . . . ",
". . . . . . . . . . . . . . . . . . . . . . . . . . . . . . . . . . . . . . ",
". . . . . . . . . . . . . . . . . . . . . . . . . . . . . . . . . . . . . . ",
". . . . . . . . . . . . . . . . . . . . . . . . . . . . . . . . . . . . . . ",
". . . . . . . . . . . . . . . . . . . . . . . . . . . . . . . . . . . . . . ",
". . . . . . . . . . . . . . . . . . . . . . . . . . . . . . . . . . . . . . ",
". . . . . . . . . . . . . . . . . . . . . . . . . . . . . . . . . . . . . . ",
". . . . . . . . . . . . . . . . . . . . . . . . . . . . . . . . . . . . . . ",
". . . . . . . . . . . . . . . . . . . . . . . . . . . . . . . . . . . . . . ",
". . . . . . . . . . . . . . . . . . . . . . . . . . . . . . . . . . . . . . ",
". . . . . . . . . . . . . . . . . . . . . . . . . . . . . . . . . . . . . . ",
". . . . . . . . . . . . . . . . . . . . . . . . . . . . . . . . . . . . . . "};
