/* XPM */
static char * hKeyRelOff_xpm[] = {
"42 20 31 1",
" 	c None",
".	c #CCCCCC",
"+	c #808080",
"@	c #AEAEAE",
"#	c #8D8D8D",
"$	c #C8C8C8",
"%	c #9A9A9A",
"&	c #AAAAAA",
"*	c #ACACAC",
"=	c #959595",
"-	c #919191",
";	c #868686",
">	c #BBBBBB",
",	c #B7B7B7",
"'	c #8F8F8F",
")	c #C6C6C6",
"!	c #CACACA",
"~	c #888888",
"{	c #B5B5B5",
"]	c #B2B2B2",
"^	c #A2A2A2",
"/	c #A6A6A6",
"(	c #848484",
"_	c #A4A4A4",
":	c #999999",
"<	c #8A8A8A",
"[	c #C2C2C2",
"}	c #C0C0C0",
"|	c #B9B9B9",
"1	c #B0B0B0",
"2	c #C4C4C4",
"..........................................",
"..........................................",
"..........................................",
"..........................................",
"..........................................",
"..........................................",
"..........................................",
"..........................................",
".......+.@#$+%%&*=.%&..%-%;>%-%%.+........",
".......+,').+...!~{~!..%].^/%]...+........",
".......+(_..+::].*(*...%-%<[%-:^.+........",
".......+}~>.+....!+!...%].-,%]...+........",
".......+.|;)+//*..+....%].%1%://)+//|.....",
".......}..[)}}}[..}....2$.2)2}}}!}}}).....",
"..........................................",
"..........................................",
"..........................................",
"..........................................",
"..........................................",
".........................................."};
