/* XPM */
static char * hNoAttOff_xpm[] = {
"42 20 38 1",
" 	c None",
".	c #CCCCCC",
"+	c #B9B9B9",
"@	c #B0B0B0",
"#	c #BFBFBF",
"$	c #B3B3B3",
"%	c #B5B5B5",
"&	c #9A9A9A",
"*	c #A2A2A2",
"=	c #C6C6C6",
"-	c #A6A6A6",
";	c #828282",
">	c #C0C0C0",
",	c #B2B2B2",
"'	c #8D8D8D",
")	c #C8C8C8",
"!	c #AAAAAA",
"~	c #939393",
"{	c #8B8B8B",
"]	c #868686",
"^	c #CACACA",
"/	c #8A8A8A",
"(	c #C4C4C4",
"_	c #A0A0A0",
":	c #919191",
"<	c #9E9E9E",
"[	c #ACACAC",
"}	c #BDBDBD",
"|	c #8F8F8F",
"1	c #979797",
"2	c #8C8C8C",
"3	c #9C9C9C",
"4	c #C2C2C2",
"5	c #A4A4A4",
"6	c #848484",
"7	c #BBBBBB",
"8	c #A8A8A8",
"9	c #959595",
"..........................................",
"..........................................",
"..........................................",
"..........................................",
"..........................................",
"..........................................",
"..........................................",
"........+@.#$.%&*=....%@.#---$----........",
"........-;>,&+')!~....{]^)>/%(>__>........",
"........-:~,&<[..](..}|1%..2>..--.........",
"........--&1&3@../4..__51..2>..--.........",
"........--(6&$1.7'...]--6).2>..--.........",
"........$$.@!.89&#..4_..-}.*(..$$.........",
"..........................................",
"..........................................",
"..........................................",
"..........................................",
"..........................................",
"..........................................",
".........................................."};
