/* XPM */
static char * hNounOff_xpm[] = {
"32 12 35 1",
" 	c None",
".	c #9E999F",
"+	c #4F4C50",
"@	c #8C888D",
"#	c #5C595D",
"$	c #918C92",
"%	c #464447",
"&	c #343335",
"*	c #6E6A6E",
"=	c #767377",
"-	c #656266",
";	c #848084",
">	c #69666A",
",	c #000000",
"'	c #39373A",
")	c #1A1A1A",
"!	c #282628",
"~	c #605E61",
"{	c #161516",
"]	c #040404",
"^	c #232224",
"/	c #726E73",
"(	c #0D0D0D",
"_	c #3D3C3E",
":	c #7F7B80",
"<	c #1E1E1F",
"[	c #302F30",
"}	c #464446",
"|	c #2C2A2C",
"1	c #585558",
"2	c #090809",
"3	c #959096",
"4	c #302F31",
"5	c #535154",
"6	c #9A959A",
"................................",
"................................",
"................................",
"......+@.#$$%&*.==.===-.;>......",
"......,'.);!~${=++.+++];>&......",
"......,^=)/(..#_++.+++^!>&......",
"......,:<{*{..-'++.++++&[&......",
"......,.},;):.|>1_._1++@2&......",
"......&.3'@;445.6_[_6>>.-1......",
"................................",
"................................",
"................................"};
