/* XPM */
static char * hNounOn_xpm[] = {
"32 12 37 1",
" 	c None",
".	c #00FF00",
"+	c #008000",
"@	c #00E300",
"#	c #009500",
"$	c #00EA00",
"%	c #007200",
"&	c #005500",
"*	c #00B100",
"=	c #00BF00",
"-	c #00A300",
";	c #00D400",
">	c #00AA00",
",	c #000000",
"'	c #005C00",
")	c #002A00",
"!	c #004000",
"~	c #009C00",
"{	c #002400",
"]	c #00C000",
"^	c #000700",
"/	c #00D500",
"(	c #003900",
"_	c #00B800",
":	c #001500",
"<	c #006300",
"[	c #00CE00",
"}	c #003200",
"|	c #004E00",
"1	c #002B00",
"2	c #004700",
"3	c #008E00",
"4	c #000E00",
"5	c #00F100",
"6	c #008700",
"7	c #00F800",
"8	c #006400",
"................................",
"................................",
"................................",
"......+@.#$$%&*.==.===-.;>......",
"......,'.);!~${]++.+++^/>&......",
"......,(])_:..#<++.+++(!>&......",
"......,[}{*{..-'++.++++&|&......",
"......,.%,;1[.2>3<.<3++@4&......",
"......&.5'@;||6.78|87>>.-3......",
"................................",
"................................",
"................................"};
