/* XPM */
static char * hOprErrOnO_xpm[] = {
"42 20 40 1",
" 	c None",
".	c #FFD000",
"+	c #EABE00",
"@	c #725C00",
"#	c #554500",
"$	c #B19000",
"%	c #BF9C00",
"&	c #806800",
"*	c #AA8A00",
"=	c #957900",
"-	c #9C7F00",
";	c #C6A200",
">	c #403400",
",	c #241D00",
"'	c #C09C00",
")	c #6A5600",
"!	c #CEA700",
"~	c #2B2200",
"{	c #2A2200",
"]	c #1C1700",
"^	c #B89600",
"/	c #D4AD00",
"(	c #DCB300",
"_	c #A38500",
":	c #0E0C00",
"<	c #E3B900",
"[	c #151100",
"}	c #635100",
"|	c #322800",
"1	c #8E7300",
"2	c #5C4B00",
"3	c #F8CA00",
"4	c #786200",
"5	c #4E4000",
"6	c #CEA800",
"7	c #473A00",
"8	c #4E3F00",
"9	c #876E00",
"0	c #D5AD00",
"a	c #635000",
"..........................................",
"..........................................",
"..........................................",
"..........................................",
"..........................................",
"..........................................",
"..........................................",
".....+@#$.%&&*.=&&-...=&&=+&&&;+&&&;......",
".....>-+,'&)!~;{$!]^..{$/(/,/_:/,/_:......",
"....<[..=}&&.>${$/|;..{1*;/,/%]/,/%]......",
"....(,.._2&{#@3{)4,3..{1*;/[&5@/[&5@......",
".....~6.7*&&...{/.{/..{/../{./{/{./{......",
"...../589.**...@<.@0..@###<@.<a<@.<a......",
"..........................................",
"..........................................",
"..........................................",
"..........................................",
"..........................................",
"..........................................",
".........................................."};
