/* XPM */
static char * hPrioDispOff_xpm[] = {
"42 20 39 1",
" 	c None",
".	c #CCCCCC",
"+	c #BFBFBF",
"@	c #C1C1C1",
"#	c #C8C8C8",
"$	c #C3C3C3",
"%	c #CACACA",
"&	c #808080",
"*	c #999999",
"=	c #8C8C8C",
"-	c #A4A4A4",
";	c #B2B2B2",
">	c #888888",
",	c #8A8A8A",
"'	c #AAAAAA",
")	c #979797",
"!	c #939393",
"~	c #BDBDBD",
"{	c #ACACAC",
"]	c #9B9B9B",
"^	c #8E8E8E",
"/	c #B9B9B9",
"(	c #868686",
"_	c #AEAEAE",
":	c #848484",
"<	c #A6A6A6",
"[	c #C6C6C6",
"}	c #BBBBBB",
"|	c #B4B4B4",
"1	c #B7B7B7",
"2	c #A2A2A2",
"3	c #A8A8A8",
"4	c #B0B0B0",
"5	c #959595",
"6	c #909090",
"7	c #A0A0A0",
"8	c #919191",
"9	c #C4C4C4",
"0	c #9D9D9D",
"..........................................",
"..........................................",
"..........................................",
".............++@.#++$.#$.%+@..............",
".............&*=-;>*,';*#=)!*.............",
".............&.~=;*.{];*{]..^/............",
".............&=(_;:(=+;*<<..*;............",
".............&...;*[>};*|^%[(@............",
".............=...12.;*12.3=^4.............",
"..........................................",
"..........................................",
".............[++%.[[.$+#.@++..............",
".............<=*>@<<|,*([=56).............",
".............<<.'7<<'81|9=+%&.............",
".............<<.;*<<%'!(9=,(-.............",
".............<<.73<<<'.8|=+...............",
".............{==0%{{+8=]%)@...............",
"..........................................",
"..........................................",
".........................................."};
