/* XPM */
static char * hProUp_xpm[] = {
"38 38 79 1",
" 	c None",
".	c #000000",
"+	c #222222",
"@	c #323232",
"#	c #232323",
"$	c #030303",
"%	c #0E0E0E",
"&	c #1E1E1E",
"*	c #0D0D0D",
"=	c #434343",
"-	c #474747",
";	c #151515",
">	c #A2A2A2",
",	c #C9C9C9",
"'	c #A8A8A8",
")	c #D2D2D2",
"!	c #5C5C5C",
"~	c #424242",
"{	c #E0E0E0",
"]	c #ABABAB",
"^	c #B1B1B1",
"/	c #CECECE",
"(	c #343434",
"_	c #191919",
":	c #B4B4B4",
"<	c #C2C2C2",
"[	c #C5C5C5",
"}	c #2A2A2A",
"|	c #AFAFAF",
"1	c #7F7F7F",
"2	c #020202",
"3	c #8B8B8B",
"4	c #AEAEAE",
"5	c #141414",
"6	c #0B0B0B",
"7	c #C7C7C7",
"8	c #6B6B6B",
"9	c #747474",
"0	c #1B1B1B",
"a	c #A3A3A3",
"b	c #949494",
"c	c #9F9F9F",
"d	c #454545",
"e	c #BBBBBB",
"f	c #8C8C8C",
"g	c #E5E5E5",
"h	c #777777",
"i	c #7E7E7E",
"j	c #363636",
"k	c #ADADAD",
"l	c #848484",
"m	c #575757",
"n	c #D6D6D6",
"o	c #CACACA",
"p	c #979797",
"q	c #1A1A1A",
"r	c #838383",
"s	c #D1D1D1",
"t	c #272727",
"u	c #AAAAAA",
"v	c #8E8E8E",
"w	c #656565",
"x	c #D3D3D3",
"y	c #161616",
"z	c #D4D4D4",
"A	c #545454",
"B	c #DADADA",
"C	c #BFBFBF",
"D	c #7A7A7A",
"E	c #898989",
"F	c #646464",
"G	c #383838",
"H	c #A5A5A5",
"I	c #101010",
"J	c #0A0A0A",
"K	c #7C7C7C",
"L	c #C8C8C8",
"M	c #959595",
"N	c #111111",
"......................................",
"......................................",
"......................................",
"......................................",
"......................................",
"......................................",
"......................................",
"......................................",
"......................................",
"......................................",
"......................................",
"......................................",
"......................................",
"......................................",
"......................................",
"...........+@@#$%@@@&..*=-;...........",
"...........>,')!~{]^/(_:/<[}..........",
"...........|1234-)56789/0*ab..........",
"...........|cdef-ghi)jkl..mn..........",
"...........|opiq-ghrstuv..wx..........",
"...........|1...-)5yz-AB-(CD..........",
"...........EF...GHIIH-JK,LMN..........",
"........................N;............",
"......................................",
"......................................",
"......................................",
"......................................",
"......................................",
"......................................",
"......................................",
"......................................",
"......................................",
"......................................",
"......................................",
"......................................",
"......................................",
"......................................",
"......................................"};
