/* XPM */
static char * hrProgOff_xpm[] = {
"32 12 35 1",
" 	c None",
".	c #9E999F",
"+	c #4F4C50",
"@	c #535154",
"#	c #8C888D",
"$	c #848084",
"%	c #888489",
"&	c #7B777C",
"*	c #39373A",
"=	c #3D3C3E",
"-	c #585558",
";	c #343335",
">	c #605E61",
",	c #000000",
"'	c #575558",
")	c #2C2A2C",
"!	c #69666A",
"~	c #232223",
"{	c #0D0D0D",
"]	c #726E73",
"^	c #121112",
"/	c #9A959A",
"(	c #4A484B",
"_	c #918C92",
":	c #1A1A1A",
"<	c #767377",
"[	c #1E1E1F",
"}	c #424042",
"|	c #272628",
"1	c #959096",
"2	c #302F30",
"3	c #6E6A6E",
"4	c #646266",
"5	c #656266",
"6	c #5C595D",
"................................",
"................................",
"................................",
"......++@#$+++%.&*=%..-;>.......",
"......,$')!)$+~#{#]^/(=_:>......",
"......,.<[!)$>)-}..|]{_.1#......",
"......,;;<!:+~>@(..23,/&~;......",
"......,...!;.!;$:/#^1)4.=;......",
"......;...&-.&+.5)2<._;26-......",
"................................",
"................................",
"................................"};
