/* XPM */
static char * KeyRelOn_xpm[] = {
"84 40 11 1",
" 	c None",
".	c #FFFFFF",
"+	c #AAAAAA",
"@	c #C7C7C7",
"#	c #E3E3E3",
"$	c #000000",
"%	c #555555",
"&	c #1D1D1D",
"*	c #727272",
"=	c #393939",
"-	c #8E8E8E",
"....................................................................................",
"....................................................................................",
"....................................................................................",
"....................................................................................",
"....................................................................................",
"....................................................................................",
"....................................................................................",
"....................................................................................",
"....................................................................................",
"....................................................................................",
"....................................................................................",
"....................................................................................",
"....................................................................................",
"....................................................................................",
"....................................................................................",
"..............++....++@.+++++++#@+@....@+@....#+++++@...#+++++++..++................",
"..............$$...%$&#.$$$$$$$+#$$@..#$$#....+$$$$$$&#.+$$$$$$$..$$................",
"..............$$..%$&#..$$+++++#.*$=..=$*.....+$=+++&$-.+$=+++++..$$................",
"..............$$.%$&#...$$........&$-@$&......+$%...+$%.+$%.......$$................",
"..............$$+$$@....$$+++++...@$&&$@......+$%...%$*.+$=++++@..$$................",
"..............$$$$$%....$$$$$$$....*$$%.......+$$$$$$&#.+$$$$$$%..$$................",
"..............$$&@$$+...$$+++++....#$$#.......+$&%&$%...+$=++++@..$$................",
"..............$$#.-$&...$$..........$$........+$%.#&$+..+$%.......$$................",
"..............$$...&$*..$$..........$$........+$%..+$$#.+$%.......$$................",
"..............$$...@$$@.$$$$$$$%....$$........+$%...%$=.+$$$$$$$+.$$$$$$$...........",
"..............%%....*%*.%%%%%%%-....%%........@%-...#%%#@%%%%%%%@.%%%%%%%...........",
"....................................................................................",
"....................................................................................",
"....................................................................................",
"....................................................................................",
"....................................................................................",
"....................................................................................",
"....................................................................................",
"....................................................................................",
"....................................................................................",
"....................................................................................",
"....................................................................................",
"....................................................................................",
"....................................................................................",
"...................................................................................."};
