/* XPM */
static char * ProgUp_xpm[] = {
"75 75 11 1",
" 	c None",
".	c #000000",
"+	c #FFFFFF",
"@	c #C6C6C6",
"#	c #383838",
"$	c #555555",
"%	c #E2E2E2",
"&	c #8D8D8D",
"*	c #1C1C1C",
"=	c #AAAAAA",
"-	c #717171",
"...........................................................................",
"...........................................................................",
"...........................................................................",
"...........................................................................",
"...........................................................................",
"...........................................................................",
"...........................................................................",
"...........................................................................",
"...........................................................................",
"...........................................................................",
"...........................................................................",
"...........................................................................",
"...........................................................................",
"...........................................................................",
"...........................................................................",
"...........................................................................",
"...........................................................................",
"...........................................................................",
"...........................................................................",
"...........................................................................",
"...........................................................................",
"...........................................................................",
"...........................................................................",
"...........................................................................",
"...........................................................................",
"...........................................................................",
"...........................................................................",
"...........................................................................",
"...........................................................................",
"...........................................................................",
"...........................................................................",
"...............++++++@#..$++++++%&....*=++++@#.....$%++++&*................",
"...............++@==%++*.$++====++&..*%+%==@++$...&++===++@................",
"...............++$..*%+&.$++....-++..@+%*...=+%..#++$...$++$...............",
"...............++$...=+=.$++....$++..++$.....++$.=+=.....$#................",
"...............++$..*%+&.$++$$$-%+&.$++......=+=.++$.......................",
"...............++@==%++*.$+++++++&*.$++......=+=.++$..#====-...............",
"...............++++++@#..$++$-%+&...$++......=+=.++$..$++++=...............",
"...............++$.......$++..$++&..*++#.....%+-.@+&.....=+=...............",
"...............++$.......$++...&++#..@+=....$++*.-++*....=+=...............",
"...............++$.......$++...*%+%..#++=$$-++&...@+%$$$@++=...............",
"...............++$.......$++....$++-..$%+++++&....*=++++++@*...............",
"...............$$*.......*$$.....$$#....$$$$*.......*$$$$*.................",
"...........................................................................",
"...........................................................................",
"...........................................................................",
"...........................................................................",
"...........................................................................",
"...........................................................................",
"...........................................................................",
"...........................................................................",
"...........................................................................",
"...........................................................................",
"...........................................................................",
"...........................................................................",
"...........................................................................",
"...........................................................................",
"...........................................................................",
"...........................................................................",
"...........................................................................",
"...........................................................................",
"...........................................................................",
"...........................................................................",
"...........................................................................",
"...........................................................................",
"...........................................................................",
"...........................................................................",
"...........................................................................",
"...........................................................................",
"...........................................................................",
"...........................................................................",
"...........................................................................",
"...........................................................................",
"...........................................................................",
"..........................................................................."};
