/* XPM */
static char * RsetUp_xpm[] = {
"75 75 11 1",
" 	g None",
".	g #000000",
"+	g #717171",
"@	g #AAAAAA",
"#	g #8D8D8D",
"$	g #1C1C1C",
"%	g #E2E2E2",
"&	g #FFFFFF",
"*	g #C6C6C6",
"=	g #383838",
"-	g #555555",
"...........................................................................",
"...........................................................................",
"...........................................................................",
"...........................................................................",
"...........................................................................",
"...........................................................................",
"...........................................................................",
"...........................................................................",
"...........................................................................",
"...........................................................................",
"...........................................................................",
"...........................................................................",
"...........................................................................",
"...........................................................................",
"...........................................................................",
"...........................................................................",
"...........................................................................",
"...........................................................................",
"...........................................................................",
"...........................................................................",
"...........................................................................",
"...........................................................................",
"...........................................................................",
"...........................................................................",
"...........................................................................",
"...........................................................................",
"...........................................................................",
"...........................................................................",
"...........................................................................",
"...........................................................................",
"...........................................................................",
"..................+@@@@@@#$...$#%&&*+...=@@@@@@@@.+@@@@@@@@+...............",
"..................@&&&&&&&%$.$%&&@*&&#..-&&&&&&&&.@&&&&&&&&@...............",
"..................@&@...-&&#.+&%$..+&&..-&&..........-&&...................",
"..................@&@....@&@.@&@....&&-.-&&..........-&&...................",
"..................@&@....*&#.@&%+.......-&&..........-&&...................",
"..................@&*---@&&$.$&&&&%@-...-&&&&&&&@....-&&...................",
"..................@&&&&&&&=...$#%&&&&%$.-&&@@@@@+....-&&...................",
"..................@&*---@&%.......-#&&#.-&&..........-&&...................",
"..................@&@...$&&-.=-=....@&@.-&&..........-&&...................",
"..................@&@....&&-.@&*....*&#.-&&..........-&&...................",
"..................@&@....&&-.=&&*--@&&=.-&&@@@@@@=...-&&...................",
"..................@&@....&&#..-%&&&&%-..-&&&&&&&&-...-&&...................",
"................................=--=.......................................",
"...........................................................................",
"...........................................................................",
"...........................................................................",
"...........................................................................",
"...........................................................................",
"...........................................................................",
"...........................................................................",
"...........................................................................",
"...........................................................................",
"...........................................................................",
"...........................................................................",
"...........................................................................",
"...........................................................................",
"...........................................................................",
"...........................................................................",
"...........................................................................",
"...........................................................................",
"...........................................................................",
"...........................................................................",
"...........................................................................",
"...........................................................................",
"...........................................................................",
"...........................................................................",
"...........................................................................",
"...........................................................................",
"...........................................................................",
"...........................................................................",
"...........................................................................",
"...........................................................................",
"...........................................................................",
"..........................................................................."};
