/* XPM */
static char * VerbUp_xpm[] = {
"75 75 11 1",
" 	g None",
".	g #000000",
"+	g #555555",
"@	g #AAAAAA",
"#	g #1C1C1C",
"$	g #383838",
"%	g #717171",
"&	g #FFFFFF",
"*	g #E2E2E2",
"=	g #8D8D8D",
"-	g #C6C6C6",
"...........................................................................",
"...........................................................................",
"...........................................................................",
"...........................................................................",
"...........................................................................",
"...........................................................................",
"...........................................................................",
"...........................................................................",
"...........................................................................",
"...........................................................................",
"...........................................................................",
"...........................................................................",
"...........................................................................",
"...........................................................................",
"...........................................................................",
"...........................................................................",
"...........................................................................",
"...........................................................................",
"...........................................................................",
"...........................................................................",
"...........................................................................",
"...........................................................................",
"...........................................................................",
"...........................................................................",
"...........................................................................",
"...........................................................................",
"...........................................................................",
"...........................................................................",
"...........................................................................",
"...........................................................................",
"...........................................................................",
"...............+@@....#@@#.@@@@@@@@$.$@@@@@@@$...%@@@@@@$..................",
"...............$&&#...%&*..&&&&&&&&+.+&&&&&&&&+..@&&&&&&&@.................",
"................*&%...@&=..&&+.......+&&...#*&*..@&@...=&&#................",
"................=&@...&&$..&&+.......+&&....+&&..@&@....&&+................",
"................$&&..+&*...&&+.......+&&....%&*..@&@...+&&#................",
".................*&+.=&=...&&&&&&&&..+&&+++%&&%..@&&&&&&*+.................",
".................=&@.*&$...&&-@@@@@..+&&&&&&&=...@&*@@@*&@.................",
".................$&*#&*....&&+.......+&&+++%&&$..@&@...#*&%................",
"..................*&@&=....&&+.......+&&....-&@..@&@....@&@................",
"..................=&&&$....&&+.......+&&....@&@..@&@...#*&=................",
"..................$&&*.....&&-@@@@@%.+&&....@&@..@&*@@@*&&#................",
"...................*&=.....&&&&&&&&@.+&&....@&*..@&&&&&&@$.................",
"...........................................................................",
"...........................................................................",
"...........................................................................",
"...........................................................................",
"...........................................................................",
"...........................................................................",
"...........................................................................",
"...........................................................................",
"...........................................................................",
"...........................................................................",
"...........................................................................",
"...........................................................................",
"...........................................................................",
"...........................................................................",
"...........................................................................",
"...........................................................................",
"...........................................................................",
"...........................................................................",
"...........................................................................",
"...........................................................................",
"...........................................................................",
"...........................................................................",
"...........................................................................",
"...........................................................................",
"...........................................................................",
"...........................................................................",
"...........................................................................",
"...........................................................................",
"...........................................................................",
"...........................................................................",
"...........................................................................",
"..........................................................................."};
