/* XPM */
static char * 7Seg_3_xpm[] = {
"32 45 39 1",
" 	c None",
".	c #97A197",
"+	c #91A591",
"@	c #8AA98A",
"#	c #84AD84",
"$	c #9E9E9E",
"%	c #9D9D9D",
"&	c #9C9C9C",
"*	c #9B9B9B",
"=	c #9A9A9A",
"-	c #999999",
";	c #989898",
">	c #979797",
",	c #969696",
"'	c #64C064",
")	c #5FC45F",
"!	c #5EC45E",
"~	c #57C857",
"{	c #4BD04B",
"]	c #45D445",
"^	c #45D345",
"/	c #4BCF4B",
"(	c #7EB17E",
"_	c #7DB17D",
":	c #71B871",
"<	c #77B477",
"[	c #6ABC6A",
"}	c #2BE32B",
"|	c #25E725",
"1	c #3FD83F",
"2	c #3ED83E",
"3	c #32DF32",
"4	c #12F312",
"5	c #12F212",
"6	c #1FEB1F",
"7	c #18EF18",
"8	c #18EE18",
"9	c #0CF70C",
"0	c #00FF00",
"$$$$$$$$$$$$$$$$$$$$$$$$$$$$$$$$",
"$$$$$$$$$$&&&&&&&&&&&&&&%$#(((#$",
"$$$$$$$$&$;,,,,,,,,,,,,,-$5000}$",
"$$$$$$$&>$&,,,,,,,,,,,,,=.0000]$",
"$$$$$$$=,-$;,,,,,,,,,,,,&(0000!$",
"$$$$$$$-,,&%,,,,,,,,,,,,$!0000($",
"$$$$$$$;,,>$*-----------$^0000.$",
"$$$$$$$,,,,*$$$$$$$$$$$$$}0004$$",
"$$$$$$$,,,,-$$$$$$$$$$$$$5000}$$",
"$$$$$$&,,,,=$$$$$$$$$$$$.0000]$$",
"$$$$$$=,,,,&$$$$$$$$$$$$(0000!$$",
"$$$$$$-,,,,%$$$$$$$$$$$$!0000($$",
"$$$$$$;,,,,$$$$$$$$$$$$$/0000+$$",
"$$$$$$,,,,>$$$$$$$$$$$$$30009$$$",
"$$$$$$,,,,-$$$$$$$$$$$$$8000|$$$",
"$$$$$&,,,,-$$$$$$$$$$$$$00001$$$",
"$$$$$=,,,,=$$$$$$$$$$$$(0000!$$$",
"$$$$$-,,,,&$$$$$$$$$$$$'0000<$$$",
"$$$$$;,,,,%$$$$$$$$$$$$/0000+$$$",
"$$$$$,,,,,$$$$$$$$$$$$$30009$$$$",
"$$$$$,,,,>$;>>>>>>>>>=$8000|$$$$",
"$$$$&----=$,,,,,,,,,,=$2222'$$$$",
"$$$$$$$$$$&,,,,,,,,,,&$$$$$$$$$$",
"$$$$&====%=,,,,,,,,,,$#))))+$$$$",
"$$$$>,,,,%=>>>>>>>>>;$/0000+$$$$",
"$$$$,,,,,$$$$$$$$$$$$$30009$$$$$",
"$$$%,,,,>$$$$$$$$$$$$$80006$$$$$",
"$$$&,,,,-$$$$$$$$$$$$$00001$$$$$",
"$$$=,,,,=$$$$$$$$$$$$(0000~$$$$$",
"$$$-,,,,&$$$$$$$$$$$$'0000[$$$$$",
"$$$;,,,,%$$$$$$$$$$$$/0000#$$$$$",
"$$$,,,,,$$$$$$$$$$$$$30000$$$$$$",
"$$$,,,,>$$$$$$$$$$$$$80007$$$$$$",
"$$&,,,,-$$$$$$$$$$$$$00003$$$$$$",
"$$=,,,,=$$$$$$$$$$$$(0000{$$$$$$",
"$$-,,,,&$$$$$$$$$$$$'0000!$$$$$$",
"$$;,,,,%$$$$$$$$$$$$/0000($$$$$$",
"$$>,,,*$$$$$$$$$$$$$30000.$$$$$$",
"$$,,,*$=----------*$80009$$$$$$$",
"$&,,=$=,,,,,,,,,,,-$0000|$$$$$$$",
"$=,=$*,,,,,,,,,,,,=(00001$$$$$$$",
"$-=$&,,,,,,,,,,,,,&'0000~$$$$$$$",
"$&$%,,,,,,,,,,,,,,%/0000:$$$$$$$",
"$$$%&&&&&&&&&&&&&&$@____.$$$$$$$",
"$$$$$$$$$$$$$$$$$$$$$$$$$$$$$$$$"};
