/* XPM */
static char * 7Seg_0_xpm[] = {
"32 45 10 1",
" 	g None",
".	g #9E9E9E",
"+	g #9C9C9C",
"@	g #9D9D9D",
"#	g #989898",
"$	g #969696",
"%	g #999999",
"&	g #979797",
"*	g #9A9A9A",
"=	g #9B9B9B",
"................................",
"..........++++++++++++++@.+++++.",
"........+.#$$$$$$$$$$$$$%.$$$$&.",
".......+&.+$$$$$$$$$$$$$*@$$$$%.",
".......*$%.#$$$$$$$$$$$$++$$$$*.",
".......%$$+@$$$$$$$$$$$$.*$$$$+.",
".......#$$&.=%%%%%%%%%%%.%$$$$@.",
".......$$$$=.............&$$$$..",
".......$$$$%.............$$$$&..",
"......+$$$$*............@$$$$%..",
"......*$$$$+............+$$$$*..",
"......%$$$$@............*$$$$+..",
"......#$$$$.............%$$$$@..",
"......$$$$&.............#$$$$...",
"......$$$$%.............$$$$&...",
".....+$$$$%.............$$$$%...",
".....*$$$$*............+$$$$*...",
".....%$$$$+............*$$$$=...",
".....#$$$$@............%$$$$@...",
".....$$$$$.............#$$$$....",
".....$$$$&.#&&&&&&&&&*.$$$$&....",
"....+%%%%*.$$$$$$$$$$*.%%%%*....",
"..........+$$$$$$$$$$+..........",
"....+****@*$$$$$$$$$$.+****@....",
"....&$$$$@*&&&&&&&&&#.%$$$$@....",
"....$$$$$.............#$$$$.....",
"...@$$$$&.............$$$$&.....",
"...+$$$$%.............$$$$%.....",
"...*$$$$*............+$$$$%.....",
"...%$$$$+............*$$$$*.....",
"...#$$$$@............%$$$$+.....",
"...$$$$$.............#$$$$......",
"...$$$$&.............$$$$$......",
"..+$$$$%.............$$$$#......",
"..*$$$$*............+$$$$%......",
"..%$$$$+............*$$$$*......",
"..#$$$$@............%$$$$+......",
"..&$$$=.............#$$$$@......",
"..$$$=.*%%%%%%%%%%=.$$$$$.......",
".+$$*.*$$$$$$$$$$$%.$$$$&.......",
".*$*.=$$$$$$$$$$$$*+$$$$%.......",
".%*.+$$$$$$$$$$$$$+*$$$$%.......",
".+.@$$$$$$$$$$$$$$@%$$$$=.......",
"...@++++++++++++++.+++++@.......",
"................................"};
