/* XPM */
static char * h6Up_xpm[] = {
"38 38 54 1",
" 	c None",
".	c #000000",
"+	c #2A2A2A",
"@	c #7A7A7A",
"#	c #969696",
"$	c #555555",
"%	c #070707",
"&	c #2D2D2D",
"*	c #D8D8D8",
"=	c #DDDDDD",
"-	c #C6C6C6",
";	c #F1F1F1",
">	c #717171",
",	c #939393",
"'	c #EBEBEB",
")	c #3C3C3C",
"!	c #0D0D0D",
"~	c #686868",
"{	c #0B0B0B",
"]	c #D0D0D0",
"^	c #D2D2D2",
"/	c #6C6C6C",
"(	c #979797",
"_	c #5F5F5F",
":	c #191919",
"<	c #DBDBDB",
"[	c #F8F8F8",
"}	c #F7F7F7",
"|	c #282828",
"1	c #1C1C1C",
"2	c #D6D6D6",
"3	c #CFCFCF",
"4	c #0E0E0E",
"5	c #0F0F0F",
"6	c #D3D3D3",
"7	c #BEBEBE",
"8	c #030303",
"9	c #D9D9D9",
"0	c #171717",
"a	c #9D9D9D",
"b	c #ECECEC",
"c	c #585858",
"d	c #4A4A4A",
"e	c #E5E5E5",
"f	c #B5B5B5",
"g	c #050505",
"h	c #292929",
"i	c #C9C9C9",
"j	c #F6F6F6",
"k	c #F9F9F9",
"l	c #DEDEDE",
"m	c #3E3E3E",
"n	c #676767",
"o	c #2B2B2B",
"......................................",
"......................................",
"......................................",
"......................................",
"......................................",
"......................................",
"......................................",
"......................................",
"......................................",
"......................................",
"......................................",
"......................................",
"......................................",
"......................................",
".................+@#$%................",
"................&*=-;>................",
"................,')!>~................",
"...............{]^/(_{................",
"...............:<[^]}@................",
"...............:<<|1234...............",
"...............56788790...............",
"................abcdefg...............",
"................hijklm................",
".................:$no.................",
"......................................",
"......................................",
"......................................",
"......................................",
"......................................",
"......................................",
"......................................",
"......................................",
"......................................",
"......................................",
"......................................",
"......................................",
"......................................",
"......................................"};
