/* XPM */
static char * h7Seg_25_xpm[] = {
"16 23 78 1",
" 	c None",
".	c #9AA09A",
"+	c #99A099",
"@	c #98A198",
"#	c #96A296",
"$	c #97A197",
"%	c #96A196",
"&	c #92A492",
"*	c #90A690",
"=	c #91A591",
"-	c #90A290",
";	c #8CA88C",
">	c #89AA89",
",	c #8DA78D",
"'	c #85AC85",
")	c #87AB87",
"!	c #86AB86",
"~	c #82AE82",
"{	c #81AE81",
"]	c #9E9E9E",
"^	c #9D9D9D",
"/	c #9C9C9C",
"(	c #9B9F9B",
"_	c #9B9B9B",
":	c #9A9A9A",
"<	c #999999",
"[	c #989898",
"}	c #979797",
"|	c #969696",
"1	c #64C064",
"2	c #62C262",
"3	c #63C163",
"4	c #58C758",
"5	c #55C955",
"6	c #50CC50",
"7	c #4BD04B",
"8	c #4AD04A",
"9	c #4FCD4F",
"0	c #4ECD4E",
"a	c #4DCE4D",
"b	c #7FB07F",
"c	c #7EB07E",
"d	c #7DB17D",
"e	c #7BB27B",
"f	c #74B674",
"g	c #7FAF7F",
"h	c #6EBA6E",
"i	c #6DBB6D",
"j	c #6CBB6C",
"k	c #68BE68",
"l	c #69BD69",
"m	c #66BF66",
"n	c #2EE12E",
"o	c #2CE22C",
"p	c #28E528",
"q	c #23E823",
"r	c #26E726",
"s	c #39DB39",
"t	c #3FD73F",
"u	c #3ED73E",
"v	c #36DC36",
"w	c #34DE34",
"x	c #34DD34",
"y	c #32DF32",
"z	c #14F114",
"A	c #13F213",
"B	c #1FEA1F",
"C	c #1DEB1D",
"D	c #1BED1B",
"E	c #18EF18",
"F	c #0BF80B",
"G	c #08F908",
"H	c #06FA06",
"I	c #05FB05",
"J	c #03FC03",
"K	c #02FD02",
"L	c #01FE01",
"M	c #00FF00",
"]]]]]=======.&=+",
"]]]^_nMMMMMMeIMl",
"]]]_}~KMMMMMgMM'",
"]]]:|<h2222miMJ(",
"]]]<|}]]]]]]5ME]",
"]]][|<]]]]]]sMx]",
"]]]||:]]]]]]qM8]",
"]]^||:]]]]]]GM1]",
"]]/||/]]]]],MMc]",
"]]:||^]]]]]fMM$]",
"]]<||iwwww04Mz]]",
"]]^^^tMMMMu.#@]]",
"]]BF9ayyyyj}|<]]",
"]+LM1]]]]]]||:]]",
"]{MMd]]]]]^||_]]",
"]kMM%]]]]]_||^]]",
"]6MA]]]]]]:||]]]",
"]vMo]]]]]]<|}]]]",
"]CM7]]]]]]}|[]]]",
"]Hpb33333;||<]]]",
">D)AMMMMMg||:]]]",
"!,rMMMMMM-||/]]]",
"](*******^^^^]]]"};
