/* XPM */
static char * h7Seg_29_xpm[] = {
"16 23 99 2",
"  	c None",
". 	c #9AA09A",
"+ 	c #99A099",
"@ 	c #98A198",
"# 	c #98A098",
"$ 	c #96A296",
"% 	c #97A197",
"& 	c #96A196",
"* 	c #92A492",
"= 	c #90A690",
"- 	c #91A591",
"; 	c #91A491",
"> 	c #8CA88C",
", 	c #89AA89",
"' 	c #8FA68F",
") 	c #8DA78D",
"! 	c #85AC85",
"~ 	c #84AC84",
"{ 	c #87AB87",
"] 	c #86AB86",
"^ 	c #82AE82",
"/ 	c #81AE81",
"( 	c #80AF80",
"_ 	c #9E9E9E",
": 	c #9C9E9C",
"< 	c #9B9F9B",
"[ 	c #64C064",
"} 	c #62C262",
"| 	c #63C163",
"1 	c #63C063",
"2 	c #5DC45D",
"3 	c #5FC35F",
"4 	c #58C758",
"5 	c #57C857",
"6 	c #54CA54",
"7 	c #55C955",
"8 	c #50CC50",
"9 	c #52CB52",
"0 	c #4BD04B",
"a 	c #4AD04A",
"b 	c #48D148",
"c 	c #45D445",
"d 	c #4ECE4E",
"e 	c #4FCD4F",
"f 	c #4ECD4E",
"g 	c #4DCE4D",
"h 	c #4CCF4C",
"i 	c #7FB07F",
"j 	c #7EB07E",
"k 	c #7DB17D",
"l 	c #7CB17C",
"m 	c #79B479",
"n 	c #7BB27B",
"o 	c #77B577",
"p 	c #76B576",
"q 	c #74B674",
"r 	c #7FAF7F",
"s 	c #6FBA6F",
"t 	c #6EBA6E",
"u 	c #6DBB6D",
"v 	c #6CBB6C",
"w 	c #68BE68",
"x 	c #69BD69",
"y 	c #66BF66",
"z 	c #2FE02F",
"A 	c #2EE12E",
"B 	c #2CE22C",
"C 	c #28E528",
"D 	c #28E428",
"E 	c #23E823",
"F 	c #22E822",
"G 	c #26E726",
"H 	c #39DB39",
"I 	c #38DB38",
"J 	c #3FD73F",
"K 	c #3ED73E",
"L 	c #36DC36",
"M 	c #34DE34",
"N 	c #34DD34",
"O 	c #32DF32",
"P 	c #16F016",
"Q 	c #14F114",
"R 	c #10F410",
"S 	c #13F213",
"T 	c #1FEA1F",
"U 	c #1DEB1D",
"V 	c #1AEE1A",
"W 	c #1BED1B",
"X 	c #18EF18",
"Y 	c #0BF80B",
"Z 	c #08F908",
"` 	c #0BF70B",
" .	c #06FA06",
"..	c #05FB05",
"+.	c #03FC03",
"@.	c #02FD02",
"#.	c #01FE01",
"$.	c #00FF00",
"%.	c #00FE00",
"_ _ _ _ _ - - - - - - - . * - + ",
"_ _ _ $ m A $.$.$.$.$.$.n ..$.x ",
"_ _ _ l V i @.$.$.$.$.$.r $.$.! ",
"_ _ _ 1 $.6 t } } } } y u $.+.< ",
"_ _ _ b $.C _ _ _ _ _ _ 7 $.X _ ",
"_ _ _ z $.J _ _ _ _ _ _ H $.N _ ",
"_ _ _ P $.5 _ _ _ _ _ _ E $.a _ ",
"_ _ # %.$.u _ _ _ _ _ _ Z $.[ _ ",
"_ _ ( $.$.~ _ _ _ _ _ ) $.$.j _ ",
"_ _ y $.#.+ _ _ _ _ _ q $.$.% _ ",
"_ _ h $.Q u M M M M f 4 $.Q _ _ ",
"_ _ + $ @ J $.$.$.$.K . $ @ _ _ ",
"_ _ T Y e g O O O O v A Y d _ _ ",
"_ + #.$.[ _ _ _ _ _ _ ` $.3 _ _ ",
"_ / $.$.k _ _ _ _ _ ; $.$.o _ _ ",
"_ w $.$.& _ _ _ _ _ p $.$.' _ _ ",
"_ 8 $.S _ _ _ _ _ _ 2 $.Z _ _ _ ",
"_ L $.B _ _ _ _ _ _ c $.F _ _ _ ",
"_ U $.0 _ _ _ _ _ _ D $.I _ _ _ ",
"_  .C i | | | | | > R $.9 _ _ _ ",
", W { S $.$.$.$.$.p $.$.w _ _ _ ",
"] ) G $.$.$.$.$.$.s $.$.^ _ _ _ ",
"_ < = = = = = = = + = = : _ _ _ "};
