/* XPM */
static char * h7Seg_30_xpm[] = {
"16 23 76 1",
" 	c None",
".	c #9AA09A",
"+	c #99A099",
"@	c #98A198",
"#	c #98A098",
"$	c #96A296",
"%	c #95A095",
"&	c #90A690",
"*	c #91A591",
"=	c #91A491",
"-	c #90A490",
";	c #8CA88C",
">	c #8FA68F",
",	c #84AC84",
"'	c #82AE82",
")	c #80AF80",
"!	c #9E9E9E",
"~	c #9C9E9C",
"{	c #9D9D9D",
"]	c #9C9C9C",
"^	c #9B9F9B",
"/	c #9A9E9A",
"(	c #9B9B9B",
"_	c #9A9A9A",
":	c #999999",
"<	c #989898",
"[	c #979797",
"}	c #969696",
"|	c #62C262",
"1	c #63C163",
"2	c #63C063",
"3	c #5DC45D",
"4	c #5FC35F",
"5	c #57C857",
"6	c #54CA54",
"7	c #52CB52",
"8	c #48D148",
"9	c #45D445",
"0	c #4ECE4E",
"a	c #4ECD4E",
"b	c #4DCE4D",
"c	c #4CCF4C",
"d	c #7FB07F",
"e	c #7CB17C",
"f	c #79B479",
"g	c #77B577",
"h	c #76B576",
"i	c #6FBA6F",
"j	c #6EBA6E",
"k	c #6DBB6D",
"l	c #6CBB6C",
"m	c #68BE68",
"n	c #66BF66",
"o	c #2FE02F",
"p	c #2EE12E",
"q	c #28E528",
"r	c #28E428",
"s	c #22E822",
"t	c #26E726",
"u	c #38DB38",
"v	c #3FD73F",
"w	c #3ED73E",
"x	c #34DE34",
"y	c #32DF32",
"z	c #16F016",
"A	c #14F114",
"B	c #10F410",
"C	c #13F213",
"D	c #1AEE1A",
"E	c #0BF80B",
"F	c #08F908",
"G	c #0BF70B",
"H	c #02FD02",
"I	c #01FE01",
"J	c #00FF00",
"K	c #00FE00",
"!!!!!*******.{{{",
"!!!$fpJJJJJJe}}_",
"!!!eDdHJJJJJ%}}]",
"!!!2J6j||||n_}}{",
"!!!8Jq!!!!!!_}}!",
"!!!oJv!!!!!!<}<!",
"!!!zJ5!!!!!![}:!",
"!!#KJk!!!!!!}}_!",
"!!)JJ,!!!!!]}}]!",
"!!nJI+!!!!!(}}{!",
"!!cJAkxxxxa_}}!!",
"!!+$@vJJJJw{{{!!",
"!!}}:byyyylpE0!!",
"!{}}_!!!!!!GJ4!!",
"!]}}(!!!!!=JJg!!",
"!_}}{!!!!!hJJ>!!",
"!:}}!!!!!!3JF!!!",
"!<}[!!!!!!9Js!!!",
"!}}:!!!!!!rJu!!!",
"!}[,11111;BJ7!!!",
"][-CJJJJJhJJm!!!",
"]/tJJJJJJiJJ'!!!",
"!^&&&&&&&+&&~!!!"};
