/* XPM */
static char * hAltOn_xpm[] = {
"42 20 27 1",
" 	c None",
".	c #FFD000",
"+	c #E3B900",
"@	c #EABE00",
"#	c #D4AD00",
"$	c #F8CA00",
"%	c #DCB300",
"&	c #322800",
"*	c #000000",
"=	c #554500",
"-	c #1C1700",
";	c #392E00",
">	c #725C00",
",	c #CEA800",
"'	c #2B2200",
")	c #AA8A00",
"!	c #635100",
"~	c #786200",
"{	c #6A5600",
"]	c #161100",
"^	c #0E0C00",
"/	c #F1C400",
"(	c #B89600",
"_	c #645100",
":	c #B19000",
"<	c #2A2200",
"[	c #957900",
"..........................................",
"..........................................",
"..........................................",
"..........................................",
"..........................................",
"..........................................",
"..........................................",
"...............+@..#..$###%...............",
"...............&&..*..+=-;>...............",
"..............,&',.*....=)................",
"..............!~{!.*....=)................",
".............$]==^/*....=)................",
".............(_.._:<<<[.>(................",
"..........................................",
"..........................................",
"..........................................",
"..........................................",
"..........................................",
"..........................................",
".........................................."};
