/* XPM */
static char * hHoldOnO_xpm[] = {
"42 20 27 1",
" 	c None",
".	c #FFD000",
"+	c #D4AD00",
"@	c #DCB300",
"#	c #F8CA00",
"$	c #EABE00",
"%	c #F1C400",
"&	c #000000",
"*	c #725C00",
"=	c #322800",
"-	c #554500",
";	c #241D00",
">	c #E3B900",
",	c #806800",
"'	c #AA8A00",
")	c #1C1700",
"!	c #C09C00",
"~	c #0E0C00",
"{	c #876E00",
"]	c #6A5600",
"^	c #B89600",
"/	c #403400",
"(	c #2A2200",
"_	c #957900",
":	c #5C4B00",
"<	c #392E00",
"[	c #4E4000",
"..........................................",
"..........................................",
"..........................................",
"..........................................",
"..........................................",
"..........................................",
"..........................................",
"...........+..+..@+#.$$..%++%.............",
"...........&..&.*=-;>,,..')-)!............",
"...........&++&$~#.{],,..'-.^/............",
"...........&--&+(..'-,,..'-.+(............",
"...........&..&#~+.-{,,..'-._:............",
"...........(..(.!<(]#_(((^(([$............",
"..........................................",
"..........................................",
"..........................................",
"..........................................",
"..........................................",
"..........................................",
".........................................."};
