/* XPM */
static char * hProgOff_xpm[] = {
"42 20 36 1",
" 	c None",
".	c #CCCCCC",
"+	c #B9B9B9",
"@	c #A6A6A6",
"#	c #B3B3B3",
"$	c #ACACAC",
"%	c #AEAEAE",
"&	c #CACACA",
"*	c #9A9A9A",
"=	c #BFBFBF",
"-	c #9E9E9E",
";	c #A0A0A0",
">	c #C2C2C2",
",	c #BDBDBD",
"'	c #8D8D8D",
")	c #BBBBBB",
"!	c #8C8C8C",
"~	c #B5B5B5",
"{	c #888888",
"]	c #B7B7B7",
"^	c #A2A2A2",
"/	c #939393",
"(	c #C4C4C4",
"_	c #8A8A8A",
":	c #C0C0C0",
"<	c #8F8F8F",
"[	c #848484",
"}	c #C6C6C6",
"|	c #919191",
"1	c #A4A4A4",
"2	c #828282",
"3	c #B1B1B1",
"4	c #979797",
"5	c #959595",
"6	c #999999",
"7	c #AAAAAA",
"..........................................",
"..........................................",
"..........................................",
"..........................................",
"..........................................",
"..........................................",
"..........................................",
"..........+@@#.$@@%.&@*$..=-;>............",
"..........@;,')!~,{];^&/$(_=${............",
"..........@@./~!~:<)[}.+|$;..>&...........",
"..........@'*^&!;1_&2&.,<@1.^[:...........",
"..........@@...!:.!:*3.^@)'&=[:...........",
"..........##...^(.^=}*4^&.3567(...........",
"..........................................",
"..........................................",
"..........................................",
"..........................................",
"..........................................",
"..........................................",
".........................................."};
