/* XPM */
static char * hStbyOnO_xpm[] = {
"42 20 38 1",
" 	c None",
".	c #FFD000",
"+	c #B19000",
"@	c #554500",
"#	c #725C00",
"$	c #EABE00",
"%	c #AA8A00",
"&	c #806800",
"*	c #D4AD00",
"=	c #957900",
"-	c #DCB300",
";	c #E3B900",
">	c #876E00",
",	c #161100",
"'	c #786200",
")	c #6A5600",
"!	c #241D00",
"~	c #F1C400",
"{	c #2A2200",
"]	c #1C1700",
"^	c #2B2200",
"/	c #B89600",
"(	c #0E0C00",
"_	c #8E7300",
":	c #322800",
"<	c #403400",
"[	c #D5AD00",
"}	c #5C4B00",
"|	c #9C7F00",
"1	c #392E00",
"2	c #F8CA00",
"3	c #BF9C00",
"4	c #151100",
"5	c #473A00",
"6	c #4E3F00",
"7	c #C09C00",
"8	c #A38500",
"9	c #C6A200",
"..........................................",
"..........................................",
"..........................................",
"..........................................",
"..........................................",
"..........................................",
"..........................................",
"............+@#$%&&&*=&&-;>.;>............",
"...........$,$');+!*~{++].^/)&............",
"...........;(>/;.*{..{_=:.%<]~............",
"............[>:}.*{..{_|12.^&.............",
"...........-<231.*{..{*~4;.@%.............",
"............>567.;#..#@@8.._9.............",
"..........................................",
"..........................................",
"..........................................",
"..........................................",
"..........................................",
"..........................................",
".........................................."};
