/* XPM */
static char * hStbyUp_xpm[] = {
"38 38 90 1",
" 	c None",
".	c #000000",
"+	c #313131",
"@	c #4B4B4B",
"#	c #454545",
"$	c #161616",
"%	c #181818",
"&	c #3E3E3E",
"*	c #383838",
"=	c #080808",
"-	c #222222",
";	c #404040",
">	c #030303",
",	c #010101",
"'	c #323232",
")	c #373737",
"!	c #CECECE",
"~	c #939393",
"{	c #B4B4B4",
"]	c #AEAEAE",
"^	c #3A3A3A",
"/	c #8D8D8D",
"(	c #D5D5D5",
"_	c #CBCBCB",
":	c #D4D4D4",
"<	c #ABABAB",
"[	c #909090",
"}	c #CCCCCC",
"|	c #6A6A6A",
"1	c #2F2F2F",
"2	c #DBDBDB",
"3	c #4A4A4A",
"4	c #1E1E1E",
"5	c #575757",
"6	c #E7E7E7",
"7	c #646464",
"8	c #3B3B3B",
"9	c #363636",
"0	c #070707",
"a	c #A1A1A1",
"b	c #555555",
"c	c #959595",
"d	c #020202",
"e	c #797979",
"f	c #C5C5C5",
"g	c #9A9A9A",
"h	c #050505",
"i	c #0D0D0D",
"j	c #8E8E8E",
"k	c #D6D6D6",
"l	c #DFDFDF",
"m	c #929292",
"n	c #0B0B0B",
"o	c #C1C1C1",
"p	c #ADADAD",
"q	c #696969",
"r	c #131313",
"s	c #C0C0C0",
"t	c #E0E0E0",
"u	c #282828",
"v	c #464646",
"w	c #1A1A1A",
"x	c #606060",
"y	c #EEEEEE",
"z	c #2A2A2A",
"A	c #545454",
"B	c #5D5D5D",
"C	c #D8D8D8",
"D	c #141414",
"E	c #7F7F7F",
"F	c #B6B6B6",
"G	c #DADADA",
"H	c #707070",
"I	c #888888",
"J	c #191919",
"K	c #656565",
"L	c #AAAAAA",
"M	c #B7B7B7",
"N	c #7C7C7C",
"O	c #B2B2B2",
"P	c #4C4C4C",
"Q	c #727272",
"R	c #6D6D6D",
"S	c #484848",
"T	c #3F3F3F",
"U	c #0A0A0A",
"V	c #5F5F5F",
"W	c #686868",
"X	c #1F1F1F",
"Y	c #505050",
"......................................",
"......................................",
"......................................",
"......................................",
"......................................",
"......................................",
"......................................",
"......................................",
"......................................",
"......................................",
"......................................",
"......................................",
"......................................",
"......................................",
"......................................",
".........+@#$%@@@@%&@@*=-;>,''........",
"........)!~{]^/(_/):<[}|1234:5........",
"........567890.a/.$:b%acdefg<h........",
"........ijklmn.a/.$:op2q.rstu.........",
"........^vwxyz.a/.$:A$BCD.EF..........",
"........bGHI}J.a/.$:jKLM0.NO..........",
"........>PQR1,.ST.UVQQWX..)Y..........",
"......................................",
"......................................",
"......................................",
"......................................",
"......................................",
"......................................",
"......................................",
"......................................",
"......................................",
"......................................",
"......................................",
"......................................",
"......................................",
"......................................",
"......................................",
"......................................"};
