/* XPM */
static char * hVelOn_xpm[] = {
"42 20 28 1",
" 	c None",
".	c #FFD000",
"+	c #EABE00",
"@	c #E3B900",
"#	c #D4AD00",
"$	c #EABF00",
"%	c #F1C400",
"&	c #BF9C00",
"*	c #322800",
"=	c #DCB300",
"-	c #151100",
";	c #AA8A00",
">	c #1C1700",
",	c #554500",
"'	c #C6A200",
")	c #D5AD00",
"!	c #876E00",
"~	c #6A5600",
"{	c #473A00",
"]	c #F8CA00",
"^	c #796200",
"/	c #CEA800",
"(	c #241D00",
"_	c #957900",
":	c #B89600",
"<	c #2A2200",
"[	c #725C00",
"}	c #4E3F00",
"..........................................",
"..........................................",
"..........................................",
"..........................................",
"..........................................",
"..........................................",
"..........................................",
".............+@..#$###%@%.................",
".............&*.=-;>,,',;.................",
"..............-)!~;{##],;.................",
"..............^^*/;>,,@,;.................",
"............../-(.;,...,;.................",
"...............{_.:<<<_[<<}...............",
"..........................................",
"..........................................",
"..........................................",
"..........................................",
"..........................................",
"..........................................",
".........................................."};
