/* XPM */
static char * hVerbOff_xpm[] = {
"32 12 34 1",
" 	c None",
".	c #9E999F",
"+	c #656266",
"@	c #888489",
"#	c #6E6A6E",
"$	c #7B777C",
"%	c #5C595D",
"&	c #4F4C50",
"*	c #918C92",
"=	c #535154",
"-	c #1A1A1A",
";	c #7F7B80",
">	c #848084",
",	c #161516",
"'	c #090809",
")	c #000000",
"!	c #575558",
"~	c #2C2A2C",
"{	c #1E1E1F",
"]	c #585558",
"^	c #69666A",
"/	c #767377",
"(	c #121112",
"_	c #4A484B",
":	c #39373A",
"<	c #0D0D0D",
"[	c #302F30",
"}	c #464446",
"|	c #343335",
"1	c #040404",
"2	c #424042",
"3	c #464447",
"4	c #8C888D",
"5	c #3D3C3E",
"................................",
"................................",
"................................",
"......+@.#$%&&%*&&&$.&&=*.......",
"......&&.-;-#>@>,>+'.)>!~.......",
"......;{*,.-]^$>,>/(.)^_:.......",
".......,=_.-]^$><&[}.)^=|.......",
"......._1>.->..>-.>-.).@'.......",
".......>2..3|||43.45.|||/.......",
"................................",
"................................",
"................................"};
