/* XPM */
static char * hVerbUp_xpm[] = {
"38 38 94 2",
"  	c None",
". 	c #000000",
"+ 	c #0A0A0A",
"@ 	c #2F2F2F",
"# 	c #060606",
"$ 	c #151515",
"% 	c #242424",
"& 	c #111111",
"* 	c #323232",
"= 	c #292929",
"- 	c #080808",
"; 	c #2B2B2B",
"> 	c #050505",
", 	c #2C2C2C",
"' 	c #1B1B1B",
") 	c #131313",
"! 	c #D4D4D4",
"~ 	c #343434",
"{ 	c #8A8A8A",
"] 	c #888888",
"^ 	c #4D4D4D",
"/ 	c #DEDEDE",
"( 	c #AAAAAA",
"_ 	c #A5A5A5",
": 	c #212121",
"< 	c #C5C5C5",
"[ 	c #B9B9B9",
"} 	c #A7A7A7",
"| 	c #D1D1D1",
"1 	c #777777",
"2 	c #CFCFCF",
"3 	c #B6B6B6",
"4 	c #ABABAB",
"5 	c #CBCBCB",
"6 	c #414141",
"7 	c #A8A8A8",
"8 	c #7A7A7A",
"9 	c #D0D0D0",
"0 	c #464646",
"a 	c #525252",
"b 	c #161616",
"c 	c #444444",
"d 	c #010101",
"e 	c #747474",
"f 	c #C8C8C8",
"g 	c #1D1D1D",
"h 	c #D5D5D5",
"i 	c #3B3B3B",
"j 	c #070707",
"k 	c #B4B4B4",
"l 	c #7F7F7F",
"m 	c #595959",
"n 	c #BBBBBB",
"o 	c #EEEEEE",
"p 	c #B2B2B2",
"q 	c #ACACAC",
"r 	c #7E7E7E",
"s 	c #939393",
"t 	c #6F6F6F",
"u 	c #C1C1C1",
"v 	c #BFBFBF",
"w 	c #B1B1B1",
"x 	c #D9D9D9",
"y 	c #3C3C3C",
"z 	c #191919",
"A 	c #D7D7D7",
"B 	c #929292",
"C 	c #959595",
"D 	c #020202",
"E 	c #393939",
"F 	c #202020",
"G 	c #686868",
"H 	c #5C5C5C",
"I 	c #A6A6A6",
"J 	c #8C8C8C",
"K 	c #F1F1F1",
"L 	c #D3D3D3",
"M 	c #353535",
"N 	c #272727",
"O 	c #232323",
"P 	c #1C1C1C",
"Q 	c #8D8D8D",
"R 	c #A4A4A4",
"S 	c #2A2A2A",
"T 	c #A1A1A1",
"U 	c #AFAFAF",
"V 	c #141414",
"W 	c #404040",
"X 	c #C4C4C4",
"Y 	c #2D2D2D",
"Z 	c #6C6C6C",
"` 	c #909090",
" .	c #171717",
"..	c #B3B3B3",
". . . . . . . . . . . . . . . . . . . . . . . . . . . . . . . . . . . . . . ",
". . . . . . . . . . . . . . . . . . . . . . . . . . . . . . . . . . . . . . ",
". . . . . . . . . . . . . . . . . . . . . . . . . . . . . . . . . . . . . . ",
". . . . . . . . . . . . . . . . . . . . . . . . . . . . . . . . . . . . . . ",
". . . . . . . . . . . . . . . . . . . . . . . . . . . . . . . . . . . . . . ",
". . . . . . . . . . . . . . . . . . . . . . . . . . . . . . . . . . . . . . ",
". . . . . . . . . . . . . . . . . . . . . . . . . . . . . . . . . . . . . . ",
". . . . . . . . . . . . . . . . . . . . . . . . . . . . . . . . . . . . . . ",
". . . . . . . . . . . . . . . . . . . . . . . . . . . . . . . . . . . . . . ",
". . . . . . . . . . . . . . . . . . . . . . . . . . . . . . . . . . . . . . ",
". . . . . . . . . . . . . . . . . . . . . . . . . . . . . . . . . . . . . . ",
". . . . . . . . . . . . . . . . . . . . . . . . . . . . . . . . . . . . . . ",
". . . . . . . . . . . . . . . . . . . . . . . . . . . . . . . . . . . . . . ",
". . . . . . . . . . . . . . . . . . . . . . . . . . . . . . . . . . . . . . ",
". . . . . . . . . . . . . . . . . . . . . . . . . . . . . . . . . . . . . . ",
". . . . . . . + @ # . $ % & * * * = - = * * ; > # , * * ' . . . . . . . . . ",
". . . . . . . ) ! ~ . { ] ^ / ( _ ] : < [ } | 1 ' 2 3 4 5 6 . . . . . . . . ",
". . . . . . . . 7 8 - 9 0 a 5 & . . b ! c d e f g h i j k l . . . . . . . . ",
". . . . . . . . m n 6 f b a o p q r b ! s t u r g / v w x y . . . . . . . . ",
". . . . . . . . z A B C D a ! E ; F b ! s t 5 G g A H @ I J . . . . . . . . ",
". . . . . . . . . 7 K 0 . a L M N O P ! c . Q R g A m S _ T . . . . . . . . ",
". . . . . . . . . ^ U V . W X p w T Y } M . Z `  .w 3 ..R ; . . . . . . . . ",
". . . . . . . . . . . . . . . . . . . . . . . . . . . . . . . . . . . . . . ",
". . . . . . . . . . . . . . . . . . . . . . . . . . . . . . . . . . . . . . ",
". . . . . . . . . . . . . . . . . . . . . . . . . . . . . . . . . . . . . . ",
". . . . . . . . . . . . . . . . . . . . . . . . . . . . . . . . . . . . . . ",
". . . . . . . . . . . . . . . . . . . . . . . . . . . . . . . . . . . . . . ",
". . . . . . . . . . . . . . . . . . . . . . . . . . . . . . . . . . . . . . ",
". . . . . . . . . . . . . . . . . . . . . . . . . . . . . . . . . . . . . . ",
". . . . . . . . . . . . . . . . . . . . . . . . . . . . . . . . . . . . . . ",
". . . . . . . . . . . . . . . . . . . . . . . . . . . . . . . . . . . . . . ",
". . . . . . . . . . . . . . . . . . . . . . . . . . . . . . . . . . . . . . ",
". . . . . . . . . . . . . . . . . . . . . . . . . . . . . . . . . . . . . . ",
". . . . . . . . . . . . . . . . . . . . . . . . . . . . . . . . . . . . . . ",
". . . . . . . . . . . . . . . . . . . . . . . . . . . . . . . . . . . . . . ",
". . . . . . . . . . . . . . . . . . . . . . . . . . . . . . . . . . . . . . ",
". . . . . . . . . . . . . . . . . . . . . . . . . . . . . . . . . . . . . . ",
". . . . . . . . . . . . . . . . . . . . . . . . . . . . . . . . . . . . . . "};
