/* XPM */
static char * TempOff_xpm[] = {
"84 40 11 1",
" 	g None",
".	g #CCCCCC",
"+	g #999999",
"@	g #808080",
"#	g #B3B3B3",
"$	g #C4C4C4",
"%	g #AAAAAA",
"&	g #919191",
"*	g #BBBBBB",
"=	g #A2A2A2",
"-	g #898989",
"....................................................................................",
"....................................................................................",
"....................................................................................",
"....................................................................................",
"....................................................................................",
"....................................................................................",
"....................................................................................",
"....................................................................................",
"....................................................................................",
"....................................................................................",
"....................................................................................",
"....................................................................................",
"....................................................................................",
"....................................................................................",
"....................................................................................",
"....................................................................................",
".....................+@@@@@@@##@@@@@@@..@@@$..%@@+.#@@@@@&*.........................",
".....................*##&@=##$#@&#####..@@@#..+@@+.#@&##=@-.........................",
"........................+@#...#@+.......@@@+..--@+.#@+...&@#........................",
"........................+@#...#@+.......@@+&..@+@+.#@+...+@#........................",
"........................+@#...#@-++++%..@@=@.#@%@+.#@+..$-@*........................",
"........................+@#...#@-++++%..@@#@#=@#@+.#@@@@@@+.........................",
"........................+@#...#@+.......@@.@%++#@+.#@&###*..........................",
"........................+@#...#@+.......@@.&+@=#@+.#@+..............................",
"........................+@#...#@+.......@@.+@@##@+.#@+..............................",
"........................+@#...#@@@@@@@#.@@.#@@$#@+.#@+..............................",
"........................*#$...$#######$.##.$##.$#*.$#*..............................",
"....................................................................................",
"....................................................................................",
"....................................................................................",
"....................................................................................",
"....................................................................................",
"....................................................................................",
"....................................................................................",
"....................................................................................",
"....................................................................................",
"....................................................................................",
"....................................................................................",
"....................................................................................",
"...................................................................................."};
