/* XPM */
static char * TrackerOff_xpm[] = {
"84 40 11 1",
" 	g None",
".	g #CCCCCC",
"+	g #C4C4C4",
"@	g #B3B3B3",
"#	g #999999",
"$	g #808080",
"%	g #919191",
"&	g #A2A2A2",
"*	g #898989",
"=	g #BBBBBB",
"-	g #AAAAAA",
"....................................................................................",
"....................................................................................",
"....................................................................................",
"....................................................................................",
"....................................................................................",
"....................................................................................",
"....................................................................................",
"....................................................................................",
"....................................................................................",
"....................................................................................",
"....................................................................................",
"....................................................................................",
"....................................................................................",
"....................................................................................",
"....................................................................................",
".......................................+@@+.........................................",
".......#$$$$$$$@@$$$$$$%+....&$$+.....&$$$$&..@$#...#$*.@$$$$$$$..$$$$$$*@..........",
".......=@@%$&@@+@$%@@@*$%....*$$-....&$#++*$&.@$#..&$*+.@$%@@@@@..$$@@@#$$+.........",
"..........#$@...@$#...=$$...=$*$%...+$*...@$$.@$#.@$*+..@$#.......$$....*$@.........",
"..........#$@...@$#....$$...&$-*$+..-$&....##+@$#@$*+...@$#.......$$....#$@.........",
"..........#$@...@$%@@@#$&...*$+&$-..#$@.......@$%$$-....@$*####-..$$@@@-$*..........",
"..........#$@...@$$$$$$%...@$%.@$*..#$@.......@$$$$*+...@$*####-..$$$$$$*=..........",
"..........#$@...@$#...%$-..#$#@@$$=.#$@.......@$*+#$#...@$#.......$$...-$%..........",
"..........#$@...@$#...@$#..$$$$$$$&.@$%....$$+@$#.+*$-..@$#.......$$....$$..........",
"..........#$@...@$#...@$#.@$#...=$*..*$@..-$%.@$#..=$$@.@$#.......$$....$$..........",
"..........#$@...@$#...@$%.#$-....*$=.=*$#%$*+.@$#...-$*+@$$$$$$$@.$$....$$+.........",
"..........=@+...+@=...+@@.@@+....=@+..+-##-...+@=....@@=+@@@@@@@+.@@....@@+.........",
"....................................................................................",
"....................................................................................",
"....................................................................................",
"....................................................................................",
"....................................................................................",
"....................................................................................",
"....................................................................................",
"....................................................................................",
"....................................................................................",
"....................................................................................",
"....................................................................................",
"....................................................................................",
"...................................................................................."};
