/* XPM */
static char * VelOff_xpm[] = {
"84 40 11 1",
" 	c None",
".	c #CCCCCC",
"+	c #B2B2B2",
"@	c #C3C3C3",
"#	c #BBBBBB",
"$	c #999999",
"%	c #808080",
"&	c #AAAAAA",
"*	c #909090",
"=	c #A1A1A1",
"-	c #888888",
"....................................................................................",
"....................................................................................",
"....................................................................................",
"....................................................................................",
"....................................................................................",
"....................................................................................",
"....................................................................................",
"....................................................................................",
"....................................................................................",
"....................................................................................",
"....................................................................................",
"....................................................................................",
"....................................................................................",
"....................................................................................",
"....................................................................................",
"...........................++@....++@#++++++#.@+#...................................",
"...........................$%&...@%%.$%%%%%%$.+%$...................................",
"...........................+%*...&%$.$%=++++#.+%$...................................",
"............................%%@..*%+.$%+......+%$...................................",
"............................$%=.@%%..$%=++++@.+%$...................................",
"............................#%-.&%=..$%%%%%%+.+%$...................................",
".............................-%#*%#..$%=++++@.+%$...................................",
".............................=%$%-...$%+......+%$...................................",
".............................#%%%=...$%+......+%$...................................",
"..............................-%%@...$%%%%%%%.+%%%%%%$..............................",
"..............................+$=....&$$$$$$$.#$$$$$$&..............................",
"....................................................................................",
"....................................................................................",
"....................................................................................",
"....................................................................................",
"....................................................................................",
"....................................................................................",
"....................................................................................",
"....................................................................................",
"....................................................................................",
"....................................................................................",
"....................................................................................",
"....................................................................................",
"....................................................................................",
"...................................................................................."};
