/* XPM */
static char * VerbOff_xpm[] = {
"64 24 11 1",
" 	c None",
".	c #9E999F",
"+	c #575558",
"@	c #000000",
"#	c #464447",
"$	c #7B777C",
"%	c #111112",
"&	c #343335",
"*	c #69666A",
"=	c #232223",
"-	c #8C888D",
"................................................................",
"................................................................",
"................................................................",
"................................................................",
"................................................................",
"................................................................",
"................................................................",
"............+@#...$@%.&@@@@@@&.*@@@@@@=-..@@@@@%*...............",
"............-@%...#@#.&@#****$.*@=***%@=..@@**+%@$..............",
".............%@-..=@$.&@*......*@&...$@@..@@...+@&..............",
".............#@+..@%..&@*......*@&....@@..@@...+@#..............",
".............$@=.*@#..&@=&&&&$.*@=***&@#..@@&&&@%-..............",
"..............%@.&@$..&@=&&&&$.*@@@@@@=...@@&&&@=-..............",
"..............#@*%%...&@*......*@&...=@+..@@...$@=..............",
"..............$@%@#...&@*......*@&...*@&..@@....@@..............",
"...............%@@-...&@*......*@&...*@&..@@...#@=..............",
"...............#@=....&@@@@@@@.*@&...*@=..@@@@@@%-..............",
"...............-*$....$*******.-*$...-**..******................",
"................................................................",
"................................................................",
"................................................................",
"................................................................",
"................................................................",
"................................................................"};
