/* XPM */
static char * 7Seg_25_xpm[] = {
"50 45 219 2",
"  	c None",
". 	c #9E9E9E",
"+ 	c #9BA09B",
"@ 	c #86AC86",
"# 	c #7EB17E",
"$ 	c #80B080",
"% 	c #89AA89",
"& 	c #94A494",
"* 	c #8BA98B",
"= 	c #82AF82",
"- 	c #81AF81",
"; 	c #8AAA8A",
"> 	c #9AA09A",
", 	c #9C9C9C",
"' 	c #9D9D9D",
") 	c #53CB53",
"! 	c #23E923",
"~ 	c #00FF00",
"{ 	c #0FF60F",
"] 	c #42D542",
"^ 	c #74B774",
"/ 	c #90A690",
"( 	c #36DC36",
"_ 	c #0BF70B",
": 	c #19EF19",
"< 	c #44D444",
"[ 	c #8EA88E",
"} 	c #9B9B9B",
"| 	c #989898",
"1 	c #9A9A9A",
"2 	c #9C9F9C",
"3 	c #8FA68F",
"4 	c #58C858",
"5 	c #06FB06",
"6 	c #02FE02",
"7 	c #13F313",
"8 	c #57C857",
"9 	c #7FB07F",
"0 	c #88AA88",
"a 	c #27E727",
"b 	c #28E628",
"c 	c #59C859",
"d 	c #92A692",
"e 	c #999999",
"f 	c #979797",
"g 	c #7CB27C",
"h 	c #43D443",
"i 	c #17F017",
"j 	c #18F018",
"k 	c #6CBC6C",
"l 	c #71B971",
"m 	c #21EB21",
"n 	c #37DD37",
"o 	c #95A395",
"p 	c #969696",
"q 	c #9A9E9A",
"r 	c #94A394",
"s 	c #3BDA3B",
"t 	c #08F908",
"u 	c #01FF01",
"v 	c #1CEE1C",
"w 	c #55CA55",
"x 	c #49D249",
"y 	c #85AD85",
"z 	c #9AA19A",
"A 	c #9D9F9D",
"B 	c #5EC45E",
"C 	c #41D641",
"D 	c #3ED83E",
"E 	c #48D248",
"F 	c #5FC45F",
"G 	c #75B675",
"H 	c #3ED73E",
"I 	c #12F412",
"J 	c #99A099",
"K 	c #9D9E9D",
"L 	c #69BE69",
"M 	c #27E627",
"N 	c #0BF80B",
"O 	c #05FB05",
"P 	c #11F411",
"Q 	c #63C263",
"R 	c #5EC55E",
"S 	c #10F310",
"T 	c #05FC05",
"U 	c #0DF70D",
"V 	c #28E528",
"W 	c #6EBB6E",
"X 	c #98A098",
"Y 	c #52CC52",
"Z 	c #15F215",
"` 	c #41D741",
" .	c #79B579",
"..	c #98A198",
"+.	c #84AE84",
"@.	c #44D544",
"#.	c #1CED1C",
"$.	c #83AE83",
"%.	c #92A592",
"&.	c #6ABD6A",
"*.	c #33DF33",
"=.	c #26E826",
"-.	c #76B676",
";.	c #91A691",
">.	c #8FA78F",
",.	c #5AC65A",
"'.	c #2CE42C",
").	c #99A199",
"!.	c #8BAA8B",
"~.	c #45D345",
"{.	c #1BEE1B",
"].	c #08FA08",
"^.	c #38DC38",
"/.	c #30E030",
"(.	c #0DF60D",
"_.	c #18EF18",
":.	c #49D149",
"<.	c #97A297",
"[.	c #01FE01",
"}.	c #2AE52A",
"|.	c #5CC75C",
"1.	c #8DA88D",
"2.	c #67BF67",
"3.	c #17F117",
"4.	c #52CB52",
"5.	c #4FCE4F",
"6.	c #83AD83",
"7.	c #71B871",
"8.	c #0EF60E",
"9.	c #03FD03",
"0.	c #60C460",
"a.	c #64C164",
"b.	c #29E529",
"c.	c #09F909",
"d.	c #0FF50F",
"e.	c #75B775",
"f.	c #32DF32",
"g.	c #26E726",
"h.	c #20EB20",
"i.	c #43D543",
"j.	c #56C956",
"k.	c #14F114",
"l.	c #04FC04",
"m.	c #62C362",
"n.	c #3ADA3A",
"o.	c #6FBA6F",
"p.	c #98A298",
"q.	c #4CCF4C",
"r.	c #65BF65",
"s.	c #4ECF4E",
"t.	c #68BE68",
"u.	c #8CA88C",
"v.	c #6BBC6B",
"w.	c #77B577",
"x.	c #2DE22D",
"y.	c #10F410",
"z.	c #45D445",
"A.	c #91A591",
"B.	c #1FEB1F",
"C.	c #25E725",
"D.	c #15F015",
"E.	c #07FA07",
"F.	c #23E823",
"G.	c #60C360",
"H.	c #88AB88",
"I.	c #53CC53",
"J.	c #0CF70C",
"K.	c #39DC39",
"L.	c #4DCF4D",
"M.	c #7BB37B",
"N.	c #2EE22E",
"O.	c #21EA21",
"P.	c #96A396",
"Q.	c #40D640",
"R.	c #0AF90A",
"S.	c #2BE42B",
"T.	c #95A495",
"U.	c #2FE22F",
"V.	c #40D740",
"W.	c #25E825",
"X.	c #1EEC1E",
"Y.	c #46D246",
"Z.	c #16F116",
"`.	c #73B873",
" +	c #35DD35",
".+	c #54CA54",
"++	c #1DEC1D",
"@+	c #04FD04",
"#+	c #8CA98C",
"$+	c #4CD04C",
"%+	c #3FD73F",
"&+	c #4FCD4F",
"*+	c #24E824",
"=+	c #68BD68",
"-+	c #8AA98A",
";+	c #64C064",
">+	c #5BC55B",
",+	c #89AB89",
"'+	c #75B575",
")+	c #3DD83D",
"!+	c #42D642",
"~+	c #0CF80C",
"{+	c #67BE67",
"]+	c #8BA78B",
"^+	c #93A493",
"/+	c #62C162",
"(+	c #56C856",
"_+	c #62C262",
":+	c #38DB38",
"<+	c #04FB04",
"[+	c #35DE35",
"}+	c #92A192",
"|+	c #8EA78E",
"1+	c #92A492",
"2+	c #15F115",
"3+	c #3DD93D",
"4+	c #91A491",
"5+	c #979D97",
"6+	c #7DB17D",
". . . . . . . . . . . . . . . . . . . . . . . . . . . . . . . . . . . . . . . . . . . . . . . . . . ",
". . . . . . . . . . . . . . . + @ # # # # # # # # # # # # # # # # # # # # $ % & + * = # # # # - ; > ",
". . . . . . . . . . . . . , ' & ) ! ~ ~ ~ ~ ~ ~ ~ ~ ~ ~ ~ ~ ~ ~ ~ ~ ~ ~ ~ { ] ^ / ( _ ~ ~ ~ ~ : < [ ",
". . . . . . . . . . . ' } | 1 2 3 4 5 6 ~ ~ ~ ~ ~ ~ ~ ~ ~ ~ ~ ~ ~ ~ ~ ~ ~ 7 8 9 0 a ~ ~ ~ ~ ~ b c d ",
". . . . . . . . . . . , e f f 1 ' g h i ~ ~ ~ ~ ~ ~ ~ ~ ~ ~ ~ ~ ~ ~ ~ ~ ~ j k - l m ~ ~ ~ ~ ~ n k o ",
". . . . . . . . . . . } | f p f 1 q r s t u ~ ~ ~ ~ ~ ~ ~ ~ ~ ~ ~ ~ ~ ~ ~ v = - w j ~ ~ ~ ~ ~ x y z ",
". . . . . . . . . . . } | p p p f 1 A g B C D D D D D D D D D D D D D D E F / G H I ~ ~ ~ ~ ~ 4 J K ",
". . . . . . . . . . . 1 p p p p p | } ' . . . . . . . . . . . . . . . . . . . L M N ~ ~ ~ O P Q . . ",
". . . . . . . . . . . 1 p p p p p f e , . . . . . . . . . . . . . . . . . . . R S T ~ ~ ~ U V W . . ",
". . . . . . . . . ' , e p p p p p | 1 ' . . . . . . . . . . . . . . . . . A X Y ~ ~ ~ ~ ~ Z `  .. . ",
". . . . . . . . . ' 1 | p p p p p | , ' . . . . . . . . . . . . . . . . . ..+.@.~ ~ ~ ~ ~ #.4 $.. . ",
". . . . . . . . . ' 1 f p p p p p e ' . . . . . . . . . . . . . . . . . . %.&.*.~ ~ ~ ~ ~ =.-.;.. . ",
". . . . . . . . . , e f p p p p p e . . . . . . . . . . . . . . . . . . . >.,.V ~ ~ ~ ~ ~ '.0 ).. . ",
". . . . . . . . . , f p p p p p f 1 . . . . . . . . . . . . . . . . . . . !.~.{.~ ~ ~ ~ ].^.o . . . ",
". . . . . . . . . , f p p p p p | } . . . . . . . . . . . . . . . . . . . @ /.(.~ ~ ~ u _.:.<.. . . ",
". . . . . . . . ' 1 f p p p p p | } . . . . . . . . . . . . . . . . . . . = v ~ ~ ~ ~ [.}.|.... . . ",
". . . . . . . . , e p p p p p p e , . . . . . . . . . . . . . . . . . . 1.2.3.~ ~ ~ ~ 6 D l > . . . ",
". . . . . . . . } | p p p p p f 1 ' . . . . . . . . . . . . . . . . . . 9 4.I ~ ~ ~ ~ 6 5.6.2 . . . ",
". . . . . . . . 1 f p p p p p f } ' . . . . . . . . . . . . . . . . . . 7.D 8.~ ~ ~ ~ 9.0.o K . . . ",
". . . . . . . . e p p p p p p f , . . . . . . . . . . . . . . . . . . . a.b.c.~ ~ ~ T d.k . . . . . ",
". . . . . . . . e p p p p p p | , e.f.g.h.h.h.h.h.h.h.h.h.h.h.h.h.i.&.<.j.k.l.~ ~ ~ 8.M e.. . . . . ",
". . . . . . ' , 1 e e e e e e 1 ' m.~ ~ ~ ~ ~ ~ ~ ~ ~ ~ ~ ~ ~ ~ ~ n.o.p.&.D D D D D q.r.; . . . . . ",
". . . . . . . . . . . . . . . + @ s.~ ~ ~ ~ ~ ~ ~ ~ ~ ~ ~ ~ ~ ~ ~ s.@ + . . . . . . . . . . . . . . ",
". . . . . . ;. .t.F F F F F -.u.v.n.~ ~ ~ ~ ~ ~ ~ ~ ~ ~ ~ ~ ~ ~ ~ m.' , } 1 1 1 1 1 } ' . . . . . . ",
". . . . . . w.x.y.~ ~ ~ ~ ~ z.A.t.] B.B.B.B.B.B.B.B.B.B.B.B.B.C.f.e.' 1 f p p p p p e ' . . . . . . ",
". . . . . . W D.E.~ ~ ~ 9.d.Y . . . . . . . . . . . . . . . . . . . , e f p p p p p e . . . . . . . ",
". . . . . J a.9.~ ~ ~ ~ ].F.G.. . . . . . . . . . . . . . . . . . . , f p p p p p f 1 . . . . . . . ",
". . . . 2 H.I.9.~ ~ ~ ~ J.K.W . . . . . . . . . . . . . . . . . . . , f p p p p p | } . . . . . . . ",
". . . . > l D 6 ~ ~ ~ ~ P L.M.. . . . . . . . . . . . . . . . . . ' 1 f p p p p p | } . . . . . . . ",
". . . . ).G.N.[.~ ~ ~ ~ 3.2.1.. . . . . . . . . . . . . . . . . . , e p p p p p p e , . . . . . . . ",
". . . . p.Y O.[.~ ~ ~ ~ {.g > . . . . . . . . . . . . . . . . . . } | p p p p p f 1 ' . . . . . . . ",
". . . . P.Q.y.~ ~ ~ ~ R.S.y . . . . . . . . . . . . . . . . . . . 1 f p p p p p f , . . . . . . . . ",
". . . . T.U.~ ~ ~ ~ ~ i V.% . . . . . . . . . . . . . . . . . . . e p p p p p p f , . . . . . . . . ",
". . . ;.-.=.~ ~ ~ ~ ~ W.w [ . . . . . . . . . . . . . . . . . . . e p p p p p f e , . . . . . . . . ",
". . . @ B X.~ ~ ~ ~ ~ *.&.%.. . . . . . . . . . . . . . . . . ' , | p p p p p f 1 ' . . . . . . . . ",
". . . M.Y.Z.~ ~ ~ ~ ~ @.+.... . . . . . . . . . . . . . . . . ' 1 | p p p p p | 1 ' . . . . . . . . ",
". . . `. +P ~ ~ ~ 6 O .+X A . . . . . . . . . . . . . . . . . , e f p p p p p e , ' . . . . . . . . ",
". . . L ++c.~ ~ @+! k #+. . . . . . . . . . . . . . . . . . . , | f p p p p p e ' . . . . . . . . . ",
". . . |.~ ~ 6 5 $+- > e.5.] %+%+%+%+%+%+%+%+%+%+%+%+%+%+&+t.1.} p p p p p p p 1 . . . . . . . . . . ",
". > ; L.~ ~ *+=+-+1.;+S.~ ~ ~ ~ ~ ~ ~ ~ ~ ~ ~ ~ ~ ~ ~ ~ W.>+,+} p p p p p p f 1 . . . . . . . . . . ",
". <.'+)+5 !+^ A @ 4 ~+~ ~ ~ ~ ~ ~ ~ ~ ~ ~ ~ ~ ~ ~ ~ ~ ~ }.{+]+1 p p p p p f | } . . . . . . . . . . ",
". ^+/+(+_+* <.-+:+<+[.~ ~ ~ ~ ~ ~ ~ ~ ~ ~ ~ ~ ~ ~ ~ ~ ~ [+$ }+e p p p p p f | } . . . . . . . . . . ",
". + |+1+. J &.2+E.~ ~ ~ ~ ~ ~ ~ ~ ~ ~ ~ ~ ~ ~ ~ ~ ~ ~ ~ 3+4+5+| p p p p p f 1 , . . . . . . . . . . ",
". . . . K o -+6+6+6+6+6+6+6+6+6+6+6+6+6+6+6+6+6+6+6+6+6+* . ' , , , , , , , ' ' . . . . . . . . . . ",
". . . . . . . . . . . . . . . . . . . . . . . . . . . . . . . . . . . . . . . . . . . . . . . . . . "};
