/* XPM */
static char * hOprErrOn_xpm[] = {
"42 20 37 1",
" 	c None",
".	c #FFFFFF",
"+	c #D4D4D4",
"@	c #5C5C5C",
"#	c #555555",
"$	c #959595",
"%	c #AAAAAA",
"&	c #878787",
"*	c #727272",
"=	c #8E8E8E",
"-	c #E3E3E3",
";	c #C0C0C0",
">	c #1C1C1C",
",	c #404040",
"'	c #A3A3A3",
")	c #808080",
"!	c #6A6A6A",
"~	c #CECECE",
"{	c #323232",
"]	c #B8B8B8",
"^	c #2A2A2A",
"/	c #B1B1B1",
"(	c #151515",
"_	c #DCDCDC",
":	c #242424",
"<	c #9C9C9C",
"[	c #393939",
"}	c #C6C6C6",
"|	c #787878",
"1	c #F1F1F1",
"2	c #474747",
"3	c #636363",
"4	c #EAEAEA",
"5	c #4E4E4E",
"6	c #161616",
"7	c #BFBFBF",
"8	c #F8F8F8",
"..........................................",
"..........................................",
"..........................................",
"..........................................",
"..........................................",
"..........................................",
"..........................................",
".....+@#$.%##&.*##=...*##*-##@;-##@;......",
".....>%+,')!~{]^/~(-..^/+_+:+<[+:+<[......",
"....+:..'#)#':}^!|>1..^2#=+()#@+()#@......",
"....-(..$3),)/.^=^%...^/+-+>$>4+>$>4......",
".....5#)>}))...^+~6-..^!))+^.)2+^.)2......",
"......]%-.++...]1.7_..]%%%1].8%4].8%8.....",
"..........................................",
"..........................................",
"..........................................",
"..........................................",
"..........................................",
"..........................................",
".........................................."};
