/* XPM */
static char * 7Seg_29_xpm[] = {
"50 45 253 2",
"  	c None",
". 	c #9E9E9E",
"+ 	c #9BA09B",
"@ 	c #86AC86",
"# 	c #7EB17E",
"$ 	c #80B080",
"% 	c #89AA89",
"& 	c #94A494",
"* 	c #8BA98B",
"= 	c #82AF82",
"- 	c #81AF81",
"; 	c #8AAA8A",
"> 	c #9AA09A",
", 	c #99A199",
"' 	c #90A690",
") 	c #53CB53",
"! 	c #23E923",
"~ 	c #00FF00",
"{ 	c #0FF60F",
"] 	c #42D542",
"^ 	c #74B774",
"/ 	c #36DC36",
"( 	c #0BF70B",
"_ 	c #19EF19",
": 	c #44D444",
"< 	c #8EA88E",
"[ 	c #8DA88D",
"} 	c #6CBC6C",
"| 	c #2BE42B",
"1 	c #56CA56",
"2 	c #9C9F9C",
"3 	c #8FA68F",
"4 	c #58C858",
"5 	c #06FB06",
"6 	c #02FE02",
"7 	c #13F313",
"8 	c #57C857",
"9 	c #7FB07F",
"0 	c #88AA88",
"a 	c #27E727",
"b 	c #28E628",
"c 	c #59C859",
"d 	c #92A692",
"e 	c #52CB52",
"f 	c #12F412",
"g 	c #25E725",
"h 	c #59C659",
"i 	c #7CB27C",
"j 	c #43D443",
"k 	c #17F017",
"l 	c #18F018",
"m 	c #71B971",
"n 	c #21EB21",
"o 	c #37DD37",
"p 	c #95A395",
"q 	c #71B871",
"r 	c #3ED83E",
"s 	c #0EF60E",
"t 	c #03FD03",
"u 	c #13F213",
"v 	c #68BE68",
"w 	c #94A394",
"x 	c #3BDA3B",
"y 	c #08F908",
"z 	c #01FF01",
"A 	c #1CEE1C",
"B 	c #55CA55",
"C 	c #49D249",
"D 	c #85AD85",
"E 	c #9AA19A",
"F 	c #64C164",
"G 	c #29E529",
"H 	c #09F909",
"I 	c #04FC04",
"J 	c #20EA20",
"K 	c #57C957",
"L 	c #9D9F9D",
"M 	c #5EC45E",
"N 	c #41D641",
"O 	c #48D248",
"P 	c #5FC45F",
"Q 	c #75B675",
"R 	c #3ED73E",
"S 	c #99A099",
"T 	c #9D9E9D",
"U 	c #56C956",
"V 	c #14F114",
"W 	c #29E629",
"X 	c #6CBB6C",
"Y 	c #69BE69",
"Z 	c #27E627",
"` 	c #0BF80B",
" .	c #05FB05",
"..	c #11F411",
"+.	c #63C263",
"@.	c #1CED1C",
"#.	c #4DCF4D",
"$.	c #5EC55E",
"%.	c #10F310",
"&.	c #05FC05",
"*.	c #0DF70D",
"=.	c #28E528",
"-.	c #6EBB6E",
";.	c #96A396",
">.	c #3ADB3A",
",.	c #24E924",
"'.	c #5FC35F",
").	c #88AB88",
"!.	c #98A098",
"~.	c #52CC52",
"{.	c #15F215",
"].	c #41D741",
"^.	c #79B579",
"/.	c #8FA78F",
"(.	c #6ABD6A",
"_.	c #2EE22E",
":.	c #30E130",
"<.	c #7FB17F",
"[.	c #93A493",
"}.	c #98A198",
"|.	c #84AE84",
"1.	c #44D544",
"2.	c #83AE83",
"3.	c #53CA53",
"4.	c #22E922",
"5.	c #91A591",
"6.	c #92A592",
"7.	c #33DF33",
"8.	c #26E826",
"9.	c #76B676",
"0.	c #91A691",
"a.	c #3DD83D",
"b.	c #01FE01",
"c.	c #43D543",
"d.	c #5AC65A",
"e.	c #2CE42C",
"f.	c #7BB37B",
"g.	c #25E625",
"h.	c #4FCE4F",
"i.	c #8BAA8B",
"j.	c #45D345",
"k.	c #1BEE1B",
"l.	c #08FA08",
"m.	c #38DC38",
"n.	c #75B775",
"o.	c #10F510",
"p.	c #2FE22F",
"q.	c #30E030",
"r.	c #0DF60D",
"s.	c #18EF18",
"t.	c #49D149",
"u.	c #97A297",
"v.	c #5DC55D",
"w.	c #3CD93C",
"x.	c #2AE52A",
"y.	c #5CC75C",
"z.	c #7AB37A",
"A.	c #4AD04A",
"B.	c #0AF90A",
"C.	c #67BF67",
"D.	c #17F117",
"E.	c #6BBC6B",
"F.	c #38DB38",
"G.	c #83AD83",
"H.	c #5BC65B",
"I.	c #70B970",
"J.	c #60C460",
"K.	c #4BD04B",
"L.	c #12F212",
"M.	c #02FD02",
"N.	c #7AB47A",
"O.	c #0FF50F",
"P.	c #3CDA3C",
"Q.	c #31E031",
"R.	c #32DF32",
"S.	c #26E726",
"T.	c #20EB20",
"U.	c #8AA98A",
"V.	c #4FCD4F",
"W.	c #62C362",
"X.	c #3ADA3A",
"Y.	c #6FBA6F",
"Z.	c #98A298",
"`.	c #4CCF4C",
" +	c #65BF65",
".+	c #4ECF4E",
"++	c #8CA88C",
"@+	c #87AC87",
"#+	c #72B872",
"$+	c #77B577",
"%+	c #2DE22D",
"&+	c #10F410",
"*+	c #45D445",
"=+	c #1FEB1F",
"-+	c #15F015",
";+	c #07FA07",
">+	c #23E823",
",+	c #60C360",
"'+	c #53CC53",
")+	c #0CF70C",
"!+	c #39DC39",
"~+	c #09FA09",
"{+	c #40D640",
"]+	c #4ECD4E",
"^+	c #21EA21",
"/+	c #62C262",
"(+	c #8EA78E",
"_+	c #95A495",
":+	c #40D740",
"<+	c #25E825",
"[+	c #1EEC1E",
"}+	c #46D246",
"|+	c #16F116",
"1+	c #64C064",
"2+	c #73B873",
"3+	c #35DD35",
"4+	c #54CA54",
"5+	c #4DCE4D",
"6+	c #1DEC1D",
"7+	c #04FD04",
"8+	c #8CA98C",
"9+	c #79B479",
"0+	c #34DE34",
"a+	c #4CD04C",
"b+	c #3FD73F",
"c+	c #1BEC1B",
"d+	c #0AF80A",
"e+	c #24E824",
"f+	c #68BD68",
"g+	c #5BC55B",
"h+	c #89AB89",
"i+	c #68BF68",
"j+	c #07FB07",
"k+	c #1EEB1E",
"l+	c #75B575",
"m+	c #42D642",
"n+	c #0CF80C",
"o+	c #66BF66",
"p+	c #34DF34",
"q+	c #6BBD6B",
"r+	c #62C162",
"s+	c #56C856",
"t+	c #04FB04",
"u+	c #35DE35",
"v+	c #47D247",
"w+	c #78B578",
"x+	c #92A492",
"y+	c #15F115",
"z+	c #3DD93D",
"A+	c #60C260",
"B+	c #14F214",
"C+	c #7DB17D",
"D+	c #82AE82",
". . . . . . . . . . . . . . . . . . . . . . . . . . . . . . . . . . . . . . . . . . . . . . . . . . ",
". . . . . . . . . . . . . . . + @ # # # # # # # # # # # # # # # # # # # # $ % & + * = # # # # - ; > ",
". . . . . . . . . . . . , % ' & ) ! ~ ~ ~ ~ ~ ~ ~ ~ ~ ~ ~ ~ ~ ~ ~ ~ ~ ~ ~ { ] ^ ' / ( ~ ~ ~ ~ _ : < ",
". . . . . . . . . . . [ } | 1 2 3 4 5 6 ~ ~ ~ ~ ~ ~ ~ ~ ~ ~ ~ ~ ~ ~ ~ ~ ~ 7 8 9 0 a ~ ~ ~ ~ ~ b c d ",
". . . . . . . . . . . 9 e f g h ; i j k ~ ~ ~ ~ ~ ~ ~ ~ ~ ~ ~ ~ ~ ~ ~ ~ ~ l } - m n ~ ~ ~ ~ ~ o } p ",
". . . . . . . . . . . q r s t u v 3 w x y z ~ ~ ~ ~ ~ ~ ~ ~ ~ ~ ~ ~ ~ ~ ~ A = - B l ~ ~ ~ ~ ~ C D E ",
". . . . . . . . . . . F G H ~ I J K L i M N r r r r r r r r r r r r r r O P ' Q R f ~ ~ ~ ~ ~ 4 S T ",
". . . . . . . . . . . U V I ~ ~ ~ W X [ . . . . . . . . . . . . . . . . . . . Y Z ` ~ ~ ~  ...+.. . ",
". . . . . . . . . . . C ~ ~ ~ ~ ~ @.#.= . . . . . . . . . . . . . . . . . . . $.%.&.~ ~ ~ *.=.-.. . ",
". . . . . . . . . ;.- >.~ ~ ~ ~ ~ ,.'.).. . . . . . . . . . . . . . . . . L !.~.~ ~ ~ ~ ~ {.].^.. . ",
". . . . . . . . . /.(._.~ ~ ~ ~ ~ :.<.[.. . . . . . . . . . . . . . . . . }.|.1.~ ~ ~ ~ ~ @.4 2.. . ",
". . . . . . . . . ).3.4.~ ~ ~ ~ ~ o 5.> . . . . . . . . . . . . . . . . . 6.(.7.~ ~ ~ ~ ~ 8.9.0.. . ",
". . . . . . . . . = a.k ~ ~ ~ b.H c.. . . . . . . . . . . . . . . . . . . /.d.=.~ ~ ~ ~ ~ e.0 , . . ",
". . . . . . . . . f.g.( ~ ~ ~ t k h.. . . . . . . . . . . . . . . . . . . i.j.k.~ ~ ~ ~ l.m.p . . . ",
". . . . . . . . . n.o.~ ~ ~ ~ 5 p.+.. . . . . . . . . . . . . . . . . . . @ q.r.~ ~ ~ z s.t.u.. . . ",
". . . . . . . . ; v.*.~ ~ ~ ~ l.w.-.. . . . . . . . . . . . . . . . . . . = A ~ ~ ~ ~ b.x.y.}.. . . ",
". . . . . . . . z.A.B.~ ~ ~ ~ B.A.z.. . . . . . . . . . . . . . . . . . [ C.D.~ ~ ~ ~ 6 r m > . . . ",
". . . . . . . . E.F.l.~ ~ ~ ~ *.v.; . . . . . . . . . . . . . . . . . . 9 e f ~ ~ ~ ~ 6 h.G.2 . . . ",
". . . . . . . . H.g &.~ ~ ~ ~ { I.> . . . . . . . . . . . . . . . . . . q r s ~ ~ ~ ~ t J.p T . . . ",
". . . . . . . . K.L.M.~ ~ ~ y J N.. . . . . . . . . . . . . . . . . . . F G H ~ ~ ~ &.O.} . . . . . ",
". . . . . . . . P.~ ~ ~ ~ ~ ..Q.<.n.R.S.T.T.T.T.T.T.T.T.T.T.T.T.T.c.(.u.U V I ~ ~ ~ s Z n.. . . . . ",
". . . . . . u.U.H.r r r r r V.(./.W.~ ~ ~ ~ ~ ~ ~ ~ ~ ~ ~ ~ ~ ~ ~ X.Y.Z.(.r r r r r `. +; . . . . . ",
". . . . . . . . . . . . . . . + @ .+~ ~ ~ ~ ~ ~ ~ ~ ~ ~ ~ ~ ~ ~ ~ .+@ + . . . . . . . . . . . . . . ",
". . . . . . 0.^.v P P P P P 9.++E.X.~ ~ ~ ~ ~ ~ ~ ~ ~ ~ ~ ~ ~ ~ ~ W.u.@+I.P P P P P #+5.> . . . . . ",
". . . . . . $+%+&+~ ~ ~ ~ ~ *+5.v ] =+=+=+=+=+=+=+=+=+=+=+=+=+g R.n.).3.4.~ ~ ~ ~ ~ o 5.> . . . . . ",
". . . . . . -.-+;+~ ~ ~ t O.~.. . . . . . . . . . . . . . . . . . . = a.k ~ ~ ~ b.H c.. . . . . . . ",
". . . . . S F t ~ ~ ~ ~ l.>+,+. . . . . . . . . . . . . . . . . . . f.g.( ~ ~ ~ t k h.. . . . . . . ",
". . . . 2 ).'+t ~ ~ ~ ~ )+!+-.. . . . . . . . . . . . . . . . . . . n.o.~ ~ ~ ~ 5 p.+.. . . . . . . ",
". . . . > m r 6 ~ ~ ~ ~ ..#.f.. . . . . . . . . . . . . . . . . . ; v.*.~ ~ ~ ~ ~+{+#+. . . . . . . ",
". . . . , ,+_.b.~ ~ ~ ~ D.C.[ . . . . . . . . . . . . . . . . . . z.A.B.~ ~ ~ ~ ` ]+# . . . . . . . ",
". . . . Z.~.^+b.~ ~ ~ ~ k.i > . . . . . . . . . . . . . . . . . . E.F.l.~ ~ ~ ~ *./+(+. . . . . . . ",
". . . . ;.{+&+~ ~ ~ ~ B.| D . . . . . . . . . . . . . . . . . . . H.g &.~ ~ ~ ~ o.n.. . . . . . . . ",
". . . . _+p.~ ~ ~ ~ ~ k :+% . . . . . . . . . . . . . . . . . . . K.L.M.~ ~ ~ ` g f.. . . . . . . . ",
". . . 0.9.8.~ ~ ~ ~ ~ <+B < . . . . . . . . . . . . . . . . . . . P.~ ~ ~ ~ ~ k a.= . . . . . . . . ",
". . . @ M [+~ ~ ~ ~ ~ 7.(.6.. . . . . . . . . . . . . . . . . [.<.:.~ ~ ~ ~ ~ 4.) ).. . . . . . . . ",
". . . f.}+|+~ ~ ~ ~ ~ 1.|.}.. . . . . . . . . . . . . . . . . ;  +S.~ ~ ~ ~ ~ | 1+[ . . . . . . . . ",
". . . 2+3+..~ ~ ~ 6  .4+!.L . . . . . . . . . . . . . . . . . = 5+@.~ ~ ~ ~ ~ >.- ;.. . . . . . . . ",
". . . Y 6+H ~ ~ 7+! } 8+. . . . . . . . . . . . . . . . . . . 9+0+7 ~ ~ ~ ~ ~ *+}.2 . . . . . . . . ",
". . . y.~ ~ 6 5 a+- > n.h.] b+b+b+b+b+b+b+b+b+b+b+b+b+b+V.v [ I.c+H ~ ~ ~ 6 d+h.. . . . . . . . . . ",
". > ; #.~ ~ e+f+U.[ 1+| ~ ~ ~ ~ ~ ~ ~ ~ ~ ~ ~ ~ ~ ~ ~ ~ <+g+h+i+t ~ ~ ~ ~ j+k+v.. . . . . . . . . . ",
". u.l+a.5 m+^ L @ 4 n+~ ~ ~ ~ ~ ~ ~ ~ ~ ~ ~ ~ ~ ~ ~ ~ ~ x.o+9.'+t ~ ~ ~ ~ ` p+q+. . . . . . . . . . ",
". [.r+s+/+* u.U.F.t+b.~ ~ ~ ~ ~ ~ ~ ~ ~ ~ ~ ~ ~ ~ ~ ~ ~ u+i } ] 6 ~ ~ ~ ~ o.v+w+. . . . . . . . . . ",
". + (+x+. S (.y+;+~ ~ ~ ~ ~ ~ ~ ~ ~ ~ ~ ~ ~ ~ ~ ~ ~ ~ ~ z+[ A+R.6 ~ ~ ~ ~ B+v.@ . . . . . . . . . . ",
". . . . T p U.C+C+C+C+C+C+C+C+C+C+C+C+C+C+C+C+C+C+C+C+C+* L ' @ C+C+C+C+C+D+x+> . . . . . . . . . . ",
". . . . . . . . . . . . . . . . . . . . . . . . . . . . . . . . . . . . . . . . . . . . . . . . . . "};
