/* XPM */
static char * h5Up_xpm[] = {
"38 38 52 1",
" 	c None",
".	c #000000",
"+	c #020202",
"@	c #161616",
"#	c #1A1A1A",
"$	c #101010",
"%	c #242424",
"&	c #C8C8C8",
"*	c #DDDDDD",
"=	c #888888",
"-	c #3A3A3A",
";	c #EAEAEA",
">	c #9F9F9F",
",	c #8D8D8D",
"'	c #575757",
")	c #5A5A5A",
"!	c #D7D7D7",
"~	c #343434",
"{	c #2A2A2A",
"]	c #0C0C0C",
"^	c #858585",
"/	c #F0F0F0",
"(	c #DBDBDB",
"_	c #E7E7E7",
":	c #B9B9B9",
"<	c #292929",
"[	c #787878",
"}	c #B6B6B6",
"|	c #5C5C5C",
"1	c #6F6F6F",
"2	c #AEAEAE",
"3	c #040404",
"4	c #050505",
"5	c #C1C1C1",
"6	c #D9D9D9",
"7	c #171717",
"8	c #777777",
"9	c #6C6C6C",
"0	c #141414",
"a	c #CECECE",
"b	c #D1D1D1",
"c	c #0F0F0F",
"d	c #A5A5A5",
"e	c #A8A8A8",
"f	c #BBBBBB",
"g	c #F7F7F7",
"h	c #818181",
"i	c #1C1C1C",
"j	c #969696",
"k	c #D0D0D0",
"l	c #848484",
"m	c #070707",
"......................................",
"......................................",
"......................................",
"......................................",
"......................................",
"......................................",
"......................................",
"......................................",
"......................................",
"......................................",
"......................................",
"......................................",
"......................................",
"......................................",
"................+@###$................",
"................%&***=................",
"................-;>,,'................",
"................)!~{].................",
"................^/(_:<................",
"................[}|1/23...............",
"...................4567...............",
"...............]8930abc...............",
"...............4d/efgh................",
"................ij6klc................",
"..................$m..................",
"......................................",
"......................................",
"......................................",
"......................................",
"......................................",
"......................................",
"......................................",
"......................................",
"......................................",
"......................................",
"......................................",
"......................................",
"......................................"};
