/* XPM */
static char * h7Seg_15_xpm[] = {
"25 23 169 2",
"  	c None",
". 	c #9E9E9E",
"+ 	c #9D9D9D",
"@ 	c #9A9F9A",
"# 	c #93A493",
"$ 	c #91A591",
"% 	c #98A198",
"& 	c #8CA88C",
"* 	c #7AB47A",
"= 	c #8CA28C",
"- 	c #979797",
"; 	c #969696",
"> 	c #999A99",
", 	c #6EB86E",
"' 	c #0EF50E",
") 	c #02FD02",
"! 	c #17F017",
"~ 	c #5AC65A",
"{ 	c #9C9F9C",
"] 	c #86AB86",
"^ 	c #5BC65B",
"/ 	c #1CED1C",
"( 	c #69BC69",
"_ 	c #989B98",
": 	c #969796",
"< 	c #8BA38B",
"[ 	c #5EC45E",
"} 	c #08FA08",
"| 	c #00FF00",
"1 	c #1DED1D",
"2 	c #72B872",
"3 	c #9AA09A",
"4 	c #75B675",
"5 	c #41D541",
"6 	c #02FE02",
"7 	c #34DE34",
"8 	c #66BE66",
"9 	c #94A094",
"0 	c #9A9A9A",
"a 	c #999B99",
"b 	c #7CB07C",
"c 	c #4CCF4C",
"d 	c #07FB07",
"e 	c #24E824",
"f 	c #86AC86",
"g 	c #99A199",
"h 	c #62C262",
"i 	c #30E130",
"j 	c #01FE01",
"k 	c #19EF19",
"l 	c #47D347",
"m 	c #92A592",
"n 	c #9D9F9D",
"o 	c #6EBA6E",
"p 	c #3CD93C",
"q 	c #05FC05",
"r 	c #0EF60E",
"s 	c #35DD35",
"t 	c #8BA98B",
"u 	c #97A297",
"v 	c #50CC50",
"w 	c #1FEB1F",
"x 	c #27E627",
"y 	c #58C858",
"z 	c #94A494",
"A 	c #28E628",
"B 	c #03FD03",
"C 	c #1EEB1E",
"D 	c #4BCF4B",
"E 	c #8FA78F",
"F 	c #96A396",
"G 	c #3FD73F",
"H 	c #0FF50F",
"I 	c #36DD36",
"J 	c #69BD69",
"K 	c #4DCF4D",
"L 	c #18EF18",
"M 	c #2BE42B",
"N 	c #5CC55C",
"O 	c #9B9F9B",
"P 	c #8FA68F",
"Q 	c #2EE22E",
"R 	c #00FE00",
"S 	c #44D544",
"T 	c #7AB37A",
"U 	c #9BA09B",
"V 	c #3BDA3B",
"W 	c #06FB06",
"X 	c #3ADA3A",
"Y 	c #71B971",
"Z 	c #78B478",
"` 	c #26E726",
" .	c #52CC52",
"..	c #8BA88B",
"+.	c #8AA98A",
"@.	c #49D149",
"#.	c #85AC85",
"$.	c #9AA19A",
"%.	c #60C360",
"&.	c #1FEC1F",
"*.	c #5FC45F",
"=.	c #8EA78E",
"-.	c #72B772",
";.	c #99A099",
">.	c #9D9E9D",
",.	c #7CB37C",
"'.	c #47D247",
").	c #17F117",
"!.	c #07FA07",
"~.	c #14F114",
"{.	c #4BD04B",
"].	c #37DC37",
"^.	c #47D147",
"/.	c #52CB52",
"(.	c #56C856",
"_.	c #1EEC1E",
":.	c #13F213",
"<.	c #64C164",
"[.	c #97A197",
"}.	c #61C261",
"|.	c #2FE12F",
"1.	c #2EE12E",
"2.	c #9B9B9B",
"3.	c #999999",
"4.	c #6ABA6A",
"5.	c #46D246",
"6.	c #32DF32",
"7.	c #38DB38",
"8.	c #5DC45D",
"9.	c #54C954",
"0.	c #2DE12D",
"a.	c #4AD14A",
"b.	c #7CB27C",
"c.	c #9C9C9C",
"d.	c #66C066",
"e.	c #0BF70B",
"f.	c #04FC04",
"g.	c #59C759",
"h.	c #84AE84",
"i.	c #989898",
"j.	c #94A294",
"k.	c #5AC75A",
"l.	c #24E924",
"m.	c #70B970",
"n.	c #8EA88E",
"o.	c #80AF80",
"p.	c #98A298",
"q.	c #05FB05",
"r.	c #35DE35",
"s.	c #95A395",
"t.	c #5CC65C",
"u.	c #01FF01",
"v.	c #16F016",
"w.	c #19EE19",
"x.	c #25E725",
"y.	c #57C957",
"z.	c #8EA58E",
"A.	c #34DD34",
"B.	c #0AF80A",
"C.	c #69BE69",
"D.	c #959B95",
"E.	c #84AA84",
"F.	c #45D445",
"G.	c #89A389",
"H.	c #6DBA6D",
"I.	c #56CA56",
"J.	c #9B9E9B",
"K.	c #92A492",
"L.	c #90A690",
". . . . . . . . + + + + + + + + + + + + @ # $ # % ",
". . . . . % & * = - ; ; ; ; ; ; ; ; ; > , ' ) ! ~ ",
". . . . { ] ^ / ( _ : ; ; ; ; ; ; ; ; < [ } | 1 2 ",
". . . . 3 4 5 6 7 8 9 0 0 0 0 0 0 0 a b c d ) e f ",
". . . . g h i j k l m . . . . . . . n o p q r s t ",
". . . . u v w j x y z . . . . . . . { ^ A B C D E ",
". . . . F G H | I J u . . . . . . . { K L 6 M N m ",
". . . O P Q R | S T g . . . . . . . U V W | X Y F ",
". . . $ Z ` | |  ...O . . . . . . % +.i | | @.#.$.",
". . . f %.&.| j *.@ . . . . . . . =.-.x | | y ;.>.",
". . . ,.'.).!.~.{.[ X 7 7 7 7 ].^./.(._.W :.<.. . ",
". . . { ;.[.u % }.|.W | | | | W 1.}.3 [.u % O . . ",
". . . 2.; ; - 3.4.5.s 6.6.6.6.7.8.9.0.! w a.b.. . ",
". . + 0 ; ; - 0 c.. . . . . . . . d.e.f./ g.h.. . ",
". . c.3.; ; i.2.+ . . . . . . n j.k.| | l.m.n.. . ",
". + 2.i.; ; i.+ . . . . . . . 3 o.@.| | M ] % . . ",
". + 0 i.; ; 3.. . . . . . . . p.o X | q.r.s.. . . ",
". + 3.- ; - 3.. . . . . . . . s.t.M u.v.'.u . . . ",
". + i.; ; i.2.. . . . . . . . m '.w.j x.y.p.. . . ",
". + i.; - 0 c.2.2.2.2.2.2.2.2.z.A.B.6 I C.g . . . ",
"c.2.i.3.c.i.; ; ; ; ; ; ; ; D.E.` | 6 F.Z U . . . ",
"c.c.c.0 - ; ; ; ; ; ; ; ; ; G.H.w | B I.+.{ . . . ",
". . + + + + + + + + + + + + J.% K.L.L.% >.. . . . "};
