/* XPM */
static char * HoldUp_xpm[] = {
"75 75 11 1",
" 	c None",
".	c #000000",
"+	c #717171",
"@	c #AAAAAA",
"#	c #1C1C1C",
"$	c #383838",
"%	c #8D8D8D",
"&	c #FFFFFF",
"*	c #555555",
"=	c #C6C6C6",
"-	c #E2E2E2",
"...........................................................................",
"...........................................................................",
"...........................................................................",
"...........................................................................",
"...........................................................................",
"...........................................................................",
"...........................................................................",
"...........................................................................",
"...........................................................................",
"...........................................................................",
"...........................................................................",
"...........................................................................",
"...........................................................................",
"...........................................................................",
"...........................................................................",
"...........................................................................",
"...........................................................................",
"...........................................................................",
"...........................................................................",
"...........................................................................",
"...........................................................................",
"...........................................................................",
"...........................................................................",
"...........................................................................",
"...........................................................................",
"...........................................................................",
"...........................................................................",
"...........................................................................",
"...........................................................................",
"...........................................................................",
"...........................................................................",
"..............+@@.....@@+....#+@@@@$.....@@+........@@@@@@%$...............",
"..............@&&.....&&@...*&&&&&&&@....&&@........&&&&&&&&@..............",
"..............@&&.....&&@..#&&&=@@-&&@...&&@........&&=***=&&%.............",
"..............@&&.....&&@..=&&*....@&&$..&&@........&&@....@&&#............",
"..............@&&.....&&@..&&%.....#&&%..&&@........&&@....#&&*............",
"..............@&&*****&&@.*&&*......=&@..&&@........&&@.....&&@............",
"..............@&&&&&&&&&@.*&&*......@&&..&&@........&&@.....&&@............",
"..............@&&@@@@@&&@.*&&*......@&-..&&@........&&@.....&&@............",
"..............@&&.....&&@.$&&*......-&@..&&@........&&@.....&&@............",
"..............@&&.....&&@..&&=.....$&&+..&&@........&&@....$&&*............",
"..............@&&.....&&@..%&&@#..$-&&#..&&@........&&@....@&-.............",
"..............@&&.....&&@..#-&&&&&&&&*...&&-@@@@@@..&&-@@@&&&*.............",
"..............@&&.....&&@...#@&&&&&-*....&&&&&&&&&..&&&&&&&-*..............",
"..............$**.....**$.....#****......*********..******$................",
"...........................................................................",
"...........................................................................",
"...........................................................................",
"...........................................................................",
"...........................................................................",
"...........................................................................",
"...........................................................................",
"...........................................................................",
"...........................................................................",
"...........................................................................",
"...........................................................................",
"...........................................................................",
"...........................................................................",
"...........................................................................",
"...........................................................................",
"...........................................................................",
"...........................................................................",
"...........................................................................",
"...........................................................................",
"...........................................................................",
"...........................................................................",
"...........................................................................",
"...........................................................................",
"...........................................................................",
"...........................................................................",
"...........................................................................",
"...........................................................................",
"...........................................................................",
"...........................................................................",
"..........................................................................."};
