/* XPM */
static char * hReadOutUp_xpm[] = {
"38 38 146 2",
"  	c None",
". 	c #000000",
"+ 	c #313131",
"@ 	c #ACACAC",
"# 	c #B2B2B2",
"$ 	c #A2A2A2",
"% 	c #404040",
"& 	c #020202",
"* 	c #757575",
"= 	c #1C1C1C",
"- 	c #0C0C0C",
"; 	c #8F8F8F",
"> 	c #929292",
", 	c #060606",
"' 	c #131313",
") 	c #9D9D9D",
"! 	c #262626",
"~ 	c #464646",
"{ 	c #F7F7F7",
"] 	c #636363",
"^ 	c #505050",
"/ 	c #9E9E9E",
"( 	c #D4D4D4",
"_ 	c #171717",
": 	c #A8A8A8",
"< 	c #C9C9C9",
"[ 	c #494949",
"} 	c #0D0D0D",
"| 	c #383838",
"1 	c #EFEFEF",
"2 	c #EBEBEB",
"3 	c #343434",
"4 	c #1B1B1B",
"5 	c #E2E2E2",
"6 	c #545454",
"7 	c #D1D1D1",
"8 	c #101010",
"9 	c #5C5C5C",
"0 	c #1F1F1F",
"a 	c #C2C2C2",
"b 	c #393939",
"c 	c #2F2F2F",
"d 	c #040404",
"e 	c #8E8E8E",
"f 	c #C8C8C8",
"g 	c #8D8D8D",
"h 	c #4E4E4E",
"i 	c #D8D8D8",
"j 	c #D3D3D3",
"k 	c #818181",
"l 	c #EAEAEA",
"m 	c #BABABA",
"n 	c #999999",
"o 	c #0F0F0F",
"p 	c #1A1A1A",
"q 	c #D5D5D5",
"r 	c #626262",
"s 	c #707070",
"t 	c #181818",
"u 	c #121212",
"v 	c #DDDDDD",
"w 	c #696969",
"x 	c #4B4B4B",
"y 	c #A4A4A4",
"z 	c #E1E1E1",
"A 	c #B6B6B6",
"B 	c #010101",
"C 	c #585858",
"D 	c #F8F8F8",
"E 	c #B8B8B8",
"F 	c #B9B9B9",
"G 	c #FBFBFB",
"H 	c #141414",
"I 	c #5F5F5F",
"J 	c #C3C3C3",
"K 	c #B4B4B4",
"L 	c #C0C0C0",
"M 	c #323232",
"N 	c #B7B7B7",
"O 	c #5E5E5E",
"P 	c #BDBDBD",
"Q 	c #212121",
"R 	c #7C7C7C",
"S 	c #DEDEDE",
"T 	c #161616",
"U 	c #3F3F3F",
"V 	c #444444",
"W 	c #888888",
"X 	c #CACACA",
"Y 	c #BEBEBE",
"Z 	c #3A3A3A",
"` 	c #C4C4C4",
" .	c #BFBFBF",
"..	c #454545",
"+.	c #050505",
"@.	c #111111",
"#.	c #0A0A0A",
"$.	c #030303",
"%.	c #080808",
"&.	c #070707",
"*.	c #272727",
"=.	c #292929",
"-.	c #0E0E0E",
";.	c #202020",
">.	c #282828",
",.	c #D9D9D9",
"'.	c #303030",
").	c #868686",
"!.	c #6B6B6B",
"~.	c #E0E0E0",
"{.	c #D6D6D6",
"].	c #AEAEAE",
"^.	c #3E3E3E",
"/.	c #353535",
"(.	c #ADADAD",
"_.	c #C5C5C5",
":.	c #939393",
"<.	c #CFCFCF",
"[.	c #767676",
"}.	c #252525",
"|.	c #CCCCCC",
"1.	c #E5E5E5",
"2.	c #595959",
"3.	c #DFDFDF",
"4.	c #C6C6C6",
"5.	c #838383",
"6.	c #1E1E1E",
"7.	c #E8E8E8",
"8.	c #373737",
"9.	c #E7E7E7",
"0.	c #737373",
"a.	c #878787",
"b.	c #6F6F6F",
"c.	c #191919",
"d.	c #9F9F9F",
"e.	c #DADADA",
"f.	c #686868",
"g.	c #B0B0B0",
"h.	c #E3E3E3",
"i.	c #717171",
"j.	c #B1B1B1",
"k.	c #2E2E2E",
"l.	c #434343",
"m.	c #7F7F7F",
"n.	c #808080",
"o.	c #666666",
". . . . . . . . . . . . . . . . . . . . . . . . . . . . . . . . . . . . . . ",
". . . . . . . . . . . . . . . . . . . . . . . . . . . . . . . . . . . . . . ",
". . . . . . . . . . . . . . . . . . . . . . . . . . . . . . . . . . . . . . ",
". . . . . . . . . . . . . . . . . . . . . . . . . . . . . . . . . . . . . . ",
". . . . . . . . . . . . . . . . . . . . . . . . . . . . . . . . . . . . . . ",
". . . . . . . . . . . . . . . . . . . . . . . . . . . . . . . . . . . . . . ",
". . . . . . . . . . . . . . . . . . . . . . . . . . . . . . . . . . . . . . ",
". . . . . . . . . . . . . . . . . . . . . . . . . . . . . . . . . . . . . . ",
". . . . . . . . . . . . . . . . . . . . . . . . . . . . . . . . . . . . . . ",
". . . . . . . . . . . . . . . . . . . . . . . . . . . . . . . . . . . . . . ",
". . . . . . + @ # # $ % & * # # # $ = . - ; > , . ' ) # # > ! . . . . . . . ",
". . . . . . ~ { ] ^ / ( _ : < ^ ^ [ } . | 1 2 3 . 4 5 ; 6 : 7 8 . . . . . . ",
". . . . . . ~ { 4 . 9 5 0 : a b b c d . e f a g . 4 5 9 . = 5 h . . . . . . ",
". . . . . . ~ { i j i k , : l m m n o p q r s i t 4 5 9 . u v w . . . . . . ",
". . . . . . ~ { x y z 3 . : A 8 8 } B C D E F G 9 4 5 9 . H z I . . . . . . ",
". . . . . . ~ { 4 H J K - : L M M M u # N O O P F Q 5 R 3 s S p . . . . . . ",
". . . . . . b < T . U J V W X P P P h F [ . . V Y Z N `  .E ... . . . . . . ",
". . . . . . +.' & . & @.#.} ' ' ' ' #.u $.. . d ' %.@.' ' &.. . . . . . . . ",
". . . . . . . . . . . . . . . . . . . . . . . . . . . . . . . . . . . . . . ",
". . . . . . . . . . . } *.=.-.. . ;.t . $.Q ' = =.=.=.=.T . . . . . . . . . ",
". . . . . . . . . . >.P ,.,.P '.. K ).. u P !.).` ~.{.a w . . . . . . . . . ",
". . . . . . . . . . ].a ^./.(.F - _.:.. ' <.[.@.}.|.; t } . . . . . . . . . ",
". . . . . . . . . T 1.2.. . V 3.! _.:.. ' <.[.. o 4.5.. . . . . . . . . . . ",
". . . . . . . . . 6.7.^ . . 8.9.'._.:.. ' <.0.. o 4.5.. . . . . . . . . . . ",
". . . . . . . . . &.q a.&.$.b.q c.Y d.d 6.e.6 . o 4.5.. . . . . . . . . . . ",
". . . . . . . . . . f.9.E g.h.i.& s 2 j.L ~.k.. o 4.5.. . . . . . . . . . . ",
". . . . . . . . . . $.l.m.5.[ , . #.I 5.n.U . . %.o.V . . . . . . . . . . . ",
". . . . . . . . . . . . . . . . . . . . . . . . . . . . . . . . . . . . . . ",
". . . . . . . . . . . . . . . . . . . . . . . . . . . . . . . . . . . . . . ",
". . . . . . . . . . . . . . . . . . . . . . . . . . . . . . . . . . . . . . ",
". . . . . . . . . . . . . . . . . . . . . . . . . . . . . . . . . . . . . . ",
". . . . . . . . . . . . . . . . . . . . . . . . . . . . . . . . . . . . . . ",
". . . . . . . . . . . . . . . . . . . . . . . . . . . . . . . . . . . . . . ",
". . . . . . . . . . . . . . . . . . . . . . . . . . . . . . . . . . . . . . ",
". . . . . . . . . . . . . . . . . . . . . . . . . . . . . . . . . . . . . . ",
". . . . . . . . . . . . . . . . . . . . . . . . . . . . . . . . . . . . . . ",
". . . . . . . . . . . . . . . . . . . . . . . . . . . . . . . . . . . . . . ",
". . . . . . . . . . . . . . . . . . . . . . . . . . . . . . . . . . . . . . "};
