/* XPM */
static char * 7Seg_28_xpm[] = {
"50 45 232 2",
"  	c None",
". 	c #9E9E9E",
"+ 	c #9BA09B",
"@ 	c #86AC86",
"# 	c #7EB17E",
"$ 	c #80B080",
"% 	c #89AA89",
"& 	c #94A494",
"* 	c #9D9D9D",
"= 	c #9C9C9C",
"- 	c #99A199",
"; 	c #90A690",
"> 	c #53CB53",
", 	c #23E923",
"' 	c #00FF00",
") 	c #0FF60F",
"! 	c #42D542",
"~ 	c #74B774",
"{ 	c #989898",
"] 	c #969696",
"^ 	c #979797",
"/ 	c #999999",
"( 	c #8DA88D",
"_ 	c #6CBC6C",
": 	c #2BE42B",
"< 	c #56CA56",
"[ 	c #9C9F9C",
"} 	c #8FA68F",
"| 	c #58C858",
"1 	c #06FB06",
"2 	c #02FE02",
"3 	c #13F313",
"4 	c #57C857",
"5 	c #81AE81",
"6 	c #9A9A9A",
"7 	c #7FB07F",
"8 	c #52CB52",
"9 	c #12F412",
"0 	c #25E725",
"a 	c #59C659",
"b 	c #8AAA8A",
"c 	c #7CB27C",
"d 	c #43D443",
"e 	c #17F017",
"f 	c #18F018",
"g 	c #8FA58F",
"h 	c #9B9B9B",
"i 	c #71B871",
"j 	c #3ED83E",
"k 	c #0EF60E",
"l 	c #03FD03",
"m 	c #13F213",
"n 	c #68BE68",
"o 	c #94A394",
"p 	c #3BDA3B",
"q 	c #08F908",
"r 	c #01FF01",
"s 	c #1CEE1C",
"t 	c #82AF82",
"u 	c #64C164",
"v 	c #29E529",
"w 	c #09F909",
"x 	c #04FC04",
"y 	c #20EA20",
"z 	c #57C957",
"A 	c #9D9F9D",
"B 	c #5EC45E",
"C 	c #41D641",
"D 	c #48D248",
"E 	c #5FC45F",
"F 	c #56C956",
"G 	c #14F114",
"H 	c #29E629",
"I 	c #6CBB6C",
"J 	c #49D249",
"K 	c #1CED1C",
"L 	c #4DCF4D",
"M 	c #96A396",
"N 	c #81AF81",
"O 	c #3ADB3A",
"P 	c #24E924",
"Q 	c #5FC35F",
"R 	c #88AB88",
"S 	c #8FA78F",
"T 	c #6ABD6A",
"U 	c #2EE22E",
"V 	c #30E130",
"W 	c #7FB17F",
"X 	c #93A493",
"Y 	c #53CA53",
"Z 	c #22E922",
"` 	c #37DD37",
" .	c #91A591",
"..	c #9AA09A",
"+.	c #3DD83D",
"@.	c #01FE01",
"#.	c #43D543",
"$.	c #7BB37B",
"%.	c #25E625",
"&.	c #0BF70B",
"*.	c #4FCE4F",
"=.	c #75B775",
"-.	c #10F510",
";.	c #2FE22F",
">.	c #63C263",
",.	c #5DC55D",
"'.	c #0DF70D",
").	c #08FA08",
"!.	c #3CD93C",
"~.	c #6EBB6E",
"{.	c #7AB37A",
"].	c #4AD04A",
"^.	c #0AF90A",
"/.	c #6BBC6B",
"(.	c #38DB38",
"_.	c #5BC65B",
":.	c #05FC05",
"<.	c #70B970",
"[.	c #4BD04B",
"}.	c #12F212",
"|.	c #02FD02",
"1.	c #7AB47A",
"2.	c #3CDA3C",
"3.	c #11F411",
"4.	c #31E031",
"5.	c #32DF32",
"6.	c #26E726",
"7.	c #20EB20",
"8.	c #97A297",
"9.	c #8AA98A",
"0.	c #4FCD4F",
"a.	c #62C362",
"b.	c #3ADA3A",
"c.	c #6FBA6F",
"d.	c #98A298",
"e.	c #4ECF4E",
"f.	c #91A691",
"g.	c #79B579",
"h.	c #76B676",
"i.	c #8CA88C",
"j.	c #87AC87",
"k.	c #72B872",
"l.	c #77B577",
"m.	c #2DE22D",
"n.	c #10F410",
"o.	c #45D445",
"p.	c #1FEB1F",
"q.	c #15F015",
"r.	c #07FA07",
"s.	c #0FF50F",
"t.	c #52CC52",
"u.	c #99A099",
"v.	c #23E823",
"w.	c #60C360",
"x.	c #53CC53",
"y.	c #0CF70C",
"z.	c #39DC39",
"A.	c #71B971",
"B.	c #09FA09",
"C.	c #40D640",
"D.	c #17F117",
"E.	c #67BF67",
"F.	c #0BF80B",
"G.	c #4ECD4E",
"H.	c #21EA21",
"I.	c #1BEE1B",
"J.	c #62C262",
"K.	c #8EA78E",
"L.	c #85AD85",
"M.	c #95A495",
"N.	c #40D740",
"O.	c #26E826",
"P.	c #25E825",
"Q.	c #55CA55",
"R.	c #8EA88E",
"S.	c #1EEC1E",
"T.	c #33DF33",
"U.	c #92A592",
"V.	c #46D246",
"W.	c #16F116",
"X.	c #44D544",
"Y.	c #84AE84",
"Z.	c #98A198",
"`.	c #65BF65",
" +	c #64C064",
".+	c #73B873",
"++	c #35DD35",
"@+	c #05FB05",
"#+	c #54CA54",
"$+	c #98A098",
"%+	c #4DCE4D",
"&+	c #69BE69",
"*+	c #1DEC1D",
"=+	c #04FD04",
"-+	c #8CA98C",
";+	c #79B479",
">+	c #34DE34",
",+	c #5CC75C",
"'+	c #4CD04C",
")+	c #3FD73F",
"!+	c #1BEC1B",
"~+	c #0AF80A",
"{+	c #24E824",
"]+	c #68BD68",
"^+	c #5BC55B",
"/+	c #89AB89",
"(+	c #68BF68",
"_+	c #07FB07",
":+	c #1EEB1E",
"<+	c #75B575",
"[+	c #42D642",
"}+	c #0CF80C",
"|+	c #2AE52A",
"1+	c #66BF66",
"2+	c #34DF34",
"3+	c #6BBD6B",
"4+	c #62C162",
"5+	c #56C856",
"6+	c #8BA98B",
"7+	c #04FB04",
"8+	c #35DE35",
"9+	c #47D247",
"0+	c #78B578",
"a+	c #92A492",
"b+	c #15F115",
"c+	c #3DD93D",
"d+	c #60C260",
"e+	c #14F214",
"f+	c #9D9E9D",
"g+	c #95A395",
"h+	c #7DB17D",
"i+	c #82AE82",
". . . . . . . . . . . . . . . . . . . . . . . . . . . . . . . . . . . . . . . . . . . . . . . . . . ",
". . . . . . . . . . . . . . . + @ # # # # # # # # # # # # # # # # # # # # $ % & . * = = = = = = = . ",
". . . . . . . . . . . . - % ; & > , ' ' ' ' ' ' ' ' ' ' ' ' ' ' ' ' ' ' ' ) ! ~ * { ] ] ] ] ] ^ / * ",
". . . . . . . . . . . ( _ : < [ } | 1 2 ' ' ' ' ' ' ' ' ' ' ' ' ' ' ' ' ' 3 4 5 = { ] ] ] ] ] { 6 * ",
". . . . . . . . . . . 7 8 9 0 a b c d e ' ' ' ' ' ' ' ' ' ' ' ' ' ' ' ' ' f _ g h { ] ] ] ] ] { h * ",
". . . . . . . . . . . i j k l m n } o p q r ' ' ' ' ' ' ' ' ' ' ' ' ' ' ' s t = 6 ^ ] ] ] ] ] / = . ",
". . . . . . . . . . . u v w ' x y z A c B C j j j j j j j j j j j j j j D E ; = / ^ ] ] ] ] ] 6 * . ",
". . . . . . . . . . . F G x ' ' ' H I ( . . . . . . . . . . . . . . . . . . . h ^ ] ] ] ] ] ] h . . ",
". . . . . . . . . . . J ' ' ' ' ' K L t . . . . . . . . . . . . . . . . . . . 6 ] ] ] ] ] ] ^ h . . ",
". . . . . . . . . M N O ' ' ' ' ' P Q R . . . . . . . . . . . . . . . . . . * 6 ] ] ] ] ] ^ / = . . ",
". . . . . . . . . S T U ' ' ' ' ' V W X . . . . . . . . . . . . . . . . . . = / ] ] ] ] ] ^ 6 = . . ",
". . . . . . . . . R Y Z ' ' ' ' ' `  .... . . . . . . . . . . . . . . . . * h { ] ] ] ] ] { = * . . ",
". . . . . . . . . t +.e ' ' ' @.w #.. . . . . . . . . . . . . . . . . . . * 6 { ] ] ] ] ] { * . . . ",
". . . . . . . . . $.%.&.' ' ' l e *.. . . . . . . . . . . . . . . . . . . * / ^ ] ] ] ] ] { . . . . ",
". . . . . . . . . =.-.' ' ' ' 1 ;.>.. . . . . . . . . . . . . . . . . . . * ^ ] ] ] ] ] ^ / . . . . ",
". . . . . . . . b ,.'.' ' ' ' ).!.~.. . . . . . . . . . . . . . . . . . . * ^ ] ] ] ] ] { 6 . . . . ",
". . . . . . . . {.].^.' ' ' ' ^.].{.. . . . . . . . . . . . . . . . . . * h ^ ] ] ] ] ] / h . . . . ",
". . . . . . . . /.(.).' ' ' ' '.,.b . . . . . . . . . . . . . . . . . . = / ^ ] ] ] ] ] / = . . . . ",
". . . . . . . . _.0 :.' ' ' ' ) <.... . . . . . . . . . . . . . . . . . h { ^ ] ] ] ] ] h * . . . . ",
". . . . . . . . [.}.|.' ' ' q y 1.. . . . . . . . . . . . . . . . . . . h { ] ] ] ] ] ] h . . . . . ",
". . . . . . . . 2.' ' ' ' ' 3.4.W =.5.6.7.7.7.7.7.7.7.7.7.7.7.7.7.#.T 8.6 ] ] ] ] ] ] ^ = . . . . . ",
". . . . . . 8.9._.j j j j j 0.T S a.' ' ' ' ' ' ' ' ' ' ' ' ' ' ' b.c.d.h / / / / / / 6 * . . . . . ",
". . . . . . . . . . . . . . . + @ e.' ' ' ' ' ' ' ' ' ' ' ' ' ' ' e.@ + . . . . . . . . . . . . . . ",
". . . . . . f.g.n E E E E E h.i./.b.' ' ' ' ' ' ' ' ' ' ' ' ' ' ' a.8.j.<.E E E E E k. .... . . . . ",
". . . . . . l.m.n.' ' ' ' ' o. .n ! p.p.p.p.p.p.p.p.p.p.p.p.p.0 5.=.R Y Z ' ' ' ' ' `  .... . . . . ",
". . . . . . ~.q.r.' ' ' l s.t.. . . . . . . . . . . . . . . . . . . t +.e ' ' ' @.w #.. . . . . . . ",
". . . . . u.u l ' ' ' ' ).v.w.. . . . . . . . . . . . . . . . . . . $.%.&.' ' ' l e *.. . . . . . . ",
". . . . [ R x.l ' ' ' ' y.z.~.. . . . . . . . . . . . . . . . . . . =.-.' ' ' ' 1 ;.>.. . . . . . . ",
". . . . ..A.j 2 ' ' ' ' 3.L $.. . . . . . . . . . . . . . . . . . b ,.'.' ' ' ' B.C.k.. . . . . . . ",
". . . . - w.U @.' ' ' ' D.E.( . . . . . . . . . . . . . . . . . . {.].^.' ' ' ' F.G.# . . . . . . . ",
". . . . d.t.H.@.' ' ' ' I.c ... . . . . . . . . . . . . . . . . . /.(.).' ' ' ' '.J.K.. . . . . . . ",
". . . . M C.n.' ' ' ' ^.: L.. . . . . . . . . . . . . . . . . . . _.0 :.' ' ' ' -.=.. . . . . . . . ",
". . . . M.;.' ' ' ' ' e N.% . . . . . . . . . . . . . . . . . . . [.}.|.' ' ' F.0 $.. . . . . . . . ",
". . . f.h.O.' ' ' ' ' P.Q.R.. . . . . . . . . . . . . . . . . . . 2.' ' ' ' ' e +.t . . . . . . . . ",
". . . @ B S.' ' ' ' ' T.T U.. . . . . . . . . . . . . . . . . X W V ' ' ' ' ' Z > R . . . . . . . . ",
". . . $.V.W.' ' ' ' ' X.Y.Z.. . . . . . . . . . . . . . . . . b `.6.' ' ' ' ' :  +( . . . . . . . . ",
". . . .+++3.' ' ' 2 @+#+$+A . . . . . . . . . . . . . . . . . t %+K ' ' ' ' ' O N M . . . . . . . . ",
". . . &+*+w ' ' =+, _ -+. . . . . . . . . . . . . . . . . . . ;+>+3 ' ' ' ' ' o.Z.[ . . . . . . . . ",
". . . ,+' ' 2 1 '+N ..=.*.! )+)+)+)+)+)+)+)+)+)+)+)+)+)+0.n ( <.!+w ' ' ' 2 ~+*.. . . . . . . . . . ",
". ..b L ' ' {+]+9.(  +: ' ' ' ' ' ' ' ' ' ' ' ' ' ' ' ' P.^+/+(+l ' ' ' ' _+:+,.. . . . . . . . . . ",
". 8.<++.1 [+~ A @ | }+' ' ' ' ' ' ' ' ' ' ' ' ' ' ' ' ' |+1+h.x.l ' ' ' ' F.2+3+. . . . . . . . . . ",
". X 4+5+J.6+8.9.(.7+@.' ' ' ' ' ' ' ' ' ' ' ' ' ' ' ' ' 8+c _ ! 2 ' ' ' ' -.9+0+. . . . . . . . . . ",
". + K.a+. u.T b+r.' ' ' ' ' ' ' ' ' ' ' ' ' ' ' ' ' ' ' c+( d+5.2 ' ' ' ' e+,.@ . . . . . . . . . . ",
". . . . f+g+9.h+h+h+h+h+h+h+h+h+h+h+h+h+h+h+h+h+h+h+h+h+6+A ; @ h+h+h+h+h+i+a+... . . . . . . . . . ",
". . . . . . . . . . . . . . . . . . . . . . . . . . . . . . . . . . . . . . . . . . . . . . . . . . "};
