/* XPM */
static char * 7Seg_3_xpm[] = {
"50 45 187 2",
"  	c None",
". 	c #9E9E9E",
"+ 	c #9D9D9D",
"@ 	c #9C9C9C",
"# 	c #9BA09B",
"$ 	c #8BA98B",
"% 	c #82AF82",
"& 	c #7EB17E",
"* 	c #81AF81",
"= 	c #8AAA8A",
"- 	c #9AA09A",
"; 	c #9A9A9A",
"> 	c #979797",
", 	c #969696",
"' 	c #989898",
") 	c #9B9B9B",
"! 	c #90A690",
"~ 	c #36DC36",
"{ 	c #0BF70B",
"] 	c #00FF00",
"^ 	c #19EF19",
"/ 	c #44D444",
"( 	c #8EA88E",
"_ 	c #999999",
": 	c #999D99",
"< 	c #88AA88",
"[ 	c #27E727",
"} 	c #28E628",
"| 	c #59C859",
"1 	c #92A692",
"2 	c #8EA68E",
"3 	c #71B971",
"4 	c #21EB21",
"5 	c #37DD37",
"6 	c #6CBC6C",
"7 	c #95A395",
"8 	c #55CA55",
"9 	c #18F018",
"0 	c #49D249",
"a 	c #85AD85",
"b 	c #9AA19A",
"c 	c #75B675",
"d 	c #3ED73E",
"e 	c #12F412",
"f 	c #58C858",
"g 	c #99A099",
"h 	c #9D9E9D",
"i 	c #69BE69",
"j 	c #27E627",
"k 	c #0BF80B",
"l 	c #05FB05",
"m 	c #11F411",
"n 	c #63C263",
"o 	c #5EC55E",
"p 	c #10F310",
"q 	c #05FC05",
"r 	c #0DF70D",
"s 	c #28E528",
"t 	c #6EBB6E",
"u 	c #9D9F9D",
"v 	c #98A098",
"w 	c #52CC52",
"x 	c #15F215",
"y 	c #41D741",
"z 	c #79B579",
"A 	c #98A198",
"B 	c #84AE84",
"C 	c #44D544",
"D 	c #1CED1C",
"E 	c #83AE83",
"F 	c #92A592",
"G 	c #6ABD6A",
"H 	c #33DF33",
"I 	c #26E826",
"J 	c #76B676",
"K 	c #91A691",
"L 	c #8FA78F",
"M 	c #5AC65A",
"N 	c #2CE42C",
"O 	c #99A199",
"P 	c #8BAA8B",
"Q 	c #45D345",
"R 	c #1BEE1B",
"S 	c #08FA08",
"T 	c #38DC38",
"U 	c #86AC86",
"V 	c #30E030",
"W 	c #0DF60D",
"X 	c #01FF01",
"Y 	c #18EF18",
"Z 	c #49D149",
"` 	c #97A297",
" .	c #1CEE1C",
"..	c #01FE01",
"+.	c #2AE52A",
"@.	c #5CC75C",
"#.	c #8DA88D",
"$.	c #67BF67",
"%.	c #17F117",
"&.	c #02FE02",
"*.	c #3ED83E",
"=.	c #7FB07F",
"-.	c #52CB52",
";.	c #4FCE4F",
">.	c #83AD83",
",.	c #9C9F9C",
"'.	c #71B871",
").	c #0EF60E",
"!.	c #03FD03",
"~.	c #60C460",
"{.	c #64C164",
"].	c #29E529",
"^.	c #09F909",
"/.	c #0FF50F",
"(.	c #56C956",
"_.	c #14F114",
":.	c #04FC04",
"<.	c #75B775",
"[.	c #4CCF4C",
"}.	c #65BF65",
"|.	c #87AC87",
"1.	c #70B970",
"2.	c #5FC45F",
"3.	c #72B872",
"4.	c #91A591",
"5.	c #88AB88",
"6.	c #53CA53",
"7.	c #22E922",
"8.	c #3DD83D",
"9.	c #17F017",
"0.	c #43D543",
"a.	c #7BB37B",
"b.	c #25E625",
"c.	c #10F510",
"d.	c #06FB06",
"e.	c #2FE22F",
"f.	c #5DC55D",
"g.	c #09FA09",
"h.	c #40D640",
"i.	c #7AB37A",
"j.	c #4AD04A",
"k.	c #0AF90A",
"l.	c #4ECD4E",
"m.	c #6BBC6B",
"n.	c #38DB38",
"o.	c #62C262",
"p.	c #8EA78E",
"q.	c #5BC65B",
"r.	c #25E725",
"s.	c #4BD04B",
"t.	c #12F212",
"u.	c #02FD02",
"v.	c #3CDA3C",
"w.	c #93A493",
"x.	c #7FB17F",
"y.	c #30E130",
"z.	c #53CB53",
"A.	c #26E726",
"B.	c #2BE42B",
"C.	c #64C064",
"D.	c #4DCE4D",
"E.	c #3ADB3A",
"F.	c #96A396",
"G.	c #79B479",
"H.	c #34DE34",
"I.	c #13F313",
"J.	c #45D445",
"K.	c #1BEC1B",
"L.	c #0AF80A",
"M.	c #68BF68",
"N.	c #07FB07",
"O.	c #1EEB1E",
"P.	c #989B98",
"Q.	c #86AA86",
"R.	c #53CC53",
"S.	c #34DF34",
"T.	c #6BBD6B",
"U.	c #999E99",
"V.	c #75B575",
"W.	c #42D542",
"X.	c #47D247",
"Y.	c #78B578",
"Z.	c #32DF32",
"`.	c #14F214",
" +	c #7DB17D",
".+	c #82AE82",
"++	c #92A492",
". . . . . . . . . . . . . . . . . . . . . . . . . . . . . . . . . . . . . . . . . . . . . . . . . . ",
". . . . . . . . . . . . . . . . + @ @ @ @ @ @ @ @ @ @ @ @ @ @ @ @ @ @ @ @ @ + + # $ % & & & & * = - ",
". . . . . . . . . . . . . @ + + ; > , , , , , , , , , , , , , , , , , , , > ' ) ! ~ { ] ] ] ] ^ / ( ",
". . . . . . . . . . . + ) ' ; . + ; , , , , , , , , , , , , , , , , , , , > _ : < [ ] ] ] ] ] } | 1 ",
". . . . . . . . . . . @ _ > > ; + @ ' > , , , , , , , , , , , , , , , , , > ) 2 3 4 ] ] ] ] ] 5 6 7 ",
". . . . . . . . . . . ) ' > , > ; @ + ' , , , , , , , , , , , , , , , , , > + * 8 9 ] ] ] ] ] 0 a b ",
". . . . . . . . . . . ) ' , , , > ; . @ ; _ _ _ _ _ _ _ _ _ _ _ _ _ _ _ _ ; + c d e ] ] ] ] ] f g h ",
". . . . . . . . . . . ; , , , , , ' ) + . . . . . . . . . . . . . . . . . . . i j k ] ] ] l m n . . ",
". . . . . . . . . . . ; , , , , , > _ @ . . . . . . . . . . . . . . . . . . . o p q ] ] ] r s t . . ",
". . . . . . . . . + @ _ , , , , , ' ; + . . . . . . . . . . . . . . . . . u v w ] ] ] ] ] x y z . . ",
". . . . . . . . . + ; ' , , , , , ' @ + . . . . . . . . . . . . . . . . . A B C ] ] ] ] ] D f E . . ",
". . . . . . . . . + ; > , , , , , _ + . . . . . . . . . . . . . . . . . . F G H ] ] ] ] ] I J K . . ",
". . . . . . . . . @ _ > , , , , , _ . . . . . . . . . . . . . . . . . . . L M s ] ] ] ] ] N < O . . ",
". . . . . . . . . @ > , , , , , > ; . . . . . . . . . . . . . . . . . . . P Q R ] ] ] ] S T 7 . . . ",
". . . . . . . . . @ > , , , , , ' ) . . . . . . . . . . . . . . . . . . . U V W ] ] ] X Y Z ` . . . ",
". . . . . . . . + ; > , , , , , ' ) . . . . . . . . . . . . . . . . . . . %  .] ] ] ] ..+.@.A . . . ",
". . . . . . . . @ _ , , , , , , _ @ . . . . . . . . . . . . . . . . . . #.$.%.] ] ] ] &.*.3 - . . . ",
". . . . . . . . ) ' , , , , , > ; + . . . . . . . . . . . . . . . . . . =.-.e ] ] ] ] &.;.>.,.. . . ",
". . . . . . . . ; > , , , , , > ) + . . . . . . . . . . . . . . . . . . '.*.).] ] ] ] !.~.7 h . . . ",
". . . . . . . . _ , , , , , , > @ . . . . . . . . . . . . . . . . . . . {.].^.] ] ] q /.6 . . . . . ",
". . . . . . . . _ , , , , , , ' @ @ ' > > > > > > > > > > > > > > _ ) . (._.:.] ] ] ).j <.. . . . . ",
". . . . . . + @ ; _ _ _ _ _ _ ; + ) , , , , , , , , , , , , , , , ' ) . G *.*.*.*.*.[.}.= . . . . . ",
". . . . . . . . . . . . . . . . + ; , , , , , , , , , , , , , , , ; + . . . . . . . . . . . . . . . ",
". . . . . . + @ ) ; ; ; ; ; ) + ) ' , , , , , , , , , , , , , , , ) ` |.1.2.2.2.2.2.3.4.- . . . . . ",
". . . . . . @ > , , , , , , _ + ) _ > > > > > > > > > > > > > > ' @ 5.6.7.] ] ] ] ] 5 4.- . . . . . ",
". . . . . . ) , , , , , , , ; . . . . . . . . . . . . . . . . . . . % 8.9.] ] ] ..^.0.. . . . . . . ",
". . . . . + ) , , , , , , > ; . . . . . . . . . . . . . . . . . . . a.b.{ ] ] ] !.9.;.. . . . . . . ",
". . . . . + ; , , , , , > ' ) . . . . . . . . . . . . . . . . . . . <.c.] ] ] ] d.e.n . . . . . . . ",
". . . . . ) _ , , , , , > _ @ . . . . . . . . . . . . . . . . . . = f.r ] ] ] ] g.h.3.. . . . . . . ",
". . . . . ; ' , , , , , > ) + . . . . . . . . . . . . . . . . . . i.j.k.] ] ] ] k l.& . . . . . . . ",
". . . . . ; > , , , , , > @ + . . . . . . . . . . . . . . . . . . m.n.S ] ] ] ] r o.p.. . . . . . . ",
". . . . . ' , , , , , , > + . . . . . . . . . . . . . . . . . . . q.r.q ] ] ] ] c.<.. . . . . . . . ",
". . . . . ' , , , , , > ' + . . . . . . . . . . . . . . . . . . . s.t.u.] ] ] k r.a.. . . . . . . . ",
". . . + @ ' , , , , , ' ; + . . . . . . . . . . . . . . . . . . . v.] ] ] ] ] 9.8.% . . . . . . . . ",
". . . @ ; > , , , , , ' ) + . . . . . . . . . . . . . . . . . w.x.y.] ] ] ] ] 7.z.5.. . . . . . . . ",
". . . @ _ > , , , , , _ @ . . . . . . . . . . . . . . . . . . = }.A.] ] ] ] ] B.C.#.. . . . . . . . ",
". . . ) ' > , , , , , ; + . . . . . . . . . . . . . . . . . . % D.D ] ] ] ] ] E.* F.. . . . . . . . ",
". . . ) > , , , , > ; + . . . . . . . . . . . . . . . . . . . G.H.I.] ] ] ] ] J.A ,.. . . . . . . . ",
". . . ) , , , , _ @ . @ ; _ _ _ _ _ _ _ _ _ _ _ _ _ _ _ ; ) + 1.K.^.] ] ] &.L.;.. . . . . . . . . . ",
". . @ _ , , > ; @ + ; ' , , , , , , , , , , , , , , , , > _ @ M.!.] ] ] ] N.O.f.. . . . . . . . . . ",
". + ) ' , _ ) . @ ; , , , , , , , , , , , , , , , , , , ' P.Q.R.!.] ] ] ] k S.T.. . . . . . . . . . ",
". + ; _ ; + + @ ' , , , , , , , , , , , , , , , , , , , _ U.V.W.&.] ] ] ] c.X.Y.. . . . . . . . . . ",
". . @ + . + ) , , , , , , , , , , , , , , , , , , , , , _ v C.Z.&.] ] ] ] `.f.U . . . . . . . . . . ",
". . . . . + + @ @ @ @ @ @ @ @ @ @ @ @ @ @ @ @ @ @ @ @ @ + u ! U  + + + + +.+++- . . . . . . . . . . ",
". . . . . . . . . . . . . . . . . . . . . . . . . . . . . . . . . . . . . . . . . . . . . . . . . . "};
