/* XPM */
static char * h7Seg_27_xpm[] = {
"25 23 153 2",
"  	c None",
". 	c #9E9E9E",
"+ 	c #96A296",
"@ 	c #91A591",
"# 	c #97A297",
"$ 	c #98A198",
"% 	c #92A492",
"& 	c #93A493",
"* 	c #9D9D9D",
"= 	c #9C9C9C",
"- 	c #9B9B9B",
"; 	c #57C657",
"> 	c #22E922",
", 	c #05FC05",
"' 	c #00FF00",
") 	c #02FD02",
"! 	c #51CC51",
"~ 	c #58C858",
"{ 	c #0CF70C",
"] 	c #17F017",
"^ 	c #5AC65A",
"/ 	c #9A9A9A",
"( 	c #979797",
"_ 	c #8AA58A",
": 	c #61C361",
"< 	c #0FF50F",
"[ 	c #01FE01",
"} 	c #03FD03",
"| 	c #54CA54",
"1 	c #59C759",
"2 	c #08FA08",
"3 	c #1DED1D",
"4 	c #72B872",
"5 	c #999999",
"6 	c #969696",
"7 	c #989898",
"8 	c #8EA28E",
"9 	c #72B772",
"0 	c #68BE68",
"a 	c #62C262",
"b 	c #64C164",
"c 	c #66BF66",
"d 	c #6BBC6B",
"e 	c #4CCF4C",
"f 	c #07FB07",
"g 	c #24E824",
"h 	c #86AC86",
"i 	c #9D9F9D",
"j 	c #6EBA6E",
"k 	c #3CD93C",
"l 	c #0EF60E",
"m 	c #35DD35",
"n 	c #8BA98B",
"o 	c #9C9F9C",
"p 	c #5BC65B",
"q 	c #28E628",
"r 	c #1EEB1E",
"s 	c #4BCF4B",
"t 	c #8FA78F",
"u 	c #4DCF4D",
"v 	c #18EF18",
"w 	c #02FE02",
"x 	c #2BE42B",
"y 	c #5CC55C",
"z 	c #92A592",
"A 	c #9BA09B",
"B 	c #3BDA3B",
"C 	c #06FB06",
"D 	c #3ADA3A",
"E 	c #71B971",
"F 	c #96A396",
"G 	c #8AA98A",
"H 	c #30E130",
"I 	c #49D149",
"J 	c #85AC85",
"K 	c #9AA19A",
"L 	c #8EA78E",
"M 	c #27E627",
"N 	c #99A099",
"O 	c #9D9E9D",
"P 	c #7DAD7D",
"Q 	c #5EC45E",
"R 	c #34DE34",
"S 	c #37DC37",
"T 	c #47D147",
"U 	c #52CB52",
"V 	c #56C856",
"W 	c #1EEC1E",
"X 	c #13F213",
"Y 	c #63C163",
"Z 	c #2FE12F",
"` 	c #2EE12E",
" .	c #61C261",
"..	c #9AA09A",
"+.	c #97A197",
"@.	c #9B9F9B",
"#.	c #6ABA6A",
"$.	c #46D246",
"%.	c #32DF32",
"&.	c #38DB38",
"*.	c #5DC45D",
"=.	c #54C954",
"-.	c #2DE12D",
";.	c #1FEB1F",
">.	c #4AD14A",
",.	c #7CB27C",
"'.	c #66C066",
").	c #0BF70B",
"!.	c #04FC04",
"~.	c #1CED1C",
"{.	c #84AE84",
"].	c #94A294",
"^.	c #5AC75A",
"/.	c #24E924",
"(.	c #70B970",
"_.	c #8EA88E",
":.	c #80AF80",
"<.	c #86AB86",
"[.	c #98A298",
"}.	c #05FB05",
"|.	c #35DE35",
"1.	c #95A395",
"2.	c #5CC65C",
"3.	c #01FF01",
"4.	c #16F016",
"5.	c #47D247",
"6.	c #19EE19",
"7.	c #25E725",
"8.	c #57C957",
"9.	c #969896",
"0.	c #8AA68A",
"a.	c #79B379",
"b.	c #76B676",
"c.	c #80B080",
"d.	c #30E030",
"e.	c #0AF80A",
"f.	c #36DD36",
"g.	c #69BE69",
"h.	c #99A199",
"i.	c #949C94",
"j.	c #88A988",
"k.	c #0DF60D",
"l.	c #6ABC6A",
"m.	c #1FEC1F",
"n.	c #45D445",
"o.	c #78B478",
"p.	c #9A9E9A",
"q.	c #69BD69",
"r.	c #0BF80B",
"s.	c #33DF33",
"t.	c #56CA56",
"u.	c #90A690",
"v.	c #94A394",
". . . . . . . . + @ @ @ @ @ @ @ @ @ @ # $ % @ & $ ",
". . . . . * = - ; > , ' ' ' ' ' ' ' ) ! ~ { ) ] ^ ",
". . . . . = / ( _ : < [ ' ' ' ' ' ' } | 1 2 ' 3 4 ",
". . . . . - 5 6 7 8 9 0 a a a a a b c d e f ) g h ",
". . . . . / 7 6 ( 5 * . . . . . . . i j k , l m n ",
". . . . . / ( 6 7 / . . . . . . . . o p q } r s t ",
". . . . . 7 6 6 7 - . . . . . . . . o u v w x y z ",
". . . . * 7 6 6 7 - . . . . . . . . A B C ' D E F ",
". . . * = 7 6 6 / * . . . . . . . $ G H ' ' I J K ",
". . . = / ( 6 6 / * . . . . . . . L 9 M ' ' ~ N O ",
". . . = 5 ( 6 6 P Q D R R R R S T U V W C X b . . ",
". . . . * * * * Y Z C ' ' ' ' C `  ...+.# $ @.. . ",
". . . - 6 6 ( 5 #.$.m %.%.%.%.&.*.=.-.] ;.>.,.. . ",
". . * / 6 6 ( / = . . . . . . . . '.).!.~.1 {.. . ",
". . = 5 6 6 7 - * . . . . . . i ].^.' ' /.(._.. . ",
". * - 7 6 6 7 * . . . . . . . ..:.I ' ' x <.$ . . ",
". * / 7 6 6 5 . . . . . . . . [.j D ' }.|.1.. . . ",
". * 5 ( 6 ( 5 . . . . . . . . 1.2.x 3.4.5.# . . . ",
". * 7 6 6 7 - . . . . . . . . z 5.6.[ 7.8.[.. . . ",
". * 7 6 9.0.a.b Y Y Y Y Y Y b.c.d.e.w f.g.h.. . . ",
"= - 7 i.j.&.k.' ' ' ' ' ' ' f.l.m.' w n.o.A . . . ",
"= = p.q.g r.' ' ' ' ' ' ' ' s.b 3 ' } t.G o . . . ",
". . o + u.u.u.u.u.u.u.u.u.u.v.$ % u.u.$ O . . . . "};
