/* XPM */
static char * h8Up_xpm[] = {
"38 38 52 1",
" 	c None",
".	c #000000",
"+	c #050505",
"@	c #434343",
"#	c #888888",
"$	c #8B8B8B",
"%	c #494949",
"&	c #070707",
"*	c #686868",
"=	c #F1F1F1",
"-	c #D1D1D1",
";	c #CCCCCC",
">	c #F2F2F2",
",	c #6A6A6A",
"'	c #C2C2C2",
")	c #181818",
"!	c #151515",
"~	c #9F9F9F",
"{	c #DCDCDC",
"]	c #444444",
"^	c #343434",
"/	c #E6E6E6",
"(	c #F3F3F3",
"_	c #EBEBEB",
":	c #484848",
"<	c #040404",
"[	c #A5A5A5",
"}	c #656565",
"|	c #5C5C5C",
"1	c #E0E0E0",
"2	c #C7C7C7",
"3	c #121212",
"4	c #171717",
"5	c #D9D9D9",
"6	c #BFBFBF",
"7	c #030303",
"8	c #9B9B9B",
"9	c #303030",
"0	c #0B0B0B",
"a	c #C4C4C4",
"b	c #E3E3E3",
"c	c #404040",
"d	c #1B1B1B",
"e	c #515151",
"f	c #F7F7F7",
"g	c #F9F9F9",
"h	c #5F5F5F",
"i	c #282828",
"j	c #5E5E5E",
"k	c #606060",
"l	c #2D2D2D",
"m	c #020202",
"......................................",
"......................................",
"......................................",
"......................................",
"......................................",
"......................................",
"......................................",
"......................................",
"......................................",
"......................................",
"......................................",
"......................................",
"......................................",
"......................................",
"................+@#$%&................",
"................*=-;>,................",
"................';)!;'................",
"................~{]]{~................",
"................^/((_:................",
"...............<[_}|123...............",
"...............4567.8_9...............",
"...............0ab:c-5d...............",
"................ebfg/h................",
".................ijklm................",
"......................................",
"......................................",
"......................................",
"......................................",
"......................................",
"......................................",
"......................................",
"......................................",
"......................................",
"......................................",
"......................................",
"......................................",
"......................................",
"......................................"};
