/* XPM */
static char * h9Up_xpm[] = {
"38 38 54 1",
" 	c None",
".	c #000000",
"+	c #020202",
"@	c #454545",
"#	c #8B8B8B",
"$	c #888888",
"%	c #373737",
"&	c #5F5F5F",
"*	c #F0F0F0",
"=	c #CCCCCC",
"-	c #D7D7D7",
";	c #E1E1E1",
">	c #3E3E3E",
",	c #0B0B0B",
"'	c #CBCBCB",
")	c #D3D3D3",
"!	c #1C1C1C",
"~	c #292929",
"{	c #DBDBDB",
"]	c #ABABAB",
"^	c #191919",
"/	c #BDBDBD",
"(	c #050505",
"_	c #C1C1C1",
":	c #0F0F0F",
"<	c #060606",
"[	c #BEBEBE",
"}	c #E5E5E5",
"|	c #4A4A4A",
"1	c #535353",
"2	c #EBEBEB",
"3	c #4B4B4B",
"4	c #DEDEDE",
"5	c #F1F1F1",
"6	c #EDEDED",
"7	c #D8D8D8",
"8	c #151515",
"9	c #313131",
"0	c #424242",
"a	c #333333",
"b	c #C4C4C4",
"c	c #979797",
"d	c #B6B6B6",
"e	c #5E5E5E",
"f	c #EFEFEF",
"g	c #7F7F7F",
"h	c #E6E6E6",
"i	c #F6F6F6",
"j	c #F8F8F8",
"k	c #C7C7C7",
"l	c #1F1F1F",
"m	c #2D2D2D",
"n	c #6F6F6F",
"o	c #555555",
"......................................",
"......................................",
"......................................",
"......................................",
"......................................",
"......................................",
"......................................",
"......................................",
"......................................",
"......................................",
"......................................",
"......................................",
"......................................",
"......................................",
"................+@#$%.................",
"................&*=-;>................",
"...............,')!~{]................",
"...............^{/+(_):...............",
"...............<[}|12{^...............",
"................345-678...............",
"................:90a'b+...............",
"................cd>efg................",
"................1hijkl................",
"................+mno^.................",
"......................................",
"......................................",
"......................................",
"......................................",
"......................................",
"......................................",
"......................................",
"......................................",
"......................................",
"......................................",
"......................................",
"......................................",
"......................................",
"......................................"};
