/* XPM */
static char * HoldOff_xpm[] = {
"84 40 11 1",
" 	c None",
".	c #CCCCCC",
"+	c #B2B2B2",
"@	c #BBBBBB",
"#	c #C3C3C3",
"$	c #808080",
"%	c #999999",
"&	c #A1A1A1",
"*	c #888888",
"=	c #AAAAAA",
"-	c #909090",
"....................................................................................",
"....................................................................................",
"....................................................................................",
"....................................................................................",
"....................................................................................",
"....................................................................................",
"....................................................................................",
"....................................................................................",
"....................................................................................",
"....................................................................................",
"....................................................................................",
"....................................................................................",
"....................................................................................",
"....................................................................................",
"....................................................................................",
"......................++....++....@+++#....++......@++++@...........................",
"......................$$....$$...%$$$$$&...$$......%$$$$$*#.........................",
"......................$$....$$..&$*+++*$=..$$......%$&++%$*.........................",
"......................$$....$$..$$#...#$$..$$......%$+...-$+........................",
"......................$$++++$$.+$-.....-$+.$$......%$+...+$%........................",
"......................$$$$$$$$.+$%.....%$+.$$......%$+...+$%........................",
"......................$$++++$$.+$%.....%$+.$$......%$+...+$%........................",
"......................$$....$$.#$$.....$$#.$$......%$+...&$=........................",
"......................$$....$$..-$%...%$-..$$......%$+..@*$#........................",
"......................$$....$$..#*$$$$$*#..$$$$$$$.%$$$$$$+.........................",
"......................%%....%%....=%%%=....%%%%%%%.=%%%%&@..........................",
"....................................................................................",
"....................................................................................",
"....................................................................................",
"....................................................................................",
"....................................................................................",
"....................................................................................",
"....................................................................................",
"....................................................................................",
"....................................................................................",
"....................................................................................",
"....................................................................................",
"....................................................................................",
"....................................................................................",
"...................................................................................."};
