/* XPM */
static char * hOprErrOff_xpm[] = {
"42 20 38 1",
" 	c None",
".	c #CCCCCC",
"+	c #C6C6C6",
"@	c #A2A2A2",
"#	c #9A9A9A",
"$	c #B5B5B5",
"%	c #B9B9B9",
"&	c #A6A6A6",
"*	c #B3B3B3",
"=	c #ACACAC",
"-	c #AEAEAE",
";	c #BBBBBB",
">	c #939393",
",	c #8A8A8A",
"'	c #A0A0A0",
")	c #BDBDBD",
"!	c #8D8D8D",
"~	c #8C8C8C",
"{	c #888888",
"]	c #B7B7B7",
"^	c #C0C0C0",
"/	c #C2C2C2",
"(	c #B1B1B1",
"_	c #848484",
":	c #C4C4C4",
"<	c #868686",
"[	c #9E9E9E",
"}	c #8F8F8F",
"|	c #AAAAAA",
"1	c #B2B2B2",
"2	c #B0B0B0",
"3	c #9C9C9C",
"4	c #CACACA",
"5	c #A4A4A4",
"6	c #979797",
"7	c #959595",
"8	c #BFBFBF",
"9	c #A8A8A8",
"..........................................",
"..........................................",
"..........................................",
"..........................................",
"..........................................",
"..........................................",
"..........................................",
".....+@#$.%&&*.=&&-...=&&=+&&&;+&&&;......",
".....>-+,%&')!;~$){]..~$^/^,^(_^,^(_......",
"....:<..=[&&.>$~$^};..~|1;^,^%{^,^%{......",
"..../,..23&!#@4~'5,4..~|1;^<&6@^<&6@......",
".....!).7*&&...~^.~^..~^..^~.^~^~.^~......",
".....8669.**...@:.@8..@###:@.:[:@.:[......",
"..........................................",
"..........................................",
"..........................................",
"..........................................",
"..........................................",
"..........................................",
".........................................."};
