/* XPM */
static char * MinusOn_xpm[] = {
"32 45 257 2",
"  	c None",
". 	c #000000",
"+ 	c #9B9B9B",
"@ 	c #969696",
"# 	c #00FF00",
"$ 	c #C4CCD4",
"% 	c #010101",
"& 	c #1C1C1C",
"* 	c #010101",
"= 	c #111111",
"- 	c #000000",
"; 	c #000000",
"> 	c #000000",
", 	c #101111",
"' 	c #000000",
") 	c #000000",
"! 	c #000000",
"~ 	c #BC0000",
"{ 	c #019B9B",
"] 	c #1C9696",
"^ 	c #0100FF",
"/ 	c #BCC4CC",
"( 	c #010101",
"_ 	c #1C1C1C",
": 	c #010101",
"< 	c #101111",
"[ 	c #000000",
"} 	c #000000",
"| 	c #000000",
"1 	c #211011",
"2 	c #000000",
"3 	c #000000",
"4 	c #000000",
"5 	c #04BC00",
"6 	c #4E019B",
"7 	c #471C96",
"8 	c #440100",
"9 	c #40BCC4",
"0 	c #480101",
"a 	c #791C1C",
"b 	c #810101",
"c 	c #3A1011",
"d 	c #5C0000",
"e 	c #4D0000",
"f 	c #490000",
"g 	c #4E2110",
"h 	c #470000",
"i 	c #570000",
"j 	c #000000",
"k 	c #4304BC",
"l 	c #4D4E01",
"m 	c #44471C",
"n 	c #4C4401",
"o 	c #4940BC",
"p 	c #4E4801",
"q 	c #45791C",
"r 	c #3D8101",
"s 	c #213A10",
"t 	c #005C00",
"u 	c #004D00",
"v 	c #004900",
"w 	c #214E21",
"x 	c #004700",
"y 	c #005700",
"z 	c #000000",
"A 	c #044304",
"B 	c #724D4E",
"C 	c #3D4447",
"D 	c #434C44",
"E 	c #0C4940",
"F 	c #484E48",
"G 	c #794579",
"H 	c #813D81",
"I 	c #4E213A",
"J 	c #44005C",
"K 	c #4F004D",
"L 	c #570049",
"M 	c #53214E",
"N 	c #000047",
"O 	c #3D0057",
"P 	c #430000",
"Q 	c #3A0443",
"R 	c #3D724D",
"S 	c #433D44",
"T 	c #3A434C",
"U 	c #5C0C49",
"V 	c #79484E",
"W 	c #617945",
"X 	c #41813D",
"Y 	c #214E21",
"Z 	c #004400",
"` 	c #004F00",
" .	c #005700",
"..	c #215321",
"+.	c #000000",
"@.	c #003D00",
"#.	c #004300",
"$.	c #043A04",
"%.	c #5C3D72",
"&.	c #70433D",
"*.	c #693A43",
"=.	c #D85C0C",
"-.	c #477948",
";.	c #796179",
">.	c #814181",
",.	c #73214E",
"'.	c #000044",
").	c #00004F",
"!.	c #000057",
"~.	c #002153",
"{.	c #000000",
"].	c #00003D",
"^.	c #000043",
"/.	c #00043A",
"(.	c #005C3D",
"_.	c #007043",
":.	c #00693A",
"<.	c #00D85C",
"[.	c #004779",
"}.	c #007961",
"|.	c #008141",
"1.	c #217321",
"2.	c #000000",
"3.	c #000000",
"4.	c #000000",
"5.	c #810021",
"6.	c #000000",
"7.	c #000000",
"8.	c #000000",
"9.	c #7B0004",
"0.	c #4A005C",
"a.	c #F00070",
"b.	c #FF0069",
"c.	c #FF00D8",
"d.	c #FF0047",
"e.	c #FF0079",
"f.	c #FF0081",
"g.	c #002173",
"h.	c #000000",
"i.	c #000000",
"j.	c #000000",
"k.	c #008100",
"l.	c #000000",
"m.	c #000000",
"n.	c #000000",
"o.	c #007B00",
"p.	c #004A00",
"q.	c #00F000",
"r.	c #00FF00",
"s.	c #01FF00",
"t.	c #00FF00",
"u.	c #00FF00",
"v.	c #00FF00",
"w.	c #000021",
"x.	c #000000",
"y.	c #000000",
"z.	c #000000",
"A.	c #000081",
"B.	c #000000",
"C.	c #000000",
"D.	c #000000",
"E.	c #00007B",
"F.	c #00004A",
"G.	c #0000F0",
"H.	c #0000FF",
"I.	c #0001FF",
"J.	c #0000FF",
"K.	c #0000FF",
"L.	c #0000FF",
"M.	c #000000",
"N.	c #000000",
"O.	c #000000",
"P.	c #000000",
"Q.	c #000000",
"R.	c #000000",
"S.	c #000000",
"T.	c #000000",
"U.	c #000000",
"V.	c #000000",
"W.	c #000000",
"X.	c #000000",
"Y.	c #000001",
"Z.	c #000000",
"`.	c #000000",
" +	c #000000",
".+	c #000000",
"++	c #000000",
"@+	c #000000",
"#+	c #000000",
"$+	c #000000",
"%+	c #000000",
"&+	c #000000",
"*+	c #000000",
"=+	c #000000",
"-+	c #000000",
";+	c #000000",
">+	c #000000",
",+	c #000000",
"'+	c #000000",
")+	c #000000",
"!+	c #000000",
"~+	c #000000",
"{+	c #000000",
"]+	c #000000",
"^+	c #000000",
"/+	c #000000",
"(+	c #000000",
"_+	c #000000",
":+	c #000000",
"<+	c #B00000",
"[+	c #A80000",
"}+	c #030000",
"|+	c #100000",
"1+	c #000000",
"2+	c #000000",
"3+	c #000000",
"4+	c #000000",
"5+	c #000000",
"6+	c #000000",
"7+	c #000000",
"8+	c #000000",
"9+	c #000000",
"0+	c #000000",
"a+	c #000000",
"b+	c #000000",
"c+	c #00B000",
"d+	c #00A800",
"e+	c #000300",
"f+	c #001000",
"g+	c #000000",
"h+	c #000000",
"i+	c #000000",
"j+	c #000000",
"k+	c #000000",
"l+	c #000000",
"m+	c #000000",
"n+	c #000000",
"o+	c #000000",
"p+	c #000000",
"q+	c #000000",
"r+	c #000000",
"s+	c #0000B0",
"t+	c #0000A8",
"u+	c #000003",
"v+	c #000010",
"w+	c #000000",
"x+	c #000000",
"y+	c #000000",
"z+	c #000000",
"A+	c #810000",
"B+	c #000000",
"C+	c #000000",
"D+	c #000000",
"E+	c #FF0000",
"F+	c #FF0000",
"G+	c #FF0000",
"H+	c #FF0000",
"+ + + + + + + + + + + + + + + + + + + + + + + + + + + + + + + + ",
"+ + + + + + + + + + + + + + + + + + + + + + + + + + + + + + + + ",
"+ + + + + + + + + + + + + + + + + + + + + + + + + + + + + + + + ",
"+ + + + + + + + + + + + + + + + + + + + + + + + + + + + + + + + ",
"+ + + + + + + + + + + + + + + + + + + + + + + + + + + + + + + + ",
"+ + + + + + + + + + + + + + + + + + + + + + + + + + + + + + + + ",
"+ + + + + + + + + + + + + + + + + + + + + + + + + + + + + + + + ",
"+ + + + + + + + + + + + + + + + + + + + + + + + + + + + + + + + ",
"+ + + + + + + + + + + + + + + + + + + + + + + + + + + + + + + + ",
"+ + + + + + + + + + + + + + + + + + + + + + + + + + + + + + + + ",
"+ + + + + + + + + + + + + + + + + + + + + + + + + + + + + + + + ",
"+ + + + + + + + + + + + + @ @ @ @ @ @ + + + + + + + + + + + + + ",
"+ + + + + + + + + + + + + @ @ @ @ @ @ + + + + + + + + + + + + + ",
"+ + + + + + + + + + + + + @ @ @ @ @ @ + + + + + + + + + + + + + ",
"+ + + + + + + + + + + + + @ @ @ @ @ @ + + + + + + + + + + + + + ",
"+ + + + + + + + + + + + + @ @ @ @ @ @ + + + + + + + + + + + + + ",
"+ + + + + + + + + + + + + @ @ @ @ @ @ + + + + + + + + + + + + + ",
"+ + + + + + + + + + + + + @ @ @ @ @ @ + + + + + + + + + + + + + ",
"+ + + + + + + + + + + + + + + + + + + + + + + + + + + + + + + + ",
"+ + + + + + # # # # # # # # # # # # # # # # # # # # + + + + + + ",
"+ + + + + + # # # # # # # # # # # # # # # # # # # # + + + + + + ",
"+ + + + + + # # # # # # # # # # # # # # # # # # # # + + + + + + ",
"+ + + + + + # # # # # # # # # # # # # # # # # # # # + + + + + + ",
"+ + + + + + # # # # # # # # # # # # # # # # # # # # + + + + + + ",
"+ + + + + + # # # # # # # # # # # # # # # # # # # # + + + + + + ",
"+ + + + + + + + + + + + + + + + + + + + + + + + + + + + + + + + ",
"+ + + + + + + + + + + + + @ @ @ @ @ @ + + + + + + + + + + + + + ",
"+ + + + + + + + + + + + + @ @ @ @ @ @ + + + + + + + + + + + + + ",
"+ + + + + + + + + + + + + @ @ @ @ @ @ + + + + + + + + + + + + + ",
"+ + + + + + + + + + + + + @ @ @ @ @ @ + + + + + + + + + + + + + ",
"+ + + + + + + + + + + + + @ @ @ @ @ @ + + + + + + + + + + + + + ",
"+ + + + + + + + + + + + + @ @ @ @ @ @ + + + + + + + + + + + + + ",
"+ + + + + + + + + + + + + @ @ @ @ @ @ + + + + + + + + + + + + + ",
"+ + + + + + + + + + + + + + + + + + + + + + + + + + + + + + + + ",
"+ + + + + + + + + + + + + + + + + + + + + + + + + + + + + + + + ",
"+ + + + + + + + + + + + + + + + + + + + + + + + + + + + + + + + ",
"+ + + + + + + + + + + + + + + + + + + + + + + + + + + + + + + + ",
"+ + + + + + + + + + + + + + + + + + + + + + + + + + + + + + + + ",
"+ + + + + + + + + + + + + + + + + + + + + + + + + + + + + + + + ",
"+ + + + + + + + + + + + + + + + + + + + + + + + + + + + + + + + ",
"+ + + + + + + + + + + + + + + + + + + + + + + + + + + + + + + + ",
"+ + + + + + + + + + + + + + + + + + + + + + + + + + + + + + + + ",
"+ + + + + + + + + + + + + + + + + + + + + + + + + + + + + + + + ",
"+ + + + + + + + + + + + + + + + + + + + + + + + + + + + + + + + ",
"+ + + + + + + + + + + + + + + + + + + + + + + + + + + + + + + + "};
