/* XPM */
static char * ReadOutUp_xpm[] = {
"75 75 11 1",
" 	c None",
".	c #000000",
"+	c #717171",
"@	c #AAAAAA",
"#	c #555555",
"$	c #1C1C1C",
"%	c #FFFFFF",
"&	c #E2E2E2",
"*	c #383838",
"=	c #8D8D8D",
"-	c #C6C6C6",
"...........................................................................",
"...........................................................................",
"...........................................................................",
"...........................................................................",
"...........................................................................",
"...........................................................................",
"...........................................................................",
"...........................................................................",
"...........................................................................",
"...........................................................................",
"...........................................................................",
"...........................................................................",
"...........................................................................",
"...........................................................................",
"...........................................................................",
"...........................................................................",
"...........................................................................",
"...........................................................................",
"...........................................................................",
"...........................................................................",
".............+@@@@@@@#....+@@@@@@@@+.....$@@@......+@@@@@@#................",
".............@%%%%%%%%&$..@%%%%%%%%@.....+%%%*.....@%%%%%%%&$..............",
".............@%%####@%%=..@%%######*.....-%%%=.....@%%###=%%&..............",
".............@%%.....-%-..@%%...........*%%&%%.....@%%....#%%+.............",
".............@%%.....@%&..@%%...........=%%*%%+....@%%.....-%@.............",
".............@%%....+%%=..@%%@@@@@@*....%%@.&%-....@%%.....@%%.............",
".............@%%%%%%%%&$..@%%%%%%%%#...#%%*.=%%*...@%%.....@%%.............",
".............@%%%%%%&+$...@%%######$...-%&..$%%=...@%%.....@%%.............",
".............@%%.$@%%@....@%%.........$%%&@@@%%%...@%%.....@%%.............",
".............@%%...-%%=...@%%.........=%%%%%%%%%+..@%%.....&%@.............",
".............@%%...$&%%$..@%%.........&%-#####%%-..@%%....#%%*.............",
".............@%%....#%%-..@%%@@@@@@@.#%%+.....=%%*.@%%@@@&%%@..............",
".............@%%.....@%%+.@%%%%%%%%%.@%%$.....*%%=.@%%%%%%%=...............",
".............*##.....$##*.*#########.##*.......###.*######.................",
"...........................................................................",
"...........................................................................",
"...........................................................................",
"...........................................................................",
"...........................................................................",
"......................$+@@@@*.....@@+....*@@*.@@@@@@@@@@*..................",
".....................#%%%%%%%@....%%@....#%%#.%%%%%%%%%%#..................",
"....................$%%%-@@&%%@...%%@....#%%#.###=%%=###$..................",
"....................-%%#....@%%*..%%@....#%%#....#%%#......................",
"....................%%=.....$%%=..%%@....#%%#....#%%#......................",
"...................#%%#......-%@..%%@....#%%#....#%%#......................",
"...................#%%#......@%%..%%@....#%%#....#%%#......................",
"...................#%%#......@%&..%%@....#%%#....#%%#......................",
"...................*%%#......&%@..%%@....#%%*....#%%#......................",
"....................%%-.....*%%+..%%@....+%%.....#%%#......................",
"....................=%%@$..*&%%$..@%%#..$&%%.....#%%#......................",
"....................$&%%%%%%%%#...#%%%%%%%%=.....#%%#......................",
".....................$@%%%%%&#.....+%%%%%%@......#%%#......................",
".......................$####........$####*.......$##$......................",
"...........................................................................",
"...........................................................................",
"...........................................................................",
"...........................................................................",
"...........................................................................",
"...........................................................................",
"...........................................................................",
"...........................................................................",
"...........................................................................",
"...........................................................................",
"...........................................................................",
"...........................................................................",
"...........................................................................",
"...........................................................................",
"...........................................................................",
"...........................................................................",
"...........................................................................",
"...........................................................................",
"...........................................................................",
"...........................................................................",
"...........................................................................",
"..........................................................................."};
