/* XPM */
static char * hHoldUp_xpm[] = {
"38 38 97 2",
"  	c None",
". 	c #000000",
"+ 	c #252525",
"@ 	c #1F1F1F",
"# 	c #2B2B2B",
"$ 	c #191919",
"% 	c #030303",
"& 	c #212121",
"* 	c #323232",
"= 	c #292929",
"- 	c #040404",
"; 	c #0B0B0B",
"> 	c #2E2E2E",
", 	c #0A0A0A",
"' 	c #2A2A2A",
") 	c #070707",
"! 	c #AFAFAF",
"~ 	c #919191",
"{ 	c #CACACA",
"] 	c #767676",
"^ 	c #7B7B7B",
"/ 	c #DCDCDC",
"( 	c #D7D7D7",
"_ 	c #DDDDDD",
": 	c #8F8F8F",
"< 	c #0C0C0C",
"[ 	c #363636",
"} 	c #9B9B9B",
"| 	c #DEDEDE",
"1 	c #BDBDBD",
"2 	c #CDCDCD",
"3 	c #A9A9A9",
"4 	c #101010",
"5 	c #BCBCBC",
"6 	c #9C9C9C",
"7 	c #DADADA",
"8 	c #7F7F7F",
"9 	c #383838",
"0 	c #E7E7E7",
"a 	c #6D6D6D",
"b 	c #282828",
"c 	c #4B4B4B",
"d 	c #E1E1E1",
"e 	c #5D5D5D",
"f 	c #3A3A3A",
"g 	c #EDEDED",
"h 	c #A7A7A7",
"i 	c #B8B8B8",
"j 	c #131313",
"k 	c #D3D3D3",
"l 	c #717171",
"m 	c #C6C6C6",
"n 	c #6C6C6C",
"o 	c #E9E9E9",
"p 	c #727272",
"q 	c #CFCFCF",
"r 	c #141414",
"s 	c #020202",
"t 	c #AAAAAA",
"u 	c #9E9E9E",
"v 	c #B2B2B2",
"w 	c #010101",
"x 	c #B5B5B5",
"y 	c #979797",
"z 	c #F0F0F0",
"A 	c #797979",
"B 	c #CBCBCB",
"C 	c #111111",
"D 	c #B0B0B0",
"E 	c #999999",
"F 	c #C0C0C0",
"G 	c #515151",
"H 	c #E3E3E3",
"I 	c #1C1C1C",
"J 	c #D1D1D1",
"K 	c #787878",
"L 	c #B3B3B3",
"M 	c #939393",
"N 	c #B4B4B4",
"O 	c #B9B9B9",
"P 	c #F7F7F7",
"Q 	c #A3A3A3",
"R 	c #8D8D8D",
"S 	c #2F2F2F",
"T 	c #ABABAB",
"U 	c #2C2C2C",
"V 	c #575757",
"W 	c #484848",
"X 	c #656565",
"Y 	c #3B3B3B",
"Z 	c #5A5A5A",
"` 	c #686868",
" .	c #1D1D1D",
"..	c #1B1B1B",
"+.	c #272727",
"@.	c #4D4D4D",
"#.	c #696969",
". . . . . . . . . . . . . . . . . . . . . . . . . . . . . . . . . . . . . . ",
". . . . . . . . . . . . . . . . . . . . . . . . . . . . . . . . . . . . . . ",
". . . . . . . . . . . . . . . . . . . . . . . . . . . . . . . . . . . . . . ",
". . . . . . . . . . . . . . . . . . . . . . . . . . . . . . . . . . . . . . ",
". . . . . . . . . . . . . . . . . . . . . . . . . . . . . . . . . . . . . . ",
". . . . . . . . . . . . . . . . . . . . . . . . . . . . . . . . . . . . . . ",
". . . . . . . . . . . . . . . . . . . . . . . . . . . . . . . . . . . . . . ",
". . . . . . . . . . . . . . . . . . . . . . . . . . . . . . . . . . . . . . ",
". . . . . . . . . . . . . . . . . . . . . . . . . . . . . . . . . . . . . . ",
". . . . . . . . . . . . . . . . . . . . . . . . . . . . . . . . . . . . . . ",
". . . . . . . . . . . . . . . . . . . . . . . . . . . . . . . . . . . . . . ",
". . . . . . . . . . . . . . . . . . . . . . . . . . . . . . . . . . . . . . ",
". . . . . . . . . . . . . . . . . . . . . . . . . . . . . . . . . . . . . . ",
". . . . . . . . . . . . . . . . . . . . . . . . . . . . . . . . . . . . . . ",
". . . . . . . . . . . . . . . . . . . . . . . . . . . . . . . . . . . . . . ",
". . . . . . . + @ . . # $ . % & * = - . ; > , . . . & * * ' ) . . . . . . . ",
". . . . . . . ! ~ . . { ] % ^ / ( _ : < [ / > . . . } | 1 2 3 4 . . . . . . ",
". . . . . . . 5 6 . . 7 8 9 0 a b c d e f g * . . . h i j > k l . . . . . . ",
". . . . . . . 5 m n n o 8 p q r . s t u f g * . . . h v . w 6 x . . . . . . ",
". . . . . . . 5 ( y y z 8 A B C . . u D f g * . . . h v . . E F . . . . . . ",
". . . . . . . 5 6 . . 7 8 G H f w I J K f g * . . . h v . ) L M . . . . . . ",
". . . . . . . 5 6 . . 7 8 C N _ O q m & f P Q R R S h / R T k U . . . . . . ",
". . . . . . . V W . . X Y . j Z ] `  .. ..] ] ] ] +.@.] ] #.+.. . . . . . . ",
". . . . . . . . . . . . . . . . . . . . . . . . . . . . . . . . . . . . . . ",
". . . . . . . . . . . . . . . . . . . . . . . . . . . . . . . . . . . . . . ",
". . . . . . . . . . . . . . . . . . . . . . . . . . . . . . . . . . . . . . ",
". . . . . . . . . . . . . . . . . . . . . . . . . . . . . . . . . . . . . . ",
". . . . . . . . . . . . . . . . . . . . . . . . . . . . . . . . . . . . . . ",
". . . . . . . . . . . . . . . . . . . . . . . . . . . . . . . . . . . . . . ",
". . . . . . . . . . . . . . . . . . . . . . . . . . . . . . . . . . . . . . ",
". . . . . . . . . . . . . . . . . . . . . . . . . . . . . . . . . . . . . . ",
". . . . . . . . . . . . . . . . . . . . . . . . . . . . . . . . . . . . . . ",
". . . . . . . . . . . . . . . . . . . . . . . . . . . . . . . . . . . . . . ",
". . . . . . . . . . . . . . . . . . . . . . . . . . . . . . . . . . . . . . ",
". . . . . . . . . . . . . . . . . . . . . . . . . . . . . . . . . . . . . . ",
". . . . . . . . . . . . . . . . . . . . . . . . . . . . . . . . . . . . . . ",
". . . . . . . . . . . . . . . . . . . . . . . . . . . . . . . . . . . . . . ",
". . . . . . . . . . . . . . . . . . . . . . . . . . . . . . . . . . . . . . "};
