/* XPM */
static char * 7Seg_29_xpm[] = {
"32 45 47 1",
" 	c None",
".	c #97A197",
"+	c #91A591",
"@	c #8BA98B",
"#	c #8AA98A",
"$	c #84AD84",
"%	c #9E9E9E",
"&	c #65C065",
"*	c #64C064",
"=	c #58C858",
"-	c #5FC45F",
";	c #5EC45E",
">	c #57C857",
",	c #52CC52",
"'	c #51CC51",
")	c #51CB51",
"!	c #4BD04B",
"~	c #45D445",
"{	c #45D345",
"]	c #44D344",
"^	c #4BCF4B",
"/	c #7EB17E",
"(	c #7DB17D",
"_	c #78B578",
":	c #71B871",
"<	c #77B577",
"[	c #77B477",
"}	c #6BBC6B",
"|	c #6ABC6A",
"1	c #2BE32B",
"2	c #20EB20",
"3	c #25E725",
"4	c #3FD83F",
"5	c #3ED83E",
"6	c #38DB38",
"7	c #3FD73F",
"8	c #32DF32",
"9	c #12F312",
"0	c #12F212",
"a	c #1FEB1F",
"b	c #19EF19",
"c	c #18EF18",
"d	c #18EE18",
"e	c #0CF70C",
"f	c #06FB06",
"g	c #06FA06",
"h	c #00FF00",
"%%%%%%%%%%%%%%%%%%%%%%%%%%%%%%%%",
"%%%%%%%%%%//////////////@%$///$%",
"%%%%%%%%$%6hhhhhhhhhhhhh'%0hhh1%",
"%%%%%%%/b%#fhhhhhhhhhhhh|.hhhh~%",
"%%%%%%%*h)%]hhhhhhhhhhhh$/hhhh;%",
"%%%%%%%^hg#.ehhhhhhhhhhh%;hhhh/%",
"%%%%%%%8hh1%}5555555555'%{hhhh.%",
"%%%%%%%dhhh}%%%%%%%%%%%%%1hhh9%%",
"%%%%%%%hhhh!%%%%%%%%%%%%%0hhh1%%",
"%%%%%%/hhhh;%%%%%%%%%%%%.hhhh~%%",
"%%%%%%*hhhh/%%%%%%%%%%%%/hhhh;%%",
"%%%%%%^hhhh+%%%%%%%%%%%%;hhhh/%%",
"%%%%%%8hhhe%%%%%%%%%%%%%^hhhh+%%",
"%%%%%%dhhha%%%%%%%%%%%%%8hhhe%%%",
"%%%%%%hhhh4%%%%%%%%%%%%%dhhh3%%%",
"%%%%%/hhhh'%%%%%%%%%%%%%hhhh4%%%",
"%%%%%*hhhh*%%%%%%%%%%%%/hhhh;%%%",
"%%%%%^hhhh/%%%%%%%%%%%%*hhhh[%%%",
"%%%%%8hhhh.%%%%%%%%%%%%^hhhh+%%%",
"%%%%%dhhh9%%%%%%%%%%%%%8hhhe%%%%",
"%%%%%hhhh3%8222222222=%dhhh3%%%%",
"%%%%#5555*%hhhhhhhhhh;%5555*%%%%",
"%%%%%%%%%%/hhhhhhhhhh/%%%%%%%%%%",
"%%%%_----+;hhhhhhhhhh%$----+%%%%",
"%%%%1hhhh.=aaaaaaaaa8%^hhhh+%%%%",
"%%%%0hhh9%%%%%%%%%%%%%8hhhe%%%%%",
"%%%.hhhh1%%%%%%%%%%%%%dhhha%%%%%",
"%%%/hhhh~%%%%%%%%%%%%%hhhh4%%%%%",
"%%%;hhhh;%%%%%%%%%%%%/hhhh>%%%%%",
"%%%{hhhh/%%%%%%%%%%%%*hhhh|%%%%%",
"%%%8hhhh.%%%%%%%%%%%%^hhhh$%%%%%",
"%%%dhhh9%%%%%%%%%%%%%8hhhh%%%%%%",
"%%%hhhh1%%%%%%%%%%%%%dhhhc%%%%%%",
"%%/hhhh~%%%%%%%%%%%%%hhhh8%%%%%%",
"%%*hhhh;%%%%%%%%%%%%/hhhh!%%%%%%",
"%%^hhhh/%%%%%%%%%%%%*hhhh;%%%%%%",
"%%6hhhf.%%%%%%%%%%%%^hhhh/%%%%%%",
"%%ahhf<%%%%%%%%%%%%%8hhhh.%%%%%%",
"%%hhf<%,7777777777&%dhhhe%%%%%%%",
"%$hh|%;hhhhhhhhhhh>%hhhh3%%%%%%%",
"%|h;%[hhhhhhhhhhhh*/hhhh4%%%%%%%",
"%);%#ghhhhhhhhhhhh/*hhhh>%%%%%%%",
"%#%.9hhhhhhhhhhhhh+^hhhh:%%%%%%%",
"%%%+((((((((((((((%#((((.%%%%%%%",
"%%%%%%%%%%%%%%%%%%%%%%%%%%%%%%%%"};
