/* XPM */
static char * 7Seg_28_xpm[] = {
"32 45 55 1",
" 	c None",
".	c #97A197",
"+	c #91A591",
"@	c #8BA98B",
"#	c #8AA98A",
"$	c #84AD84",
"%	c #9E9E9E",
"&	c #9D9D9D",
"*	c #9C9C9C",
"=	c #9B9B9B",
"-	c #9A9A9A",
";	c #999999",
">	c #989898",
",	c #979797",
"'	c #969696",
")	c #65C065",
"!	c #64C064",
"~	c #58C858",
"{	c #5FC45F",
"]	c #5EC45E",
"^	c #57C857",
"/	c #52CC52",
"(	c #51CC51",
"_	c #51CB51",
":	c #4BD04B",
"<	c #45D445",
"[	c #45D345",
"}	c #44D344",
"|	c #4BCF4B",
"1	c #7EB17E",
"2	c #7DB17D",
"3	c #78B578",
"4	c #71B871",
"5	c #77B577",
"6	c #77B477",
"7	c #6BBC6B",
"8	c #6ABC6A",
"9	c #2BE32B",
"0	c #20EB20",
"a	c #25E725",
"b	c #3FD83F",
"c	c #3ED83E",
"d	c #38DB38",
"e	c #3FD73F",
"f	c #32DF32",
"g	c #12F312",
"h	c #12F212",
"i	c #1FEB1F",
"j	c #19EF19",
"k	c #18EF18",
"l	c #18EE18",
"m	c #0CF70C",
"n	c #06FB06",
"o	c #06FA06",
"p	c #00FF00",
"%%%%%%%%%%%%%%%%%%%%%%%%%%%%%%%%",
"%%%%%%%%%%11111111111111@%*****%",
"%%%%%%%%$%dppppppppppppp(%'''',%",
"%%%%%%%1j%#npppppppppppp8&'''';%",
"%%%%%%%!p_%}pppppppppppp$*''''-%",
"%%%%%%%|po#.mppppppppppp%-''''*%",
"%%%%%%%fpp9%7cccccccccc(%;''''&%",
"%%%%%%%lppp7%%%%%%%%%%%%%,''''%%",
"%%%%%%%pppp:%%%%%%%%%%%%%'''',%%",
"%%%%%%1pppp]%%%%%%%%%%%%&'''';%%",
"%%%%%%!pppp1%%%%%%%%%%%%*''''-%%",
"%%%%%%|pppp+%%%%%%%%%%%%-''''*%%",
"%%%%%%fpppm%%%%%%%%%%%%%;''''&%%",
"%%%%%%lpppi%%%%%%%%%%%%%>''''%%%",
"%%%%%%ppppb%%%%%%%%%%%%%'''',%%%",
"%%%%%1pppp(%%%%%%%%%%%%%'''';%%%",
"%%%%%!pppp!%%%%%%%%%%%%*''''-%%%",
"%%%%%|pppp1%%%%%%%%%%%%-''''=%%%",
"%%%%%fpppp.%%%%%%%%%%%%;''''&%%%",
"%%%%%lpppg%%%%%%%%%%%%%>''''%%%%",
"%%%%%ppppa%f000000000~%'''',%%%%",
"%%%%#cccc!%pppppppppp]%;;;;-%%%%",
"%%%%%%%%%%1pppppppppp1%%%%%%%%%%",
"%%%%3{{{{+]pppppppppp%${{{{+%%%%",
"%%%%9pppp.~iiiiiiiiif%|pppp+%%%%",
"%%%%hpppg%%%%%%%%%%%%%fpppm%%%%%",
"%%%.pppp9%%%%%%%%%%%%%lpppi%%%%%",
"%%%1pppp<%%%%%%%%%%%%%ppppb%%%%%",
"%%%]pppp]%%%%%%%%%%%%1pppp^%%%%%",
"%%%[pppp1%%%%%%%%%%%%!pppp8%%%%%",
"%%%fpppp.%%%%%%%%%%%%|pppp$%%%%%",
"%%%lpppg%%%%%%%%%%%%%fpppp%%%%%%",
"%%%pppp9%%%%%%%%%%%%%lpppk%%%%%%",
"%%1pppp<%%%%%%%%%%%%%ppppf%%%%%%",
"%%!pppp]%%%%%%%%%%%%1pppp:%%%%%%",
"%%|pppp1%%%%%%%%%%%%!pppp]%%%%%%",
"%%dpppn.%%%%%%%%%%%%|pppp1%%%%%%",
"%%ippn5%%%%%%%%%%%%%fpppp.%%%%%%",
"%%ppn5%/eeeeeeeeee)%lpppm%%%%%%%",
"%$pp8%]ppppppppppp^%ppppa%%%%%%%",
"%8p]%6pppppppppppp!1ppppb%%%%%%%",
"%_]%#opppppppppppp1!pppp^%%%%%%%",
"%#%.gppppppppppppp+|pppp4%%%%%%%",
"%%%+22222222222222%#2222.%%%%%%%",
"%%%%%%%%%%%%%%%%%%%%%%%%%%%%%%%%"};
