/* XPM */
static char * 7Seg_25_xpm[] = {
"32 45 51 1",
" 	c None",
".	c #97A197",
"+	c #91A591",
"@	c #8BA98B",
"#	c #8AA98A",
"$	c #84AD84",
"%	c #9E9E9E",
"&	c #9D9D9D",
"*	c #9C9C9C",
"=	c #9B9B9B",
"-	c #9A9A9A",
";	c #999999",
">	c #989898",
",	c #979797",
"'	c #969696",
")	c #65C065",
"!	c #64C064",
"~	c #58C858",
"{	c #5FC45F",
"]	c #5EC45E",
"^	c #57C857",
"/	c #52CC52",
"(	c #51CC51",
"_	c #51CB51",
":	c #45D445",
"<	c #45D345",
"[	c #44D344",
"}	c #4BCF4B",
"|	c #7EB17E",
"1	c #7DB17D",
"2	c #78B578",
"3	c #77B577",
"4	c #77B477",
"5	c #6BBC6B",
"6	c #6ABC6A",
"7	c #2BE32B",
"8	c #20EB20",
"9	c #25E725",
"0	c #3FD83F",
"a	c #3ED83E",
"b	c #38DB38",
"c	c #3FD73F",
"d	c #32DF32",
"e	c #12F312",
"f	c #12F212",
"g	c #1FEB1F",
"h	c #18EE18",
"i	c #0CF70C",
"j	c #06FB06",
"k	c #06FA06",
"l	c #00FF00",
"%%%%%%%%%%%%%%%%%%%%%%%%%%%%%%%%",
"%%%%%%%%%%||||||||||||||@%$|||$%",
"%%%%%%%%*%blllllllllllll(%flll7%",
"%%%%%%%*,%#jllllllllllll6.llll:%",
"%%%%%%%-';%[llllllllllll$|llll]%",
"%%%%%%%;''*.illlllllllll%]llll|%",
"%%%%%%%>'',%5aaaaaaaaaa(%<llll.%",
"%%%%%%%''''=%%%%%%%%%%%%%7llle%%",
"%%%%%%%'''';%%%%%%%%%%%%%flll7%%",
"%%%%%%*''''-%%%%%%%%%%%%.llll:%%",
"%%%%%%-''''*%%%%%%%%%%%%|llll]%%",
"%%%%%%;''''&%%%%%%%%%%%%]llll|%%",
"%%%%%%>''''%%%%%%%%%%%%%}llll+%%",
"%%%%%%'''',%%%%%%%%%%%%%dllli%%%",
"%%%%%%'''';%%%%%%%%%%%%%hlll9%%%",
"%%%%%*'''';%%%%%%%%%%%%%llll0%%%",
"%%%%%-''''-%%%%%%%%%%%%|llll]%%%",
"%%%%%;''''*%%%%%%%%%%%%!llll4%%%",
"%%%%%>''''&%%%%%%%%%%%%}llll+%%%",
"%%%%%'''''%%%%%%%%%%%%%dllli%%%%",
"%%%%%'''',%d888888888~%hlll9%%%%",
"%%%%*;;;;-%llllllllll]%aaaa!%%%%",
"%%%%%%%%%%|llllllllll|%%%%%%%%%%",
"%%%%2{{{{+]llllllllll%*----&%%%%",
"%%%%7llll.~gggggggggd%;''''&%%%%",
"%%%%fllle%%%%%%%%%%%%%>''''%%%%%",
"%%%.llll7%%%%%%%%%%%%%'''',%%%%%",
"%%%|llll:%%%%%%%%%%%%%'''';%%%%%",
"%%%]llll]%%%%%%%%%%%%*'''';%%%%%",
"%%%<llll|%%%%%%%%%%%%-''''-%%%%%",
"%%%dllll.%%%%%%%%%%%%;''''*%%%%%",
"%%%hllle%%%%%%%%%%%%%>''''%%%%%%",
"%%%llll7%%%%%%%%%%%%%'''''%%%%%%",
"%%|llll:%%%%%%%%%%%%%''''>%%%%%%",
"%%!llll]%%%%%%%%%%%%*'''';%%%%%%",
"%%}llll|%%%%%%%%%%%%-''''-%%%%%%",
"%%blllj.%%%%%%%%%%%%;''''*%%%%%%",
"%%gllj3%%%%%%%%%%%%%>''''&%%%%%%",
"%%llj3%/cccccccccc)%'''''%%%%%%%",
"%$ll6%]lllllllllll^%'''',%%%%%%%",
"%6l]%4llllllllllll!*'''';%%%%%%%",
"%_]%#kllllllllllll|-'''';%%%%%%%",
"%#%.elllllllllllll+;''''=%%%%%%%",
"%%%+11111111111111%*****&%%%%%%%",
"%%%%%%%%%%%%%%%%%%%%%%%%%%%%%%%%"};
