/* XPM */
static char * 7Seg_27_xpm[] = {
"32 45 51 1",
" 	c None",
".	c #97A197",
"+	c #91A591",
"@	c #8BA98B",
"#	c #8AA98A",
"$	c #84AD84",
"%	c #9E9E9E",
"&	c #9D9D9D",
"*	c #9C9C9C",
"=	c #9B9B9B",
"-	c #9A9A9A",
";	c #999999",
">	c #989898",
",	c #979797",
"'	c #969696",
")	c #65C065",
"!	c #64C064",
"~	c #58C858",
"{	c #5FC45F",
"]	c #5EC45E",
"^	c #57C857",
"/	c #52CC52",
"(	c #51CC51",
"_	c #4BD04B",
":	c #45D445",
"<	c #45D345",
"[	c #44D344",
"}	c #4BCF4B",
"|	c #7EB17E",
"1	c #7DB17D",
"2	c #71B871",
"3	c #77B477",
"4	c #6BBC6B",
"5	c #6ABC6A",
"6	c #2BE32B",
"7	c #20EB20",
"8	c #25E725",
"9	c #3FD83F",
"0	c #3ED83E",
"a	c #38DB38",
"b	c #3FD73F",
"c	c #32DF32",
"d	c #12F312",
"e	c #12F212",
"f	c #1FEB1F",
"g	c #18EF18",
"h	c #18EE18",
"i	c #0CF70C",
"j	c #06FB06",
"k	c #06FA06",
"l	c #00FF00",
"%%%%%%%%%%%%%%%%%%%%%%%%%%%%%%%%",
"%%%%%%%%%%||||||||||||||@%$|||$%",
"%%%%%%%%*%alllllllllllll(%elll6%",
"%%%%%%%*,%#jllllllllllll5.llll:%",
"%%%%%%%-';%[llllllllllll$|llll]%",
"%%%%%%%;''*.illlllllllll%]llll|%",
"%%%%%%%>'',%40000000000(%<llll.%",
"%%%%%%%''''=%%%%%%%%%%%%%6llld%%",
"%%%%%%%'''';%%%%%%%%%%%%%elll6%%",
"%%%%%%*''''-%%%%%%%%%%%%.llll:%%",
"%%%%%%-''''*%%%%%%%%%%%%|llll]%%",
"%%%%%%;''''&%%%%%%%%%%%%]llll|%%",
"%%%%%%>''''%%%%%%%%%%%%%}llll+%%",
"%%%%%%'''',%%%%%%%%%%%%%cllli%%%",
"%%%%%%'''';%%%%%%%%%%%%%hlll8%%%",
"%%%%%*'''';%%%%%%%%%%%%%llll9%%%",
"%%%%%-''''-%%%%%%%%%%%%|llll]%%%",
"%%%%%;''''*%%%%%%%%%%%%!llll3%%%",
"%%%%%>''''&%%%%%%%%%%%%}llll+%%%",
"%%%%%'''''%%%%%%%%%%%%%cllli%%%%",
"%%%%%'''',%c777777777~%hlll8%%%%",
"%%%%*;;;;-%llllllllll]%0000!%%%%",
"%%%%%%%%%%|llllllllll|%%%%%%%%%%",
"%%%%*----&]llllllllll%${{{{+%%%%",
"%%%%,''''&~fffffffffc%}llll+%%%%",
"%%%%'''''%%%%%%%%%%%%%cllli%%%%%",
"%%%&'''',%%%%%%%%%%%%%hlllf%%%%%",
"%%%*'''';%%%%%%%%%%%%%llll9%%%%%",
"%%%-''''-%%%%%%%%%%%%|llll^%%%%%",
"%%%;''''*%%%%%%%%%%%%!llll5%%%%%",
"%%%>''''&%%%%%%%%%%%%}llll$%%%%%",
"%%%'''''%%%%%%%%%%%%%cllll%%%%%%",
"%%%'''',%%%%%%%%%%%%%hlllg%%%%%%",
"%%*'''';%%%%%%%%%%%%%llllc%%%%%%",
"%%-''''-%%%%%%%%%%%%|llll_%%%%%%",
"%%;''''*%%%%%%%%%%%%!llll]%%%%%%",
"%%>''''&%%%%%%%%%%%%}llll|%%%%%%",
"%%,'''=%%%%%%%%%%%%%cllll.%%%%%%",
"%%'''=%/bbbbbbbbbb)%hllli%%%%%%%",
"%*''-%]lllllllllll^%llll8%%%%%%%",
"%-'-%3llllllllllll!|llll9%%%%%%%",
"%;-%#kllllllllllll|!llll^%%%%%%%",
"%*%.dlllllllllllll+}llll2%%%%%%%",
"%%%+11111111111111%#1111.%%%%%%%",
"%%%%%%%%%%%%%%%%%%%%%%%%%%%%%%%%"};
