/* XPM */
static char * h7Seg_28_xpm[] = {
"16 23 91 1",
" 	c None",
".	c #9AA09A",
"+	c #99A099",
"@	c #98A198",
"#	c #98A098",
"$	c #96A296",
"%	c #96A196",
"&	c #95A095",
"*	c #90A690",
"=	c #91A591",
"-	c #91A491",
";	c #8CA88C",
">	c #89AA89",
",	c #8FA68F",
"'	c #8DA78D",
")	c #84AC84",
"!	c #87AB87",
"~	c #86AB86",
"{	c #82AE82",
"]	c #81AE81",
"^	c #80AF80",
"/	c #9E9E9E",
"(	c #9C9E9C",
"_	c #9D9D9D",
":	c #9C9C9C",
"<	c #9B9F9B",
"[	c #9B9B9B",
"}	c #9A9A9A",
"|	c #999999",
"1	c #989898",
"2	c #979797",
"3	c #969696",
"4	c #64C064",
"5	c #62C262",
"6	c #63C163",
"7	c #63C063",
"8	c #5DC45D",
"9	c #5FC35F",
"0	c #57C857",
"a	c #54CA54",
"b	c #50CC50",
"c	c #52CB52",
"d	c #4BD04B",
"e	c #48D148",
"f	c #45D445",
"g	c #4ECE4E",
"h	c #4FCD4F",
"i	c #4ECD4E",
"j	c #4DCE4D",
"k	c #4CCF4C",
"l	c #7FB07F",
"m	c #7DB17D",
"n	c #7CB17C",
"o	c #79B479",
"p	c #77B577",
"q	c #76B576",
"r	c #6FBA6F",
"s	c #6EBA6E",
"t	c #6DBB6D",
"u	c #6CBB6C",
"v	c #68BE68",
"w	c #66BF66",
"x	c #2FE02F",
"y	c #2EE12E",
"z	c #2CE22C",
"A	c #28E528",
"B	c #28E428",
"C	c #22E822",
"D	c #26E726",
"E	c #38DB38",
"F	c #3FD73F",
"G	c #3ED73E",
"H	c #36DC36",
"I	c #34DE34",
"J	c #32DF32",
"K	c #16F016",
"L	c #14F114",
"M	c #10F410",
"N	c #13F213",
"O	c #1FEA1F",
"P	c #1DEB1D",
"Q	c #1AEE1A",
"R	c #1BED1B",
"S	c #0BF80B",
"T	c #08F908",
"U	c #0BF70B",
"V	c #06FA06",
"W	c #02FD02",
"X	c #01FE01",
"Y	c #00FF00",
"Z	c #00FE00",
"/////=======.___",
"///$oyYYYYYYn33}",
"///nQlWYYYYY&33:",
"///7Yas5555w}33_",
"///eYA//////}33/",
"///xYF//////131/",
"///KY0//////23|/",
"//#ZYt//////33}/",
"//^YY)/////:33:/",
"//wYX+/////[33_/",
"//kYLtIIIIi}33//",
"//+$@FYYYYG___//",
"//OShjJJJJuySg//",
"/+XY4//////UY9//",
"/]YYm/////-YYp//",
"/vYY%/////qYY,//",
"/bYN//////8YT///",
"/HYz//////fYC///",
"/PYd//////BYE///",
"/VAl66666;MYc///",
">R!NYYYYYqYYv///",
"~'DYYYYYYrYY{///",
"/<*******+**(///"};
