/* XPM */
static char * h7Seg_19_xpm[] = {
"16 23 65 1",
" 	c None",
".	c #9AA09A",
"+	c #99A099",
"@	c #98A198",
"#	c #96A296",
"$	c #97A197",
"%	c #92A492",
"&	c #90A690",
"*	c #91A591",
"=	c #91A491",
"-	c #93A193",
";	c #8FA68F",
">	c #8DA78D",
",	c #85AC85",
"'	c #82AE82",
")	c #9E9E9E",
"!	c #9C9E9C",
"~	c #9D9D9D",
"{	c #9C9C9C",
"]	c #9B9F9B",
"^	c #9B9B9B",
"/	c #9A9A9A",
"(	c #999999",
"_	c #989898",
":	c #979797",
"<	c #969696",
"[	c #64C064",
"}	c #62C262",
"|	c #5DC45D",
"1	c #5FC35F",
"2	c #58C758",
"3	c #55C955",
"4	c #52CB52",
"5	c #4AD04A",
"6	c #45D445",
"7	c #4ECE4E",
"8	c #7EB07E",
"9	c #7BB27B",
"0	c #79B279",
"a	c #77B577",
"b	c #76B576",
"c	c #74B674",
"d	c #7FAF7F",
"e	c #6EBA6E",
"f	c #6DBB6D",
"g	c #68BE68",
"h	c #69BD69",
"i	c #66BF66",
"j	c #2EE12E",
"k	c #28E428",
"l	c #23E823",
"m	c #22E822",
"n	c #39DB39",
"o	c #38DB38",
"p	c #34DD34",
"q	c #14F114",
"r	c #10F410",
"s	c #18EF18",
"t	c #0BF80B",
"u	c #08F908",
"v	c #0BF70B",
"w	c #05FB05",
"x	c #03FC03",
"y	c #02FD02",
"z	c #00FF00",
")))))*******.%*+",
")))~^jzzzzzz9wzh",
")))^:'yzzzzzdzz,",
")))/<(e}}}}ifzx]",
")))(<:))))))3zs)",
")))_<())))))nzp)",
")))<</))))))lz5)",
"))~<</))))))uz[)",
")){<<{)))))>zz8)",
"))/<<~)))))czz$)",
"))(<<^____(2zq))",
"))~~~(<<<<_.#@))",
"))<<((____^jt7))",
")~<</))))))vz1))",
"){<<^)))))=zza))",
")/<<~)))))bzz;))",
")(<<))))))|zu)))",
")_<:))))))6zm)))",
")<<())))))kzo)))",
")<:{^^^^^{rz4)))",
"{:{<<<<<<-zzg)))",
"{{:<<<<<<0zz')))",
")~~~~~~~~+&&!)))"};
