/* XPM */
static char * hAutoOnO_xpm[] = {
"42 20 35 1",
" 	c None",
".	c #FFD000",
"+	c #E3B900",
"@	c #EABE00",
"#	c #D4AD00",
"$	c #F1C400",
"%	c #322800",
"&	c #000000",
"*	c #C6A200",
"=	c #554500",
"-	c #0E0C00",
";	c #473A00",
">	c #8E7300",
",	c #C09C00",
"'	c #1C1700",
")	c #2B2200",
"!	c #A38500",
"~	c #CEA800",
"{	c #2A2200",
"]	c #403400",
"^	c #B19000",
"/	c #DCB300",
"(	c #151100",
"_	c #635100",
":	c #786200",
"<	c #6A5600",
"[	c #F8CA00",
"}	c #161100",
"|	c #5C4B00",
"1	c #806800",
"2	c #AA8A00",
"3	c #B89600",
"4	c #645100",
"5	c #9C7F00",
"6	c #4E3F00",
"..........................................",
"..........................................",
"..........................................",
"..........................................",
"..........................................",
"..........................................",
"..........................................",
"............+@..#..#$###+.@#@.............",
"............%%..&..&*=-;>,'=)!............",
"...........~%)~.&..&..{#.]^./(............",
"..........._:<_.&..&..{#.{#..&............",
"..........[}==-$-+@-..{#.|1.2%............",
"..........34..4^5{{5..6/.@={;#............",
"..........................................",
"..........................................",
"..........................................",
"..........................................",
"..........................................",
"..........................................",
".........................................."};
