/* XPM */
static char * hFreeOnO_xpm[] = {
"42 20 26 1",
" 	c None",
".	c #FFD000",
"+	c #EABE00",
"@	c #D4AD00",
"#	c #F1C400",
"$	c #E3B900",
"%	c #806800",
"&	c #2A2200",
"*	c #554500",
"=	c #AA8A00",
"-	c #1C1700",
";	c #241D00",
">	c #8E7400",
",	c #C6A200",
"'	c #392E00",
")	c #6A5600",
"!	c #957900",
"~	c #5C4B00",
"{	c #473A00",
"]	c #F8CA00",
"^	c #8E7300",
"/	c #DCB300",
"(	c #0E0C00",
"_	c #151100",
":	c #725C00",
"<	c #B89600",
"..........................................",
"..........................................",
"..........................................",
"..........................................",
"..........................................",
"..........................................",
"..........................................",
"...........+@@@#@@$.#@@@#$@@@.............",
"...........%&**=-*;>=-**,*'**.............",
"...........%)@$=*.!~={@@]*^@/.............",
"...........%&*^=(_&@=-**$*'*:.............",
"...........%%..=*+-,=*...*=...............",
"...........!!..<:.=*<&&&!:&&&/............",
"..........................................",
"..........................................",
"..........................................",
"..........................................",
"..........................................",
"..........................................",
".........................................."};
