/* XPM */
static char * hNoAttOnO_xpm[] = {
"42 20 40 1",
" 	c None",
".	c #FFD000",
"+	c #BF9C00",
"@	c #A38500",
"#	c #D4AD00",
"$	c #AA8A00",
"%	c #B19000",
"&	c #554500",
"*	c #725C00",
"=	c #EABE00",
"-	c #806800",
";	c #070600",
">	c #D5AD00",
",	c #C09C00",
"'	c #2B2200",
")	c #F1C400",
"!	c #8E7300",
"~	c #403400",
"{	c #241D00",
"]	c #161100",
"^	c #F8CA00",
"/	c #E3B900",
"(	c #6A5600",
"_	c #392E00",
":	c #635100",
"<	c #957900",
"[	c #151100",
"}	c #CEA800",
"|	c #322800",
"1	c #4E4000",
"2	c #2A2200",
"3	c #4E3F00",
"4	c #5C4B00",
"5	c #DCB300",
"6	c #786200",
"7	c #0E0C00",
"8	c #C6A200",
"9	c #876E00",
"0	c #473A00",
"a	c #564500",
"..........................................",
"..........................................",
"..........................................",
"..........................................",
"..........................................",
"..........................................",
"..........................................",
"........+@.#$.%&*=....%@.#---$----........",
"........-;>$&,')!~....{]^)#{%/#((#........",
"........-_~$&:<..[/..}|1%..2#..--.........",
"........--&3&4@..{5..((61..2#..--.........",
"........--/7&$1.8'...[--7).2#..--.........",
"........$$.@!.90a#..5(..-}.*/..$$.........",
"..........................................",
"..........................................",
"..........................................",
"..........................................",
"..........................................",
"..........................................",
".........................................."};
