/* XPM */
static char * hNoDapOn_xpm[] = {
"42 20 34 1",
" 	c None",
".	c #FFFFFF",
"+	c #D4D4D4",
"@	c #F8F8F8",
"#	c #DCDCDC",
"$	c #EAEAEA",
"%	c #F1F1F1",
"&	c #000000",
"*	c #959595",
"=	c #727272",
"-	c #323232",
";	c #555555",
">	c #242424",
",	c #E3E3E3",
"'	c #808080",
")	c #2A2A2A",
"!	c #1C1C1C",
"~	c #B1B1B1",
"{	c #4E4E4E",
"]	c #0E0E0E",
"^	c #878787",
"/	c #6A6A6A",
"(	c #8E8E8E",
"_	c #5C5C5C",
":	c #AAAAAA",
"<	c #646464",
"[	c #CECECE",
"}	c #070707",
"|	c #151515",
"1	c #2B2B2B",
"2	c #B8B8B8",
"3	c #C0C0C0",
"4	c #393939",
"5	c #474747",
"..........................................",
"..........................................",
"..........................................",
"..........................................",
"..........................................",
"..........................................",
"..........................................",
"........+@.+..#+@...$++@..@+..$++%........",
"........&*.&.=-;>,..');!#.~&~.'){!,.......",
"........&!$&$]@.^/..''.(/.{_{.''.{:.......",
"........&(<&+)..:;..''.:;,][},'|>-%.......",
"........&@1&@]+.;^..''./^^-;)'''..........",
"........).2).34)/@..*))<@{[.[5**..........",
"..........................................",
"..........................................",
"..........................................",
"..........................................",
"..........................................",
"..........................................",
".........................................."};
