/* XPM */
static char * hNoDapOff_xpm[] = {
"42 20 33 1",
" 	c None",
".	c #CCCCCC",
"+	c #BFBFBF",
"@	c #CACACA",
"#	c #C1C1C1",
"$	c #C6C6C6",
"%	c #C8C8C8",
"&	c #808080",
"*	c #ACACAC",
"=	c #A2A2A2",
"-	c #8E8E8E",
";	c #999999",
">	c #8A8A8A",
",	c #C4C4C4",
"'	c #A6A6A6",
")	c #8C8C8C",
"!	c #888888",
"~	c #B4B4B4",
"{	c #979797",
"]	c #848484",
"^	c #A8A8A8",
"/	c #A0A0A0",
"(	c #AAAAAA",
"_	c #9B9B9B",
":	c #B2B2B2",
"<	c #9D9D9D",
"[	c #BDBDBD",
"}	c #828282",
"|	c #868686",
"1	c #B7B7B7",
"2	c #B9B9B9",
"3	c #919191",
"4	c #959595",
"..........................................",
"..........................................",
"..........................................",
"..........................................",
"..........................................",
"..........................................",
"..........................................",
"........+@.+..#+@...$++@..@+..$++%........",
"........&*.&.=-;>,..');!#.~&~.'){!,.......",
"........&!$&$]@.^/..''.(/.{_{.''.{:.......",
"........&(<&+)..:;..''.:;,][},'|>-%.......",
"........&@)&@]+.;^..''./^^-;)'''..........",
"........).1).23)/@..*))<@{[.[4**..........",
"..........................................",
"..........................................",
"..........................................",
"..........................................",
"..........................................",
"..........................................",
".........................................."};
