/* XPM */
static char * hPrioDispOn_xpm[] = {
"42 20 40 1",
" 	c None",
".	c #FFFFFF",
"+	c #D4D4D4",
"@	c #DCDCDC",
"#	c #F1F1F1",
"$	c #E3E3E3",
"%	c #F8F8F8",
"&	c #000000",
"*	c #555555",
"=	c #2B2B2B",
"-	c #787878",
";	c #AAAAAA",
">	c #1C1C1C",
",	c #242424",
"'	c #8E8E8E",
")	c #2A2A2A",
"!	c #4E4E4E",
"~	c #404040",
"{	c #CECECE",
"]	c #959595",
"^	c #5C5C5C",
"/	c #323232",
"(	c #BFBFBF",
"_	c #161616",
":	c #9C9C9C",
"<	c #0E0E0E",
"[	c #151515",
"}	c #808080",
"|	c #EAEAEA",
"1	c #C6C6C6",
"2	c #B1B1B1",
"3	c #B8B8B8",
"4	c #727272",
"5	c #878787",
"6	c #A3A3A3",
"7	c #474747",
"8	c #393939",
"9	c #6A6A6A",
"0	c #797979",
"a	c #646464",
"..........................................",
"..........................................",
"..........................................",
".............++@.#++$.#$.%+@..............",
".............&*=-;>*,';*#)!~*.............",
".............&.{);*.]^;*]^../(............",
".............&)_:;<[)+;*}}..*;............",
".............&...;*|>1;*2/%|[@............",
".............)...34.;*34.5)/6.............",
"..........................................",
"..........................................",
".............|++%.||.$+#.@++..............",
".............})*>@}}2,*[|)78!.............",
".............}}.'9}}'832$)+%&.............",
".............}}.;*}}%'~[$),[0.............",
".............}}.95}}}'.82)+...............",
".............]))a%]]+8)^%!@...............",
"..........................................",
"..........................................",
".........................................."};
