/* XPM */
static char * hRestartOn_xpm[] = {
"42 20 44 1",
" 	c None",
".	c #FFD000",
"+	c #BF9C00",
"@	c #806800",
"#	c #876E00",
"$	c #EABE00",
"%	c #C6A200",
"&	c #5C4B00",
"*	c #635100",
"=	c #DCB300",
"-	c #8E7400",
";	c #957900",
">	c #9C7F00",
",	c #6A5600",
"'	c #D4AD00",
")	c #F8CA00",
"!	c #1C1700",
"~	c #CEA800",
"{	c #A38500",
"]	c #403400",
"^	c #000000",
"/	c #4E4000",
"(	c #070600",
"_	c #2A2200",
":	c #B19000",
"<	c #CEA700",
"[	c #473A00",
"}	c #8E7300",
"|	c #786200",
"1	c #725C00",
"2	c #554500",
"3	c #AA8A00",
"4	c #151100",
"5	c #B89600",
"6	c #D5AD00",
"7	c #F1C400",
"8	c #161100",
"9	c #322800",
"0	c #2B2200",
"a	c #C09C00",
"b	c #E3B900",
"c	c #241D00",
"d	c #0E0C00",
"e	c #4E3F00",
"..........................................",
"..........................................",
"..........................................",
"..........................................",
"..........................................",
"..........................................",
"..........................................",
"....+@@#$+@@@$%&*=+@@@+.%-..;@@>$@@@;.....",
"....@,'&*@,'')!~{]$'^'$./(=._:<!:'[}=.....",
"....@,'|1@233.4156..^..781#._:'9%.23......",
"....@]@0a@233.b-[9..^..;[>c._,|c).23......",
"....@@.@@@@..)9$$d..^..],@!~_'._'.23......",
"....33.3>3222%{[e{..2.)2).>:1b.16.}%......",
"..........................................",
"..........................................",
"..........................................",
"..........................................",
"..........................................",
"..........................................",
".........................................."};
