/* XPM */
static char * hrProgOn_xpm[] = {
"32 12 37 1",
" 	c None",
".	c #00FF00",
"+	c #008000",
"@	c #008700",
"#	c #00E300",
"$	c #00D400",
"%	c #00DC00",
"&	c #00C600",
"*	c #005C00",
"=	c #006300",
"-	c #008E00",
";	c #005500",
">	c #009C00",
",	c #000000",
"'	c #004700",
")	c #00AA00",
"!	c #003900",
"~	c #001600",
"{	c #00B800",
"]	c #001C00",
"^	c #00F800",
"/	c #007800",
"(	c #00EA00",
"_	c #002A00",
":	c #00BF00",
"<	c #003200",
"[	c #006A00",
"}	c #004000",
"|	c #001500",
"1	c #00F100",
"2	c #00C000",
"3	c #004E00",
"4	c #00B100",
"5	c #00D500",
"6	c #002B00",
"7	c #00A300",
"8	c #009500",
"................................",
"................................",
"................................",
"......++@#$+++%.&*=%..-;>.......",
"......,$-')'$+!#~#{]^/=(_>......",
"......,.:<)'$>'-[..}{|(.1#......",
"......,;;2)_+!>@/..34,^&!;......",
"......,...);.);56^#]1'7.=;......",
"......;...&-.&+.7'32.(;38-......",
"................................",
"................................",
"................................"};
