/* XPM */
static char * hStbyOff_xpm[] = {
"42 20 37 1",
" 	c None",
".	c #CCCCCC",
"+	c #B5B5B5",
"@	c #9A9A9A",
"#	c #A2A2A2",
"$	c #C6C6C6",
"%	c #B3B3B3",
"&	c #A6A6A6",
"*	c #BFBFBF",
"=	c #ACACAC",
"-	c #C2C2C2",
";	c #C4C4C4",
">	c #A8A8A8",
",	c #868686",
"'	c #A4A4A4",
")	c #A0A0A0",
"!	c #8A8A8A",
"~	c #C0C0C0",
"{	c #C8C8C8",
"]	c #8C8C8C",
"^	c #888888",
"/	c #8D8D8D",
"(	c #B7B7B7",
"_	c #848484",
":	c #AAAAAA",
"<	c #8F8F8F",
"[	c #939393",
"}	c #9C9C9C",
"|	c #AEAEAE",
"1	c #919191",
"2	c #CACACA",
"3	c #B9B9B9",
"4	c #B2B2B2",
"5	c #959595",
"6	c #979797",
"7	c #B1B1B1",
"8	c #BBBBBB",
"..........................................",
"..........................................",
"..........................................",
"..........................................",
"..........................................",
"..........................................",
"..........................................",
"............+@#$%&&&*=&&-;>.;>............",
"...........$,$');+!~{]++^./()&............",
"...........;_>(;.~]..]:=<.%[^{............",
"............~><}.~]..]:|12./&.............",
"...........-[231.~]..]~{,;.@4.............",
"............>563.;#..#@@7..:8.............",
"..........................................",
"..........................................",
"..........................................",
"..........................................",
"..........................................",
"..........................................",
".........................................."};
