/* XPM */
static char * hTempOff_xpm[] = {
"42 20 31 1",
" 	c None",
".	c #CCCCCC",
"+	c #BBBBBB",
"@	c #9A9A9A",
"#	c #848484",
"$	c #959595",
"%	c #AAAAAA",
"&	c #919191",
"*	c #808080",
"=	c #9E9E9E",
"-	c #8C8C8C",
";	c #C0C0C0",
">	c #8D8D8D",
",	c #B7B7B7",
"'	c #B2B2B2",
")	c #8B8B8B",
"!	c #B0B0B0",
"~	c #999999",
"{	c #A2A2A2",
"]	c #B5B5B5",
"^	c #979797",
"/	c #868686",
"(	c #A6A6A6",
"_	c #939393",
":	c #A8A8A8",
"<	c #8A8A8A",
"[	c #C2C2C2",
"}	c #C6C6C6",
"|	c #B9B9B9",
"1	c #CACACA",
"2	c #C4C4C4",
"..........................................",
"..........................................",
"..........................................",
"..........................................",
"..........................................",
"..........................................",
"..........................................",
"..........................................",
"..........+@#$%@&@@.*=.&-;#@>,............",
"............-;.@'...*&.)-;-.!@............",
"............-;.@&~{.*$]^-;/(_:............",
"............-;.@'...*%^:-;<;[.............",
"............-;.@~((}*|*,-;-...............",
"............[1.2;;;1;1;1[1[...............",
"..........................................",
"..........................................",
"..........................................",
"..........................................",
"..........................................",
".........................................."};
