/* XPM */
static char * hTempOn_xpm[] = {
"42 20 31 1",
" 	c None",
".	c #FFD000",
"+	c #C6A200",
"@	c #554500",
"#	c #0E0C00",
"$	c #473A00",
"%	c #8E7300",
"&	c #392E00",
"*	c #000000",
"=	c #635100",
"-	c #2A2200",
";	c #D4AD00",
">	c #2B2200",
",	c #B89600",
"'	c #AA8A00",
")	c #241D00",
"!	c #A38500",
"~	c #725C00",
"{	c #B19000",
"]	c #4E3F00",
"^	c #151100",
"/	c #806800",
"(	c #403400",
"_	c #876E00",
":	c #8E7400",
"<	c #876D00",
"[	c #DCB300",
"}	c #EABE00",
"|	c #BF9C00",
"1	c #F8CA00",
"2	c #E3B900",
"..........................................",
"..........................................",
"..........................................",
"..........................................",
"..........................................",
"..........................................",
"..........................................",
"..........................................",
"..........+@#$%@&@@.*=.&-;#@>,............",
"............-;.@'...*&.)-;-.!@............",
"............-;.@&@~.*${]-;^/(_............",
"............-;.@'...*:]<-;);[.............",
"............-;.@@//}*|*,-;-...............",
"............[1.2;;;1;1;1[1[...............",
"..........................................",
"..........................................",
"..........................................",
"..........................................",
"..........................................",
".........................................."};
