/* XPM */
static char * hTrackerOn_xpm[] = {
"42 20 39 1",
" 	c None",
".	c #FFD000",
"+	c #F8CA00",
"@	c #D4AD00",
"#	c #C6A200",
"$	c #554500",
"%	c #0E0C00",
"&	c #473A00",
"*	c #8E7300",
"=	c #392E00",
"-	c #161100",
";	c #A38500",
">	c #000000",
",	c #DCB300",
"'	c #322800",
")	c #725C00",
"!	c #241D00",
"~	c #AA8A00",
"{	c #1C1700",
"]	c #C09C00",
"^	c #403400",
"/	c #2A2200",
"(	c #806800",
"_	c #4E4000",
":	c #876E00",
"<	c #5C4B00",
"[	c #8E7400",
"}	c #957900",
"|	c #B89600",
"1	c #EABE00",
"2	c #2B2200",
"3	c #4E3F00",
"4	c #151100",
"5	c #CEA800",
"6	c #BF9C00",
"7	c #786200",
"8	c #E3B900",
"9	c #796200",
"0	c #F1C400",
"..........................................",
"..........................................",
"..........................................",
"..........................................",
"..........................................",
"..........................................",
"..........................................",
"...................+@+....................",
"...#$%&*$=$-#.;>,.,')!,$~,{]$=$$.>$^'+....",
"...../@.$~.)(._':.<;.([$}'|.$~...>..{@....",
"...../@.$=$!,1-]2./@...$%2+.$=$).>$3^.....",
"...../@.$~.=|}4$>5^|.6|$}$7.$~...>.8%.....",
"...../@.$~.$;^|.99|';2#$~0!~$$((1>..>+....",
".....,+.80.81@+.08.,~8.80.1,8@@@+@..@+....",
"..........................................",
"..........................................",
"..........................................",
"..........................................",
"..........................................",
".........................................."};
