/* XPM */
static char * hUplinkActyOff_xpm[] = {
"42 20 41 1",
" 	c None",
".	c #CCCCCC",
"+	c #B9B9B9",
"@	c #A6A6A6",
"#	c #B3B3B3",
"$	c #ACACAC",
"%	c #C6C6C6",
"&	c #B0B0B0",
"*	c #BFBFBF",
"=	c #B5B5B5",
"-	c #A0A0A0",
";	c #BDBDBD",
">	c #8D8D8D",
",	c #BBBBBB",
"'	c #8C8C8C",
")	c #C0C0C0",
"!	c #828282",
"~	c #B2B2B2",
"{	c #9A9A9A",
"]	c #939393",
"^	c #919191",
"/	c #959595",
"(	c #868686",
"_	c #A2A2A2",
":	c #CACACA",
"<	c #979797",
"[	c #AAAAAA",
"}	c #9E9E9E",
"|	c #C4C4C4",
"1	c #848484",
"2	c #C8C8C8",
"3	c #B7B7B7",
"4	c #AEAEAE",
"5	c #B1B1B1",
"6	c #A8A8A8",
"7	c #C2C2C2",
"8	c #8F8F8F",
"9	c #989898",
"0	c #BEBEBE",
"a	c #A4A4A4",
"b	c #9C9C9C",
"..........................................",
"..........................................",
"..........................................",
"........++.+++@@#.$%..+++&.*#++.#=........",
"........@@.@@@-;>,')..@@@!)~{@@=>%........",
"........@@.@@@@.]=')..@@@^]~{@/(%.........",
"........@@.@@@>{_:')..@@@@{<{@>>#.........",
"........[}.}[@@...')..@@@@|1{@@*(*........",
"........:}<}:##..._{{[####.&[##.#@........",
"..........................................",
"..........................................",
"............2@|..={@:$@@@34.;4............",
"............5!6.+^2{_7[/)%1|]#............",
"............<@8.}4.|+.~{..@9>.............",
"...........%!01;{~....~{..21#.............",
"...........$]@/a4<.[b.~{...').............",
"...........6+.)a.a<{%.,[..._|.............",
"..........................................",
"..........................................",
".........................................."};
