/* XPM */
static char * hVerbOn_xpm[] = {
"32 12 36 1",
" 	c None",
".	c #00FF00",
"+	c #00A300",
"@	c #00DC00",
"#	c #00B100",
"$	c #00C600",
"%	c #009500",
"&	c #008000",
"*	c #00EA00",
"=	c #008700",
"-	c #002B00",
";	c #00CE00",
">	c #002A00",
",	c #00D400",
"'	c #002400",
")	c #000E00",
"!	c #000000",
"~	c #008E00",
"{	c #004700",
"]	c #003200",
"^	c #00AA00",
"/	c #00BF00",
"(	c #001C00",
"_	c #007800",
":	c #005C00",
"<	c #007900",
"[	c #001500",
"}	c #004E00",
"|	c #007200",
"1	c #005500",
"2	c #000700",
"3	c #00D500",
"4	c #006A00",
"5	c #00E300",
"6	c #006300",
"7	c #00C000",
"................................",
"................................",
"................................",
"......+@.#$%&&%*&&&$.&&=*.......",
"......&&.-;>#,@,',+).!,~{.......",
"......;]*'.>~^$,',/(.!^_:.......",
".......'=<.>~^$,[&}|.!^=1.......",
".......<23.>,..,>.,>.!.@).......",
".......34..|1115|.56.1117.......",
"................................",
"................................",
"................................"};
