/* XPM */
static char * KeyRelOff_xpm[] = {
"84 40 11 1",
" 	g None",
".	g #CCCCCC",
"+	g #808080",
"@	g #B3B3B3",
"#	g #BBBBBB",
"$	g #C4C4C4",
"%	g #919191",
"&	g #A2A2A2",
"*	g #999999",
"=	g #898989",
"-	g #AAAAAA",
"....................................................................................",
"....................................................................................",
"....................................................................................",
"....................................................................................",
"....................................................................................",
"....................................................................................",
"....................................................................................",
"....................................................................................",
"....................................................................................",
"....................................................................................",
"....................................................................................",
"....................................................................................",
"....................................................................................",
"....................................................................................",
"....................................................................................",
"....................................................................................",
"..............++...@++#.+++++++@$++#..$++#....@++++++%$.@+++++++..++................",
"..............++..#++@..++@@@@@$.&+*..&+&.....@+%@@@=+%.@+%@@@@@..++................",
"..............++.$=+@...++.......$++$$++$.....@+*...#++.@+*.......++................",
"..............++$=+@....++........&+&-+&......@+*....++.@+*.......++................",
"..............++%+%.....++*****...$+==+$......@+%@@@*+&.@+=****-..++................",
"..............+++++@....++*****....&++&.......@++++++%..@+=****-..++................",
"..............++@@+=$...++.........$++$.......@+*...%+-.@+*.......++................",
"..............++..*+%...++..........++........@+*...@+*.@+*.......++................",
"..............++...=+*..++..........++........@+*...@+*.@+*.......++................",
"..............++...$++@.+++++++*....++........@+*...@+%.@+++++++@.+++++++...........",
"..............@@....#@@.@@@@@@@#....@@........$@#...$@@.$@@@@@@@$.@@@@@@@...........",
"....................................................................................",
"....................................................................................",
"....................................................................................",
"....................................................................................",
"....................................................................................",
"....................................................................................",
"....................................................................................",
"....................................................................................",
"....................................................................................",
"....................................................................................",
"....................................................................................",
"....................................................................................",
"...................................................................................."};
