/* XPM */
static char * NounOff_xpm[] = {
"64 24 11 1",
" 	c None",
".	c #9E999F",
"+	c #69666A",
"@	c #000000",
"#	c #575558",
"$	c #343335",
"%	c #111112",
"&	c #8C888D",
"*	c #7B777C",
"=	c #464447",
"-	c #232223",
"................................................................",
"................................................................",
"................................................................",
"................................................................",
"................................................................",
"................................................................",
".........................+++....................................",
"............@@#...$@+..+%@@@%+...@@....@@..@@#...$@+............",
"............@@%&..$@+.*@%*.+@@*..@@....@@..@@%&..$@+............",
"............@@@=..$@+.-@#...#@-..@@....@@..@@@=..$@+............",
"............@@%@*.$@+&@@.....@@&.@@....@@..@@%@*.$@+............",
"............@@*@-.$@++@$.....$@+.@@....@@..@@*@-.$@+............",
"............@@.$@#$@++@$.....$@+.@@....@@..@@.$@#$@+............",
"............@@.&%%-@+*@-.....-@*.@@....@@..@@.&%%-@+............",
"............@@..#@@@+.%@&...&@%..@@....@@..@@..#@@@+............",
"............@@...-@@+.#@$...-@#..-@#..#@-..@@...-@@+............",
"............@@...*@@+..$@%$%@$...&%@-$@%&..@@...*@@+............",
"............++....*+&...*$$=*.....&#$$#&...++....*+&............",
"................................................................",
"................................................................",
"................................................................",
"................................................................",
"................................................................",
"................................................................"};
