/* XPM */
static char * ProUp_xpm[] = {
"75 75 11 1",
" 	g None",
".	g #000000",
"+	g #717171",
"@	g #AAAAAA",
"#	g #8D8D8D",
"$	g #383838",
"%	g #1C1C1C",
"&	g #FFFFFF",
"*	g #555555",
"=	g #E2E2E2",
"-	g #C6C6C6",
"...........................................................................",
"...........................................................................",
"...........................................................................",
"...........................................................................",
"...........................................................................",
"...........................................................................",
"...........................................................................",
"...........................................................................",
"...........................................................................",
"...........................................................................",
"...........................................................................",
"...........................................................................",
"...........................................................................",
"...........................................................................",
"...........................................................................",
"...........................................................................",
"...........................................................................",
"...........................................................................",
"...........................................................................",
"...........................................................................",
"...........................................................................",
"...........................................................................",
"...........................................................................",
"...........................................................................",
"...........................................................................",
"...........................................................................",
"...........................................................................",
"...........................................................................",
"...........................................................................",
"...........................................................................",
"...........................................................................",
"......................+@@@@@#$...@@@@@@@+.....%@&&&@%......................",
"......................@&&&&&&&*..&&&&&&&&@...*&&&&&&&*.....................",
"......................@&@..%=&-..&&*...@&&$.%=&=$.%-&=%....................",
"......................@&@...*&&..&&*....&&*.#&&%...%=&+....................",
"......................@&@...*&&..&&*...%&&$.-&@.....#&-....................",
"......................@&@..%-&-..&&#***=&-..&&*.....*&&....................",
"......................@&&&&&&&$..&&&&&&&-%..&&*.....*&&....................",
"......................@&=@@@#$...&&#***=&#..&&+.....+&&....................",
"......................@&@........&&*...+&&..@&-.....-&@....................",
"......................@&@........&&*...*&&..$&&#...*&&$....................",
"......................@&@........&&*...*&&...@&&-@-&&@.....................",
"......................@&@........&&*...*&&$...#&&&&&#......................",
"................................................***........................",
"...........................................................................",
"...........................................................................",
"...........................................................................",
"...........................................................................",
"...........................................................................",
"...........................................................................",
"...........................................................................",
"...........................................................................",
"...........................................................................",
"...........................................................................",
"...........................................................................",
"...........................................................................",
"...........................................................................",
"...........................................................................",
"...........................................................................",
"...........................................................................",
"...........................................................................",
"...........................................................................",
"...........................................................................",
"...........................................................................",
"...........................................................................",
"...........................................................................",
"...........................................................................",
"...........................................................................",
"...........................................................................",
"...........................................................................",
"...........................................................................",
"...........................................................................",
"...........................................................................",
"...........................................................................",
"..........................................................................."};
