/* XPM */
static char * rProgOn_xpm[] = {
"64 24 11 1",
" 	c None",
".	c #00FF00",
"+	c #00C700",
"@	c #00AA00",
"#	c #00E300",
"$	c #000000",
"%	c #001D00",
"&	c #008E00",
"*	c #005500",
"=	c #007200",
"-	c #003900",
"................................................................",
"................................................................",
"................................................................",
"................................................................",
"................................................................",
"................................................................",
"..................................+@@#.......#@@................",
"............$$$$$%&..*$$$$$$=...#-$$$$=.....*$$$$=..............",
"............$$@@&%$+.*$=@@&$$&..%$&.#%$=...*$*.@$$=.............",
"............$$...&$*.*$@...=$*.&$-...#$$#.&$-...@$$.............",
"............$$...@$*.*$@...@$*.-$@....*$&.*$@....+@#............",
"............$$...*$=.*$=@@@%$+.$$.....@$*.$$....................",
"............$$$$$$%#.*$$$$$$&..$$.....@$*.$$...*$$$@............",
"............$$@@@@...*$@..#$$#.%$#....&$=.$$#..+@-$@............",
"............$$.......*$@...*$@.=$&....-$+.*$&....-$@............",
"............$$.......*$@...*$@.#$%#..&$-..+$%#..*$$@............",
"............$$.......*$@...*$&..@$$*-$%#...@$$*-$&$@............",
"............@@.......+@#...+@+...#=**@......#=**+.@#............",
"................................................................",
"................................................................",
"................................................................",
"................................................................",
"................................................................",
"................................................................"};
