/* XPM */
static char * StbyUp_xpm[] = {
"75 75 11 1",
" 	c None",
".	c #000000",
"+	c #8D8D8D",
"@	c #FFFFFF",
"#	c #C6C6C6",
"$	c #555555",
"%	c #1C1C1C",
"&	c #E2E2E2",
"*	c #AAAAAA",
"=	c #383838",
"-	c #717171",
"...........................................................................",
"...........................................................................",
"...........................................................................",
"...........................................................................",
"...........................................................................",
"...........................................................................",
"...........................................................................",
"...........................................................................",
"...........................................................................",
"...........................................................................",
"...........................................................................",
"...........................................................................",
"...........................................................................",
"...........................................................................",
"...........................................................................",
"...........................................................................",
"...........................................................................",
"...........................................................................",
"...........................................................................",
"...........................................................................",
"...........................................................................",
"...........................................................................",
"...........................................................................",
"...........................................................................",
"...........................................................................",
"...........................................................................",
"...........................................................................",
"...........................................................................",
"...........................................................................",
"...........................................................................",
"...........................................................................",
"..................+@@@@#$..@@@@@@@@@.$@@@@@@#$..+@@%...%@@+................",
".................+@&**#@@=.***&@&***.$@@***#@@=..&@#...*@&.................",
".................@@$...&@*....*@*....$@@....#@*..=@@$.=@@=.................",
".................@@&=.........*@*....$@@....*@*...*@&.&@*..................",
".................+@@@@*$......*@*....$@@$$$-@@=...%&@&@&%..................",
"..................+@@@@@&%....*@*....$@@@@@@@#.....$@@@$...................",
"....................$+&@@#....*@*....$@@$$$$#@&.....#@#....................",
"................%$$....*@@....*@*....$@@....%@@$....*@*....................",
"................$@@=...-@@....*@*....$@@....%@@$....*@*....................",
".................&@&$$$&@+....*@*....$@@$$$$&@&.....*@*....................",
".................%&@@@@@#%....*@*....$@@@@@@@&$.....*@*....................",
"...................$$$$=......=$=....%$$$$$$$.......=$=....................",
"...........................................................................",
"...........................................................................",
"...........................................................................",
"...........................................................................",
"...........................................................................",
"...........................................................................",
"...........................................................................",
"...........................................................................",
"...........................................................................",
"...........................................................................",
"...........................................................................",
"...........................................................................",
"...........................................................................",
"...........................................................................",
"...........................................................................",
"...........................................................................",
"...........................................................................",
"...........................................................................",
"...........................................................................",
"...........................................................................",
"...........................................................................",
"...........................................................................",
"...........................................................................",
"...........................................................................",
"...........................................................................",
"...........................................................................",
"...........................................................................",
"...........................................................................",
"...........................................................................",
"...........................................................................",
"...........................................................................",
"..........................................................................."};
