/* XPM */
static char * UplinkActyOnO_xpm[] = {
"84 40 11 1",
" 	c None",
".	c #FFD000",
"+	c #000000",
"@	c #1D1700",
"#	c #8E7300",
"$	c #554500",
"%	c #AA8A00",
"&	c #C7A200",
"*	c #E3B900",
"=	c #725C00",
"-	c #392E00",
"....................................................................................",
"....................................................................................",
"....................................................................................",
"....................................................................................",
"....................................................................................",
"....................................................................................",
"....................................................................................",
".................++....++..+++++@#..$+%......++..++#...$+%.++...%++&................",
".................++....++..++%%#@+&.$+%......++..++@*..$+%.++..&++%.................",
".................++....++..++...#+$.$+%......++..+++=..$+%.++.*@+%..................",
".................++....++..++...%+$.$+%......++..++@+&.$+%.++*@+%...................",
".................++....++..++...$+=.$+%......++..++&+-.$+%.++-+-....................",
".................++....++..++++++@*.$+%......++..++.$+#$+%.+++++%...................",
".................++....++..++%%%%...$+%......++..++.*@@-+%.++%%+@*..................",
".................++....++..++.......$+%......++..++..#+++%.++..$+-..................",
".................-+#..#+-..++.......$+%......++..++...-++%.++...@+$.................",
".................*@+-$+@*..++.......$++++++%.++..++...&++%.++...*++%................",
"..................*#$$#*...%%.......&%%%%%%*.%%..%%....&%*.%%....&%%................",
"....................................................................................",
"....................................................................................",
"....................................................................................",
"....................................................................................",
"....................................%%&.............................................",
".........................&++#.....%@+++-*.$+++++++%-+=...-+=........................",
".........................=++-....&+@&.$+@.&%%-+=%%*&++..&+@.........................",
".........................@+@+*...-+&..*@+%...$+%....-+#.-+#.........................",
"........................&+-=+#..*+@....#$%...$+%....&+@*+@..........................",
"........................=+#&+-..%+$..........$+%.....-+-+#..........................",
"........................++*.++&.%+$..........$+%.....&++@...........................",
".......................%+@%%-+=.%+$..........$+%......-+#...........................",
".......................$++++++@..++*...$+#...$+%......$+%...........................",
".......................++....@+&.=+$..*++*...$+%......$+%...........................",
"......................%+-....=+=..-+-$++%....$+%......$+%...........................",
"......................&%&....*%&...%$$=*.....&%*......&%*...........................",
"....................................................................................",
"....................................................................................",
"....................................................................................",
"....................................................................................",
"....................................................................................",
"...................................................................................."};
