/* XPM */
static char * 7Seg_15_xpm[] = {
"32 45 46 1",
" 	c None",
".	c #97A197",
"+	c #91A591",
"@	c #8AA98A",
"#	c #84AD84",
"$	c #9E9E9E",
"%	c #9D9D9D",
"&	c #9C9C9C",
"*	c #9B9B9B",
"=	c #9A9A9A",
"-	c #999999",
";	c #989898",
">	c #979797",
",	c #969696",
"'	c #64C064",
")	c #58C858",
"!	c #5FC45F",
"~	c #5EC45E",
"{	c #57C857",
"]	c #51CC51",
"^	c #51CB51",
"/	c #4BD04B",
"(	c #45D445",
"_	c #45D345",
":	c #4BCF4B",
"<	c #7EB17E",
"[	c #7DB17D",
"}	c #71B871",
"|	c #77B477",
"1	c #6BBC6B",
"2	c #6ABC6A",
"3	c #2BE32B",
"4	c #20EB20",
"5	c #25E725",
"6	c #3FD83F",
"7	c #3ED83E",
"8	c #32DF32",
"9	c #12F312",
"0	c #12F212",
"a	c #1FEB1F",
"b	c #19EF19",
"c	c #18EF18",
"d	c #18EE18",
"e	c #0CF70C",
"f	c #06FA06",
"g	c #00FF00",
"$$$$$$$$$$$$$$$$$$$$$$$$$$$$$$$$",
"$$$$$$$$$$&&&&&&&&&&&&&&%$#<<<#$",
"$$$$$$$$#$;,,,,,,,,,,,,,-$0ggg3$",
"$$$$$$$<b$&,,,,,,,,,,,,,=.gggg($",
"$$$$$$$'g^$;,,,,,,,,,,,,&<gggg~$",
"$$$$$$$:gf@%,,,,,,,,,,,,$~gggg<$",
"$$$$$$$8gg3$*-----------$_gggg.$",
"$$$$$$$dggg1$$$$$$$$$$$$$3ggg9$$",
"$$$$$$$gggg/$$$$$$$$$$$$$0ggg3$$",
"$$$$$$<gggg~$$$$$$$$$$$$.gggg($$",
"$$$$$$'gggg<$$$$$$$$$$$$<gggg~$$",
"$$$$$$:gggg+$$$$$$$$$$$$~gggg<$$",
"$$$$$$8ggge$$$$$$$$$$$$$:gggg+$$",
"$$$$$$dggga$$$$$$$$$$$$$8ggge$$$",
"$$$$$$gggg6$$$$$$$$$$$$$dggg5$$$",
"$$$$$<gggg]$$$$$$$$$$$$$gggg6$$$",
"$$$$$'gggg'$$$$$$$$$$$$<gggg~$$$",
"$$$$$:gggg<$$$$$$$$$$$$'gggg|$$$",
"$$$$$8gggg.$$$$$$$$$$$$:gggg+$$$",
"$$$$$dggg9$$$$$$$$$$$$$8ggge$$$$",
"$$$$$gggg5$8444444444)$dggg5$$$$",
"$$$$@7777'$gggggggggg~$7777'$$$$",
"$$$$$$$$$$<gggggggggg<$$$$$$$$$$",
"$$$$&====%~gggggggggg$#!!!!+$$$$",
"$$$$>,,,,%)aaaaaaaaa8$:gggg+$$$$",
"$$$$,,,,,$$$$$$$$$$$$$8ggge$$$$$",
"$$$%,,,,>$$$$$$$$$$$$$dggga$$$$$",
"$$$&,,,,-$$$$$$$$$$$$$gggg6$$$$$",
"$$$=,,,,=$$$$$$$$$$$$<gggg{$$$$$",
"$$$-,,,,&$$$$$$$$$$$$'gggg2$$$$$",
"$$$;,,,,%$$$$$$$$$$$$:gggg#$$$$$",
"$$$,,,,,$$$$$$$$$$$$$8gggg$$$$$$",
"$$$,,,,>$$$$$$$$$$$$$dgggc$$$$$$",
"$$&,,,,-$$$$$$$$$$$$$gggg8$$$$$$",
"$$=,,,,=$$$$$$$$$$$$<gggg/$$$$$$",
"$$-,,,,&$$$$$$$$$$$$'gggg~$$$$$$",
"$$;,,,,%$$$$$$$$$$$$:gggg<$$$$$$",
"$$>,,,*$$$$$$$$$$$$$8gggg.$$$$$$",
"$$,,,*$=----------*$dggge$$$$$$$",
"$&,,=$=,,,,,,,,,,,-$gggg5$$$$$$$",
"$=,=$*,,,,,,,,,,,,=<gggg6$$$$$$$",
"$-=$&,,,,,,,,,,,,,&'gggg{$$$$$$$",
"$&$%,,,,,,,,,,,,,,%:gggg}$$$$$$$",
"$$$%&&&&&&&&&&&&&&$@[[[[.$$$$$$$",
"$$$$$$$$$$$$$$$$$$$$$$$$$$$$$$$$"};
