/* XPM */
static char * AutoOn_xpm[] = {
"84 40 11 1",
" 	c None",
".	c #FFFFFF",
"+	c #E3E3E3",
"@	c #AAAAAA",
"#	c #C7C7C7",
"$	c #8E8E8E",
"%	c #000000",
"&	c #555555",
"*	c #1D1D1D",
"=	c #393939",
"-	c #727272",
"....................................................................................",
"....................................................................................",
"....................................................................................",
"....................................................................................",
"....................................................................................",
"....................................................................................",
"....................................................................................",
"....................................................................................",
"....................................................................................",
"....................................................................................",
"....................................................................................",
"....................................................................................",
"....................................................................................",
"....................................................................................",
"....................................................................................",
"........................+@@.....@@....@@.#@@@@@@@+...@@@@...........................",
"........................$%%$....%%....%%.&%%%%%%%@.+*%%%%*@.........................",
"........................=%%=....%%....%%.#@@=%-@@+.*%&@@$%%+........................",
".......................#%=*%#...%%....%%....&%@...@%=....$%&........................",
".......................-%$$%-...%%....%%....&%@...&%$....+%%........................",
".......................%%.+%%...%%....%%....&%@...&%@.....%%........................",
"......................$%=@@*%$..%%....%%....&%@...&%@.....%%........................",
"......................=%%%%%%=..%%....%%....&%@...$%&....@%=........................",
".....................+%*@@@@%%#.=%$..@%=....&%@...+%%@..+*%$........................",
".....................-%-....-%-.@%%%%%%@....&%@....@%%%%%%&.........................",
".....................-&#....#&&..#&&&&#.....$&#.....+-&&&#..........................",
"....................................................................................",
"....................................................................................",
"....................................................................................",
"....................................................................................",
"....................................................................................",
"....................................................................................",
"....................................................................................",
"....................................................................................",
"....................................................................................",
"....................................................................................",
"....................................................................................",
"....................................................................................",
"....................................................................................",
"...................................................................................."};
