/* XPM */
static char * h7Seg_15_xpm[] = {
"16 23 86 1",
" 	c None",
".	c #9AA09A",
"+	c #99A099",
"@	c #98A198",
"#	c #98A098",
"$	c #96A296",
"%	c #97A197",
"&	c #92A492",
"*	c #90A690",
"=	c #91A591",
"-	c #91A491",
";	c #93A193",
">	c #8FA68F",
",	c #8DA78D",
"'	c #85AC85",
")	c #84AC84",
"!	c #86AA86",
"~	c #82AE82",
"{	c #80AF80",
"]	c #9E9E9E",
"^	c #9C9E9C",
"/	c #9D9D9D",
"(	c #9C9C9C",
"_	c #9B9F9B",
":	c #9B9C9B",
"<	c #999D99",
"[	c #9B9B9B",
"}	c #9A9A9A",
"|	c #999999",
"1	c #989898",
"2	c #979797",
"3	c #969696",
"4	c #64C064",
"5	c #63C063",
"6	c #5DC45D",
"7	c #5FC35F",
"8	c #58C758",
"9	c #57C857",
"0	c #54CA54",
"a	c #55C955",
"b	c #52CB52",
"c	c #4AD04A",
"d	c #48D148",
"e	c #45D445",
"f	c #4ECE4E",
"g	c #4ECD4E",
"h	c #4DCE4D",
"i	c #4CCF4C",
"j	c #7EB07E",
"k	c #7CB17C",
"l	c #79B479",
"m	c #79B279",
"n	c #77B577",
"o	c #76B576",
"p	c #74B674",
"q	c #6DBB6D",
"r	c #6CBB6C",
"s	c #68BE68",
"t	c #69BD69",
"u	c #66BF66",
"v	c #2FE02F",
"w	c #2EE12E",
"x	c #28E528",
"y	c #28E428",
"z	c #23E823",
"A	c #22E822",
"B	c #39DB39",
"C	c #38DB38",
"D	c #3FD73F",
"E	c #3ED73E",
"F	c #34DE34",
"G	c #34DD34",
"H	c #32DF32",
"I	c #16F016",
"J	c #14F114",
"K	c #10F410",
"L	c #1AEE1A",
"M	c #18EF18",
"N	c #0BF80B",
"O	c #08F908",
"P	c #0BF70B",
"Q	c #05FB05",
"R	c #03FC03",
"S	c #01FE01",
"T	c #00FF00",
"U	c #00FE00",
"]]]]]////////&=+",
"]]]$l2333333:QTt",
"]]]kL<333333!TT'",
"]]]5T0[}}}}}qTR_",
"]]]dTx]]]]]]aTM]",
"]]]vTD]]]]]]BTG]",
"]]]IT9]]]]]]zTc]",
"]]#UTq]]]]]]OT4]",
"]]{TT)]]]]],TTj]",
"]]uTS+]]]]]pTT%]",
"]]iTJqFFFFg8TJ]]",
"]]+$@DTTTTE.$@]]",
"]]33|hHHHHrwNf]]",
"]/33}]]]]]]PT7]]",
"](33[]]]]]-TTn]]",
"]}33/]]]]]oTT>]]",
"]|33]]]]]]6TO]]]",
"]132]]]]]]eTA]]]",
"]33|]]]]]]yTC]]]",
"]32([[[[[(KTb]]]",
"(2(333333;TTs]]]",
"((2333333mTT~]]]",
"]////////+**^]]]"};
