/* XPM */
static char * h7Seg_21_xpm[] = {
"16 23 97 2",
"  	c None",
". 	c #9AA09A",
"+ 	c #99A099",
"@ 	c #98A198",
"# 	c #98A098",
"$ 	c #96A296",
"% 	c #97A197",
"& 	c #96A196",
"* 	c #92A492",
"= 	c #90A690",
"- 	c #91A591",
"; 	c #91A491",
"> 	c #8CA88C",
", 	c #89AA89",
"' 	c #8FA68F",
") 	c #8DA78D",
"! 	c #85AC85",
"~ 	c #84AC84",
"{ 	c #87AB87",
"] 	c #86AB86",
"^ 	c #82AE82",
"/ 	c #81AE81",
"( 	c #80AF80",
"_ 	c #9E9E9E",
": 	c #9C9E9C",
"< 	c #9B9F9B",
"[ 	c #9B9B9B",
"} 	c #999999",
"| 	c #989898",
"1 	c #969696",
"2 	c #64C064",
"3 	c #62C262",
"4 	c #63C163",
"5 	c #63C063",
"6 	c #5DC45D",
"7 	c #5FC35F",
"8 	c #58C758",
"9 	c #57C857",
"0 	c #54CA54",
"a 	c #55C955",
"b 	c #50CC50",
"c 	c #52CB52",
"d 	c #4BD04B",
"e 	c #4AD04A",
"f 	c #48D148",
"g 	c #45D445",
"h 	c #4ECE4E",
"i 	c #4FCD4F",
"j 	c #4CCF4C",
"k 	c #7FB07F",
"l 	c #7EB07E",
"m 	c #7DB17D",
"n 	c #7CB17C",
"o 	c #79B479",
"p 	c #7BB27B",
"q 	c #77B577",
"r 	c #76B576",
"s 	c #74B674",
"t 	c #7FAF7F",
"u 	c #6FBA6F",
"v 	c #6EBA6E",
"w 	c #6DBB6D",
"x 	c #68BE68",
"y 	c #69BD69",
"z 	c #66BF66",
"A 	c #2FE02F",
"B 	c #2EE12E",
"C 	c #2CE22C",
"D 	c #28E528",
"E 	c #28E428",
"F 	c #23E823",
"G 	c #22E822",
"H 	c #26E726",
"I 	c #39DB39",
"J 	c #38DB38",
"K 	c #3FD73F",
"L 	c #36DC36",
"M 	c #34DD34",
"N 	c #16F016",
"O 	c #14F114",
"P 	c #10F410",
"Q 	c #13F213",
"R 	c #1FEA1F",
"S 	c #1DEB1D",
"T 	c #1AEE1A",
"U 	c #1BED1B",
"V 	c #18EF18",
"W 	c #0BF80B",
"X 	c #08F908",
"Y 	c #0BF70B",
"Z 	c #06FA06",
"` 	c #05FB05",
" .	c #03FC03",
"..	c #02FD02",
"+.	c #01FE01",
"@.	c #00FF00",
"#.	c #00FE00",
"_ _ _ _ _ - - - - - - - . * - + ",
"_ _ _ $ o B @.@.@.@.@.@.p ` @.y ",
"_ _ _ n T k ..@.@.@.@.@.t @.@.! ",
"_ _ _ 5 @.0 v 3 3 3 3 z w @. .< ",
"_ _ _ f @.D _ _ _ _ _ _ a @.V _ ",
"_ _ _ A @.K _ _ _ _ _ _ I @.M _ ",
"_ _ _ N @.9 _ _ _ _ _ _ F @.e _ ",
"_ _ # #.@.w _ _ _ _ _ _ X @.2 _ ",
"_ _ ( @.@.~ _ _ _ _ _ ) @.@.l _ ",
"_ _ z @.+.+ _ _ _ _ _ s @.@.% _ ",
"_ _ j @.O [ | | | | } 8 @.O _ _ ",
"_ _ + $ @ } 1 1 1 1 | . $ @ _ _ ",
"_ _ R W i } | | | | [ B W h _ _ ",
"_ + +.@.2 _ _ _ _ _ _ Y @.7 _ _ ",
"_ / @.@.m _ _ _ _ _ ; @.@.q _ _ ",
"_ x @.@.& _ _ _ _ _ r @.@.' _ _ ",
"_ b @.Q _ _ _ _ _ _ 6 @.X _ _ _ ",
"_ L @.C _ _ _ _ _ _ g @.G _ _ _ ",
"_ S @.d _ _ _ _ _ _ E @.J _ _ _ ",
"_ Z D k 4 4 4 4 4 > P @.c _ _ _ ",
", U { Q @.@.@.@.@.r @.@.x _ _ _ ",
"] ) H @.@.@.@.@.@.u @.@.^ _ _ _ ",
"_ < = = = = = = = + = = : _ _ _ "};
