/* XPM */
static char * hClrUp_xpm[] = {
"38 38 75 1",
" 	c None",
".	c #000000",
"+	c #242424",
"@	c #484848",
"#	c #363636",
"$	c #070707",
"%	c #272727",
"&	c #141414",
"*	c #040404",
"=	c #282828",
"-	c #323232",
";	c #2D2D2D",
">	c #060606",
",	c #474747",
"'	c #D1D1D1",
")	c #BCBCBC",
"!	c #D2D2D2",
"~	c #868686",
"{	c #B7B7B7",
"]	c #616161",
"^	c #111111",
"/	c #BFBFBF",
"(	c #BBBBBB",
"_	c #A7A7A7",
":	c #D0D0D0",
"<	c #808080",
"[	c #030303",
"}	c #C3C3C3",
"|	c #848484",
"1	c #434343",
"2	c #B3B3B3",
"3	c #1D1D1D",
"4	c #C5C5C5",
"5	c #686868",
"6	c #121212",
"7	c #CDCDCD",
"8	c #4E4E4E",
"9	c #010101",
"0	c #6A6A6A",
"a	c #1A1A1A",
"b	c #E4E4E4",
"c	c #303030",
"d	c #020202",
"e	c #999999",
"f	c #6E6E6E",
"g	c #BDBDBD",
"h	c #878787",
"i	c #171717",
"j	c #E3E3E3",
"k	c #333333",
"l	c #080808",
"m	c #343434",
"n	c #0C0C0C",
"o	c #C7C7C7",
"p	c #717171",
"q	c #181818",
"r	c #585858",
"s	c #7F7F7F",
"t	c #838383",
"u	c #AFAFAF",
"v	c #1F1F1F",
"w	c #A5A5A5",
"x	c #B0B0B0",
"y	c #B8B8B8",
"z	c #575757",
"A	c #9B9B9B",
"B	c #BABABA",
"C	c #B1B1B1",
"D	c #404040",
"E	c #A1A1A1",
"F	c #3E3E3E",
"G	c #646464",
"H	c #989898",
"I	c #050505",
"J	c #0D0D0D",
"......................................",
"......................................",
"......................................",
"......................................",
"......................................",
"......................................",
"......................................",
"......................................",
"......................................",
"......................................",
"......................................",
"......................................",
"......................................",
"......................................",
"......................................",
"............+@#$.%&..*=--;>...........",
"...........,')!~${]..^/(_:<...........",
"..........[}|>12345..67890!...........",
"..........abc.d6*45..67efgh...........",
"..........ijk.lmn45..67efop...........",
"..........._eqr!34s%%378.tu...........",
"...........vwxyzdABCCDEF.GH...........",
"............IiJ.......................",
"......................................",
"......................................",
"......................................",
"......................................",
"......................................",
"......................................",
"......................................",
"......................................",
"......................................",
"......................................",
"......................................",
"......................................",
"......................................",
"......................................",
"......................................"};
