/* XPM */
static char * hCompActyOn_xpm[] = {
"32 32 42 1",
" 	c None",
".	c #00FF00",
"+	c #00B100",
"@	c #005500",
"#	c #008000",
"$	c #00F800",
"%	c #007200",
"&	c #00EA00",
"*	c #00B800",
"=	c #00A300",
"-	c #009500",
";	c #008E00",
">	c #00F100",
",	c #00C000",
"'	c #003900",
")	c #002B00",
"!	c #004000",
"~	c #000000",
"{	c #002400",
"]	c #002A00",
"^	c #00D400",
"/	c #006A00",
"(	c #006300",
"_	c #009C00",
":	c #00E300",
"<	c #00BF00",
"[	c #001500",
"}	c #005C00",
"|	c #00AA00",
"1	c #00DC00",
"2	c #000E00",
"3	c #004E00",
"4	c #00C600",
"5	c #007800",
"6	c #008700",
"7	c #004700",
"8	c #005600",
"9	c #00CE00",
"0	c #000700",
"a	c #003200",
"b	c #007900",
"c	c #00D500",
"................................",
"................................",
"................................",
"................................",
"................................",
"................................",
"................................",
"................................",
"................................",
"................................",
"......+@#$.+@%&.#*.=-&##;>......",
".....,'>@%,)>;!.~!.{]^{^/%......",
".....(_.:<(-..[:~!&']^].-}......",
".....@|...}=..{1~/#/]^2@}^......",
"....._3.;}|3.4).~=[_]^].........",
"......53@&.678^.@:@1%:%.........",
"................................",
".......>#:..+@#$-###*_.9_.......",
".......=06.,'>@%1;7^&2:!|.......",
".......3#a.(_.:<.|@..#3)........",
"......&0929@|....|@..>2|........",
"......-!#7b_3.;}.|@...]^........",
"......6,.cb.53@&.4;...%:........",
"................................",
"................................",
"................................",
"................................",
"................................",
"................................",
"................................",
"................................",
"................................"};
