/* XPM */
static char * hFreeOn_xpm[] = {
"42 20 25 1",
" 	c None",
".	c #FFFFFF",
"+	c #EAEAEA",
"@	c #D4D4D4",
"#	c #F1F1F1",
"$	c #E3E3E3",
"%	c #808080",
"&	c #2A2A2A",
"*	c #555555",
"=	c #AAAAAA",
"-	c #1C1C1C",
";	c #242424",
">	c #8E8E8E",
",	c #C6C6C6",
"'	c #393939",
")	c #6A6A6A",
"!	c #959595",
"~	c #5C5C5C",
"{	c #474747",
"]	c #F8F8F8",
"^	c #DCDCDC",
"/	c #0E0E0E",
"(	c #151515",
"_	c #727272",
":	c #B8B8B8",
"..........................................",
"..........................................",
"..........................................",
"..........................................",
"..........................................",
"..........................................",
"..........................................",
"...........+@@@#@@$.#@@@#$@@@.............",
"...........%&**=-*;>=-**,*'**.............",
"...........%)@$=*.!~={@@]*>@^.............",
"...........%&*>=/(&@=-**$*'*_.............",
"...........%%..=*+-,=*...*=...............",
"...........!!..:_.=*:&&&!_&&&^............",
"..........................................",
"..........................................",
"..........................................",
"..........................................",
"..........................................",
"..........................................",
".........................................."};
