/* XPM */
static char * hGimbalLockOff_xpm[] = {
"42 20 45 1",
" 	c None",
".	c #CCCCCC",
"+	c #B9B9B9",
"@	c #9C9C9C",
"#	c #A4A4A4",
"$	c #C6C6C6",
"%	c #A6A6A6",
"&	c #B7B7B7",
"*	c #B0B0B0",
"=	c #ACACAC",
"-	c #A8A8A8",
";	c #AEAEAE",
">	c #BBBBBB",
",	c #8D8D8D",
"'	c #A0A0A0",
")	c #959595",
"!	c #808080",
"~	c #939393",
"{	c #8B8B8B",
"]	c #8C8C8C",
"^	c #C0C0C0",
"/	c #AAAAAA",
"(	c #C8C8C8",
"_	c #848484",
":	c #8F8F8F",
"<	c #919191",
"[	c #B2B2B2",
"}	c #B1B1B1",
"|	c #C2C2C2",
"1	c #9A9A9A",
"2	c #979797",
"3	c #868686",
"4	c #AFAFAF",
"5	c #A2A2A2",
"6	c #9E9E9E",
"7	c #C4C4C4",
"8	c #BEBEBE",
"9	c #CACACA",
"0	c #BFBFBF",
"a	c #BDBDBD",
"b	c #B3B3B3",
"c	c #888888",
"d	c #8A8A8A",
"e	c #828282",
"f	c #B5B5B5",
"..........................................",
"..........................................",
"..........................................",
"........+@#$.%.%&.*=.%%-$..;&.$=..........",
".......>,$').!.!~.{].!^/).(_:.^]..........",
".......'=..^.!.!~$<].![#@.}@{|^]..........",
".......1*.1!.!.!'%'].![-1.~/1#^]..........",
".......;2.&!.!.!*34].!.|_$3%5{^]..........",
"........-)6%.1.171|5.111++-..68111>.......",
"..........................................",
"..........................................",
"...........%....=1%9.|66|$=.0-............",
"...........!...=296'9{abc^]${&............",
"...........!...<+.$_&)..[8d,}.............",
"...........!...:a.9e[1...^e21.............",
"...........!...%#.;1$3$7_8]9</............",
"...........111b9'2@$.f2)+75.7@$...........",
"..........................................",
"..........................................",
".........................................."};
