/* XPM */
static char * hKeyRelOn_xpm[] = {
"42 20 34 1",
" 	c None",
".	c #FFFFFF",
"+	c #D4D4D4",
"@	c #F1F1F1",
"#	c #E3E3E3",
"$	c #DCDCDC",
"%	c #000000",
"&	c #6A6A6A",
"*	c #474747",
"=	c #F8F8F8",
"-	c #555555",
";	c #8E8E8E",
">	c #959595",
",	c #404040",
"'	c #393939",
")	c #0E0E0E",
"!	c #808080",
"~	c #EAEAEA",
"{	c #646464",
"]	c #AAAAAA",
"^	c #B1B1B1",
"/	c #151515",
"(	c #D5D5D5",
"_	c #CECECE",
":	c #1C1C1C",
"<	c #070707",
"[	c #5C5C5C",
"}	c #727272",
"|	c #2A2A2A",
"1	c #323232",
"2	c #4E4E4E",
"3	c #B8B8B8",
"4	c #636363",
"5	c #9C9C9C",
"..........................................",
"..........................................",
"..........................................",
"..........................................",
"..........................................",
"..........................................",
"..........................................",
".......+..+@+++#$@.@$..#++@.#+++.+........",
".......%.&*=%--;>,.*>..-'-)$-'--.%........",
".......%!'=.%++~.'{'...-].,^-;+$.%........",
".......%'/~.%--].(%_...-:<[=-'-}.%........",
".......%=&{.%.....%....-]]|=-]...%........",
".......|.@1_|||2..|....}3.45}|||$|||>.....",
"..........................................",
"..........................................",
"..........................................",
"..........................................",
"..........................................",
"..........................................",
".........................................."};
