/* XPM */
static char * hNoAttOn_xpm[] = {
"42 20 33 1",
" 	c None",
".	c #FFFFFF",
"+	c #AAAAAA",
"@	c #808080",
"#	c #878787",
"$	c #555555",
"%	c #636363",
"&	c #DCDCDC",
"*	c #8E8E8E",
"=	c #C6C6C6",
"-	c #000000",
";	c #9C9C9C",
">	c #404040",
",	c #D4D4D4",
"'	c #242424",
")	c #F1F1F1",
"!	c #1C1C1C",
"~	c #161616",
"{	c #B1B1B1",
"]	c #E3E3E3",
"^	c #6A6A6A",
"/	c #323232",
"(	c #A3A3A3",
"_	c #5C5C5C",
":	c #2A2A2A",
"<	c #959595",
"[	c #151515",
"}	c #393939",
"|	c #070707",
"1	c #4E4E4E",
"2	c #D5D5D5",
"3	c #CECECE",
"4	c #B8B8B8",
"..........................................",
"..........................................",
"..........................................",
"..........................................",
"..........................................",
"..........................................",
"..........................................",
"........+@.++.#$%&....#*.=$$$*$$$$........",
"........@-=@@;>,+'...)!~)),'{],^^,........",
"........@>/@@$(..',..;%_;..:,..@@.........",
"........@@_!@%<..[]../}//..:,..@@.........",
"........@@]|@=!@$1..2',,!3.:,..@@.........",
"........,,.=,.]+4...&=..=,.4)..,,.........",
"..........................................",
"..........................................",
"..........................................",
"..........................................",
"..........................................",
"..........................................",
".........................................."};
