/* XPM */
static char * hNoDapOnO_xpm[] = {
"42 20 36 1",
" 	c None",
".	c #FFD000",
"+	c #D4AD00",
"@	c #F8CA00",
"#	c #DCB300",
"$	c #EABE00",
"%	c #F1C400",
"&	c #000000",
"*	c #957900",
"=	c #725C00",
"-	c #322800",
";	c #554500",
">	c #241D00",
",	c #E3B900",
"'	c #806800",
")	c #2A2200",
"!	c #1C1700",
"~	c #B19000",
"{	c #4E3F00",
"]	c #0E0C00",
"^	c #876E00",
"/	c #6A5600",
"(	c #8E7400",
"_	c #4E4000",
":	c #5C4B00",
"<	c #AA8A00",
"[	c #645100",
"}	c #CEA700",
"|	c #070600",
"1	c #151100",
"2	c #2B2200",
"3	c #B89600",
"4	c #C09C00",
"5	c #392E00",
"6	c #CEA800",
"7	c #473A00",
"..........................................",
"..........................................",
"..........................................",
"..........................................",
"..........................................",
"..........................................",
"..........................................",
"........+@.+..#+@...$++@..@+..$++%........",
"........&*.&.=-;>,..');!#.~&~.'){!,.......",
"........&!$&$]@.^/..''.(/._:_.''.{<.......",
"........&([&+)..<;..''.<;,]}|,'1>-%.......",
"........&@2&@]+.;^..''./^^-;)'''..........",
"........).3).45)/@..*))[@{6.67**..........",
"..........................................",
"..........................................",
"..........................................",
"..........................................",
"..........................................",
"..........................................",
".........................................."};
