/* XPM */
static char * hPrioDispOnO_xpm[] = {
"42 20 42 1",
" 	c None",
".	c #FFD000",
"+	c #D4AD00",
"@	c #DCB300",
"#	c #F1C400",
"$	c #E3B900",
"%	c #F8CA00",
"&	c #000000",
"*	c #554500",
"=	c #2B2200",
"-	c #786200",
";	c #AA8A00",
">	c #1C1700",
",	c #241D00",
"'	c #8E7400",
")	c #2A2200",
"!	c #4E3F00",
"~	c #403400",
"{	c #CEA700",
"]	c #957900",
"^	c #5C4B00",
"/	c #322800",
"(	c #BF9C00",
"_	c #161100",
":	c #9C7F00",
"<	c #0E0C00",
"[	c #151100",
"}	c #806800",
"|	c #EABE00",
"1	c #C6A200",
"2	c #B19000",
"3	c #B89600",
"4	c #725C00",
"5	c #876E00",
"6	c #A38500",
"7	c #473A00",
"8	c #392E00",
"9	c #4E4000",
"0	c #6A5600",
"a	c #796200",
"b	c #8E7300",
"c	c #645100",
"..........................................",
"..........................................",
"..........................................",
".............++@.#++$.#$.%+@..............",
".............&*=-;>*,';*#)!~*.............",
".............&.{);*.]^;*]^../(............",
".............&)_:;<[)+;*}}..*;............",
".............&...;*|>1;*2/%|[@............",
".............)...34.;*34.5)/6.............",
"..........................................",
"..........................................",
".............|++%.||.$+#.@++..............",
".............})*>@}}2,*[|)789.............",
".............}}.'0}}'832$)+%&.............",
".............}}.;*}}%'~[$),[a.............",
".............}}.05}}}b.82)+...............",
".............]))c%]]+8)^%!@...............",
"..........................................",
"..........................................",
".........................................."};
