/* XPM */
static char * hProgOn_xpm[] = {
"42 20 35 1",
" 	c None",
".	c #FFD000",
"+	c #BF9C00",
"@	c #806800",
"#	c #AA8A00",
"$	c #957900",
"%	c #9C7F00",
"&	c #F8CA00",
"*	c #554500",
"=	c #D4AD00",
"-	c #635100",
";	c #6A5600",
">	c #DCB300",
",	c #CEA700",
"'	c #2B2200",
")	c #C6A200",
"!	c #2A2200",
"~	c #B19000",
"{	c #1C1700",
"]	c #B89600",
"^	c #725C00",
"/	c #403400",
"(	c #E3B900",
"_	c #241D00",
":	c #322800",
"<	c #0E0C00",
"[	c #EABE00",
"}	c #392E00",
"|	c #786200",
"1	c #070600",
"2	c #A38500",
"3	c #D5AD00",
"4	c #4E3F00",
"5	c #473A00",
"6	c #8E7300",
"..........................................",
"..........................................",
"..........................................",
"..........................................",
"..........................................",
"..........................................",
"..........................................",
"..........+@@#.$@@%.&@*$..=-;>............",
"..........@;,')!~,{];^&/$(_=${............",
"..........@@./~!~=:)<[.+}$;..>&...........",
"..........@!*^&!;|_&1&.,:@|.^<=...........",
"..........@@...!=.!=*2.^@)'&=<=...........",
"..........##...^(.^3[*4^&.25*6(...........",
"..........................................",
"..........................................",
"..........................................",
"..........................................",
"..........................................",
"..........................................",
".........................................."};
