/* XPM */
static char * hRestartOff_xpm[] = {
"42 20 43 1",
" 	c None",
".	c #CCCCCC",
"+	c #B9B9B9",
"@	c #A6A6A6",
"#	c #A8A8A8",
"$	c #C6C6C6",
"%	c #BBBBBB",
"&	c #9C9C9C",
"*	c #9E9E9E",
"=	c #C2C2C2",
"-	c #AAAAAA",
";	c #ACACAC",
">	c #AEAEAE",
",	c #A0A0A0",
"'	c #C0C0C0",
")	c #CACACA",
"!	c #888888",
"~	c #BDBDBD",
"{	c #B1B1B1",
"]	c #939393",
"^	c #808080",
"/	c #979797",
"(	c #828282",
"_	c #8C8C8C",
":	c #B5B5B5",
"<	c #959595",
"[	c #A4A4A4",
"}	c #A2A2A2",
"|	c #999999",
"1	c #B2B2B2",
"2	c #868686",
"3	c #B7B7B7",
"4	c #C8C8C8",
"5	c #8F8F8F",
"6	c #9A9A9A",
"7	c #8D8D8D",
"8	c #C4C4C4",
"9	c #8B8B8B",
"0	c #8A8A8A",
"a	c #848484",
"b	c #B3B3B3",
"c	c #AFAFAF",
"d	c #BFBFBF",
"..........................................",
"..........................................",
"..........................................",
"..........................................",
"..........................................",
"..........................................",
"..........................................",
"....+@@#$+@@@$%&*=+@@@+.%-..;@@>$@@@;.....",
"....@,'&*@,'')!~{]$'^'$./(=._:~!:'<-=.....",
"....@,'[}@|11.2}3'..^..42}#._:'5%.61......",
"....@]@7+@|11.8-<5..^..;<>9._,[0).61......",
"....@@.@@@@..)5$$a..^..],@!~_'._'.61......",
"....bb.bcb666%{</{..6.)6).>:}8.}d.-%......",
"..........................................",
"..........................................",
"..........................................",
"..........................................",
"..........................................",
"..........................................",
".........................................."};
