/* XPM */
static char * hRsetUp_xpm[] = {
"38 38 89 1",
" 	c None",
".	c #000000",
"+	c #232323",
"@	c #323232",
"#	c #2F2F2F",
"$	c #0B0B0B",
"%	c #101010",
"&	c #3F3F3F",
"*	c #464646",
"=	c #1F1F1F",
"-	c #141414",
";	c #292929",
">	c #191919",
",	c #303030",
"'	c #0D0D0D",
")	c #A8A8A8",
"!	c #C7C7C7",
"~	c #A5A5A5",
"{	c #9A9A9A",
"]	c #181818",
"^	c #ACACAC",
"/	c #B5B5B5",
"(	c #A4A4A4",
"_	c #242424",
":	c #5E5E5E",
"<	c #DEDEDE",
"[	c #898989",
"}	c #525252",
"|	c #A9A9A9",
"1	c #DCDCDC",
"2	c #C0C0C0",
"3	c #A0A0A0",
"4	c #2C2C2C",
"5	c #787878",
"6	c #4B4B4B",
"7	c #D5D5D5",
"8	c #4D4D4D",
"9	c #DBDBDB",
"0	c #3D3D3D",
"a	c #070707",
"b	c #949494",
"c	c #454545",
"d	c #656565",
"e	c #C9C9C9",
"f	c #0C0C0C",
"g	c #C2C2C2",
"h	c #5F5F5F",
"i	c #B1B1B1",
"j	c #6C6C6C",
"k	c #AEAEAE",
"l	c #A1A1A1",
"m	c #1A1A1A",
"n	c #AFAFAF",
"o	c #D1D1D1",
"p	c #696969",
"q	c #121212",
"r	c #EDEDED",
"s	c #717171",
"t	c #B6B6B6",
"u	c #939393",
"v	c #080808",
"w	c #3A3A3A",
"x	c #D6D6D6",
"y	c #7B7B7B",
"z	c #D2D2D2",
"A	c #2B2B2B",
"B	c #1C1C1C",
"C	c #595959",
"D	c #333333",
"E	c #B4B4B4",
"F	c #414141",
"G	c #828282",
"H	c #272727",
"I	c #222222",
"J	c #040404",
"K	c #8F8F8F",
"L	c #434343",
"M	c #A7A7A7",
"N	c #171717",
"O	c #747474",
"P	c #BBBBBB",
"Q	c #B0B0B0",
"R	c #252525",
"S	c #4F4F4F",
"T	c #C4C4C4",
"U	c #9C9C9C",
"V	c #0A0A0A",
"W	c #989898",
"X	c #0F0F0F",
"......................................",
"......................................",
"......................................",
"......................................",
"......................................",
"......................................",
"......................................",
"......................................",
"......................................",
"......................................",
"......................................",
"......................................",
"......................................",
"......................................",
"......................................",
".........+@@#$.%&*=.-@@@;>@@@,'.......",
".........)!~!{]^/(!_:<~~[}|1234.......",
"........./5.67890abcde....fgh.........",
"........./ijklmnonpqdr^^s.fgh.........",
"........./ijtuv=wpxydzAAB.fgh.........",
"........./5.CeDEF]iGdoHHIJfgh.........",
".........Kh.LMNOPQ)RSTiiU-VW6.........",
"................XNJ...................",
"......................................",
"......................................",
"......................................",
"......................................",
"......................................",
"......................................",
"......................................",
"......................................",
"......................................",
"......................................",
"......................................",
"......................................",
"......................................",
"......................................",
"......................................"};
