/* XPM */
static char * hSeparatorOn_xpm[] = {
"96 10 3 1",
" 	c None",
".	c #9E9E9E",
"+	c #21EB21",
"................................................................................................",
"................................................................................................",
"................................................................................................",
"................................................................................................",
"...++++++++++++++++++++++++++++++++++++++++++++++++++++++++++++++++++++++++++++++++++++++++++...",
"...++++++++++++++++++++++++++++++++++++++++++++++++++++++++++++++++++++++++++++++++++++++++++...",
"................................................................................................",
"................................................................................................",
"................................................................................................",
"................................................................................................"};
