/* XPM */
static char * hStbyOn_xpm[] = {
"42 20 33 1",
" 	c None",
".	c #FFFFFF",
"+	c #A3A3A3",
"@	c #555555",
"#	c #5C5C5C",
"$	c #D4D4D4",
"%	c #8E8E8E",
"&	c #C6C6C6",
"*	c #AAAAAA",
"=	c #CECECE",
"-	c #6A6A6A",
";	c #E3E3E3",
">	c #636363",
",	c #F8F8F8",
"'	c #070707",
")	c #B1B1B1",
"!	c #242424",
"~	c #F1F1F1",
"{	c #000000",
"]	c #BFBFBF",
"^	c #393939",
"/	c #9C9C9C",
"(	c #151515",
"_	c #2A2A2A",
":	c #404040",
"<	c #DCDCDC",
"[	c #161616",
"}	c #323232",
"|	c #B8B8B8",
"1	c #787878",
"2	c #1C1C1C",
"3	c #4E4E4E",
"4	c #808080",
"..........................................",
"..........................................",
"..........................................",
"..........................................",
"..........................................",
"..........................................",
"..........................................",
"............+@#$%@@@&@@@*=-.;>,...........",
"............'&%>;)!$~{$]'.^/@%............",
"............#(#$.$_..{@:@.<[}.............",
"...........~|;1^.$_..{$=2;.3+.............",
"...........,(-@#.$_..{41[~.@*.............",
"............;*),.~|..***;..&;.............",
"..........................................",
"..........................................",
"..........................................",
"..........................................",
"..........................................",
"..........................................",
".........................................."};
