/* XPM */
static char * hTrackerOff_xpm[] = {
"42 20 38 1",
" 	c None",
".	c #CCCCCC",
"+	c #CACACA",
"@	c #C0C0C0",
"#	c #BBBBBB",
"$	c #9A9A9A",
"%	c #848484",
"&	c #959595",
"*	c #AAAAAA",
"=	c #919191",
"-	c #868686",
";	c #B1B1B1",
">	c #808080",
",	c #C2C2C2",
"'	c #8F8F8F",
")	c #A2A2A2",
"!	c #8B8B8B",
"~	c #B2B2B2",
"{	c #888888",
"]	c #B9B9B9",
"^	c #939393",
"/	c #8C8C8C",
"(	c #A6A6A6",
"_	c #979797",
":	c #A8A8A8",
"<	c #9C9C9C",
"[	c #ACACAC",
"}	c #B7B7B7",
"|	c #8A8A8A",
"1	c #C6C6C6",
"2	c #8D8D8D",
"3	c #999999",
"4	c #BDBDBD",
"5	c #A4A4A4",
"6	c #C4C4C4",
"7	c #B0B0B0",
"8	c #C8C8C8",
"9	c #B3B3B3",
"..........................................",
"..........................................",
"..........................................",
"..........................................",
"..........................................",
"..........................................",
"..........................................",
"...................+@+....................",
"...#$%&*$=$-#.;>,.,')!,$~,{]$=$$.>$^'+....",
"...../@.$~.)(._':.<;.(*$['}.$~...>..{@....",
"...../@.$=$|,1-]2./@...$%2+.$=3).>$_^.....",
"...../@.$~.=}[-$>4^}.]}$[$5.$~...>.6%.....",
"...../@.$~.$7^}.55}'72#$~8|9$3((1>..>+....",
".....,+.68.61@+.86.,~6.68.1,6@@@+@..@+....",
"..........................................",
"..........................................",
"..........................................",
"..........................................",
"..........................................",
".........................................."};
