/* XPM */
static char * hUplinkActyOnO_xpm[] = {
"42 20 46 1",
" 	c None",
".	c #FFD000",
"+	c #BF9C00",
"@	c #806800",
"#	c #AA8A00",
"$	c #957900",
"%	c #EABE00",
"&	c #A38500",
"*	c #D4AD00",
"=	c #B19000",
"-	c #6A5600",
";	c #CEA700",
">	c #2B2200",
",	c #C6A200",
"'	c #2A2200",
")	c #070600",
"!	c #D5AD00",
"~	c #554500",
"{	c #B29000",
"]	c #403400",
"^	c #392E00",
"/	c #473A00",
"(	c #161100",
"_	c #725C00",
":	c #F8CA00",
"<	c #4E3F00",
"[	c #8E7400",
"}	c #635100",
"|	c #E3B900",
"1	c #0E0C00",
"2	c #645100",
"3	c #8E7300",
"4	c #AA8B00",
"5	c #F1C400",
"6	c #B89600",
"7	c #9C7F00",
"8	c #CEA800",
"9	c #876E00",
"0	c #C09C00",
"a	c #DCB300",
"b	c #EABF00",
"c	c #4E4000",
"d	c #322800",
"e	c #796200",
"f	c #5C4B00",
"g	c #786200",
"..........................................",
"..........................................",
"..........................................",
"........++.+++@@#.$%..+++&.*#++.#=........",
"........@@.@@@-;>,'*..@@@)!#~@@{'%........",
"........@@.@@@@.]='*..@@@^]#~@/(%.........",
"........@@.@@@'~_:'*..@@@@~<~@''#.........",
"........[}.}[@@...'*..@@@@|1~@@*(*........",
"........:2<2:##..._~~3####.&3##.4@........",
"..........................................",
"..........................................",
"............5@|..=~@:$@@@67.87............",
"............&)9.0^5~_a3/*b1|]#............",
"............c@d.}7.|+.#~..@c>.............",
"...........%);18~#....#~..51#.............",
"...........$]@/e7c.[f.#~...'*.............",
"...........90.!e.g<~%.,3..._|.............",
"..........................................",
"..........................................",
".........................................."};
