/* XPM */
static char * hUplinkActyOn_xpm[] = {
"42 20 40 1",
" 	c None",
".	c #FFFFFF",
"+	c #AAAAAA",
"@	c #555555",
"#	c #878787",
"$	c #727272",
"%	c #E3E3E3",
"&	c #8E8E8E",
"*	c #C6C6C6",
"=	c #9C9C9C",
"-	c #F8F8F8",
";	c #6A6A6A",
">	c #B8B8B8",
",	c #808080",
"'	c #CECECE",
")	c #323232",
"!	c #2A2A2A",
"~	c #D4D4D4",
"{	c #0E0E0E",
"]	c #A3A3A3",
"^	c #474747",
"/	c #242424",
"(	c #404040",
"_	c #5C5C5C",
":	c #070707",
"<	c #EAEAEA",
"[	c #B1B1B1",
"}	c #1C1C1C",
"|	c #636363",
"1	c #C0C0C0",
"2	c #000000",
"3	c #F1F1F1",
"4	c #BFBFBF",
"5	c #DCDCDC",
"6	c #959595",
"7	c #787878",
"8	c #161616",
"9	c #2B2B2B",
"0	c #4E4E4E",
"a	c #D5D5D5",
"..........................................",
"..........................................",
"..........................................",
"........++.+++@@#.$%..&*&=.&*&*-;>........",
"........,,.,,,;')>!~..@+@{%@+@]^;.........",
"........,,.,,,@]/*!~..@+@(_@+@!:<.........",
"........,,.,,,(,[.!~..@+@+)}+@|$_.........",
"........>/,!>,,...!;,+@+@+12+@+3}>........",
".........*+*.~~...>++**%*%.>%*%.'4........",
"..........................................",
"..........................................",
"............5@%..#@$<$@@@6#.*7............",
"............,8,.=^~;=5&^~<}*9>............",
"............}1}.@+....+@..>{_.............",
"...........[{@:[|=.''.+@.../'.............",
"...........@&~#0*/,!+.+@...!~.............",
"...........[3.3+.a+*..%*...>3.............",
"..........................................",
"..........................................",
".........................................."};
