/* XPM */
static char * hVelOff_xpm[] = {
"42 20 26 1",
" 	c None",
".	c #CCCCCC",
"+	c #C6C6C6",
"@	c #C3C3C3",
"#	c #BFBFBF",
"$	c #C8C8C8",
"%	c #B9B9B9",
"&	c #8E8E8E",
"*	c #C1C1C1",
"=	c #868686",
"-	c #B2B2B2",
";	c #888888",
">	c #999999",
",	c #BBBBBB",
"'	c #A8A8A8",
")	c #A0A0A0",
"!	c #959595",
"~	c #CACACA",
"{	c #A4A4A4",
"]	c #BDBDBD",
"^	c #8A8A8A",
"/	c #ACACAC",
"(	c #B7B7B7",
"_	c #8C8C8C",
":	c #A2A2A2",
"<	c #979797",
"..........................................",
"..........................................",
"..........................................",
"..........................................",
"..........................................",
"..........................................",
"..........................................",
".............+@..#+###$@$.................",
".............%&.*=-;>>,>-.................",
"..............=#')-!##~>-.................",
"..............{{&]-;>>@>-.................",
"..............]=^.->...>-.................",
"...............!/.(___/:__<...............",
"..........................................",
"..........................................",
"..........................................",
"..........................................",
"..........................................",
"..........................................",
".........................................."};
