/* XPM */
static char * ProgOff_xpm[] = {
"84 40 11 1",
" 	g None",
".	g #CCCCCC",
"+	g #BBBBBB",
"@	g #B3B3B3",
"#	g #C4C4C4",
"$	g #808080",
"%	g #898989",
"&	g #AAAAAA",
"*	g #999999",
"=	g #A2A2A2",
"-	g #919191",
"....................................................................................",
"....................................................................................",
"....................................................................................",
"....................................................................................",
"....................................................................................",
"....................................................................................",
"....................................................................................",
"....................................................................................",
"....................................................................................",
"....................................................................................",
"....................................................................................",
"....................................................................................",
"....................................................................................",
"....................................................................................",
"...........................................+@@#.......#@@...........................",
".....................$$$$$%&..*$$$$$$=...#-$$$$=.....*$$$$=.........................",
".....................$$@@&%$+.*$=@@&$$&..%$&.#%$=...*$*.@$$=........................",
".....................$$...&$*.*$@...=$*.&$-...#$$#.&$-...@$$........................",
".....................$$...@$*.*$@...@$*.-$@....*$&.*$@....+@#.......................",
".....................$$...*$=.*$=@@@%$+.$$.....@$*.$$...............................",
".....................$$$$$$%#.*$$$$$$&..$$.....@$*.$$...*$$$@.......................",
".....................$$@@@@...*$@..#$$#.%$#....&$=.$$#..+@-$@.......................",
".....................$$.......*$@...*$@.=$&....-$+.*$&....-$@.......................",
".....................$$.......*$@...*$@.#$%#..&$-..+$%#..*$$@.......................",
".....................$$.......*$@...*$&..@$$*-$%#...@$$*-$&$@.......................",
".....................@@.......+@#...+@+...#=**@......#=**+.@#.......................",
"....................................................................................",
"....................................................................................",
"....................................................................................",
"....................................................................................",
"....................................................................................",
"....................................................................................",
"....................................................................................",
"....................................................................................",
"....................................................................................",
"....................................................................................",
"....................................................................................",
"....................................................................................",
"....................................................................................",
"...................................................................................."};
