/* XPM */
static char * Separator_xpm[] = {
"192 19 3 1",
" 	c None",
".	c #9E9E9E",
"+	c #1C5612",
"................................................................................................................................................................................................",
"................................................................................................................................................................................................",
"................................................................................................................................................................................................",
"................................................................................................................................................................................................",
"................................................................................................................................................................................................",
"................................................................................................................................................................................................",
"................................................................................................................................................................................................",
"................................................................................................................................................................................................",
"......++++++++++++++++++++++++++++++++++++++++++++++++++++++++++++++++++++++++++++++++++++++++++++++++++++++++++++++++++++++++++++++++++++++++++++++++++++++++++++++++++++++++++++++++++++......",
"......++++++++++++++++++++++++++++++++++++++++++++++++++++++++++++++++++++++++++++++++++++++++++++++++++++++++++++++++++++++++++++++++++++++++++++++++++++++++++++++++++++++++++++++++++++......",
"......++++++++++++++++++++++++++++++++++++++++++++++++++++++++++++++++++++++++++++++++++++++++++++++++++++++++++++++++++++++++++++++++++++++++++++++++++++++++++++++++++++++++++++++++++++......",
"................................................................................................................................................................................................",
"................................................................................................................................................................................................",
"................................................................................................................................................................................................",
"................................................................................................................................................................................................",
"................................................................................................................................................................................................",
"................................................................................................................................................................................................",
"................................................................................................................................................................................................",
"................................................................................................................................................................................................"};
