/* XPM */
static char * SeparatorOn_xpm[] = {
"192 19 3 1",
" 	c None",
".	c #9E9E9E",
"+	c #00FF00",
"................................................................................................................................................................................................",
"................................................................................................................................................................................................",
"................................................................................................................................................................................................",
"................................................................................................................................................................................................",
"................................................................................................................................................................................................",
"................................................................................................................................................................................................",
"................................................................................................................................................................................................",
"................................................................................................................................................................................................",
"......++++++++++++++++++++++++++++++++++++++++++++++++++++++++++++++++++++++++++++++++++++++++++++++++++++++++++++++++++++++++++++++++++++++++++++++++++++++++++++++++++++++++++++++++++++......",
"......++++++++++++++++++++++++++++++++++++++++++++++++++++++++++++++++++++++++++++++++++++++++++++++++++++++++++++++++++++++++++++++++++++++++++++++++++++++++++++++++++++++++++++++++++++......",
"......++++++++++++++++++++++++++++++++++++++++++++++++++++++++++++++++++++++++++++++++++++++++++++++++++++++++++++++++++++++++++++++++++++++++++++++++++++++++++++++++++++++++++++++++++++......",
"................................................................................................................................................................................................",
"................................................................................................................................................................................................",
"................................................................................................................................................................................................",
"................................................................................................................................................................................................",
"................................................................................................................................................................................................",
"................................................................................................................................................................................................",
"................................................................................................................................................................................................",
"................................................................................................................................................................................................"};
