/* XPM */
static char * StbyOff_xpm[] = {
"84 40 11 1",
" 	g None",
".	g #CCCCCC",
"+	g #B3B3B3",
"@	g #898989",
"#	g #808080",
"$	g #999999",
"%	g #A2A2A2",
"&	g #AAAAAA",
"*	g #C4C4C4",
"=	g #919191",
"-	g #BBBBBB",
"....................................................................................",
"....................................................................................",
"....................................................................................",
"....................................................................................",
"....................................................................................",
"....................................................................................",
"....................................................................................",
"....................................................................................",
"....................................................................................",
"....................................................................................",
"....................................................................................",
"....................................................................................",
"....................................................................................",
"....................................................................................",
"..........................+++.......................................................",
"........................+@###@+.+#######$.$#####%..&#@...&#@........................",
"........................@#+.&##.*++%#=++-.$#%++=#%..@#+..@#-........................",
".......................+#=...$#+...+#$....$#+..*##..&#=.&#=.........................",
".......................+#@*..*+*...+#$....$#+..*#@...@#-=#-.........................",
".......................*@##=$+.....+#$....$#=$$@#+...&#=#=..........................",
"........................*%@###@*...+#$....$#=$$@@+....@##-..........................",
"............................+@#%...+#$....$#+...@#*...&#=...........................",
".......................+$&...+#$...+#$....$#+...$#+...+#$...........................",
".......................-#@*..$#&...+#$....$#+..-##*...+#$...........................",
"........................$#@$=#@*...+#$....$######+....+#$...........................",
".........................-$$$+.....*+-....-+++++*.....*+-...........................",
"....................................................................................",
"....................................................................................",
"....................................................................................",
"....................................................................................",
"....................................................................................",
"....................................................................................",
"....................................................................................",
"....................................................................................",
"....................................................................................",
"....................................................................................",
"....................................................................................",
"....................................................................................",
"....................................................................................",
"...................................................................................."};
